<svg xmlns="http://www.w3.org/2000/svg" width="589" height="116" fill="none"><path fill="#541401" d="M11.206 50.472c-1.357-.02-1.357-.02-2.033.232-.094.037-.206.109-.29.1a2.153 2.153 0 0 0-1.298.263c-.271.15-.697.044-1.016.118-.103.027-.178.089-.281.125-.648.206-.761.187-.756-.188.005-.36-.475-.34-.966-.38-.443-.035-.492-.191-.173-.337l.825-.38c.726.088 1.138-.155 1.578-.368.356-.171.731-.338 1.097-.504-.148-.51.568-.57 1.33-.614a.44.44 0 0 0 .263-.125c.046-.051.017-.122.384-.177.716.012 1.084.038 1.423.01.16-.013.3-.126.421-.203a.52.52 0 0 0-.227-.12c-.462-.03-.934-.06-1.405-.044-.188.007-.394.106-.553.179-.356.166-.347.171.34.178-1.224-.01-1.233-.006-1.981-.29a1.648 1.648 0 0 0-.652-.125c-.866 0-1.743-.02-2.61-.046a.396.396 0 0 1-.246-.129c-.058-.09.091-.203.365-.217.706-.038 1.5.135 2.032-.257.14-.102.394-.09.668-.083.612.013 1.224.006 1.837-.007a.414.414 0 0 0 .262-.124c.019-.03-.077-.1-.162-.125-.435-.157-.97-.034-1.414-.105-.651-.104-1.051-.47-1.908-.399-.602.048-1.243.01-1.866-.024-.198-.012-.462-.106-.539-.196-.086-.1-.098-.298.024-.35.544-.22.879-.624 1.803-.538.281-.115.534-.29.854-.325.47-.056.98-.01 1.47-.011.244.002.499.019.744.006a.674.674 0 0 0 .29-.1c.337-.212.75-.277 1.298-.253.273.012.505-.25.418-.446-.048-.1-.229-.266-.37-.27-1.112-.037-2.243-.044-3.355-.062.009-.06-.04-.141.026-.177.225-.135.487-.254.74-.379-.228-.18-.605-.155-.963-.186-.415-.036-.455-.198-.145-.343.093-.042.178-.089.271-.125.282-.105.45-.284.92-.26.613.034 1.245.047 1.857.03.593-.017 1.255.162 1.77-.087.384-.187.77-.288 1.307-.238.076.004.207-.069.263-.12.037-.03.036-.102-.011-.127-.418-.223-.882-.43-1.252-.67-.332-.223-.85-.177-1.266-.273-.349-.077-.293-.149-.021-.264.468-.193.45-.213-.006-.507-.152-.1-.163-.2-.192-.327-.06-.283-.193-.332-.626-.337-1.122-.018-2.234-.025-3.355-.057a.74.74 0 0 1-.464-.228c-.134-.15.098-.437.343-.476.113-.016.235-.013.348-.024.781-.07.903-.127.871-.416-.02-.207-.126-.292-.682-.306-.452-.01-.67-.134-.879-.268a.866.866 0 0 0-.633-.135c-.106-.237.317-.318.57-.432.234-.105.234-.165-.07-.268-.481-.162-.437-.406-.402-.65.026-.182.052-.35.39-.48.394-.152.75-.334 1.106-.505.178-.083.146-.367-.035-.502-.56-.404-.56-.404-.534-.627.025-.244-.006-.497.085-.736.027-.082.328-.197.516-.204.377-.02.754-.004.987-.178.383-.284 1.224-.066 1.588-.369.91-.269.868-.69.731-1.118-.019-.05-.152-.125-.246-.13-1.235-.026-2.478-.036-3.723-.083-.273-.012-.426-.187-.304-.224.601-.18.54-.519.877-.75.28-.196.712-.338.624-.616.506-.25.841-.598 1.736-.583.51.01.684-.343 1.221-.344.377 0 .754.032 1.121.007.17-.012.32-.13.47-.198-.086-.044-.162-.12-.257-.128-.48-.035-.98-.045-1.256-.285-.143-.125-.34-.148-.633-.15-.876 0-1.753-.015-2.63-.04-.093-.004-.17-.08-.264-.124-.17-.079-.361-.234-.512-.222-.207.013-.356.156-.562.235-.403.162-.762.156-1.254-.087a1.803 1.803 0 0 0-1.283-.157c-.505.386-1.288.293-2.013.282-.104-.004-.208-.049-.303-.078-.255-.088-.219-.175.11-.26.104-.026.188-.083.281-.125.553-.27.553-.26 1.298-.253.348.001.698.058 1.044-.093.61-.26.638-.24 1.298-.238.546.003.556.008 1.288-.254.206-.073.404-.1.677-.094.433.016.696-.104.684-.317-.011-.137.073-.229.241-.327.58-.321.562-.326.596-.615.034-.305.006-.32.586-.615.319-.161.213-.338.258-.51.045-.173-.07-.37.334-.491.413-.121.598-.423 1.192-.384.622.039.826-.233 1.22-.359.282-.09.375-.172.223-.256-.075-.045-.18-.104-.274-.108a1067.85 1067.85 0 0 0-4.137-.063c-.48-.01-.68-.099-.663-.332.034-.295-.149-.622.518-.817.253-.074.318-.171.326-.308.03-.614.118-1.229.12-1.842.007-.223.298-.313.55-.442.366-.192.372-.42.03-.63-.151-.094-.369-.172-.436-.278-.067-.106-.06-.288.081-.346.544-.224.888-.633 1.831-.513.45-.208.862-.425 1.598-.353.49.045.509.015 1.288-.248.206-.073.403-.111.686-.084.255.022.518-.026.592-.159.028-.046-.266-.16-.455-.203-.207-.048-.48-.03-.688-.073-.274-.052-.341-.173.11-.31.716.012 1.083.038 1.422.009.16-.012.3-.126.422-.203a.515.515 0 0 0-.237-.119c-.462-.03-.934-.06-1.405-.044-.188.007-.394.106-.553.178-.356.167-.347.172.34.179-1.356-.02-2.364-.018-3.363-.057-.481-.02-.64.154-.93.254-.084.031-.216.089-.263.08-.255-.064-.313-.175-.324-.301-.01-.137.035-.244.232-.327.188-.079.488-.158.515-.255.028-.076-.284-.174-.436-.263-.171-.12-.297-.423-.157-.51.215-.135.638-.261.636-.383-.01-.147-.474-.268-.57-.43-.106-.165-.004-.364.022-.547.026-.183.326-.288.788-.278.5.01 1.008.004 1.508.028.292.017.47-.01.658-.124.15-.093.412-.233.563-.22.745.083 1.06-.316 1.607-.338.555-.021.874-.172 1.287-.299.272-.084.706-.063 1.064-.052.405.01.715-.05.978-.194.084-.047.168-.109.28-.125.828-.127 1.717.111 2.534-.096.664-.438 1.6-.196 2.428-.24.123-.007.264.016.377 0 .113-.017.197-.068.29-.105.282-.105.469-.259.94-.25 2.13.047 4.269.073 6.398.099.245.002.642.053.726-.004.879-.568 2.079-.277 3.134-.3.998-.022 2.007.022 3.015.036 1.13.017 2.262.034 3.392.046.123.004.255-.008.377.006.566.06.932-.087 1.288-.273.159-.083.31-.014.529.105.569.313 1.35.283 2.008.129.423-.101.732-.283 1.297-.269 1.63.047 3.26.043 4.89.085.774.016 1.48.028 1.994-.327.112-.078.783.021 1 .115.682.306 1.691.37 2.291.14.291-.11.525-.229.959-.219 2.262.045 4.514.07 6.775.104.264.002.461-.041.63-.155a.622.622 0 0 1 .271-.124c1.101-.115 2.195-.082 3.27.033.198.023.313.194.521.252.322.093.718.123 1.008-.007.375-.171.722-.302 1.297-.273.849.04 1.78-.062 2.304.399.754.011 1.498.028 2.252.04.72-.511 1.767-.33 2.728-.327 1.009.004 2.007.018 3.016.046.462.015.63-.164.92-.264.422-.152.78-.136 1.273.097.218.104.36.183.53.146.112-.027.177-.088.28-.125.61-.22.874-.238 1.29-.081.634.23.644.24 1.056.069.094-.042.197-.124.272-.12.707.032 1.534-.14 2.03.27.056.05.17.11.264.114.745.016 1.498.013 2.243.02.813-.593 2.08-.197 3.086-.351.103-.016.178-.088.281-.12.807-.278.807-.273 1.555.012.18.07.388.173.586.181 2.384.048 4.768.061 7.153.12.697.017 1.119-.135 1.645-.314.422-.146.904.005 1.255.209.351.198.86.193 1.272.025.282-.114.497-.244.949-.234 2.639.05 5.268.08 7.906.121.632.008 1.253.006 1.885.029.452.015.629-.17.92-.27a.633.633 0 0 1 .264-.038c.264.063.275.174.286.311.023.375.155.404.746.2.104-.038.169-.104.282-.126 1.25-.207 2.745.318 3.84-.339 1.498.013 3.005.031 4.504.044.454.188.778.452 1.54.403.612-.043 1.253.006 1.885.019.631.007 1.253.01 1.884.028.83.021.82.021 1.163-.464.148-.215.384-.248.696-.095.266.134.512.238.936.233.471-.006.932-.021 1.358.182.683.321.739.305 1.527.017.216-.078.375-.161.629-.154.877.015 1.753.04 2.639.035.603-.007 1.254.132 1.808-.062.404-.146.75-.333 1.115-.5.366-.17.884-.157 1.282.031.265.124.474.248.917.253 2.384.023 4.768.066 7.152.094.716.007 1.5.14 2.06-.247.103-.067.442-.076.669-.073 3.137.04 6.275.084 9.413.133.377.006.678-.038 1.007-.158.759-.288.816-.289 1.526.032.313.144.624.196.982.166.216-.017.394-.13.582-.21.093-.036.177-.113.281-.119.245-.018.49-.01.744-.009 5.145.072 10.29.144 15.435.231.462.01.668-.13.94-.24.093-.036.187-.108.281-.114.245-.013.499 0 .754.007 5.022.073 10.045.141 15.058.224.547.01.961-.046 1.307-.253a.741.741 0 0 1 .3-.095c.245-.013.5.005.754.007 6.775.098 13.56.191 20.335.3.566.009.932-.092 1.288-.279.159-.083.348-.034.519.11.162.14.37.194.52.116.356-.181.712-.297 1.287-.283 1.753.045 3.515.06 5.268.085 1.008.014 2.007.028 3.015.046.848.016 1.78-.076 2.304.39.754.016 1.498.048 2.252.034.188-.002.375-.152.562-.23a1.613 1.613 0 0 1 1.282.04c.265.125.484.269.926.244.471-.031.991.09 1.393-.143.15-.088.375-.177.591-.19.368-.03.754.002 1.131.007 4.269.062 8.538.14 12.806.175 1.055.008 2.236.248 3.144-.26 1.102-.053 2.194-.07 3.279.074.457.41 1.276.294 1.992.322.622.018 1.263 0 1.885.033.443.026.705-.089.949-.224.187-.108.375-.136.658-.129 4.768.076 9.536.142 14.304.208.283.002.481.02.652.135.133.095.351.239.502.227.207-.012.375-.146.553-.234.187-.089.404-.096.687-.09.612.014 1.244.026 1.856-.016.291-.019.411-.269.826-.253.438.405 1.248.366 1.973.332 1.299-.066 2.736.333 3.878-.274.744.002 1.489-.002 2.243.01.094-.001.189.069.283.103 1.06.368 1.088.378 1.81.035.234-.115.347-.11.547.044.123.095.341.219.539.222 1.131.037 2.262.044 3.383.057.556.008.722-.348 1.221-.344 2.639.025 5.277.065 7.906.116.198.002.407.116.577.196.616.291 1.37.273 2.018.103.432-.112.741-.272 1.306-.259 1.631.047 3.261.064 4.891.07.452 0 .651.134.917.253.53.237 1.622.199 2.307-.098.234-.104.347-.1.547.05.123.094.341.208.539.221.745.037 1.508.013 2.253.05.575.029.903-.127 1.287-.284.291-.12.687-.094 1.008.009.993.318.993.303 1.606.33.603.034.865-.187 1.24-.338l.776.361c2.262.034 4.514.064 6.776.093.084 0 .178-.078.271-.12.272-.12.497-.254.949-.233.443.02.605.185.861.304.266.128.512.268.768.401.199.1.708.099 1.018.009.244-.069.252-.18.279-.318.044-.259.25-.347.646-.342 1.131.017 2.261.025 3.383.057.198.008.369.143.549.222.464.197.879.218 1.282.056.281-.11.458-.274.93-.25a41.79 41.79 0 0 0 2.261.035c.283-.003.556.014.605.15.02.076-.187.175-.327.252-.299.166-.27.298.174.338.367.036.735.027.963.202.171.135.36.188.52.12.384-.161.74-.338 1.115-.504.412-.182 1.609-.181 2.035.001.265.114.427.28.898.274 1.008-.012 2.007.037 3.015.03.471 0 .634.17.871.29.199.098.359.097.545-.058.355-.303 1.177-.1 1.598-.363.308-.191.702-.358 1.106-.505.169-.057.489-.056.715-.023.463.065.561.42 1.173.377.471-.031.642.15.898.268.379.178.831.178 1.281-.01.282-.115.525-.224.959-.219 2.884.053 5.776.09 8.66.132.245.002.593-.017.698.053.455.289.852.375 1.366.035.01-.005.34.092.501.156.512.207.87.233 1.283.076.694-.256.703-.241 1.297-.253.546-.011.98.044 1.266.28.18.144.283.102.546-.017.665-.302.92-.305 1.535-.033.284.123.549.211.954.212 2.13.02 4.269.056 6.398.087 1.205-.156 1.812.253 2.476.615.256.139.284.149.791-.07.215-.094.375-.131.658-.124.876.025.876.015 1.684-.228.103-.031.196-.103.29-.1.754.002 1.508.024 2.262.025.782.006.782 0 1.033.52.096.192.332.214.726.073.197-.068.403-.182.601-.18a445.4 445.4 0 0 1 6.398.093c.198.003.426.112.568.196.475.294 1.142.154 1.726.193.5.035.99.04 1.345-.193.075-.047.178-.124.272-.12.999-.001 1.998.007 2.997.021.094-.001.179.074.274.108.861.284.861.28 1.266.28.659.007.659.007 1.266.279.378.173.774.163 1.29-.025.197-.069.393-.203.582-.2 2.893.027 5.776.075 8.66.117.254.002.396.097.605.18.729.302.757.301 1.536.018.215-.078.375-.161.629-.16 2.007.028 4.014.05 6.021.093.425.01.697-.08.959-.209.094-.042.187-.119.272-.12.999-.001 1.997-.003 2.996.031.189.008.388.143.521.243.266.2.737.184 1.01.125 1.409-.32 1.39-.336 1.993-.328 3.016.046 6.022.087 9.037.133.471.005.804.28.638.52a.345.345 0 0 1-.216.134c-.714.11-1.439.184-2.017-.123-.218-.114-.408-.198-.52-.12-.439.278-1.014.3-1.664.277-.622-.028-1.254-.026-1.885-.029a.637.637 0 0 0-.3.085c-.43.304-1.052.291-1.674.248-.463-.036-.668.124-.94.239a1.59 1.59 0 0 1-1.282-.031c-.341-.163-.34-.153-1.073.038-.197.053-.471.036-.687.079-.216.038-.413.111-.62.17.189.063.37.182.568.185 1.752.04 3.515.066 5.267.08.405.006.689.079.945.223.332.184.645.378 1.033.53.161.064.557.08.716.022.507-.183.947-.401 1.406-.614.207-.099.339-.075.538.07.209.16.521.237.936.227.48-.016.999.07 1.364-.168.075-.047.215-.13.272-.12.188.033.359.097.52.156.094.035.161.125.256.13.744.031 1.489.083 2.224.06.725-.024 1.16.143 1.549.392.5.01.999.024 1.499.028.848.016.848.016 1.191-.45.167-.225.308-.272.817-.263 1.762.025 3.515.06 5.277.07.461.005.623.176.87.294.189.095.33.073.546-.062.233-.154.562-.214.968-.193.481.024 1.007-.037 1.331.212.18.14.369.188.519.106a2.18 2.18 0 0 1 1.288-.274c.367.031.753-.004 1.131.027.443.036.724-.089.939-.228.234-.15.337-.151.556-.002.209.14.427.3.889.264.47-.041.99.11 1.393-.128.243-.14.524-.25.958-.214.472.04.933-.021 1.368.182.701.326.786.33 1.517.028.46-.188.913-.133 1.384-.153.423-.02.66.103.935.227.474.217.869.228 1.282.071.282-.11.449-.269.93-.26 3.006.057 6.021.088 9.037.149.481.01.648-.144.93-.254.412-.162.818-.142 1.282.061.71.311.842.31 1.546.068.103-.037.168-.103.281-.12.226-.033.47-.061.696-.059 5.023.069 10.045.142 15.059.225.179.003.35.128.53.197-.094.042-.178.083-.282.125-.449.198-.805.45-1.568.398-.868-.055-1.753-.035-2.63-.05-.254-.002-.508.01-.753-.017-.453-.045-.715.1-.94.234-.309.186-.687.095-1.035.109-.524-.46-1.436-.374-2.294-.41-.566-.023-.941.082-1.297.274a7.466 7.466 0 0 1-.834.38c-.15.057-.302-.032-.529-.136-.512-.237-.937-.288-1.245-.097-.599.377-1.354.239-2.07.227-.179-.003-.351-.158-.531-.237-.426-.188-1.566-.2-2.035-.022-.197.073-.384.212-.572.214a25.163 25.163 0 0 1-2.234-.06c-.283-.022-.389-.269-.776-.29-1.161.612-2.598.168-3.897.254-.386.024-.725.049-.968.198a1.136 1.136 0 0 1-.63.16c-1.508-.023-3.015-.036-4.514-.07-.763-.016-1.479-.028-2.012.323-.094.057-.527.057-.716.004-1.399-.38-1.399-.384-2.304-.4-2.638-.035-5.276-.07-7.906-.12-.471-.01-.657.15-.92.264-.216.094-.338.075-.547-.07-.133-.09-.351-.203-.549-.211-.877-.036-1.763-.076-2.629-.03-.424.02-.807.303-1.231.318-1.12.034-2.261.006-3.382-.046-.293-.012-.522-.288-.833-.32a17.1 17.1 0 0 0-2.225-.066c-.301.014-.562.22-.863.33-.318.12-.458.274-.437.466.011.122-.072.255-.005.365.048.101.238.185.361.275.094-.042.178-.088.281-.125.188-.073.394-.213.582-.21 3.006.041 6.003.098 9.009.154.399.304.833.38 1.338.04a.523.523 0 0 1 .245.027c.467.41 1.286.325 2.001.302.292-.009.573-.215.854-.335l3.76.048c.265.128.493.339.795.365.736.058 1.489.029 2.243.035.598-.453 1.513-.327 2.361-.316.876.005 1.753.025 2.639.035 2.384.033 4.768.071 7.152.104.631.008 1.253.016 1.884.029.443.005.624.11.617.352-.007.208-.259.389-.58.382-.631-.002-1.253-.03-1.884-.018-.207.007-.423.101-.601.174-.657.276-1.411.234-2.035.05-.406-.123-.691-.297-1.256-.3-1.385 0-2.761-.03-4.137-.059a1.985 1.985 0 0 0-.677.094c-.676.19-.714.191-1.046-.003-.209-.124-.331-.117-.556.027-.14.093-.384.207-.572.204-2.638-.025-5.277-.065-7.906-.105a1.274 1.274 0 0 0-.629.16c-.16.082-.394.181-.592.184-1.008.006-2.007-.038-3.015-.026-.593.007-.859-.183-1.21-.346-.227-.104-.783-.077-1.017.022-.188.083-.366.167-.553.255-.441.203-.431.198-.08.391.417.234.815.396 1.54.403 3.138.02 6.276.074 9.414.128.631.008 1.234.042 1.674-.257.14-.098.404-.091.677-.084 1.508.028 3.016.046 4.523.069.255.002.414-.081.63-.16.778-.277.816-.283 1.526.028.313.133.605.176.982.181 3.892.056 7.784.107 11.676.173.603.014.864-.192 1.239-.338.999.008 1.998.017 2.997.02.265.13.521.253.786.382l3.006.04c.822-.582 2.051-.241 3.086-.35.104-.011.197-.073.281-.125.515-.325.735-.018 1.066.105.303.113.746.138.999.003.477-.264 1.023-.316 1.674-.268.283.022.537.014.677-.084.43-.304 1.052-.265 1.674-.258.283.002.481.02.652.13.142.094.342.244.502.242.188-.007.375-.146.553-.234.188-.094.395-.101.677-.094 1.885.034 3.76.072 5.645.08.565.004.925.117 1.247.31.143.09.34.042.536-.092.243-.165.591-.19.987-.178.49.014 1.008-.022 1.313.228.152.12.341.173.605.175.631.008 1.262 0 1.884.039.17.008.388.142.446.243.058.106-.026.233-.1.346-.027.05-.177.124-.262.125-.999-.004-1.998-.013-3.006-.031-.094-.004-.18-.074-.265-.119-.171-.084-.351-.239-.511-.232-.198.007-.376.146-.554.235-.299.15-.696.058-1.035.113-.216.038-.476.345-.333.48a.9.9 0 0 0 .502.218c.49.034.999.023 1.498.033 1.753.025 3.515.065 5.268.07.584.003.822.229 1.228.32.539.126 1.161.149 1.503.434.49.02.99.019 1.471.059.273.022.406.132.351.224-.028.05-.178.124-.263.12-.527-.02-.979.021-1.306.248-.169.113-.385.146-.668.11-.274-.038-.584 0-.62.133-.1.31-.352.557-.868.75-.403.147-.74.338-1.115.5a.496.496 0 0 1-.255-.033c-.523-.43-.896-.136-1.356.047-.15.057-.49.02-.735.003-.537-.044-.97.021-1.316.239-.159.098-.365.171-.543.254-.272.13-.545.2-.959.224-.687.039-1.144.47-1.975.327-2.261-.034-4.513-.079-6.775-.088-.942-.004-2.009-.235-2.785.266a4.86 4.86 0 0 1-.502-.167c-.492-.202-.917-.248-1.272-.06-.375.196-.769.292-1.316.248-.076-.005-.207.068-.272.12-.038.03-.018.096.02.126.066.045.199.12.265.108.884-.127 1.117.418 1.927.414 1.762-.006 3.515.05 5.267.06.65.003 1.207.042 1.625.326.104.07.443.086.669.078.678-.028 1.179.088 1.606.346.114.07.481.02.689.068.17.039.425.158.398.214-.074.132-.347.176-.611.144-.283-.032-.509-.01-.668.099-.327.222-.769.293-1.306.248a.458.458 0 0 0-.263.12c-.084.087.041.227.314.234 2.13.047 4.269.072 6.398.098.274.002.434.056.615.16.578.323 1.166.64 1.801.937.142.065.471.03.698.063.264.038.453.132.388.219-.102.133-.356.176-.62.139a1.132 1.132 0 0 0-.677.099c-.253.12-.449.284-.93.254-.622-.038-1.253-.02-1.875-.029-.822.582-2.061.237-3.086.35a.637.637 0 0 0-.263.12c.418.274.714.64 1.6.605.687-.028 1.169.098 1.587.357.161.099.754.062 1.007-.038.094-.036.178-.088.281-.124.479-.183.95-.189 1.291-.01.256.133.521.267.768.406.171.1.099.415-.117.498-.093.037-.225.104-.291.09-.745-.103-1.06.342-1.607.338-2.892-.012-5.776-.064-8.66-.112-.405-.005-.54-.262-.851-.31a8.516 8.516 0 0 0-2.516-.026c-.421.294-1.014.29-1.655.273-1.63-.037-3.27-.028-4.891-.085-.716-.027-1.186.105-1.607.343-.256-.124-.521-.247-.777-.37-2.007-.028-4.014-.055-6.021-.073-.094.001-.188.079-.272.12-.272.125-.525.23-.958.22-4.514-.075-9.037-.139-13.56-.203-.264-.002-.48.036-.62.16-.028.025.095.09.161.13.304.184.313.163 1.585.133a65.029 65.029 0 0 1 2.987.016c.188.008.359.148.539.227.445.192 1.586.22 2.036.047.281-.11.487-.249.939-.239 3.138.06 6.276.1 9.414.144.415.005.424-.005 1.247.3.199.073.397.096.67.108.641.023 1.197-.004 1.674-.273.244-.14.762-.13.98.004.437.264.956.349 1.615.331.226-.008.528.02.661.094.35.178.616.368 1.075.063.383-.253.931-.097 1.402-.113.537-.016.669.023.72.291.05.268.099.46.787.468 3.392.041 6.775.093 10.167.145.245.002.631-.028.717.037.475.37 1.191.376 1.955.378.753-.004 1.507.017 2.261.029.255.002.462.055.586.18.02.02-.131.083-.205.125-.169.088-.347.166-.506.26-.01.004.18.078.237.128.514.43 1.343.466 2.257.46.264-.003.388.143.314.23a.469.469 0 0 1-.272.125c-1.036.012-1.036.017-2.352.341-.782-.061-1.148.09-1.134.49.001.071-.308.202-.497.214-.367.024-.716.008-.996.169-.244.14-.563.25-.816.384a1.156 1.156 0 0 1-.629.16c-.631-.008-1.262 0-1.885-.04-.198-.012-.369-.142-.549-.216-.473-.197-.878-.218-1.282-.061-.281.11-.449.274-.93.254-.876-.04-1.752-.035-2.629-.04a.463.463 0 0 0-.271.125c-.075.087.04.217.313.23.99.043 1.989.047 2.988.08a.394.394 0 0 1 .246.13c.019.03-.074.092-.149.123-.178.089-.488.163-.515.26-.018.076.284.174.446.263.075.045.199.09.218.14.407.938.388.948 1.251 1.404.047.025.048.096.01.127-.065.051-.177.119-.271.12a416.202 416.202 0 0 1-5.645-.081c-.471-.01-.639.159-.93.259-.093.036-.196.093-.3.094-.716.019-1.518-.134-2.041.263-.056.04-.207.073-.31.074-.877-.005-1.762-.01-2.639-.045a1.231 1.231 0 0 1-.577-.186c-.351-.24-.859-.183-1.34-.208-.406-.02-.725.044-.968.194-.272.17-.648.185-.997.139-.208-.028-.37-.143-.549-.227-.095-.04-.172-.125-.256-.129a913.185 913.185 0 0 0-5.259-.09c-.094 0-.187.072-.29.11-.282.109-.469.253-.94.243a7411.18 7411.18 0 0 0-18.441-.261c-.085 0-.235.073-.262.124-.065.092.078.222.342.224 7.651.12 15.312.227 22.973.341.443.005.62-.175.911-.28.178-.067.33-.013.538.111.143.085.37.188.577.191 2.507.047 5.023.083 7.529.115.415.005.717.073.936.227a.97.97 0 0 0 .605.17c.499.005 1.008.024 1.507.019.283-.004.547-.002.652.114.353.376 1.434.176 1.787.547.124.125.35.132.642.134 1.762.015 3.515.055 5.277.065.471.005.624.175.87.294.18.09.388.122.67.104.255-.018.481.045.596.17.086.096-.375.197-.883.193-1.763-.025-3.515-.055-5.277-.07-.198-.003-.433.096-.601.174-.657.282-1.401.23-2.035.06-.397-.108-.616-.374-1.084-.059a.743.743 0 0 1-.281.125c-.103.022-.245.008-.367.004-7.03-.1-14.06-.206-21.089-.296-.472-.005-.662-.145-.889-.279-.294-.174-.775-.178-1-.1-.497.189-.871.431-1.357.021-.576-.125-1.169-.123-1.771-.035-.104.017-.178.088-.282.12-.197.063-.412.167-.61.164-1.884-.013-3.769-.052-5.644-.066-.16-.003-.319.126-.478.198l.255.134c.086.045.162.095.256.134.266.114.409.28.88.284 7.783.102 15.567.224 23.35.326.472.005.643.155.889.279.18.099.369.132.661.123.631-.022 1.216-.004 1.643.296.351.244.816.452 1.223.68 0 0-.168.113-.262.114-.49.021-.98.037-1.47.028-5.022-.068-10.045-.147-15.067-.21-.151-.003-.31.13-.459.198.085.045.161.125.255.129.745.027 1.49.048 2.234.06 8.16.118 16.321.24 24.472.353.283.002.453.046.661.114.87.3.889.294 1.633.29.123 0 .264-.013.377.011a.57.57 0 0 1 .256.13c.076.09-.063.228-.337.226-6.153-.08-12.297-.17-18.45-.261-.273-.002-.461.03-.639.144-.243.14-.534.224-.959.214-1.507-.038-3.015-.051-4.513-.069-.255-.002-.509.041-.592.17-.028.04.303.148.502.196.208.048.594.018.67.084.381.37 1.312.248 1.824.53.512.284.832.245 1.535-.053a1.609 1.609 0 0 1 1.282.02c.265.125.455.285.917.254.245-.018.499.004.754.006l3.392.052c.499.01 1.008-.007 1.508.028.584.039 1.298-.127 1.735.177.323.23.832.199 1.276.28.103.019.227.083.237.134.009.035-.131.113-.225.119-1.619.125-3.232-.023-4.843 0-.235.003-.584-.003-.677.064-.673.454-1.599.242-2.428.257-.876.015-1.772-.071-2.629-.015-.546.031-.853.41-1.607.338-.604-.06-1.253-.026-1.875-.04-.632-.007-1.254-.04-1.885-.018-.283.008-.403.142-.318.227.048.05.162.12.256.124.377.02.754.016 1.131.022 4.891.07 9.791.16 14.691.199.961.009 1.228.35 1.768.572.01.005-.084.092-.159.124a.779.779 0 0 1-.31.074c-1.008-.008-2.016-.007-3.015-.046a2.232 2.232 0 0 0-1.269.299c-.524.275-1.059.474-1.936.413-.99-.07-2.007-.058-3.006-.051-.951.01-1.999-.205-2.766.3-.084.057-.471.016-.716.014-1.753-.025-3.515-.06-5.267-.065-.274-.002-.404.141-.309.232.057.05.181.124.256.123.556-.032.915.09 1.275.29.342.188.766.178 1.272-.04.412-.183.807-.253 1.308-.133.104.025.171.09.256.134-.572.205-.888.604-1.831.539-.245-.018-.432.116-.393.212.019.05.152.125.246.13.745.026 1.508.068 2.243.034.301-.014.563-.215.844-.33.265.124.521.253.805.366.076.03.245.008.368.011 1.507.023 3.016.092 4.513.049 1.074-.028 1.549.296 2.108.61.057.034.021.12-.007.182-.083.142-.025.279.249.311.594.07 1.17.143 1.521.418.481.03.981.04 1.266.28.067.05.162.124.256.128.754.022 1.499.049 2.252.035.189-.002.366-.157.563-.235.45-.172 1.581-.15 2.035.058.266.123.493.257.927.237.376-.014.754.027 1.13.007.575-.027.887.137 1.248.315.142.07.462.046.67.094.207.043.378.127.558.191-.207.058-.404.157-.62.164-.499.016-1.008.007-1.508-.018-.415-.02-.677.084-.977.2-.507.198-1.6.2-2.035.023-.19-.079-.333-.24-.521-.247-.161-.009-.385.136-.544.23-.187.103-.385.11-.668.103-1.63-.032-3.26-.038-4.891-.085-.556-.014-.903.097-1.306.259-.46.183-1.488.103-2.018-.103-.766-.296-.766-.296-1.554-.028-.704.242-.827.238-1.546-.063-.483-.202-.879-.228-1.282-.066-.451.182-.46.178-1.065-.013-.104-.034-.18-.104-.275-.108-.622-.018-1.271.014-1.875-.04-.858-.075-1.431.103-1.946.393-.084.047-.187.084-.272.125.18.07.342.189.53.192.877.03 1.753.035 2.639.045.876.015 1.753.03 2.638.035.745.007 1.517-.038 1.955.358.367.02.726.052 1.093.058l18.451.271c1.168.017 1.197.037 1.204.62.001.116.002.238.051.354.019.05.152.125.246.13.84.05 1.752-.032 2.304.418.067.055.5.045.716.007.216-.043.366-.166.563-.245.403-.162.799-.14 1.282.066.719.306.814.305 1.555.058.197-.068.403-.177.601-.174 1.884.014 3.769.037 5.644.076.858.02 1.808-.102 2.555.117.615.186 1.108.5 1.545.794.446.309 1.049.261 1.661.274.556.009.556.014.711.311.317.584.848.806 1.969.839.49.015.971.044 1.461.07.448.394 1.229.36 1.964.341.687-.018 1.198.093 1.578.362.47-.036.608-.342 1.192-.323 1.376.04 2.761.044 4.137.073a.532.532 0 0 1 .265.119c.038.03.049.106.002.127-.45.218-.928.421-1.378.64-.281.134-.563.198-.977.198-1.366-.01-2.734-.105-4.099-.008-.103.006-.253.08-.262.125.001.046.133.11.237.129.227.038.462.06.698.068.754.016 1.508.023 2.262.034 1.13.017 2.261.014 3.392.057.943.035 2.052-.17 2.699.369.368.016.735.042 1.103.048 4.146.063 8.283.116 12.429.19.264.002.407.132.351.224-.027.05-.177.123-.262.124-4.137-.048-8.283-.106-12.42-.17-.282-.006-.471.012-.667.115-.244.125-.468.264-.93.244-.999-.039-2.007-.022-3.006-.056-.472-.015-.649.154-.92.27-.197.083-.404.11-.687.083-.255-.022-.509.026-.611.154-.083.108-.082.24-.071.356.001.05.114.12.209.14.821.147 1.669.132 2.525.056.505-.36.921-.239 1.339.045.047.035.226.044.339.037.998-.088 1.642.168 2.174.527.066.045.076.106.114.161.106.136-.164.448-.456.436-.556-.024-.96.062-1.297.269-.589.367-1.333.462-2.284.437-2.884-.073-5.777-.09-8.661-.137-.386-.006-.706.033-.996.174-.159.078-.403.167-.611.164-1.13-.002-2.261-.024-3.392-.037-.103.002-.216.043-.31.075-.253.079-.215.165.088.263.104.034.161.089.256.134.265.113.408.279.88.288.471.01.676-.14.92-.259.225-.114.338-.105.547.05.209.15.492.237.917.242 2.007.017 4.014.085 6.021.067.876-.005 1.415.176 1.852.475.408.284.955.334 1.605.336.424 0 .716-.069.959-.214.402-.237.922-.097 1.393-.132.292-.02.49.014.661.119.152.094.332.254.511.257 1.508.043 3.016.056 4.514.08.486-.361 1.202-.38 1.975-.343.622.028 1.253.02 1.885.029.122.003.254.007.376.005.452-.015.606.181.871.3.18.078.311.041.545-.078.609-.306 1.345-.208 2.034-.094.255.042.266.179.23.316-.045.178-.109.382-.003.543.125.196.586.16.944.196.481.05.645.353.375.584-.056.051-.206.13-.263.12-.849-.127-1.21.4-1.965.362-.292-.017-.556-.003-.629.134-.037.072.171.176.285.26.067.05.256.099.237.135-.054.142-1.058.565-1.303.562-.631-.007-1.262.005-1.884-.033-.679-.043-1.187.064-1.645.308-.178.098-.773.044-1-.065-.18-.084-.333-.25-.512-.257-1.998-.053-4.005-.08-6.012-.113-.851.563-2.041.308-3.105.32-.726.009-.735-.016-1.298.254-.178.088-.374.166-.552.255-.272.135-.554.209-.969.198-.867-.015-1.733 0-2.59.015-.095.001-.188.079-.282.12.54.222.799.594 1.741.593 1.884-.006 3.769.048 5.644.066.283.002.509.01.661.11.304.214.701.336 1.256.289.342.173.702.346 1.034.53.066.035.048.111.086.166.087.151-.24.429-.504.422-2.761-.039-5.522-.083-8.282-.116-.49-.005-1.009-.034-1.479.022-.32.039-.573.22-.882.304-.198.053-.528-.004-.688.059-.384.151-.693.337-1.278.293-.367-.03-.753-.016-1.13-.022-1.885-.028-3.77-.052-5.645-.081-1.131-.017-2.262-.055-3.392-.042-.942.011-2-.225-2.776.286-.094.062-.471.031-.706.029-2.507-.037-5.023-.038-7.53-.125-.933-.03-1.335.253-1.878.483-.047.02-.037.091.001.127.057.05.171.114.265.118.622.018 1.253.01 1.885.034.603.023.759-.343 1.221-.344 1.385-.01 2.761.029 4.146.048.433.005.577.201.861.31.312.117.68.118 1.008.028.31-.09.487-.294.901-.29 4.392.061 8.783.127 13.183.187.55.242 1.08.449 1.918.408.744-.034 1.507.028 2.261.015.443-.006.661.124.917.252.085.045.152.105.265.13.104.023.245.012.368.015 2.761.039 5.522.073 8.283.127.471.01.658-.14.93-.25.403-.161.827-.14 1.282.052.179.079.351.208.549.221.744.037 1.508.054 2.252.035.574-.012.887.142 1.247.315.142.07.462.045.67.088.198.044.369.128.549.197-.207.058-.404.126-.62.164-.216.038-.528.016-.677.084-.375.177-.742.277-1.298.269-5.644-.092-11.298-.168-16.943-.26-.442-.004-.677.11-.948.23-.094.041-.178.113-.282.12-.244.013-.499 0-.753-.002-3.138-.044-6.276-.084-9.414-.143-.519-.01-.894.152-.786.465.039.101.248.26.399.264 4.136.074 8.283.132 12.429.19.273.002.453.045.623.16.219.15.493.258.917.237.377-.014.754.012 1.131.013.377 0 .782 0 .944.191.039.045-.309.161-.468.25-.084.04-.244.103-.225.123.115.126.332.184.577.186 3.016.046 6.022.092 9.037.128.424.005.708.088.926.238.171.114.351.163.614.16.877.005 1.762.01 2.639.045.273.012.388.148.304.235a.431.431 0 0 1-.272.12c-1.253-.011-2.506-.032-3.769-.048-.841.573-2.041.303-3.105.315-1.253.015-2.507-.026-3.769-.047-1.254-.016-2.507-.037-3.77-.052a7.066 7.066 0 0 0-.734.018c-.104.012-.197.074-.272.12-.515.32-.735.029-1.066-.1-.303-.112-.708-.128-.999-.008-.384.157-.712.298-1.287.284-2.629-.056-5.268-.08-7.906-.126-.274-.007-.538-.014-.678.084-.542.397-1.335.224-2.051.252-.103.006-.206.063-.291.105-.206.099-.249.383-.069.498.076.05.171.124.256.123 3.637.06 7.275.118 10.921.157.481.004.643.165.88.289.208.109.331.097.555-.042.14-.088.375-.192.582-.2.622-.017 1.253.026 1.884.014.66-.013 1.141.083 1.625.326.426.218 1.196-.01 1.735.172.085.03.199.099.181.13a.414.414 0 0 1-.263.124c-1.375.001-2.741.002-4.108-.023-.433-.01-.715.08-.949.22-.187.108-.375.145-.648.139-.622-.024-1.253-.021-1.885-.03-.514.326-1.182.39-1.974.348-.867-.04-1.753-.03-2.639-.045l-2.261-.035-1.131-.017c-.123-.003-.321-.021-.358.004-.505.361-1.221.364-1.994.333a32.352 32.352 0 0 0-1.856.001.437.437 0 0 0-.262.125c-.028.03.067.11.143.125.217.043.444.086.679.088 3.016.051 6.022.113 9.037.123 1.055.003 2.236.248 3.153-.255.066-.036.216-.053.329-.054 1.385.014 2.761.028 4.137.068.17.003.482.152.455.198-.074.127-.338.17-.601.159-.255-.007-.509.006-.754-.017a1.44 1.44 0 0 0-.949.22c-.29.18-.706.073-1.016.138-.329.064-.572.224-.854.344-.707-.047-1.534.12-2.01-.3-.143-.12-.321-.088-.536.051-.234.15-.554.225-.969.199-.48-.03-1.007.042-1.34-.207-.066-.05-.152-.12-.256-.13-1.084-.093-2.178-.136-3.279-.027-.513.396-1.316.259-2.032.262-.377.004-.754-.011-1.131-.017-.499-.01-1.008-.014-1.507-.023-.65-.008-.641-.003-1.994.322-.197.048-.49-.004-.735.009a.555.555 0 0 0-.281.114c-.112.083-.026.224.267.24.744.043 1.498.039 2.243.056.523.465 1.455.373 2.303.388.876.016 1.753.026 2.639.04.753.012 1.508.044 2.261.025.819-.02 1.764.213 2.418-.251.056-.041.207-.069.31-.07 1.235.037 2.488-.024 3.714.114.094.01.237.089.228.13-.019.045-.15.102-.263.124-.996.184-2.273-.247-3.086.35-.622.002-1.243.02-1.856-.004a1.624 1.624 0 0 0-.949.23c-.197.108-.375.136-.658.129-2.007-.038-4.014-.065-6.021-.092-.377-.006-.754-.017-1.131-.012a.524.524 0 0 0-.272.114c-.103.088.003.233.276.24 5.767.1 11.534.185 17.301.28.085 0 .227.079.247.13.02.095-.139.188-.412.212-.245.018-.5-.004-.754-.007-1.131-.017-2.262-.054-3.392-.041-.82.01-1.755-.203-2.428.251-.103.067-.452.066-.678.064-.876-.005-1.762-.02-2.638-.035-.754-.012-1.508-.018-2.262-.035-.735-.011-1.489-.084-2.032.288-.093.062-.461.046-.696.043-1.385-.014-2.761-.039-4.146-.058-.491-.01-.951.102-.846.198.209.195.614.165.982.17l11.675.169c1.008.013 2.007.042 3.015.035.452-.005.689.12.908.258.18.115.35.143.642.145 4.391.055 8.782.12 13.183.191.094-.001.208.074.256.129.086.09-.044.223-.327.227-.876.015-1.762-.01-2.638-.03-.632-.018-1.245-.047-1.674.257-.141.098-.414.071-.678.09-1.054.062-2.245-.273-3.163.244a.76.76 0 0 1-.319.06c-.5 0-1.009-.014-1.508-.018-.754-.012-1.508-.018-2.261-.035-.735-.011-1.49-.079-2.032.287-.094.062-.461.041-.697.04-1.385-.015-2.761-.04-4.146-.06-.49-.003-.932.103-.836.203.124.126.341.164.605.166 1.13.012 2.261.029 3.392.046 5.399.08 10.799.158 16.189.232.669.008.793.179.806.457.001.102.182.221.343.295.237.109.341.189.191.267-.084.041-.196.098-.291.1a58.59 58.59 0 0 1-1.884-.024c-.632-.018-1.149.018-1.693.243-.591.245-1.441.067-2.167.06-.65-.002-1.224.01-1.654.288-.057.036-.207.053-.32.06-1.61.12-1.619.115-2.285.427-.599.286-.599.275-1.287.263-6.154-.09-12.297-.176-18.451-.276-.452-.005-.667.119-.949.234-.093.041-.196.119-.272.114-.094-.004-.17-.079-.255-.123-.256-.13-.456-.284-.908-.253-.47.035-.99-.1-1.393.137-.243.145-.544.215-.958.21-1.753-.041-3.515-.061-5.268-.076-.207-.003-.413.106-.62.16.076.044.134.114.228.128.576.08 1.123.154 1.55.408.19.114.651.099.998-.027.76-.272.77-.267 1.288-.263 8.914.13 17.819.258 26.733.383.283.002.481.02.652.124.152.094.342.244.502.242.188-.007.375-.146.553-.234.188-.094.395-.101.677-.094 1.508.033 3.016.05 4.514.069.264.002.528.04.577.17.019.051-.281.181-.46.193-.48.036-.979.027-1.469.038-.504.38-1.278.288-2.013.297-.197.002-.432.106-.591.19a1.275 1.275 0 0 1-.629.154c-1.386-.025-2.762-.075-4.146-.048-1.055.017-2.274-.288-3.115.3-.5-.005-.999-.014-1.499-.003a.585.585 0 0 0-.281.11c-.121.082-.035.238.238.245 6.022.102 12.043.19 18.065.286.085.005.218.079.246.13.049.09-.101.188-.383.217-.245.023-.5 0-.754-.007-1.253-.016-2.516-.021-3.76-.062-.566-.02-.884.137-1.297.268-.479.153-1.205.085-1.569.383-.715.054-1.459.154-2.028-.179-.076-.044-.161-.124-.256-.128-1.498-.039-2.987-.072-4.486-.105-.543.275-1.163.404-1.974.347-.745-.047-1.508-.028-2.252-.04l-2.262-.034-2.261-.034c-.123-.004-.264-.018-.377-.001-.113.016-.197.073-.291.11-.188.078-.393.227-.544.214-.198-.018-.313-.19-.521-.248-.794-.208-1.669-.122-2.517-.097-.094.001-.272.115-.262.115.455.258.732.615 1.637.61 1.13-.009 2.261.029 3.392.04.5.01.953.132.832.22-.15.097-.366.166-.544.259-.056.031-.112.093-.083.123.048.055.152.13.246.129 2.253.044 4.514.074 6.766.113a.475.475 0 0 1 .256.124c.038.03.03.101-.027.127-.908.467-.908.467-2.255.452-.255-.002-.5-.004-.754-.011a1.093 1.093 0 0 0-.63.159c-.477.289-1.459.134-1.859.498-.716.039-1.421.133-2.038-.189-.502-.263-.737-.235-1.544.049-.103.036-.178.113-.281.119-.245.018-.5.001-.745-.001-4.146-.058-8.283-.116-12.429-.19-.471-.009-.648.145-.93.249-.094.037-.196.109-.291.105-.707-.032-1.534.109-2.01-.301-.124-.11-.312-.062-.546.067-.149.083-.393.182-.591.185-.754.013-1.508-.013-2.262-.025-.753-.011-1.507-.018-2.261-.034-.735-.012-1.49-.079-2.032.287-.093.062-.461.041-.697.039-2.129-.026-4.268-.052-6.398-.098-.424-.01-.677.089-.968.204-.516.193-2.287.194-2.789.007-.198-.074-.342-.244-.521-.247-.179-.003-.384.141-.544.234-.187.099-.394.106-.677.104-2.261-.039-4.513-.069-6.775-.103-.273-.002-.461.036-.639.144-.243.145-.534.219-.959.209-2.883-.053-5.776-.09-8.659-.127-.236-.003-.604-.024-.697.038-.786.496-1.835.245-2.786.276-.838.025-1.745-.152-2.408.287-.094.062-.462.041-.697.038-2.639-.035-5.277-.07-7.906-.115-.424-.011-.715.069-.959.213-.187.109-.375.147-.648.145-1.253-.026-2.507-.032-3.76-.063-.679-.017-.752.171-.871.436-.156.357-.222.353-.639.15-.256-.124-.465-.248-.908-.258-5.022-.064-10.045-.137-15.058-.215-.631-.008-1.244-.036-1.674.263a.679.679 0 0 1-.31.079c-.499.001-1.008-.034-1.507-.013-.942.032-2-.24-2.795.256-.103.067-.452.056-.688.054-1.008-.009-2.007-.038-3.015-.031-.198.002-.404.116-.601.184-.544.179-.796.43-.877.746-.036.132-.347.146-.62.144-.282.003-.509-.015-.651-.13-.105-.09-.021-.177.26-.256.291-.085.375-.172.214-.256a.641.641 0 0 0-.284-.103 454.311 454.311 0 0 0-4.523-.069c-.716-.007-1.499-.135-2.06.252-.103.067-.442.076-.668.074-1.762-.02-3.515-.056-5.277-.066a1.349 1.349 0 0 0-.601.17c-.393.227-.893.157-1.374.168-.414.01-.717-.063-.935-.223-.162-.114-.341-.173-.605-.175-.631-.008-1.254-.036-1.885-.013-.179.007-.413.131-.477.228-.075.102-.007.233.041.349.02.051.153.125.247.129.876.026 1.743.051 2.62.056.697.002.728.209.778.472.05.253.21.287.738.291.499.004 1.008-.007 1.508.028.594.039.74-.323 1.193-.308.273.007.38.269.776.28.757-.506 1.825-.239 2.766-.271.405-.014.692.378.44.578-.065.052-.177.124-.271.12-.867.01-1.743.02-2.61-.005-.434-.015-.725.084-.949.224-.234.15-.338.151-.556.011-.209-.134-.418-.309-.889-.268-.461.041-.99-.115-1.402.123-.243.14-.516.234-.949.219a147.652 147.652 0 0 0-3.392-.052c-.764-.006-.745-.001-.996-.541-.068-.141-.285-.199-.464-.162-.103.022-.244.079-.262.125-.046.117.003.248-.052.366-.074.132-.6.23-.978.163-.198-.033-.426-.132-.493-.222-.076-.106.007-.244.006-.365-.002-.122-.003-.239-.024-.36-.01-.096-.822-.239-.981-.171-.572.235-1.135.474-1.697.714-.774-.062-1.187.075-1.135.485.01.045-.112.103-.196.139-.084.036-.197.088-.3.085-.877-.005-1.753-.021-2.639-.036-.254-.002-.414.076-.629.155-.798.293-.835.293-1.536-.013-.644-.276-1.341-.253-2.037-.113-.77.151-.742.176-1.073.028a1.63 1.63 0 0 0-1.282-.026c-.281.115-.487.254-.949.234-.876-.035-1.762-.015-2.629-.05-.566-.024-.894.117-1.307.258-.657.221-1.45.038-2.175.066a.953.953 0 0 1-.596-.175c-.228-.16-.539-.222-.944-.217-.49.005-1-.06-1.355.178-.168.113-.366.166-.62.164-1.63-.021-3.27-.028-4.891-.08-.697-.022-1.119.135-1.645.319-.422.146-.904-.01-1.255-.214-.342-.199-.86-.193-1.273-.021-.093.042-.196.079-.271.125-.178.104-.395.106-.677.104-.632-.007-1.225-.006-1.643-.305-.105-.075-.425-.091-.661-.099-1.131-.022-2.262-.034-3.392-.051-.726-.012-1.526.073-1.983-.332-.019-.02-.226-.018-.245-.002-.364.308-1.081.23-1.588.368-.31.085-.458.279-.92.264-.999-.029-2.007-.017-3.006-.056-.452-.015-.668.124-.949.234a1.635 1.635 0 0 1-1.282-.025c-.265-.124-.464-.284-.916-.248-.471.031-.991-.1-1.393.138-.15.087-.384.197-.582.199-1.253-.001-2.507-.042-3.769-.037-.584.002-.869-.167-1.229-.331a1.411 1.411 0 0 0-.998-.003c-.385.161-.713.297-1.288.284-1.63-.047-3.26-.049-4.891-.085-.433-.011-.667.099-.958.214-.619.24-1.581.18-2.291-.131-.426-.188-1.576-.199-2.035-.012-.282.115-.515.26-.959.219a6.293 6.293 0 0 0-.754-.011c-.47.016-.999-.105-1.383.138.218.134.446.268.664.403.285.169.313.178.792-.01.215-.083.375-.156.638-.149l15.059.22c.631.008.65-.003.806.442.039.116.088.277.342.29.745.042 1.499.038 2.243.054.72-.5 1.768-.334 2.729-.325 1.008.008 2.007.027 3.015.041.123.003.292-.014.358.021.36.168.692.352 1.024.535.019.01-.103.088-.177.124-.525.265-1.031.504-1.917.428-.736-.063-1.508-.023-2.253-.045-.754-.021-1.508-.063-2.012.307 0 .006-.17-.038-.246-.068-.275-.108-.409-.284-.88-.288-4.014-.05-8.037-.104-12.052-.174-.471-.01-.658.139-.939.244-.235.089-.903.162-1.017.083-.798-.574-1.982-.337-3.047-.36-.889.527-2.08.232-3.134.285-.377.019-.754-.007-1.131-.012-3.26-.049-6.531-.132-9.79-.125-1.291.005-2.727-.363-3.908.239-.131.067-.461.046-.696.043-4.146-.058-8.283-.116-12.429-.179-.377-.006-.764-.037-1.131-.007a1.509 1.509 0 0 0-.582.194 1.231 1.231 0 0 1-.639.149c-3.769-.057-7.529-.105-11.298-.172-.443-.005-.706.094-.94.229-.196.109-.375.136-.658.129-1.753-.035-3.515-.06-5.267-.075-.283-.002-.462-.03-.643-.135-.483-.278-1.023-.535-1.526-.813-.256-.144-.54-.217-.945-.217-1.008-.004-2.007-.023-3.015-.041-.33-.007-.51-.136-.551-.389-.041-.258-.174-.338-.588-.368-.585-.039-.754.024-.91.4-.055.123-.1.255-.364.283-.103.012-.293-.138-.389-.228-.047-.045.027-.122-.002-.183-.135-.292-.154-.297-.719-.306-.754-.011-1.508-.043-2.262-.024-.48.011-.633-.165-.889-.278-.379-.173-.784-.164-1.29.02-.197.073-.375.151-.591.204-.094.027-.245.003-.368-.001l-13.937-.202c-.377-.006-.679-.043-.982-.181-.71-.311-.757-.306-1.526-.028-.216.079-.375.161-.63.159-3.015-.046-6.021-.087-9.037-.133-1.387-.166-3.039.294-4.197-.407-.744-.016-1.499-.074-2.233-.035-.302.014-.572.22-.854.34-1.253-.016-2.516-.027-3.76-.068-.179-.008-.331-.168-.511-.257-.37-.179-.775-.164-1.291.025-.197.068-.384.187-.591.199-.499.021-.999-.003-1.508-.013-.725-.016-1.535.074-1.973-.331a9.782 9.782 0 0 0-2.525-.032c-.514.396-1.306.279-2.032.272-2.883-.037-5.776-.084-8.66-.122-.273-.002-.518-.004-.67-.104-.323-.214-.635-.352-1.065-.053a.854.854 0 0 1-.281.12c-.113.021-.245.003-.377-.001-2.384-.033-4.769-.076-7.152-.099-.547-.004-.915-.091-1.276-.284-.284-.149-2.556-.229-3.242-.12-.329.05-.563.24-.834.365-.094.042-.216.079-.272.13-.047.056-.027.127-.036.188-.254-.002-.499-.009-.753-.012.008-.061.064-.147.007-.182-.569-.308-1.053-.611-2.118-.604-2.76.012-5.521-.057-8.273-.106-.433-.011-.687.089-.958.219-.094.041-.187.118-.272.119a79.87 79.87 0 0 1-2.243-.019c-.094-.004-.18-.074-.274-.113-.265-.114-.427-.269-.899-.274-3.514-.035-7.02-.095-10.535-.141-.282-.001-.48-.019-.633-.149-.39-.325-.727-.154-1.073.032a.582.582 0 0 1-.254.029c-.39-.28-.918-.344-1.597-.347a294.94 294.94 0 0 1-6.021-.087c-.594-.013-.865.183-1.268.309-.291.09-.678.079-1.009-.049-.748-.295-.748-.295-1.247-.3-4.636-.067-9.282-.135-13.918-.197-.283-.002-.49-.015-.661-.119-.152-.095-.323-.245-.512-.253-.169-.008-.365.146-.553.23-.094.036-.196.103-.291.104-1.13-.007-2.261-.034-3.383-.041-.461 0-.605-.181-.87-.299-.312-.139-.699-.139-1.009-.06-1.183.303-1.174.308-1.635.303-.877-.015-1.753-.04-2.629-.03-.198.003-.48.092-.573.179-.103.098-.138.296-.024.35.502.238.78.655 1.731.583.265.124.512.258.796.376.179.074.979-.021 1.025-.103.056-.087-.03-.172-.276-.265-.095-.04-.237-.084-.247-.134-.02-.096.149-.205.422-.208.622-.012 1.253.011 1.885.019.254.002.415.076.605.175.417.223.89.41.762.777-.027.071.313.174.484.268.209.114.25.397.109.5-.158.119-.365.157-.629.15-3.006-.046-6.021-.087-9.027-.133-.123-.004-.283.018-.368-.011-.199-.064-.369-.153-.549-.237-.417-.188-.917-.223-1.273-.031-.374.202-.797.258-1.325.228-.538-.029-.556-.008-1.247-.299-.209-.084-.331-.072-.556.062a1.37 1.37 0 0 1-.591.189c-.622.018-1.253-.01-1.884-.018L117.584 107a2.64 2.64 0 0 0-1.006.153c-.751.288-.789.283-1.527-.028-.199-.083-.351-.173-.605-.175-2.507-.037-5.013-.078-7.529-.105-.424-.005-.708-.088-.917-.238-.171-.114-.35-.163-.614-.16-.499.006-1.009-.028-1.508-.012-.452.015-.679-.124-.898-.264-.18-.114-.35-.173-.642-.134.017-.183.015-.37.059-.553.009-.046.169-.119.263-.125 1.101-.064 2.194-.076 3.27.068.283.037.296.357.784.204.207-.068.365-.222.563-.23.151-.006.341.148.511.228.086.039.171.114.265.118.745.017 1.499.023 2.252.02.095-.002.188-.079.272-.12.272-.125.525-.255.959-.214.462.04.942-.026 1.368.176.701.332.786.311 1.536.054.76-.258.958-.255 1.546.047.351.179.683.357 1.024.536.123.064.961-.016 1.016-.098.074-.112.092-.229.166-.342.213-.321.843-.364 1.431-.113.454.198.454.198.792.072.722-.277.901-.284 1.545.013.237.108.379.183.529.1.356-.187.722-.292 1.287-.279 1.376.045 2.761.039 4.137.074.443.01.687-.099.949-.224.094-.042.187-.119.272-.12.754-.004 1.517-.023 2.243.035.302.027.53.237.796.366.998.008 1.997.022 2.996.025.094-.001.187-.078.272-.119.271-.125.525-.224.958-.219 6.135.085 12.278.161 18.422.236a.458.458 0 0 0 .262-.125c.028-.03-.076-.105-.152-.13-.567-.17-1.207-.077-1.81-.1-.726-.027-1.526.053-1.964-.347-.405-.006-.553.254-.816.258-1.753.01-3.496-.015-5.249-.03-.502-.289-1.098-.439-1.917-.404-.744.029-1.508-.033-2.261-.019-.471.01-.633-.15-.898-.269-.095-.039-.171-.119-.266-.118a657.82 657.82 0 0 0-5.258-.066c-.094.002-.187.079-.271.12-.272.125-.516.229-.959.219-8.151-.128-16.311-.246-24.462-.353-.566-.009-.85-.178-1.257-.295-.624-.18-1.369-.227-2.025.049-.178.073-.394.172-.601.174-.621.018-1.253-.031-1.884-.013-.688.023-1.142-.114-1.597-.352-.208-.109-.679-.108-.998.027-.094.042-.178.089-.281.125-.479.183-.912.188-1.29.015-.257-.118-.419-.294-.89-.273-.499.021-.998-.009-1.507-.018-13.428-.193-26.847-.392-40.275-.58-.433-.005-.433 0-1.266-.279-.094-.035-.18-.1-.274-.109-.245-.017-.5-.014-.754-.016-4.014-.06-8.029-.124-12.043-.169-.556-.009-.905-.111-1.256-.3-.38-.203-.934-.08-1.415-.115-.415-.031-.604-.084-.588-.358.007-.223-.258-.326-.495-.461-.342-.198-.354-.457.096-.619.628-.236.128-.336-.063-.537-.305-.32-.385-.7.262-.986.553-.245.416-.67 1.11-.89.367-.116.07-.569-.364-.564-.933.006-1.182-.376-1.703-.603.366-.172.712-.353 1.115-.505.685-.256.034-.365-.175-.53-.19-.15-.146-.394.079-.498.459-.213.918-.421 1.377-.634-.117-.359.39-.542.849-.75.206-.094.375-.162.63-.16 1.13.018 2.261.045 3.382.037.17-.002.422-.127.497-.219.083-.102.016-.233-.032-.35-.02-.05-.153-.13-.247-.128-1.875-.039-3.75-.073-5.626-.107-.49-.01-1.342-.39-1.515-.687-.03-.055-.04-.136.016-.183.542-.421 1.406-.685 2.099-1.038.477-.243-.164-.277-.306-.392-.257-.22-.24-.377.2-.63.393-.228.374-.218.07-.392-.408-.238-.834-.43-1.53-.418-.086.001-.237-.078-.247-.129a2.603 2.603 0 0 1-.025-.542c.015-.294.025-.284.918-.4.217-.029.498-.088.601-.17.112-.092.073-.239.052-.36-.01-.051-.133-.115-.227-.135a4.417 4.417 0 0 0-.689-.073c-.754-.016-1.517.008-2.252-.044-.575-.04-.787-.432-1.55-.398-.424.015-.636-.398-.365-.579.075-.051.178-.123.272-.12.999-.001 1.998.023 2.996.006.151-.002.366-.151.44-.248.492-.63.586-.686 2.007-.84a.473.473 0 0 0 .262-.125c.028-.03-.058-.11-.124-.125a9.275 9.275 0 0 0-.67-.099c-.396-.046-.661-.139-.588-.368.018-.06.064-.142.007-.182a10.69 10.69 0 0 0-1.005-.541c-.407-.183-.57-.394-.318-.635.214-.205.658-.11 1.006-.144.292-.028.441-.157.318-.226a7.669 7.669 0 0 0-1.024-.536c-.265-.113-.322-.174-.088-.267.29-.12.524-.28.844-.37.3-.08.744-.04 1.006-.134.404-.146.722-.292 1.297-.278 1.499.043 3.006.05 4.514.074.273.002.535-.21.523-.417-.011-.127-.088-.232-.334-.295-.047-.01-.178.053-.262.09-.188.077-.365.231-.563.234-.753.014-1.507.002-2.252-.04-.189-.013-.341-.168-.512-.257-.218-.11-.86-.178-1-.085-.523.36-1.258.339-2.012.307-.396-.016-.605-.145-.58-.373.034-.37.04-.74.101-1.106.027-.143-.069-.218-.23-.327-.665-.439-.655-.449.131-.884.178-.098.167-.194-.154-.257-.217-.043-.5-.004-.726-.037-.301-.042-.492-.258-.372-.457.064-.102.289-.272.402-.263.556.03.97-.052 1.306-.264a.712.712 0 0 1 .291-.094c.754.001 1.508.028 2.262.024.716.002 1.5.135 2.05-.252.103-.067.443-.07.678-.074.867-.01 1.734-.01 2.6-.015.486-.34.902-.269 1.348.025.104.065.462.05.698.048.103-.002.206-.053.3-.085.291-.1.459-.279.92-.264 1.131.032 2.262.04 3.383.052.236.002.525-.255.438-.446-.048-.106-.23-.277-.361-.275-1.753-.04-3.506-.07-5.268-.065-.273.003-.553.199-.825.308-.438-.385-1.192-.366-1.945-.372-1.254-.011-2.507-.032-3.76-.053-.358-.006-.726-.042-1.084-.063-.324-.3-1.021-.277-1.503-.429-.37-.112-.589-.343-.883-.522.282-.125.572-.245.825-.384.187-.104.375-.121.667-.115 1.885.04 3.77.048 5.645.097.547.014.97-.042 1.307-.254.159-.103.394-.1.677-.099 1.753.036 3.515.056 5.268.08.254.003.499 0 .753.012.264.012.528-.026.602-.154.027-.05-.247-.174-.427-.208-.226-.038-.5-.014-.744-.022-.726-.016-1.526.069-1.973-.336-.84-.107-1.679-.138-2.526-.027-1.048.57-2.353.164-3.54.234-.16.012-.406-.127-.53-.222-.2-.155-.322-.158-.547-.039-.243.124-.449.274-.93.254-.998-.039-2.006-.022-3.005-.056-.472-.02-.64.16-.93.26-.085.025-.216.078-.263.063-.255-.063-.313-.174-.305-.306.007-.213.259-.398.56-.396.255.002.5.009.754.011.726.007 1.49.104 2.041-.272.094-.067.452-.056.688-.054 1.253.01 2.506.042 3.76.043.178-.002.356-.121.525-.184l-.256-.134c-.256-.129-.408-.264-.439-.466-.041-.314-.126-.293-.654-.327-.471-.03-.97.077-1.405-.126-.597-.277-.625-.261-1.266-.279-.565-.014-.584-.003-1.247-.29-.312-.138-.698-.067-1.01-.145-.255-.063-.303-.179-.305-.306-.01-.136.016-.263.251-.317.639-.15 1.497-.103 2.027.129.095.04.161.1.256.134.293.103.793.112 1.008-.002.328-.161.788-.268.936-.508.019-.03-.142-.115-.246-.129-.897-.121-.972-.095-1.247-.29-.333-.234-.98-.013-1.294-.268-.257-.205-.654-.367-1.014-.54-.294-.14-.699-.089-1.057-.095-.386-.005-.688-.048-.972-.196-.74-.392-.759-.387-.671-.966.035-.239.213-.337.684-.327.593.013 1.27-.076 1.67.249.153.125.341.153.624.155 1.752.015 3.515.045 5.267.07.603.008.884-.147.824-.445-.04-.187-.286-.29-.757-.29-.622-.003-1.262.035-1.643-.29a.564.564 0 0 0-.274-.104c-.754-.016-1.508-.048-2.261-.03-.575.013-.897-.126-1.248-.309-.322-.169-.99-.024-1.256-.284-.267-.256-.887-.142-1.266-.28-.265-.093-.21-.165.091-.264.17-.053.384-.172.365-.248-.04-.136-.313-.184-.596-.155-.291.034-.47-.02-.651-.124-.228-.13-.418-.284-.889-.274-.754.014-1.508-.028-2.261-.02-.471.006-.596-.185-.88-.288-.464-.172-1.226-.087-1.522-.413-.698-.119-1.396-.197-2.053.075-.178.072-.403.172-.61.169-1.253 0-2.506-.022-3.76-.048-.744-.016-1.48-.058-2.022.303-.093.062-.461.03-.706.028-3.383-.046-6.775-.103-10.158-.14-.434-.005-.699-.103-.917-.248-.171-.114-.35-.163-.624-.155-.377.01-.763-.036-1.13-.007-.753.06-1.114-.184-1.54-.403-.238-.118-.342-.188-.155-.266.085-.037.188-.079.3-.095.114-.017.255-.003.378 0 .64.039 1.234.027 1.664-.267.075-.052.188-.084.272-.13.356-.172.684-.317 1.268-.304 5.9.099 11.789.177 17.688.265.405.006.724-.043.968-.193.177-.109.375-.162.63-.16.998.019 2.006.017 3.005.046.764.022 1.499.039 1.984-.327.745.007 1.498.013 2.243.014a.585.585 0 0 0 .281-.11c.047-.03.074-.107.036-.121-.511-.243-.845-.604-1.796-.532-.612.043-1.253-.006-1.875-.019-.65-.017-.853.4-1.607.359-1.244-.067-2.507-.042-3.76-.078-.207-.008-.397-.117-.586-.18l.253-.125c.159-.083.487-.204.458-.25-.162-.195-.576-.18-.944-.186-4.269-.062-8.528-.134-12.796-.175-.707-.007-1.17-.128-1.56-.382-.706.043-1.095-.19-1.54-.398-.133-.064-.574.032-.716-.032-.625-.282-1.354-.562-1.059-1.073.038-.056.065-.142.008-.177-.133-.09-.333-.23-.483-.223-.933.026-1.697-.081-2.239-.48-.275-.205-.654-.317-1.22-.341-.282-.012-.548-.222-.804-.345-.398-.199-.398-.204.005-.39.272-.126.515-.28.834-.376.526-.153.183-.453.558-.635.525-.254.487-.269.07-.513-.323-.188-.267-.24.448-.283.264-.019.509-.001.677-.095.057-.036.131-.108.103-.122-.541-.349-1.11-.631-2.155-.558-.602.042-1.244-.057-1.674.252-.15.109-.394.111-.677.095-.5-.025-1-.02-1.508-.029-.471-.01-.651-.104-.635-.342.016-.243.06-.492.048-.736-.004-.324.382-.354.928-.406.668-.063 1.144-.464 1.984-.327.113.019.245.007.377.006.49.014.98.044 1.354-.183.244-.14.544-.255.825-.385.365-.166.692-.398 1.125-.48.432-.08.99 0 1.488-.012.095 0 .207-.073.263-.124.028-.031-.01-.097-.068-.126a.712.712 0 0 0-.284-.103c-.367-.017-.753.008-.982-.182.244-.124.506-.249.73-.383.01.035-.037-.045.33-.1.716.011 1.083.038 1.422.008.16-.012.29-.125.422-.202.01-.01-.143-.11-.228-.12a14.36 14.36 0 0 0-1.404-.044c-.188.008-.394.106-.554.179-.356.166-.346.171.341.178Zm414.803 54.118c.225-.099.412-.182.59-.27.365-.177.356-.177-.737-.194l-2.252-.035c-.123-.003-.264-.022-.368-.001a.55.55 0 0 0-.272.12c-.102.082-.007.213.276.24.481.045 1.083-.048 1.461.064.483.142.779.493 2.992-.359.481.005.971.029 1.442.009.16-.007.3-.126.431-.203a.474.474 0 0 0-.237-.119 43.626 43.626 0 0 0-2.139-.056c-.189.002-.451.091-.554.179-.187.159-.035.218.332.183.235-.023.48 0-.965.442Zm17.779-88.855c.245.002.489-.016.716.017.368.046.527-.006.365-.171-.086-.09-.332-.19-.52-.197-.716-.022-1.432-.014-2.148-.005a.532.532 0 0 0-.253.109c.114.08.237.205.398.213.471.035.961.024 11.326.933v-.02c4.25.061 8.499.123 12.749.18.49.005.98-.006 1.46-.027.094-.006.235-.074.263-.125.018-.035-.105-.11-.2-.124a4.932 4.932 0 0 0-.688-.078c-1.254-.026-2.498-.037-3.751-.058-.339-.006-.529-.14-.551-.384-.022-.248-.173-.342-.569-.373-.585-.044-.81.04-.929.386-.036.127-.082.239-.345.293-.056.01-.179-.034-.255-.063-.634-.272-.635-.292-1.247-.285-.528.006-.933-.05-1.284-.264-.332-.199-.888-.202-1.254-.01-.393.202-.816.237-1.335.213-.49-.02-.49-.005-1.288.258-.094.032-.197.068-.31.08-.122.011-.245.003-.377 0-.424-.016-.549-.238-.851-.305-.397-.087-.525.209-.808.222-.734.04-1.478.038-2.214.02-.603-.017-1.242.071-1.8-.1-.076-.024-.18-.099-.152-.125a.44.44 0 0 1 .262-.124c.49-.016.989.003 1.469-.023.273-.013.432-.116.403-.212-.019-.05-.152-.125-.246-.13a144.76 144.76 0 0 0-2.988-.056.548.548 0 0 0-.281.105c-.43.32-1.071.246-1.684.233-.05.507-.825.329-1.371.345-.377.015-.754-.016-1.122-.012-.857.01-1.716-.097-2.571.035-.094.016-.225.089-.206.119.019.05.152.13.237.129 4.608.108 9.216.197 3.95-.619Zm-103.801 88.626c-2.007-.027-4.014-.054-6.012-.092-.273-.007-.537-.014-.677.084-.43.299-1.043.271-1.674.258-1.376-.03-2.762-.054-4.137-.053-.273-.002-.413.136-.337.222.048.055.162.13.247.129 4.636.072 9.272.14 13.908.208.123.003.264.017.377 0 .113-.016.188-.073.282-.115.281-.109.477-.248.939-.239 3.637.064 7.265.113 10.903.167.245.002.499.015.744-.003a.59.59 0 0 0 .272-.12c.458-.31.696-.079 1.075.063.511.192 1.15.119 1.753.066.504-.381 1.277-.304 2.012-.292 3.007.046 6.012.087 9.028.133.499.009 1.008.034 1.498.013.198-.007.376-.116.563-.179l-.256-.134c-.417-.208-.73-.453-1.494-.449-1.629.014-3.26-.033-4.89-.064-.283-.007-.509-.005-.668.099-.336.216-.75.262-1.306.253-2.253-.05-4.514-.074-6.766-.104-.754-.011-1.508-.028-2.252-.029-.095.001-.188.073-.282.11-.187.078-.393.222-.544.209-.198-.018-.332-.174-.521-.248-.454-.172-1.5-.149-2.035.034-.807.283-.844.279-1.554-.002-.701-.276-.748-.29-1.545.003-.216.078-.375.156-.639.149-1.998-.022-4.005-.049-6.012-.077Zm-272.026-9.47.97-.053c.625-.458 1.56-.276 2.39-.276 1.252 0 2.506.037 3.76.047.225.003.47-.03.695-.063.085-.012.207-.114.197-.12-.502-.252-1.425-.17-1.768-.551l-2.988-.057c-.28.12-.562.235-.843.355-.266-.124-.512-.258-.796-.371-.076-.03-.245-.008-.368-.011-.5-.01-.998-.014-1.498-.023a466.87 466.87 0 0 1-3.76-.058c-.631-.013-1.159-.001-1.693.243-.384.177-2.194.117-3.24.012-.105-.008-.162-.089-.257-.128-.18-.074-.37-.199-.567-.202-1.876-.044-3.76-.062-5.636-.091-.403.116-.797.313-1.22.334-.867.045-1.753.005-2.63-.03-.197-.008-.425-.117-.558-.207-.209-.14-.36-.178-.538-.07-.336.207-.74.308-1.297.259-.075-.01-.206.063-.281.11-.121.082-.044.238.238.245 1.753.045 3.506.06 5.259.086.876.015 1.752.025 2.629.04.5.01 1.008.034 1.498.018.63-.023.72.362 1.163.377 1.244.051 2.497.037 3.741.047.72-.525 1.796-.284 2.738-.305.5-.011 1 .024 1.498.013.65-.013 1.17.047 1.625.315.332.19.942.065 1.537.114Zm287.547 12.199c-.029-.055-.049-.116-.106-.161-.066-.05-.171-.13-.246-.129-.706.024-1.51-.18-2.061.222-.149.113-.385.116-.668.109-.744-.027-1.507-.013-2.252-.045-.679-.027-.852.416-1.597.364-.858-.061-1.753-.056-2.62-.041-.575.007-.897-.131-1.238-.315-.275-.139-.699-.139-.989-.034-.395.137-.685.322-1.269.299-.867-.041-1.753-.03-2.629-.046-.876-.015-1.753-.035-2.629-.03-.188.002-.366.116-.554.179l.256.134c.417.208.731.468 1.494.444.763-.024.801.031 1.307-.233.262-.135.356-.157.556.003.123.1.332.235.521.243 1.244.036 2.497.036 3.741.052.281-.115.561-.321.853-.329 1.121-.023 2.252.019 3.374.032.263.002.434.06.604.17.314.189.645.373 1.024.53.161.064.453.071.689.068.33.002.47-.106.579-.381.101-.26.26-.338.665-.338.377.001.763-.014 1.122.023 1.075.104 1.532-.277 2.047-.612.065-.036.017-.117.026-.178Zm19.835-2.958c-1.112-.018-2.233-.04-3.345-.037-.15.001-.384.151-.43.248-.166.347.241.484.693.489 1.367.009 2.742-.007 4.09.069.933.055 1.307-.259 1.85-.483.047-.021.047-.092.009-.122-.058-.05-.162-.12-.256-.119-.867-.025-1.744-.03-2.611-.045Zm8.212.502c1.338-.041 2.809.099 4.297-.009.103-.007.187-.079.271-.12-.085-.045-.161-.125-.255-.129a128.996 128.996 0 0 0-8.51-.124c-.094.001-.187.078-.271.12.085.045.152.12.255.129 1.349.141 2.715.064 4.213.133Zm63.709-90.521c.008-.117.129-.29.005-.35-.398-.208-.674-.484-1.288-.583-.424-.071-.875.081-.919.37-.017.133-.063.224-.298.303-.187.063-.469.168-.449.239.029.096.303.173.455.263.313.189.645.312 1.191.31 1.14.003 1.253-.03 1.303-.552Zm-128.193 91.05c.989.014 1.97.043 2.959.036.264-.003.413-.126.365-.217-.029-.05-.143-.115-.247-.129-.906-.121-.906-.116-1.247-.274-.397-.183-1.575-.205-2.007-.038-.638.241-.638.241-1.288.233-.245-.002-.499-.019-.735-.006a.575.575 0 0 0-.272.114c-.102.083-.016.224.257.241.736.042 1.48.033 2.215.04ZM11.033 37.31c-.332-.173-.635-.368-1.014-.51-.151-.06-.5-.05-.707-.007-.178.037-.365.156-.411.258-.073.173-.052.356-.06.538-.007.193.249.301.682.306.613.008 1.216.022 1.828.025.094-.001.207-.053.291-.085.207-.078.15-.159-.116-.257-.18-.084-.332-.184-.493-.268Zm381.116 67.447c1.281-.03 2.263.09 3.241-.028.104-.011.254-.079.253-.119 0-.041-.143-.12-.237-.129a50.805 50.805 0 0 0-5.494-.078c-.094.006-.253.079-.253.119.001.041.143.12.237.129.849.046 1.697.082 2.253.106Zm20.902-.446c-.867-.011-1.734-.041-2.601-.031-.273.003-.404.137-.327.227.048.05.161.125.246.129 1.489.028 2.978.056 4.467.059.273.002.403-.136.327-.227-.048-.05-.152-.125-.247-.128-.622-.019-1.243-.021-1.865-.029Zm27.832-90.463c.122.003.254-.008.367.006.283.037.5.004.639-.124.177-.16.213-.327.013-.492a.47.47 0 0 0-.255-.119c-.49-.02-.99-.044-1.47-.013-.151.007-.328.166-.393.268-.111.189.118.445.354.457.255.012.5.015.745.017Zm54.401 8.176c-.745-.012-1.489-.039-2.233-.025-.283.008-.394.142-.309.227.048.05.162.125.247.123 1.234.027 2.478.053 3.712.049.274-.004.395-.142.309-.227a.451.451 0 0 0-.247-.124c-.49-.015-.989-.019-1.479-.023Zm-97.368 82.803c.245.002.49-.006.726.017.283.027.49.004.639-.114.112-.083.027-.163-.21-.256-.189-.074-.332-.174-.502-.258-.332-.164-.897-.167-1.254-.011-.093.042-.197.073-.262.125-.168.123-.686.16-.476.365.19.191.642.104.981.126.123.008.245.007.358.006Zm22.74-91.64c.113-.007.462-.026.8-.06a.51.51 0 0 0 .253-.125c.121-.113-.043-.44-.213-.49-.33-.082-.67-.103-.989-.008-.207.063-.366.156-.544.244-.168.078-.337.156-.477.25-.131.082.303.168 1.17.188Zm88.164 9.399c.49.01.989.019 1.479.013a.438.438 0 0 0 .263-.12c.093-.082-.012-.223-.286-.235-.98-.039-1.979-.043-2.968-.046a.492.492 0 0 0-.263.12c-.093.082.012.212.286.234.5.045.999.03 1.489.034ZM49.105 81.677c.367.006.745.037 1.102.007.283-.023.394-.141.309-.226a.455.455 0 0 0-.247-.13 10.017 10.017 0 0 0-1.102-.017c-.462.026-.624-.145-.88-.258-.085-.04-.17-.09-.246-.13-.131.094-.337.177-.383.28-.138.295.137.459.712.462.245.002.49.01.735.012Zm263.228 23.392c.491.01.99.019 1.48.018a.433.433 0 0 0 .262-.119c.094-.083-.012-.223-.285-.235-.98-.04-1.979-.043-2.968-.047a.488.488 0 0 0-.263.12c-.093.082.012.213.286.235.49.035.989.019 1.488.028ZM32.255 61.121c.49.01.99.039 1.48.013.282-.019.384-.147.298-.232-.057-.05-.162-.12-.246-.124-.736-.021-1.48-.048-2.215-.025-.282.009-.384.147-.299.232a.48.48 0 0 0 .256.124c.227.012.48.004.726.012Zm418.428-47.134c.245.002.49.02.735.007a.496.496 0 0 0 .262-.12c.093-.082-.002-.213-.276-.235-.481-.04-.98-.03-1.47-.023a.46.46 0 0 0-.262.12c-.094.081.002.192.276.234.226.038.49.015.735.017Zm-31.234 90.416c.245.002.49.02.735.007a.49.49 0 0 0 .262-.12c.094-.082-.002-.213-.276-.235-.481-.04-.98-.029-1.47-.023a.462.462 0 0 0-.262.119c-.093.083.002.188.276.241.226.032.49.004.735.011Zm81.489-82.298c-.123-.004-.264-.023-.358-.001-.273.059-.385.151-.299.232.048.05.142.104.246.128.104.024.236.008.359.011.471.005.78-.105.666-.235-.124-.13-.332-.174-.614-.135Zm-10.695 20.897c.122.004.255.023.358.001a.598.598 0 0 0 .262-.12c.094-.081-.002-.172-.266-.24-.095-.024-.245.003-.358-.01-.283-.038-.49-.005-.63.118-.131.124.172.242.634.252Zm2.899-.2c-.085-.045-.152-.115-.246-.124a4.923 4.923 0 0 0-.726-.012.608.608 0 0 0-.272.11c-.046.03-.055.086-.026.121.143.191.973.212 1.234.026.047-.025.027-.08.036-.122Zm54.512 45.112c-.085-.044-.152-.114-.247-.123a4.92 4.92 0 0 0-.725-.012.653.653 0 0 0-.272.11c-.047.03-.056.086-.027.121.153.191.973.207 1.235.026.046-.025.027-.076.036-.122Zm-71.509 7.338c.122.003.264.022.358 0 .207-.042.394-.11.591-.174-.189-.063-.359-.137-.558-.19a.938.938 0 0 0-.358-.007c-.206.043-.394.111-.591.174.18.064.369.133.558.197Zm-151.566 9.624c.123.003.264.022.358 0 .207-.043.395-.116.592-.174-.189-.063-.36-.137-.558-.191a.955.955 0 0 0-.358-.006c-.207.043-.395.111-.592.174.189.069.379.133.558.197Z"/><path fill="#000" d="M168.335 105.937c.754.011 1.508.043 2.252.024.575-.012.887.142 1.238.315.275.134.699.134.999.024.394-.147.693-.328 1.278-.294.622.039 1.263.061 1.875.024.753-.049.9.395 1.54.403.622.008 1.254.016 1.876.029.103.003.198.058.283.098.18.084.106.171-.195.255-.272.08-.374.172-.289.257.134.125.351.153.643.135.244-.018.508-.011.744.011.283.022.556-.001.62-.134.037-.071-.153-.196-.304-.255-.284-.108-.304-.169-.079-.267.544-.25 1.031-.519 1.917-.428.378.036.661.093.945.222.531.237.936.283 1.245.092.598-.372 1.354-.219 2.06-.237.266.129.494.339.796.366a16.61 16.61 0 0 0 2.243.029c.292-.013.553-.204.825-.313.265.118.531.247.815.355.075.03.245.007.367.011.622.008 1.253.016 1.875.029 4.637.067 9.263.135 13.9.198.263.002.406.081.614.165.748.321.785.31 1.536.053.103-.037.169-.103.281-.12.734-.115 1.47-.027 2.205-.016.188.003.388.123.558.202.265.128.512.268.768.401.322.169.501.137.686-.114.334-.47.334-.47 1.182-.455 1.753.03 3.506.051 5.258.081 1.131.017 1.093.018 1.124.2.05.268-.117.477-.586.62-.273.084-.262.175.068.258.312.077.716-.004 1.01.145.247.124.409.294.871.294 1.253.001 2.506.032 3.759.047.377.006.763-.014 1.122.023.283.032.378.152.285.235a.492.492 0 0 1-.272.119c-.876-.005-1.762.001-2.629-.04-.481-.02-.639.155-.93.259-.234.089-.874.147-1.016.068-.408-.249-.862-.38-1.569-.377-1.375.011-2.751-.029-4.136-.048-.255-.002-.444-.061-.596-.181-.314-.245-.831-.208-1.322-.223-.386-.01-.706.034-.987.174-.159.078-.403.167-.601.164a492.78 492.78 0 0 1-4.881-.065c-4.504-.064-9.018-.133-13.522-.197-.471-.004-.462-.015-1.587-.346a1.656 1.656 0 0 0-1.017.022c-.282.104-.459.279-.911.274-2.007-.037-4.005-.07-6.012-.082-.443-.005-.689-.114-.898-.258-.171-.115-.35-.143-.633-.145-6.012-.082-12.024-.169-18.036-.256-.622-.008-.764-.093-.778-.457 0-.061-.001-.122.017-.183.045-.188-.032-.344-.335-.483-.37-.168-.692-.352-1.015-.535-.019-.015.065-.092.131-.124.318-.14.696-.074 1.054-.073.773-.004 1.526.013 2.271.025Zm36.953 1.769c-.085-.045-.152-.115-.246-.124a4.869 4.869 0 0 0-.726-.012.644.644 0 0 0-.272.11c-.047.031-.055.087-.027.122.144.191.973.211 1.235.026.047-.031.027-.082.036-.122ZM68.282 106.332c-7.265-.102-14.52-.205-21.786-.323a1.664 1.664 0 0 0-.93.239c-.197.103-.375.126-.668.119-.998-.029-2.007-.033-3.006-.051-1.234-.016-1.272-.011-1.367-.152-.115-.16-.146-.332-.242-.499-.02-.04-.18-.094-.246-.088a.54.54 0 0 0-.272.12c-.158.154.014.365-.314.49a.604.604 0 0 1-.264.039c-.103-.025-.227-.079-.255-.129-.087-.166.118-.356-.233-.504-.283-.119-.52-.263-.767-.402-.446-.243-.437-.238.163-.519.75-.348.75-.348 1.819.019.094.035.17.095.274.114.114.019.245.007.368.011 3.628.054 7.265.097 10.893.167.547.008.96-.047 1.307-.254a.716.716 0 0 1 .29-.094c2.253.034 4.496.074 6.739.114.523.475 1.474.352 2.312.378.622.018 1.254.041 1.875.024.82-.02 1.765.202 2.4-.261a15.931 15.931 0 0 1 3.27.048c.311.037.437.299.851.309 2.63.046 5.258.086 7.888.111.49.005.664-.352 1.22-.344.5.01 1 .014 1.499.023.753.012 1.498.039 2.252.025.433-.005.698.098.916.243.171.114.35.158.624.16.999.003 2.007.032 3.006.036.283.001.453.045.66.119.805.289.824.284 1.634.29.123-.002.255-.003.377.006.236.012.456.288.326.477-.074.097-.261.211-.45.249-.216.043-.49.001-.744-.002-1.875-.028-3.76-.052-5.635-.081-5.267-.07-10.525-.151-15.784-.227ZM264.496 109.545l-11.666-.168c-.613-.008-.793-.113-.769-.463.008-.121-.031-.253.043-.365.065-.102.252-.185.393-.278l.256.134c.18.084.351.229.539.231.99.029 1.989.028 2.987.021.094-.001.197-.073.272-.119.477-.3 1.459-.129 1.86-.493.358-.015.725-.044 1.083-.043.527-.002 1 .125.878.207-.14.098-.365.167-.543.26-.066.031-.14.093-.121.123.048.055.152.13.246.129 4.26.072 8.519.129 12.779.221a3.152 3.152 0 0 0 1.607-.353c.065-.031.245-.003.367.001-.09.366.484.313.928.399.425.082.738.301 1.08.469.056.03.104.095.067.126a.494.494 0 0 1-.262.125c-4.015-.049-8.019-.109-12.034-.169.01 0 .01 0 .01.005ZM26.683 7.479c.745.012 1.499.043 2.243.025.386-.01.509.019.35.193-.046.051-.168.093-.271.125a1.337 1.337 0 0 1-.33.05c-.94.04-2-.22-2.738.29-.612.002-1.233.024-1.837.006a1.789 1.789 0 0 0-.958.209c-.084.041-.168.113-.272.12-1.026.108-2.254-.227-3.086.34-.047.03-.236.008-.358.004-.245-.002-.5-.01-.745-.012-.603-.008-1.263-.096-1.684.223-.317.247-.97-.02-1.316.233-.196.144-.487.25-.93.229-.745-.032-1.498-.018-2.243-.04-.452-.015-.63.16-.91.274-.207.089-.414.112-.687.09-.245-.018-.472-.056-.586-.181-.134-.14.013-.457.23-.495.564-.087 1.204-.075 1.578-.368.358-.014.725-.044 1.083-.033.405.016.725-.049.968-.193.178-.109.366-.162.63-.155.499.01.998.004 1.498.028.273.012.528.014.677-.084.43-.299 1.043-.29 1.665-.252.283.017.47-.01.677-.1.263-.114.44-.288.92-.258.613.038 1.263-.01 1.866.044.746.067 1.139-.16 1.589-.353l2.977.041ZM96.778 106.745l-4.08-.059c-.99-.013-1.046-.043-1.023-.51.008-.121-.041-.253.042-.36.075-.097.309-.232.46-.234 2.6.021 5.2.072 7.792.097.462.005.671.134.879.269.285.184.671.139 1.01.125.386-.02.471.015.37.198-.093.163.117.374-.296.49a1.34 1.34 0 0 1-.32.055 82.647 82.647 0 0 1-1.112-.013c-1.243-.021-2.478-.037-3.722-.058ZM451.645 107.085c-1.743-.025-3.486-.041-5.23-.086-.273-.007-.369-.153-.275-.235a.45.45 0 0 1 .271-.115c1.367.015 2.742.029 4.109.059.283.007.452-.031.668-.109.675-.252.685-.237 1.297-.234.575.004.565.004 1.288-.248.094-.031.215-.104.291-.094.755.082 1.109-.201 1.55-.399.281-.125.281-.125-.184-.393l-.228-.134c.207-.058.404-.147.611-.159a6.755 6.755 0 0 1 1.112.017c.179.018.312.133.464.203-.094.041-.178.083-.272.124-.093.042-.187.084-.272.125-.29.151-.241.327-.126.493.096.136.332.164.605.161.377-.01.763-.019 1.112.022a.64.64 0 0 1 .408.259c.106.191-.126.463-.39.456-.537-.019-.97.026-1.297.248-.169.114-.376.116-.659.109-1.62-.027-3.241-.048-4.853-.07ZM245.291 109.267c-1.243-.015-2.497-.036-3.741-.052-.621-.008-.82-.097-.768-.453.043-.319-.016-.598-.575-.804-.037-.015-.02-.091.027-.122a.592.592 0 0 1 .282-.11c.621-.002 1.243.021 1.875.019.282-.003.556.019.595.155.02.076-.186.19-.346.248-.3.099-.365.176-.119.265.095.034.189.073.302.082.585.059.932-.061 1.014-.341.072-.249.278-.378.599-.372 1.724.051 3.476-.01 5.183.132.094.009.171.084.256.129-.094.042-.168.108-.281.12-.979.118-1.97-.013-2.949.024-.188.007-.366.121-.544.184.085.045.18.084.256.134.465.304 1.014.52 1.87.439.245-.023.5.005.745.007.122.003.263-.013.367.011.274.052.398.147.323.234a.408.408 0 0 1-.262.12c-1.366-.01-2.742-.034-4.109-.054v.005ZM292.36 109.95c-.33-.026-.687.029-1.019-.119-.625-.287-.653-.272-1.247-.285-.122-.004-.254-.002-.377-.006-.461-.01-.698-.103-.738-.3-.051-.289.155-.398.833-.441.575-.037.575-.037.722-.302.028-.056-.03-.142.026-.178.122-.077.337-.202.45-.188.265.033.285.169.296.296.032.293.203.403.447.344.272-.059.299-.165.307-.307.007-.239.241-.358.608-.357.377.001.763-.014 1.122.022.188.018.331.133.492.202-.094.042-.178.084-.272.125-.281.12-.524.245-.494.452.031.182-.014.365-.04.553-.042.482-.079.498-1.116.489ZM468.006 105.104c-.866-.01-1.733-.01-2.591-.045-.273-.012-.369-.153-.267-.235.066-.052.187-.119.272-.115.726.047 1.187-.039 1.173-.46-.001-.081.262-.165.402-.248l.256.134c.246.129.474.243.907.248 2.101.016 4.203.052 6.304.089a.45.45 0 0 1 .247.123c.085.086-.017.193-.309.232-.225.033-.489.001-.734-.001-.745-.012-1.48-.024-2.224-.03-.477.35-1.173.389-1.947.347-.499-.04-.999-.029-1.489-.039ZM239.956 108.99c-.244.119-.469.248-.722.358-.609.276-.863.268-1.526-.008-.095-.039-.152-.099-.256-.129-.161-.043-.311.029-.536.128-.628.276-1.363.219-2.006.054-1.02-.257-1.002-.282-1.595-.301-.123-.003-.283.019-.368-.011a1.65 1.65 0 0 1-.398-.223c-.01-.01.159-.098.262-.115.329-.054.688.018 1.026-.108.947-.356 1.042-.347 1.79 0 .379.173.869.177 1.272.015.094-.036.197-.078.272-.125.168-.108.394-.09.658-.109.847-.06 1.405.116 1.871.43.047.045.151.084.256.144ZM410.502 107.965c.867.01 1.744.045 2.61.03.377-.004.509.02.351.194-.046.051-.178.083-.262.129-.646.317-.647.307-1.601.06-.199-.054-.481-.035-.726-.027-.103.001-.197.063-.291.099-.281.1-.449.269-.92.254-1.612-.042-3.232-.043-4.853-.085-.273-.007-.379-.153-.276-.235a.503.503 0 0 1 .272-.12c.696-.043 1.509.17 2.041-.231.15-.114.376-.116.659-.109 1.008.023 1.997.027 2.996.041ZM277.336 108.625c-.754-.012-1.508-.053-2.252-.025-.621.028-.248-.28-.607-.342-.179-.034-.445-.203-.408-.249.196-.195.601-.159.978-.153.999.013 2.008.057 3.006.036.716-.014 1.132.144 1.568.377.124.064.49.004.717.042.283.048.379.158.285.24a.49.49 0 0 1-.272.12c-1.008-.014-2.016-.032-3.015-.046ZM231.059 107.953c-.613-.008-1.244-.062-1.847-.019-.932.066-1.266-.279-1.768-.522-.047-.025-.057-.096-.02-.121.065-.052.177-.124.262-.12 1.235.011 2.47.073 3.694.033.932-.031 1.266.284 1.768.527.047.025.058.095.02.121-.065.052-.177.119-.262.12-.613.002-1.225-.011-1.847-.019ZM465.64 106.546c-.368-.005-.745-.001-1.112-.017-.349-.016-.81.07-.991-.13-.181-.201.308-.257.514-.371.234-.125.468-.254.92-.239 1.226.036 2.46.047 3.694.053.283.002.537.004.623.13.144.211-.317.262-.523.371-.234.124-.458.259-.92.239-.726-.032-1.461-.024-2.205-.036ZM431.286 107.915c-.745-.032-1.593-.068-2.432-.119-.095-.004-.237-.083-.238-.129 0-.041.159-.113.253-.12.481-.025 1.009.029 1.432-.052.649-.124 1.126-.418 1.956-.337.594.059 1.234.026 1.856.039.415.006.72.362.487.567a.483.483 0 0 1-.272.12c-.97.022-1.95.023-3.042.031ZM389.186 108.396c.198.013.792.036 1.386.08.095.009.171.084.256.129-.572.194-.879.588-1.793.533-.736-.043-1.48-.029-2.215-.041-.311-.006-.539-.181-.522-.389.025-.218.259-.348.636-.347.613.008 1.225.021 2.252.035ZM459.38 104.612c-.368-.006-.735-.027-1.102-.013-.283.009-.491-.014-.633-.129-.105-.085-.002-.162.251-.256.291-.105.553-.235.825-.355.679.053 1.497-.129 1.973.281.228.195.651.094.981.141a.393.393 0 0 1 .246.129c.067.085-.072.214-.336.222-.735.019-1.47-.008-2.205-.02ZM476.623 106.337c-.189-.003-.311-.016-.424-.005-.283.029-.49-.009-.614-.14-.153-.165-.164-.332.051-.482.14-.098.346-.166.524-.249.422-.193.431-.203 1.018.044.19.078.36.122.642.114.358-.01.726.001 1.084.023a.416.416 0 0 1 .246.123c.067.086-.044.194-.327.227-.329.04-.716-.062-.988.123-.317.222-.759.273-1.212.222Z"/><path fill="#000" d="M449.103 105.568c-.867-.01-1.744-.02-2.611-.046-.094-.004-.198-.078-.246-.129-.076-.085.063-.223.327-.226 1.988.012 3.976.044 5.974.082.085-.001.199.079.247.129.076.085-.054.224-.327.222-1.131.013-2.252-.015-3.364-.032ZM302.486 109.726c-1.017.113-1.557-.21-2.089-.539-.028-.02.027-.091.074-.122a.667.667 0 0 1 .282-.1c.367-.004.744.037 1.093.008 1.025-.098 1.557.22 2.088.548.029.02-.027.092-.074.123-.075.041-.187.098-.281.099-.358-.001-.726-.011-1.093-.017ZM472.119 105.533c.245.002.49-.001.735.012.236.012.456.273.345.462-.065.102-.242.251-.402.263-.48.026-.98.002-1.479-.008-.236-.007-.456-.273-.345-.462a.672.672 0 0 1 .411-.263c.217-.049.49-.006.735-.004ZM31.131 7.543c-.49-.01-.98-.034-1.46-.013-.377.02-.528-.024-.342-.189.103-.087.375-.176.563-.179 1.216.012 2.422.043 3.638.08a.52.52 0 0 1 .237.119c-.131.077-.29.2-.44.202-.735.014-1.46-.008-2.196-.02ZM529.819 14.398c.245.002.537-.032.726.022.17.043.313.179.352.28.077.191-.193.443-.428.44-.49.001-.99-.003-1.48-.023a.395.395 0 0 1-.246-.129c-.324-.31.021-.603.699-.6l.377.01ZM280.233 109.772c-.123-.003-.246-.012-.368-.006-.527.042-.794-.193-.693-.478.064-.173.383-.278.788-.258.123.004.292-.018.358.011.265.119.484.268.758.382.247.103.313.174.173.261-.168.099-.375.131-.649.099-.123-.019-.245-.007-.367-.011ZM535.044 14.844c-.339-.027-.781.07-.963-.131-.171-.2.309-.247.496-.36.149-.094.355-.228.525-.225.169.003.331.153.492.238.086.044.152.094.247.129.255.093.322.173.201.256-.159.108-.366.14-.64.109-.113-.024-.235-.018-.358-.016ZM284.44 109.47c-.016.213-.231.337-.608.357-.612.027-.915-.106-.899-.385.016-.213.231-.337.608-.357.612-.027.915.101.899.385ZM222.779 107.279c.009-.066.007-.177.017-.177.235-.008.48.014.716.001.273-.018.462.015.623.115.275.174.166.545-.2.6-.33.045-.678.069-.971-.059-.332-.144-.155-.323-.185-.48ZM421.504 107.756c.095.009.443.03.783.072.104.014.237.083.237.129.001.04-.149.103-.253.119-.715.115-1.45.027-2.167.02-.188-.002-.378-.117-.567-.186.197-.058.384-.151.601-.169.358-.019.726.007 1.366.015ZM533.159 14.81c-.016.213-.231.347-.589.367-.753.039-1.19-.23-.902-.557.112-.128.535-.21.941-.179.377.021.576.156.55.369ZM41.54 7.326c-.35.014-.68-.038-.898-.198.197-.058.384-.151.592-.169a6.537 6.537 0 0 1 1.093.018c.207.018.378.122.567.186-.197.058-.384.141-.6.17-.217.022-.472-.005-.755-.007ZM4.47 37.559c.149-.113.356-.151.61-.098.038.01.002.106-.007.167-.009.056-.008.117-.017.173-.043.294-.268.383-.853.385-.254-.002-.462-.03-.567-.15-.028-.031.009-.092.065-.118.243-.125.506-.24.768-.359ZM562.478 59.192c-.245-.002-.508.021-.725-.017-.284-.052-.36-.163-.248-.245.065-.047.177-.114.272-.115.49-.005.989-.016 1.46.029.283.027.36.158.248.24a.565.565 0 0 1-.272.115c-.245.013-.49-.005-.735-.007ZM414.11 107.907c-.149.113-.356.151-.611.098-.038-.009-.001-.106.007-.167.009-.056.008-.117.017-.172.034-.295.259-.389.853-.385.254.002.462.03.567.15.029.03-.008.091-.065.117-.243.125-.515.24-.768.359ZM427.109 107.665c-.356.156-.703.322-1.078.468-.141.053-.377-.01-.463-.146-.106-.176.079-.432.277-.475.338-.075.668-.074.989.014.104.024.171.079.275.139ZM418.013 108.075c-.025.274-.335.404-.948.345-.207-.017-.378-.117-.558-.181.075-.041.159-.083.234-.119.178-.083.375-.156.525-.244.196-.119.356-.162.526-.108.237.074.313.174.221.307ZM399.785 108.313c-.054.249-.571.316-.833.481-.066.041-.169.063-.263.094-.105-.095-.294-.189-.314-.29-.061-.354.38-.511 1.144-.419.104.014.171.084.266.134ZM297.329 108.615c-.122.093-.243.185-.374.278-.085-.034-.17-.064-.246-.103-.247-.129-.503-.253-.73-.387-.048-.025-.039-.091-.002-.122a.604.604 0 0 1 .263-.12c.772-.064 1.169.103 1.089.454ZM236.699 107.664c.245.002.509-.021.726.017.283.052.36.163.248.245-.066.047-.178.114-.272.115-.49.006-.989.017-1.461-.023-.283-.028-.36-.158-.248-.241a.586.586 0 0 1 .272-.115c.245-.018.49 0 .735.002ZM6.501 43.755c.358-.05.48.01.332.173a.485.485 0 0 1-.234.12c-.207.033-.424.05-.64.063-.245.013-.49-.04-.53-.161-.02-.056.225-.175.384-.197.198-.033.453 0 .688.002ZM481.648 104.201c.077.136-.016.238-.279.297-.264.059-.482-.096-.475-.324-.001-.061-.021-.126.026-.178a.546.546 0 0 1 .262-.119.474.474 0 0 1 .473.146c.048.05.001.117-.007.178ZM461.002 106.357c-.186.185-1.006.184-1.244-.011-.038-.03-.039-.091-.011-.121.177-.19 1.006-.184 1.244.011.038.024.01.075.011.121ZM443.551 106.966c.122.004.264-.013.358.011.198.054.444.106.539.197.086.075-.544.209-.921.157-.208-.028-.378-.122-.558-.186.084-.041.168-.088.272-.12.084-.031.206-.037.31-.059ZM436.642 107.548c-.226.018-.47.062-.678.039-.207-.023-.378-.118-.558-.186.198-.059.375-.152.592-.17.207-.017.452.026.67.064.103.019.236.083.227.124-.009.045-.159.088-.253.129ZM396.728 108.749c-.187.179-1.006.179-1.244-.011a.088.088 0 0 1-.011-.122c.177-.189 1.006-.184 1.244.011.038.03.01.081.011.122ZM273.241 108.105c.031.197-.211.468-.409.445-.095-.009-.208-.073-.237-.124a.85.85 0 0 1-.098-.333c-.001-.051.064-.107.13-.149.075-.046.178-.113.262-.114.085-.001.18.074.247.124.047.04.067.1.105.151ZM428.418 110.072c.283-.039.49.004.614.135.115.13-.195.24-.666.236-.122-.004-.254.013-.358-.011a.483.483 0 0 1-.246-.129c-.086-.085.026-.173.298-.232.104-.021.245-.003.358.001ZM262.671 108.228c-.008.101-.562.214-.949.163-.208-.028-.379-.122-.558-.186.093-.042.168-.093.272-.12.328-.085.668-.078.989.014.095.029.161.084.246.129ZM287.267 109.508l-.558-.192c.197-.058.385-.126.592-.174a.955.955 0 0 1 .358.006c.198.054.378.123.558.191-.197.059-.385.127-.592.175-.094.016-.235-.008-.358-.006ZM296.502 109.638c-.471-.009-.765-.128-.625-.251s.356-.161.63-.119c.113.014.264-.013.358.011.265.068.36.163.267.24a.584.584 0 0 1-.263.12c-.112.022-.244.003-.367-.001Z"/></svg>