<svg xmlns="http://www.w3.org/2000/svg" width="454" height="719" fill="none"><g clip-path="url(#a)" opacity=".71"><path fill="#F8CD53" d="M511.541-370.409c-47.565-7.488-109.696 7.117-170.481 40.06-56.452 30.6-103.858 72.282-126.803 111.509-67.749 115.808-24.093 182.962 58.898 291.682 6.508 8.526 13.032 16.913 19.345 24.995 37.787 48.512 70.424 90.386 82.159 140.576 12.872 55.009-1.687 114.501-45.821 187.179-27.36 45.074-33.445 87.005-18.055 124.65 32.744 80.145 153.166 114.329 155.446 114.961 86.814 28.044 149.807 29.441 187.191 4.143 17.666-11.944 29.566-29.639 35.993-53.625 2.933-10.945 4.726-23.184 5.396-36.776.974-19.654-10.648-42.765-22.958-67.215-24.61-48.939-52.52-104.39 3.025-157.23 32.479-30.9 48.28-68.227 45.677-107.889-3.2-48.685-33.987-99.259-82.342-135.285-16.159-12.04-27.247-24.02-34.592-36.296-.312-2.66-.64-5.346-.942-8.045-.308-3.381-.606-6.8-.874-10.254-.364-5.828-.634-11.776-.872-17.84-.066-4.676-.111-9.43-.097-14.25.094-4.49.233-9.07.412-13.723.251-4.22.504-8.523.797-12.898.363-4.087.746-8.252 1.145-12.475.187-1.557.369-3.096.542-4.679.286-2.397.563-4.837.851-7.317.535-3.794 1.091-7.665 1.623-11.604.597-3.634 1.184-7.311 1.773-11.07.664-3.574 1.305-7.216 1.962-10.916.692-3.443 1.38-6.949 2.04-10.504.74-3.388 1.452-6.826 2.155-10.307 11.212-48.721 18.923-107.657 1.749-183.486-13.786-60.82-49.867-97.495-104.342-106.071ZM559.33-99.062c-15.516-12.487-40.161-12.308-62.733.446-11.913 6.724-28.41 19.93-39.265 44.584-10.109 22.959-12.724 49.986-7.793 80.334 8.164 50.078 19.572 80.554 30.668 106.019.909 2.078 1.803 4.132 2.688 6.142 15.618 35.541 26.907 61.223 15.089 125.016-2.827 15.24-4.055 31.074-5.34 47.82-.892 11.533-1.801 23.288-3.265 35.78-.095.511-.214 1.035-.314 1.565.028-5.888-.052-11.682-.133-17.394-.304-20.821-.589-40.461 4.388-61.145 16.163-67.041 2.861-94.664-15.554-132.893-1.25-2.602-2.528-5.254-3.81-7.968-14.49-30.456-25.413-61.256-31.62-112.623-5.208-43.143 5.888-98.306 52.673-123.765 22.886-12.442 47.601-12.644 62.959-.509 9.278 7.331 14.38 18.367 15.226 32.241-2.514-12.26-8.836-19.602-13.864-23.65Zm13.036 32.602c-1.804-9.286-6.088-16.97-12.87-22.518-14.902-12.198-39.25-11.96-60.589.567-13.818 8.131-57.609 41.092-40.314 124.128 10.179 48.886 21.364 77.694 30.359 100.844 17.876 46.021 27.52 70.891 4.272 191.325.485-5.56.905-11.035 1.33-16.446 1.293-16.703 2.511-32.498 5.313-47.642 11.923-64.342.529-90.258-15.218-126.102-.885-2.01-1.779-4.064-2.687-6.142-12.79-29.3-22.872-58.472-30.557-105.576-7.004-42.923 1.452-97.763 46.132-123.023 21.905-12.375 45.689-12.62 60.604-.625 8.911 7.212 13.67 17.888 14.225 31.21Zm-13.198-42.624c-15.965-12.606-41.496-12.479-65.044.322-12.478 6.8-29.921 20.102-42.128 45.034-11.296 23.093-15.192 50.21-11.515 80.553 6.248 51.605 17.208 82.58 31.779 113.201a734.528 734.528 0 0 0 3.83 7.974c18.238 37.872 31.416 65.256 15.423 131.662-5.034 20.895-4.741 40.662-4.449 61.603.123 8.918.243 18.001-.047 27.365-.094.429-.188.857-.262 1.291-.256 1.189-.482 2.344-.713 3.519-.447-5.52-1.017-10.971-1.597-16.384-2.381-22.285-4.865-45.359 2.398-70.667.478-1.707.951-3.394 1.399-5.068 17.864-66.668 2.168-97.076-17.594-135.356-1.529-2.966-3.092-5.962-4.654-9.04-16.397-32.245-28.221-64.915-32.683-119.67-5.386-66.074 26.989-107.598 59.091-124.436 23.897-12.543 49.581-12.691 65.437-.381 9.963 7.741 15.514 19.68 16.413 34.764-2.035-10.997-7.087-19.958-15.084-26.286Zm-.187-9.925c-16.429-12.751-42.93-12.678-67.483.204-18.731 9.825-34.271 25.555-44.996 45.503-12.484 23.229-17.541 50.385-15.075 80.712 4.488 55.05 16.383 87.925 32.875 120.361 1.562 3.077 3.12 6.092 4.649 9.058 20.048 38.852 35.947 69.521 16.056 139.068-7.336 25.659-4.86 48.917-2.461 71.372.82 7.641 1.644 15.428 2.069 23.293a682.893 682.893 0 0 0-1.246 6.841c-.864-5.138-1.888-10.299-2.921-15.585-4.797-24.21-9.754-49.226-.127-79.137 23.737-73.587 5.766-106.522-16.955-148.214a1806.278 1806.278 0 0 1-5.339-9.842c-18.948-35.3-31.198-68.804-33.761-126.741-2.942-66.285 31.841-108.05 65.367-125.043 25.361-12.851 51.427-12.938 68.042-.26 10.654 8.132 16.595 20.959 17.591 37.245-2.088-12.208-7.555-22.042-16.285-28.835Zm-.159-9.876c-17.208-13.125-44.051-13.102-70.064.069-34.034 17.248-69.355 59.612-66.394 126.767 2.578 58.271 14.913 92.005 33.972 127.52 1.803 3.349 3.582 6.629 5.338 9.842 22.516 41.286 40.3 73.903 16.822 146.756-9.784 30.343-4.771 55.62.091 80.054 1.424 7.185 2.811 14.195 3.783 21.114-.047.256-.075.516-.122.771-1.274-4.856-2.802-9.78-4.348-14.791-7.105-23.015-15.126-49.099-4.105-80.306 27.258-77.118 7.377-111.987-17.806-156.132-1.949-3.429-3.946-6.912-5.957-10.502-21.65-38.58-34.281-72.847-34.825-133.789-.613-66.464 36.561-108.476 71.549-125.613 26.46-12.969 53.583-13.019 70.75-.132 11.417 8.563 17.831 22.363 18.907 39.989-2.154-13.524-8.068-24.344-17.591-31.617Zm-.194-9.824c-17.759-13.335-45.641-13.342-72.752-.053-35.496 17.392-73.202 59.983-72.585 127.293.557 61.358 13.279 95.835 35.067 134.679 2.016 3.57 3.989 7.068 5.958 10.502 24.933 43.748 44.632 78.28 17.669 154.611-11.254 31.763-3.091 58.174 4.09 81.456 2.006 6.495 3.946 12.85 5.398 19.073a383.884 383.884 0 0 0-1.282 9.16c-1.628-4.786-3.591-9.724-5.64-14.891-9.74-24.586-20.78-52.448-7.283-87.898 30.686-80.694 8.895-117.497-18.68-164.118a1900.808 1900.808 0 0 1-6.533-11.089c-23.91-41.083-37.442-77.302-35.903-140.86 1.624-66.607 41.162-108.851 77.623-126.171 27.609-13.115 55.804-13.105 73.581.007 9.492 6.997 19.569 20.17 20.477 44.596-1.972-15.764-8.453-28.221-19.205-36.297Zm-.16-9.794c-18.334-13.53-47.283-13.618-75.519-.197-36.963 17.556-77.048 60.354-78.687 127.803-1.55 63.988 12.081 100.46 36.164 141.837 2.209 3.787 4.38 7.482 6.527 11.108 13.949 23.57 25.98 43.905 30.969 68.723 5.486 27.261 1.521 57.06-12.444 93.787-13.756 36.102-2.564 64.335 7.3 89.243 2.599 6.551 5.026 12.726 6.85 18.657a304.31 304.31 0 0 0-1.023 9.911c-2.042-4.959-4.517-10.096-7.126-15.516-11.953-24.767-26.82-55.613-10.762-95.387 34.042-84.309 10.385-123.055-19.574-172.108-2.327-3.819-4.701-7.692-7.089-11.672-26.87-44.72-40.717-81.56-37-147.936 3.738-66.762 45.661-109.233 83.652-126.72 29.206-13.449 57.788-13.398 76.465.182 13.333 9.696 20.701 25.4 21.835 46.093-2.628-19.959-11.817-31.369-20.538-37.808ZM481.87 400.029c-.095.82-.169 1.645-.258 2.446-.009-.044-.024-.068-.033-.112.103-.776.207-1.553.291-2.334Zm-.842 7.361.083.393c-.268 3.186-.515 6.294-.686 9.279-.071-.205-.137-.428-.227-.638.241-3.008.506-6.029.83-9.034Zm77.27-565.649c-19.22-13.973-48.532-14.117-78.384-.366-38.469 17.709-80.933 60.715-84.721 128.289-3.743 66.864 10.203 103.957 37.261 148.995 2.388 3.98 4.757 7.872 7.103 11.696 29.681 48.607 53.141 86.992 19.434 170.443-16.362 40.517-1.289 71.768 10.806 96.862 3.229 6.699 6.253 12.993 8.468 18.947a302.286 302.286 0 0 0-.615 10.576c-2.478-5.282-5.62-10.824-8.929-16.679-14.821-26.093-33.249-58.573-14.501-102.759 37.368-87.974 11.835-128.625-20.469-180.1a1508.402 1508.402 0 0 1-7.644-12.253c-29.952-48.535-44.072-85.84-38.078-155.008 5.809-66.991 51.904-110.426 89.618-127.265 30.413-13.58 60.107-13.458 79.388.367 14.315 10.248 22.215 27.249 23.36 49.697-2.647-22.232-12.7-34.636-22.097-41.442Zm-34.805 681.157a164.35 164.35 0 0 1-3.139-3.521c.039.011.059.016.093.046a107.745 107.745 0 0 0 3.046 3.475Zm8.541 1.876c4.729 1.412 9.859 1.488 15.707.21 17.357-3.761 33.335-25.187 45.025-59.205-11.179 35.783-23.802 55.078-38.865 59.886-8.681 2.787-15.429 2.504-21.867-.891Zm16.14 17.499c9.658 2.237 17.576-1.373 26.491-7.457 14.637-10.014 19.866-35.702 26.494-68.251.896-4.44 1.855-9.11 2.858-13.872-1.513 8.15-2.803 16.01-3.993 23.422-4.534 27.936-8.118 49.983-19.855 59.722-7.427 6.154-15.58 12.05-26.251 10.469-11.679-1.727-25.623-12.267-42.746-32.585a41.456 41.456 0 0 0 4.612 3.257c12.186 14.913 22.712 23.052 32.39 25.295Zm51.118-76.085c-6.539 32.14-11.706 57.515-25.724 67.097-8.505 5.803-16.004 9.257-24.993 7.178-6.878-1.596-14.403-6.56-22.767-15.11 5.837 5.873 11.388 9.608 16.805 11.348 9.709 3.137 18.244-.431 25.317-4.329 17.439-9.613 24.788-39.228 33.563-76.974-.74 3.698-1.474 7.295-2.201 10.79Zm-32.286 64.556c-7.054 3.903-14.838 7.094-23.817 4.194-2.986-.965-6.036-2.628-9.2-4.96a28.161 28.161 0 0 0 2.921 1.442c9.307 3.937 17.874 1.264 24.285-1.491 18.151-7.815 28.379-35.833 37.665-71.505-8.335 35.638-15.62 63.372-31.854 72.32Zm-6.562-2.542c-9.137 3.943-15.954 4.384-22.782 1.503a26.578 26.578 0 0 1-3.956-2.112c6.147 2.451 12.837 2.409 20.784-.141 19.413-6.199 32.212-34.044 41.361-64.907-8.853 32.963-18.75 58.493-35.407 65.657Zm-13.14-5.026c-6.266 1.352-11.628 1.131-16.543-.763 3.346.484 6.765.535 10.231.102 21.796-2.673 39.501-28.668 50.462-58.716-11.481 34.177-27.166 55.682-44.15 59.377Zm-6.548-2.517c-5.345.65-10.65.136-15.68-1.48 3.381.741 6.509.94 9.196.835 19.801-.693 39.915-20.682 52.758-49.628-11.857 28.86-28.914 48.142-46.274 50.273Zm-15.636-3.365c.793.089 1.6.202 2.408.233 19.667.899 40.586-16.153 54.371-41.115-12.578 24.441-30.537 41.151-47.715 41.744a34.448 34.448 0 0 1-9.064-.862Zm2.486-1.622a31.45 31.45 0 0 1-3.865-.418c21.34.75 44.755-17.962 58.65-43.802-13.317 26.572-34.726 45.141-54.785 44.22Zm-6.577-2.484a.337.337 0 0 0-.142-.018c5.517.035 11.333-1.045 17.302-3.321 14.494-5.497 27.88-16.939 37.715-31.064-14.432 21.985-35.781 36.736-54.875 34.403Zm-7.989-2.842c-6.431-8.423-13.332-18.684-20.743-30.792a128.686 128.686 0 0 1-2.811-10.525c8.715 17.241 16.683 30.941 24.125 41.45-.181-.028-.376-.081-.571-.133Zm-31.767-45.744c.498.876.996 1.751 1.504 2.588.939 4.932 2.087 9.321 3.363 13.23-.663-.961-1.307-1.917-1.971-2.878-1.21-4.077-2.162-8.414-2.896-12.94Zm-.151 8.453a6.992 6.992 0 0 1-.298-.451c.032-.197.044-.4.071-.578.074.349.148.699.227 1.029Zm1.821-17.344c.124.239.229.473.353.713a148.49 148.49 0 0 0 1.777 10.949l-.518-.881c-.657-3.33-1.183-6.914-1.612-10.781Zm-1.095 6.118a7.254 7.254 0 0 1-.254-.46c.043-.236.066-.477.088-.718.059.407.117.814.166 1.178Zm3.938 10.538c.216.367.417.71.638 1.058 1.341 5.307 2.902 9.951 4.603 13.994l-.578-.814c-1.74-4.054-3.329-8.747-4.663-14.238Zm3.029 15.181c2.168 5.034 4.579 9.082 7.002 12.308-3.936-4.374-7.051-9.703-9.446-15.766.823 1.148 1.641 2.315 2.444 3.458Zm6.631.643c5.108 8.048 9.934 15.114 14.537 21.295-.078-.021-.151-.061-.248-.087a51.747 51.747 0 0 1-3.282-3.065 53.017 53.017 0 0 1-1.999-2.226c-3.146-4.121-6.253-9.324-9.008-15.917Zm-7.333-26.147c-.46-2.659-.884-5.453-1.252-8.376 5.555 13.879 10.822 25.784 15.904 35.804.105.234.204.487.289.716-4.752-8.2-9.735-17.575-14.941-28.144Zm-2.045-15.495a223.206 223.206 0 0 1-.502-6.566c2.972 9.847 5.907 18.817 8.804 26.912a607.515 607.515 0 0 1-8.302-20.346Zm-3.665 3.678a.986.986 0 0 0-.021-.233c.052-.274.085-.554.118-.834.042.547.114 1.061.156 1.608a7.879 7.879 0 0 0-.253-.541Zm-1.911-.368a38.094 38.094 0 0 0-.941-2.582 197.58 197.58 0 0 1-.207-10.714c.23.783.465 1.547.636 2.315.087 3.816.264 7.451.518 10.879a.221.221 0 0 1-.006.102Zm4.698-17.77c-.04-1.412-.094-2.849-.119-4.32a611.957 611.957 0 0 0 3.522 15.684 633.602 633.602 0 0 1-3.403-11.364Zm-5.278.4c-.161-.414-.322-.828-.497-1.267.082-3.276.228-6.556.438-9.84l.296 1.007a307.929 307.929 0 0 0-.237 10.1Zm78.235-600.498c-19.869-14.209-50.252-14.413-81.287-.546-38.167 17.047-84.823 61.012-90.701 128.81-6.05 69.688 8.17 107.246 38.342 156.129 2.567 4.172 5.135 8.262 7.664 12.259 32.012 51.004 57.309 91.283 20.339 178.395-19.116 45.015-.43 77.936 14.588 104.39 4.085 7.176 7.878 13.882 10.451 20.138a222.28 222.28 0 0 0-.001 11.256c-2.865-5.716-6.885-11.885-11.338-18.706-16.902-25.907-40.052-61.385-18.481-110.092 6.353-14.337 11.045-27.47 14.302-39.626 17.58-65.61-6.457-103.015-35.67-148.446a2281.26 2281.26 0 0 1-8.2-12.835c-32.492-51.401-47.469-90.585-39.156-162.08 4.655-40.107 24.943-76.995 57.086-103.903 28.793-24.095 63.147-36.681 91.887-33.701 33.339 3.47 52.476 26.739 54.009 64.691-2.525-25.188-13.644-38.847-23.834-46.133Zm12.263 2.44c-9.623-13.071-24.254-20.971-42.257-22.846-29.248-3.034-64.13 9.72-93.299 34.126-32.514 27.201-53.023 64.524-57.738 105.09-8.375 72.035 6.712 111.516 39.438 163.289 2.765 4.369 5.511 8.651 8.22 12.84 34.322 53.397 61.451 95.589 21.229 186.324-21.98 49.608 1.498 85.585 18.64 111.845 5.533 8.492 10.384 15.936 13.108 22.644.239 4.579.622 8.929 1.171 13.054-2.924-6.823-8.522-14.446-14.978-23.165-19.931-27.028-47.246-64.075-22.733-117.354 43.826-95.356 14.658-139.785-22.267-196.044-2.882-4.401-5.812-8.855-8.756-13.417-35.828-55.511-50.983-94.97-40.234-169.15 12.253-84.478 95.88-144.698 156.969-138.225 35.031 3.717 55.208 28.729 56.643 69.314-1.336-15.407-5.723-28.252-13.156-38.325Zm-43.326-32.843c-30.148-3.192-66.491 9.706-97.239 34.535-33.977 27.427-55.928 64.817-61.783 105.263-10.821 74.76 4.443 114.516 40.52 170.424 2.963 4.566 5.889 9.04 8.771 13.441 36.613 55.783 65.545 99.84 22.139 194.257-24.953 54.295 2.718 91.809 22.923 119.219 10.273 13.927 18.38 24.922 16.503 33.882l-.103.385.226.328a754.69 754.69 0 0 0 3.58 5.31c3.508 11.598 8.78 20.515 15.842 26.427a34.615 34.615 0 0 0 6.894 4.507c19.516 24.196 35.204 36.666 48.296 38.587 11.44 1.684 19.974-4.462 27.727-10.898 6.595-5.47 10.697-14.451 13.794-26.012 2.66-9.925 4.57-21.741 6.698-34.839 1.387-8.535 2.859-17.623 4.684-27.092-2.024 11.931-3.371 23.362-4.589 34.003-2.9 25.199-5.201 45.115-15.206 55.031-7.949 7.869-16.043 14.874-27.534 14.083-18.726-1.286-43.885-23.097-79.188-68.614 1.503-8.812-7.178-19.385-18.15-32.735-23.115-28.109-54.758-66.583-27.223-124.578 47.035-99.052 16.05-145.369-23.153-203.991-3.06-4.593-6.184-9.264-9.326-14.023-38.507-58.559-54.505-99.871-41.331-176.227 14.697-85.163 102.282-145.622 164.964-138.845 37.066 4.015 58.405 31.255 59.412 75.23-2.633-39.236-23.234-63.372-58.148-67.058Zm-1.083-10.021c-63.474-6.865-152.126 54.215-167.007 140.38-13.296 76.963 2.831 118.578 41.602 177.558 3.137 4.778 6.26 9.449 9.341 14.047 38.89 58.146 69.606 104.062 23.029 202.185-28.024 59.039 5.364 99.672 27.472 126.541 10.812 13.164 19.373 23.56 17.679 31.6l-.088.409.265.339c35.789 46.203 61.462 68.358 80.825 69.692 12.293.84 20.734-6.443 28.996-14.62 4.727-4.67 7.794-11.353 10.01-19.624 2.696-10.059 4.119-22.48 5.745-36.517 1.268-11.061 2.68-22.97 4.838-35.4-2.169 14.345-3.064 28-3.888 40.685-1.525 23.423-2.748 41.897-11.443 52.081-8.387 9.813-16.339 17.928-28.825 17.963-19.656.073-46.751-20.216-85.284-63.835 1.267-8.01-7.77-17.957-19.163-30.513-24.943-27.464-62.616-68.977-31.936-131.757 8.994-18.412 15.314-35.046 19.412-50.338 18.781-70.091-9.407-111.536-43.45-161.601-3.259-4.79-6.581-9.659-9.911-14.654-42.08-62.959-58.199-104.366-42.403-183.317 7.958-39.78 32.468-76.877 69.011-104.503 33.572-25.37 72.432-38.439 103.928-34.968 39.791 4.395 61.784 33.254 62.222 81.385-2.15-42.756-23.911-69.202-60.977-73.218Zm-1.063-10.015c-65.068-7.168-157.603 54.108-174.993 140.961-15.818 79.111 1.151 122.58 42.679 184.711 3.33 4.995 6.652 9.864 9.911 14.654 41.152 60.484 73.647 108.279 23.905 210.089-31.239 63.929 6.981 105.98 32.242 133.818 11.249 12.394 20.141 22.178 18.621 29.337l-.099.447.338.379c39.068 44.279 66.727 64.884 87.029 64.819 13.261-.034 21.879-8.836 30.24-18.635 3.39-3.978 5.696-9.071 7.325-15.149 2.731-10.194 3.578-23.12 4.549-37.992.915-14.042 1.925-29.295 4.645-45.306-2.618 17.894-2.89 34.85-3.108 49.49-.333 22.259-.604 39.833-8.244 50.3-8.404 11.519-16.469 21.15-30.06 22.106-20.399 1.44-50.309-17.954-91.445-59.281 1.036-7.227-7.799-16.129-19.937-28.329-28.199-28.357-70.824-71.238-36.904-138.922 53.372-106.528 18.815-156.545-24.908-219.861-3.452-5.007-6.952-10.069-10.495-15.285C341.31 37.709 324.377-5.503 342.728-86.492c8.861-39.084 35.424-77.28 72.885-104.742 35.201-25.821 75.586-39.038 108.06-35.387 24.064 2.696 64.54 17.5 65.094 86.216.009.827.008 1.61.022 2.418-1.332-46.907-24.345-76.101-63.851-80.461Zm64.842 657.555c-3.695 29.418-26.157 59.105-52.279 69.011-6.919 2.62-13.586 3.596-19.753 3.016a134.332 134.332 0 0 1-3.954-5.946c-4.998-8.225-9.969-18.813-14.995-31.931-4.828-14.797-9.36-33.04-13.721-54.969.015-1.46.054-2.934.098-4.427.538-3.649.626-7.336.411-11.063.204-2.873.419-5.784.699-8.781.269-2.958.406-5.89.473-8.8.114-.814.198-1.596.297-2.435.697-5.256 1.152-10.391 1.463-15.462a444.66 444.66 0 0 0 2.773-19.955c28.114-137.581 18.342-162.753-.553-211.459-8.971-23.082-20.113-51.816-30.27-100.552C443.438-46.477 486.354-78.828 499.92-86.8c20.648-12.135 44.134-12.44 58.396-.743 8.876 7.264 13.286 18.073 13.246 31.504-.194.958-.374 1.941-.548 2.905-.078.288-.13.563-.207.851a169.093 169.093 0 0 0-2.508 11.389l-.206.769a149.635 149.635 0 0 0-2.434 10.645 138.223 138.223 0 0 0-2.717 11.312c-16.222 54.84 10.193 107.356 33.672 153.951 10.276 20.4 19.936 39.584 25.72 57.689.51 6.3.698 12.474.476 18.537-.183 3.414-.468 6.822-.968 10.172a229.603 229.603 0 0 0-.707 5.295l-.041.154a208.184 208.184 0 0 0-1.844 9.38 185.208 185.208 0 0 0-2.297 9.198c-1.015 3.088-1.904 6.169-2.738 9.203a185.802 185.802 0 0 0-3.055 8.747 173.318 173.318 0 0 0-3.585 9.162 179.815 179.815 0 0 0-3.725 8.588c-19.865 38.98-17.22 71.376-14.622 102.851 1.427 17.411 2.919 35.437.552 54.347Zm9.422-308.526c-19.407-41.092-40.924-86.728-36.361-135.087-1.484 47.493 17.965 91.627 35.569 131.556 3.93 8.928 7.76 17.603 11.27 26.068-3.309-7.339-6.846-14.843-10.478-22.537Zm12.425 31.676c-4.169-8.972-8.763-18.078-13.395-27.277-20.103-39.897-42.398-84.195-37.873-130.379-1.279 45.321 18.855 88.072 37.122 126.777 5.03 10.604 9.873 20.89 14.146 30.879Zm-11.473-35.936c-18.703-42.388-39.46-89.531-34.832-140.243-1.693 49.91 17.051 95.587 34.019 136.871 2.977 7.251 5.907 14.365 8.647 21.325a1789.666 1789.666 0 0 0-7.834-17.953Zm.946-4.075c-17.942-43.669-37.9-92.31-33.318-145.507-1.784 52.442 16.223 99.694 32.493 142.337 2.046 5.331 4.03 10.584 5.971 15.763-1.69-4.163-3.413-8.356-5.146-12.593Zm.942-3.83c-17.216-45.123-36.369-95.445-31.778-151.485-1.902 55.38 15.371 104.435 30.954 148.625 1.081 3.073 2.154 6.103 3.192 9.102-.786-2.066-1.587-4.157-2.368-6.242ZM572.736-43.622c-2.087 58.959 14.506 110.161 29.447 156.2.113.36.231.701.344 1.061-16.385-46.508-34.449-98.393-29.791-157.26Zm2.436-10.108c-1.93 59 11.936 109.678 25.445 155.354C585.86 55.758 570.97 4.764 575.172-53.73Zm2.445-11.158C575.83-6.26 586.927 43.654 598.785 88.62c-13.036-45.178-25.027-95.353-21.168-153.507Zm46.425 310.894c.364-.892.695-1.814 1.021-2.716.014.024.004.063.018.087-.307.99-.653 1.969-1.004 2.968-.033-.112-.022-.233-.035-.339Zm-2.559 1.19c-.009-.044.006-.101-.003-.145.237-.493.44-1.016.657-1.515-.005.02.004.063-.006.102a57.87 57.87 0 0 1-.648 1.558Zm-.16 4.658c.337-.632.654-1.268.952-1.91l.021.624c-.308.68-.66 1.369-.987 2.044.022-.241.006-.493.014-.758Zm-2.227.186c.012-.12.018-.222.029-.342.121-.216.217-.417.337-.632-.006.102.002.227-.004.329l-.362.645Zm.285 3.313c.006.29-.008.575-.002.866-.26.425-.506.874-.767 1.299.024-.323.043-.628.067-.951.145-.229.271-.464.416-.693a4.77 4.77 0 0 1 .286-.521Zm-2.897 4.873c-.007.183-.014.367-.027.57-.135.19-.25.386-.385.577l.081-.535c.115-.196.211-.397.331-.612ZM591.092 384.6c-2.128-25.886-4.297-52.402 6.232-82.711-6.527 26-5.29 49.586-4.046 72.679.678 12.469 1.366 25.373.749 38.299-.312 6.555-.818 15.242-2.1 24.321-.048.337-.121.689-.17 1.026 2.202-18.686.765-36.45-.665-53.614Zm4.855 28.369c.598-13.013-.079-25.956-.762-38.487-1.387-25.606-2.77-51.849 6.6-81.272-5.587 24.912-4.836 47.893-4.085 70.401.544 16.019 1.049 31.163-.604 46.945l-.241 2.306c-.758 7.28-1.519 14.807-2.741 22.417-.021.077-.017.14-.038.217 1.092-8.449 1.574-16.422 1.871-22.527Zm2.806.072.242-2.306c1.645-15.908 1.115-31.821.608-47.192-.849-25.193-1.705-50.986 6.462-79.432-4.62 23.727-4.174 45.968-3.721 67.715.422 19.286.814 37.512-2.189 56.375-.512 3.161-.966 6.338-1.429 9.553-.674 4.623-1.384 9.381-2.206 14.17.922-6.412 1.589-12.727 2.233-18.883Zm1.841 5.008c.458-3.196.936-6.387 1.424-9.535 3.01-19.046 2.614-37.335 2.218-56.717-.531-24.345-1.02-49.318 5.662-76.287-3.502 22.131-3.157 43.189-2.792 63.779.414 22.83.791 44.392-3.897 66.576-1.039 4.896-1.934 9.954-2.802 14.834-.439 2.419-.888 4.875-1.337 7.332.539-3.34 1.044-6.709 1.524-9.982Zm1.68 3.027c.905-5.097 1.757-9.92 2.787-14.777 4.72-22.381 4.349-44.045 3.927-67-.396-22.351-.785-45.277 3.812-69.464l.33-.53c-2.104 19.495-1.706 38.321-1.293 56.78.585 26.648 1.145 51.825-5.589 77.502-1.651 6.319-2.94 12.612-4.282 19.262l-.388 1.916c.247-1.232.474-2.47.696-3.689Zm5.815-17.017c6.801-25.926 6.233-51.23 5.64-78.003-.437-19.62-.863-39.669 1.748-60.431l.735-1.102c-.846 16.204-.325 32.074.209 47.658 1.04 30.728 2.035 59.754-7.104 89.094-1.879 6.073-3.398 12.367-4.788 18.57 1.11-5.392 2.208-10.582 3.56-15.786Zm3.048-2.234c9.221-29.649 8.244-58.814 7.186-89.711-.565-16.562-1.121-33.472-.016-50.72.374-.538.685-1.074 1.04-1.618.013 12.765.684 25.417 1.334 37.837 1.85 35.048 3.599 68.131-8.31 101.326-1.557 4.325-2.875 8.775-4.07 13.238-.243.904-.46 1.794-.683 2.703 1.053-4.398 2.173-8.736 3.519-13.055Zm3.029-2.24a150.815 150.815 0 0 0 3.689-11.814c7.926-29.583 6.366-59.151 4.728-90.225-.72-13.408-1.432-27.081-1.318-40.863.431-.751.857-1.482 1.244-2.223.488 9.428 1.198 18.813 1.923 28.058 2.971 37.821 6.056 76.932-8.998 114.129-1.433 3.554-2.666 7.14-3.797 10.734.779-2.595 1.603-5.199 2.529-7.796Zm2.865-1.788.183-.446a145.489 145.489 0 0 0 5.606-16.784c8.69-32.43 6.067-65.767 3.53-98.175-.819-10.383-1.64-20.911-2.108-31.509.465-1.03.87-2.075 1.251-3.107.631 6.395 1.326 12.786 2.027 19.076 4.695 42.325 9.572 86.079-9.017 127.484a83.02 83.02 0 0 0-1.472 3.461Zm4.208-5.078c2.71-6.366 4.932-12.78 6.663-19.243 9.437-35.219 5.413-71.529 1.493-106.822-.849-7.691-1.712-15.488-2.442-23.311.416-1.394.758-2.828 1.076-4.247.547 3.816 1.128 7.662 1.714 11.571 7.044 46.994 14.312 95.575-8.171 141.358-.131.253-.232.474-.333.694Zm10.369-142.295c-.896-5.95-1.751-11.746-2.557-17.487.248-2.098.374-4.208.416-6.32.478 2.437.936 4.868 1.422 7.349 9.984 51.101 20.278 103.935-5.257 153.766 19.829-44.783 12.79-91.797 5.976-137.308Zm1.158-16.821c-2.267-11.616-4.411-22.602-6.119-33.491a29.865 29.865 0 0 0-.26-1.533c1.383 5.854 2.854 11.773 4.394 17.979 13.135 52.935 27.972 112.8-1.158 167.295 22.851-49.189 12.415-102.741 3.143-150.25Zm-.157-17.462c-1.866-7.489-3.615-14.555-5.247-21.589l-.956-4.091c-.176-.748-.347-1.515-.524-2.264.137.429.249.871.385 1.299.893 2.919 1.8 5.863 2.735 8.856 16.883 54.496 37.764 121.959 4.684 181.663 26.206-53.815 11.77-112.129-1.077-163.874Zm15.364 133.604c13.874-51.78-3.027-106.364-17.15-151.936-.917-2.988-1.843-5.937-2.741-8.837a736.51 736.51 0 0 1-3.166-10.682 427.533 427.533 0 0 0 2.124 5.744c19.334 50.659 48.227 126.35 10.944 191.896a136.699 136.699 0 0 0 9.989-26.185Zm4.924-5.175c15.441-57.627-7.72-118.3-24.08-161.152a349.77 349.77 0 0 1-5.217-14.593 277.21 277.21 0 0 0 4.222 9.79c27.832 60.976 50.8 131.122 14.558 193.174a137.104 137.104 0 0 0 10.517-27.219Zm-23.36-166.732a270.727 270.727 0 0 1-7.493-18.129c2.019 4.499 4.169 8.972 6.536 13.42 42.531 80.108 48.489 144.046 18.049 194.913 32.914-61.584 10.255-130.306-17.092-190.204Zm.716-5.56a220.503 220.503 0 0 1-9.645-20.726 185.079 185.079 0 0 0 8.745 16.114c32.635 53.914 61.568 130.235 21.95 195.98 27.319-50.549 20.357-113.396-21.05-191.368Zm.735-5.555c-4.662-7.681-8.578-15.41-11.949-23.22a176.65 176.65 0 0 0 11.087 18.701c16.036 23.593 36.525 60.254 43.146 101.013 5.806 35.757-.099 68.108-17.472 96.459 35.791-65.369 7.29-139.945-24.812-192.953Zm44.146 96.189c-6.662-41.079-27.309-78.009-43.451-101.754-5.811-8.546-10.569-17.119-14.482-25.795 3.821 7.146 8.323 14.249 13.683 21.354 17.419 23.119 39.739 59.59 47.018 102.112 6.133 35.783.197 68.25-17.57 96.825 15.367-27.507 20.349-58.601 14.802-92.742Zm-10.589 89.439c15.995-27.896 21.133-59.339 15.233-93.803-7.348-42.891-29.821-79.65-47.365-102.926-6.949-9.222-12.492-18.458-16.906-27.846 4.38 7.873 9.702 15.67 16.175 23.465 45.281 54.684 75.296 134.078 32.863 201.11Zm-31.417-202.289c-8.209-9.91-14.551-19.835-19.431-29.904 4.919 8.595 11.059 17.085 18.743 25.596 46.692 51.764 81.24 133.382 36.52 202.935 38.779-66.836 8.866-144.656-35.832-198.627Zm.73-5.536c-9.442-10.467-16.566-20.911-21.86-31.544 5.416 9.161 12.368 18.219 21.22 27.291 30.6 31.351 51.431 68.845 58.674 105.565 7.018 35.608.762 69.267-18.108 98.598 40.334-69.202 6.051-148.915-39.926-199.91Zm59.886 100.963c-7.317-37.069-28.33-74.901-59.176-106.504-10.772-11.05-18.682-22.075-24.399-33.317 5.878 9.78 13.655 19.43 23.808 29.118 32.133 30.628 54.935 69.517 62.563 106.752 7.375 35.992.939 70.015-18.604 99.743 17.143-28.742 22.596-61.359 15.808-95.792Zm4.673-4.314c-7.702-37.585-30.715-76.86-63.119-107.725-12.075-11.502-20.724-22.973-26.817-34.687 6.313 10.268 14.863 20.392 26.274 30.542 41.681 37.103 67.668 86.37 69.524 131.789 1.146 27.911-6.335 53.8-22.212 77.273 17.835-29.216 23.495-62.293 16.35-97.192Zm7.745 19.846c-1.874-45.898-28.105-95.663-70.159-133.093-13.436-11.97-22.863-23.897-29.288-36.091 6.723 10.769 16.07 21.355 28.798 31.981 43.819 36.625 71.342 86.179 73.606 132.573 1.399 28.454-6.236 54.837-22.702 78.71 14.171-22.653 20.839-47.461 19.745-74.08Zm4.845-4.722c-2.297-46.898-30.058-96.969-74.289-133.931-14.778-12.35-24.935-24.679-31.643-37.3 7.095 11.178 17.186 22.191 31.207 33.225 45.859 36.12 74.868 85.907 77.586 133.186 1.603 27.848-5.54 53.724-21.174 77.305 13.431-22.233 19.597-46.495 18.313-72.485ZM637.04 112.806c47.923 35.683 78.428 85.748 81.581 133.906 1.831 27.93-5.651 54.684-21.724 78.807 13.89-22.852 20.366-47.958 18.854-74.113-2.765-47.806-32.037-98.098-78.309-134.555-15.572-12.274-26.24-24.492-33.264-37.032-.018-.088-.017-.17-.03-.277 7.442 11.21 18.058 22.218 32.892 33.264ZM590.155 41.53a88.478 88.478 0 0 0 2.583 13.33c.16.805.365 1.602.565 2.419a1240.163 1240.163 0 0 0 3.74 17.061c-11.119-44.21-20.393-93.35-17.02-150.705-1.157 43.849 3.453 82.584 10.132 117.895Zm-.542-18.37a77.132 77.132 0 0 0-.129 3.841c-5.836-34.94-9.31-73.227-7.054-116.41-.882 41.572 2.266 78.885 7.183 112.57Zm.954-11.062a78.152 78.152 0 0 0-.265 2.32c-4.649-34.684-7.322-73.148-5.629-116.029-.508 42.21 1.942 79.788 5.894 113.709Zm1.054-7.449c-3.874-35.776-5.995-75.596-4.776-120.459-.114 44.644 1.795 83.85 5.016 119.018-.085.473-.15.95-.24 1.441Zm1.513-8.46c-3.205-37.492-4.905-79.509-4.288-127.749.005-.02.005-.02-.009-.044.508 47.635 1.943 89.313 4.493 126.671-.039.382-.117.752-.196 1.123Zm1.803-8.525c-.056.212-.094.428-.145.62-2.42-37.921-3.758-80.274-4.133-128.718-.412-51.98-24.143-83.263-66.775-88.068-32.919-3.708-73.806 9.663-109.392 35.751-37.804 27.721-64.647 66.337-73.591 105.811-18.512 81.667-1.47 125.177 43.761 191.845a1553.07 1553.07 0 0 0 10.496 15.285c43.39 62.836 77.654 112.465 24.781 217.993-34.515 68.885 8.676 112.31 37.252 141.056 11.544 11.608 20.679 20.797 19.336 27.137l-.109.486.362.365c42.31 42.57 71.94 61.683 93.275 60.184 14.381-1.012 22.759-10.951 31.438-22.871 2.44-3.325 4.153-7.298 5.375-11.857 2.783-10.386 2.984-23.794 3.216-39.503.224-15.134.505-32.747 3.401-51.288-2.648 19.803-2.028 38.585-1.472 54.711.735 21.555 1.324 38.577-5.448 49.399-8.315 13.296-16.415 24.464-31.24 26.429-21.471 2.864-53.419-15.097-97.656-54.926.801-6.506-8.174-14.807-20.476-26.164-29.681-27.435-79.366-73.341-42.086-146.062 56.503-110.245 20.2-162.111-25.779-227.785a2100.21 2100.21 0 0 1-11.08-15.915c-47.801-69.502-65.573-114.506-44.574-197.485 9.869-39.02 37.849-77.269 76.74-104.988 36.848-26.266 78.804-39.639 112.211-35.8 42.367 4.858 66.492 35.917 67.949 87.434.289 10.097.546 19.917.812 29.472 1.1 39.959 2.068 75.41 3.551 107.452Zm1.6-6.828c-1.336-30.25-2.231-63.476-3.25-100.61-.266-9.554-.523-19.375-.812-29.471-1.989-70.936-44.476-86.361-69.62-89.243-33.878-3.882-76.31 9.631-113.539 36.145-39.252 27.973-67.447 66.556-77.459 106.032-21.185 83.672-3.27 129.003 44.862 198.985 3.736 5.433 7.449 10.716 11.075 15.935 45.614 65.163 81.647 116.627 25.642 225.872-37.923 73.95 12.416 120.465 42.499 148.275 11.73 10.833 20.991 19.396 19.815 24.957l-.12.524.407.357c44.886 40.456 77.453 58.686 99.577 55.729 16.891-2.257 25.591-16.13 32.578-27.286 1.722-2.755 2.993-5.857 3.916-9.3 2.865-10.695 2.382-24.596 1.812-41.138-.566-16.562-1.236-35.935 1.708-56.298-2.595 21.405-.928 41.746.518 59.162 1.687 20.346 3.141 37.888-2.932 49.146-8.122 15.079-16.185 27.824-32.318 30.922-22.598 4.336-56.607-12.26-103.974-50.722.591-5.8-7.996-13.131-20.773-24.038-33.004-28.16-88.264-75.293-47.53-153.17 59.639-113.981 21.567-167.682-26.635-235.683-3.844-5.421-7.75-10.921-11.679-16.57-51.732-74.287-69.54-119.156-45.671-204.563 10.872-38.936 40.221-77.293 80.561-105.262 38.514-26.706 82.045-40.255 116.425-36.217 43.168 5.073 68.307 36.568 70.775 88.686 1.971 41.863 2.798 79.09 3.541 111.944.187 9.224.377 18.202.601 26.9Zm1.583-13.018c-.111-4.585-.207-9.229-.321-13.96-.723-32.849-1.545-70.095-3.531-111.982-2.508-53.139-28.251-85.271-72.456-90.457-34.826-4.095-78.848 9.57-117.724 36.53-40.676 28.208-70.294 66.946-81.275 106.287-12.025 43.08-13.554 76.914-4.9 109.538 8.384 31.603 26.381 61.473 50.825 96.576 3.929 5.65 7.835 11.15 11.679 16.571 47.842 67.471 85.62 120.784 26.499 233.77-41.437 79.173 14.54 126.91 47.97 155.432 11.775 10.041 21.079 17.976 20.054 22.815l-.124.543.446.367c48.04 39.075 82.698 55.907 105.954 51.46 18.338-3.518 27.169-19.912 33.619-31.873 1.165-2.162 2.069-4.517 2.749-7.056 3.03-11.31 1.787-26.281.412-43.101-1.483-17.982-3.208-39.122-.162-61.272-2.617 23.048.171 44.988 2.584 63.715 2.6 20.22 4.855 37.667-.607 49.377-7.56 16.261-15.793 31.207-33.344 35.534-23.76 5.858-59.864-9.403-110.364-46.642.338-5.167-8.173-11.921-20.821-21.907-34.083-26.944-97.53-77.116-53.189-160.252 12.42-23.308 20.81-44.149 25.912-63.192 20.657-77.093-12.976-123.996-53.403-180.39-4.037-5.637-8.156-11.359-12.278-17.226-54.773-77.78-73.362-124.344-46.764-211.657 26.418-86.641 134.826-150.591 205.023-142.172 43.993 5.273 70.12 37.219 73.6 89.938 3.403 51.833 3.774 95.762 3.937 134.686Zm1.809-13.472c-.221-35.58-.854-75.331-3.873-121.33-3.525-53.721-30.262-86.284-75.267-91.684-78.025-9.362-182.521 63.037-207.044 143.465-26.848 88.01-8.131 134.957 47.026 213.253 4.142 5.872 8.256 11.613 12.293 17.251 50.046 69.794 89.578 124.917 27.365 241.63-45.051 84.534 19.178 135.307 53.692 162.594 11.692 9.255 20.936 16.556 20.063 20.672l-.115.588.49.358c51.217 37.844 87.98 53.302 112.409 47.293 18.357-4.524 26.845-19.876 34.602-36.557.776-1.648 1.392-3.4 1.892-5.266 3.159-11.791 1.151-27.42-1.139-45.124-2.502-19.492-5.442-42.504-2.171-66.51-2.811 24.789 1.257 48.515 4.715 68.656 3.491 20.252 6.504 37.758 1.614 49.992-6.926 17.255-15.269 34.564-34.293 40.248-24.957 7.435-63.19-6.521-116.856-42.65.154-4.556-7.825-10.405-20.642-19.838-37.447-27.516-107.137-78.763-59.104-167.321 13.279-24.48 22.172-46.341 27.507-66.249 21.152-78.939-13.831-127.215-55.84-185.207-4.23-5.854-8.561-11.798-12.891-17.906C326.261 55.2 307.08 24.126 298.278-8.806c-9.232-34.531-6.681-70.07 8.228-115.243 12.832-38.824 44.967-77.424 88.14-105.891 41.899-27.614 88.603-41.446 124.963-36.981 31.697 3.896 70.697 22.881 76.381 91.199 4.148 49.991 4.427 92.308 3.939 130.068Zm2.028-12.568c.246-34.589-.374-73.059-4.093-117.617-4.522-54.297-32.253-87.291-78.06-92.906-79.709-9.792-188.277 62.959-215.113 144.127-15.046 45.529-17.597 81.376-8.257 116.287 8.863 33.174 28.139 64.44 56.365 104.101 4.33 6.108 8.662 12.051 12.911 17.911 52.236 72.092 93.518 129.044 28.207 249.504-48.792 89.985 21.757 141.853 59.655 169.716 11.493 8.44 20.568 15.118 19.826 18.589l-.12.607.534.349c54.407 36.72 93.324 50.859 118.94 43.23 19.816-5.906 28.4-23.644 35.484-41.331.481-1.17.874-2.404 1.214-3.674 3.309-12.349.487-28.69-2.727-47.322-3.555-20.641-7.77-45.066-4.436-70.478-2.823 26.085 2.535 51.167 7.081 72.403 4.381 20.449 8.161 38.14 3.753 50.916-6.521 18.868-14.612 37.893-35.155 45.027-26.169 9.068-66.545-3.607-123.409-38.737-.085-3.981-7.831-9.293-20.195-17.76-19.44-13.311-48.801-33.424-66.761-61.945-21.372-33.991-20.888-71.814 1.488-112.431 68.951-125.216 25.65-184.4-29.175-259.329-4.442-6.077-8.962-12.256-13.504-18.586-58.777-81.822-82.769-130.802-48.934-225.825 13.811-38.809 47.315-77.516 91.898-106.244 44.272-28.503 91.381-42.124 129.27-37.353 32.283 4.053 72.234 23.396 79.158 92.479 4.848 48.468 5.12 89.566 4.155 126.292Zm2.183-13.537c.547-33.292-.181-70.265-4.474-112.915-7.055-70.314-47.829-90.022-80.821-94.162-38.334-4.829-85.91 8.894-130.538 37.632-44.929 28.924-78.697 67.993-92.65 107.177-34.12 95.853-9.986 145.16 49.19 227.522 4.542 6.33 9.082 12.514 13.524 18.591 54.445 74.394 97.443 133.146 29.035 257.353-52.655 95.65 27.381 150.472 65.858 176.801 10.704 7.321 19.955 13.655 19.353 16.524l-.131.645.554.355c57.641 35.669 98.707 48.507 125.54 39.225 21.345-7.392 29.928-27.708 36.317-46.158.254-.716.475-1.46.676-2.211 3.489-13.022-.167-30.081-4.377-49.681-4.621-21.586-10.114-47.178-6.844-73.68-2.705 27.127 3.913 53.289 9.54 75.413 5.259 20.767 9.804 38.725 5.85 52.076-5.81 19.574-13.842 41.192-35.963 49.84-27.411 10.735-69.951-.664-130.042-34.845-.236-3.259-6.459-7.379-19.492-15.696-41.401-26.431-127.54-81.446-71.678-181.41 72.054-128.983 27.017-189.971-29.997-267.198-4.655-6.299-9.388-12.7-14.137-19.271-61.832-85.342-86.952-136.129-50.031-232.901 14.791-38.794 49.678-77.666 95.681-106.613 46.008-28.965 94.72-42.713 133.635-37.708 32.864 4.229 73.76 23.949 81.904 93.792 5.338 45.94 5.748 86.209 4.518 121.503Zm2.158-9.461c.833-33.03.069-70.261-4.844-112.314-8.28-71.054-50.005-91.12-83.539-95.426-39.341-5.057-88.496 8.778-134.879 37.973-46.334 29.167-81.475 68.363-96.428 107.526-37.225 97.598-11.979 148.77 50.253 234.651 4.769 6.576 9.502 12.978 14.152 19.295 56.614 76.687 101.343 137.263 29.867 265.184-24.392 43.684-24.519 84.16-.333 120.307 20.058 29.99 51.716 50.203 72.664 63.588 10.243 6.538 19.092 12.187 18.611 14.449l-.136.665.598.346c60.912 34.71 104.146 46.253 132.193 35.256 22.894-8.957 31.139-31.054 37.062-51.051.077-.289.169-.553.246-.841 3.685-13.753-.847-31.604-6.068-52.197-5.702-22.473-12.441-49.121-9.285-76.601-2.58 28.068 5.318 55.232 12.017 78.2 6.16 21.152 11.481 39.421 7.934 53.438-5.752 22.641-14.146 44.904-36.698 54.694-28.24 12.265-74.262 1.83-136.762-31.017-.39-2.764-6.053-6.24-18.509-13.66-41.409-24.681-138.372-82.431-78.382-188.422 75.131-132.735 28.384-195.542-30.825-275.048-4.848-6.515-9.808-13.163-14.77-19.956-64.941-88.896-91.143-141.58-51.123-239.997 15.781-38.817 52.042-77.816 99.44-107.048 47.788-29.437 98.08-43.298 138.016-38.039 33.444 4.405 75.287 24.502 84.611 95.094 6.06 45.824 6.503 85.814 4.917 120.95Zm-3.037-121.169c-9.491-71.77-52.142-92.208-86.251-96.709-40.356-5.329-91.115 8.633-139.259 38.304-47.744 29.429-84.259 68.751-100.197 107.918C237.17-53.568 263.534-.551 328.889 88.91c4.977 6.817 9.917 13.459 14.785 19.98 58.789 78.96 105.253 141.341 30.694 273.033-60.868 107.55 37.188 165.985 79.069 190.937 8.825 5.271 17.96 10.708 17.604 12.427l-.141.684.623.332c64.187 33.815 109.634 44.054 138.913 31.346 22.08-9.587 30.98-30.539 36.82-52.332.319-1.193.644-2.405.944-3.602 3.675-14.498-1.711-32.99-7.946-54.411-7.097-24.373-14.892-51.221-11.869-79.067-2.432 28.376 6.508 55.716 14.608 80.564 7.06 21.621 13.155 40.283 9.997 54.96-8.823 41.053-23.85 53.148-37.381 59.583-29.478 13.995-77.771 4.848-143.545-27.186-.543-2.269-5.421-5.081-17.208-11.641-28.097-15.61-86.544-48.114-101.758-101.338-8.291-28.981-2.762-60.629 16.393-94.069 16.637-29.043 27.542-54.818 33.809-78.207 23.187-86.537-17.128-140.303-65.461-204.69-5.056-6.756-10.229-13.626-15.418-20.665C287.058 37.52 264.678 2.683 254.837-33.25c-10.753-39.247-6.012-78.816 15.369-128.296 16.533-38.265 55.123-78.454 103.219-107.479 49.548-29.913 101.464-43.896 142.41-38.346 48.807 6.604 78.979 39.943 87.294 96.411 6.601 44.897 7.206 84.126 5.417 118.693 1.085-32.488.16-68.958-5.285-110.123Zm1.807-8.854c-10.676-72.501-54.248-93.329-88.914-98.021-41.372-5.602-93.73 8.468-143.653 38.611-48.422 29.226-87.281 69.714-103.971 108.329-21.552 49.887-26.333 89.838-15.463 129.508 9.916 36.2 32.402 71.19 67.88 119.412 5.189 7.04 10.356 13.928 15.412 20.684 60.96 81.253 109.12 145.429 31.508 280.859-19.426 33.903-25 66.034-16.568 95.506 15.429 53.983 74.353 86.738 102.664 102.488 7.924 4.411 16.126 8.959 16.278 10.423l-.141.683.667.323c66.591 32.501 115.593 41.735 145.698 27.433 12.83-6.086 26.931-17.069 36.1-51.288.804-3 1.576-6.195 2.292-9.57 3.248-15.168-2.913-34.054-10.053-55.923-8.322-25.505-17.506-53.653-14.236-82.732-2.63 29.58 7.646 58.186 16.996 84.152 7.97 22.133 14.842 41.25 12.081 56.632-4.41 24.505-12.373 51.337-38.023 64.482-30.702 15.749-81.285 7.885-150.387-23.371-.623-1.816-4.759-4.037-15.588-9.64-30.111-15.593-92.788-48.014-109.628-104.23-9.026-30.147-3.318-63.169 16.97-98.181 17.48-30.157 28.873-56.894 35.367-81.13 23.708-88.48-17.936-143.612-67.827-209.612-5.268-6.978-10.648-14.089-16.045-21.369-31.983-43.142-59.375-82.168-70.542-122.681-11.158-40.47-5.835-81.037 17.254-131.503 17.534-38.327 57.532-78.695 106.994-107.972 51.348-30.38 104.862-44.469 146.844-38.643 49.631 6.888 80.723 40.7 89.947 97.762 7.157 44.304 7.906 82.994 5.966 117.191 1.163-32.076.093-68.007-5.879-108.612Zm1.808-8.855c-11.843-73.226-56.317-94.44-91.558-99.327-42.388-5.874-96.364 8.299-148.082 38.888-49.783 29.459-90.05 70.127-107.735 108.784-23.286 50.887-28.628 91.841-17.339 132.758C253.414 1.83 280.916 40.988 313 84.302a3007.895 3007.895 0 0 0 16.059 21.393c63.135 83.527 113.011 149.502 32.335 288.709-20.553 35.456-26.312 68.98-17.127 99.623 17.061 56.956 80.21 89.648 110.56 105.366 7.227 3.731 14.046 7.269 14.652 8.524l-.126.626.691.309c69.905 31.698 121.208 39.61 152.536 23.554 20.652-10.588 30.116-29.657 35.409-49.411 1.464-5.463 2.61-10.99 3.573-16.381 2.845-15.853-4.093-35.195-12.162-57.581-9.483-26.331-19.914-55.37-16.697-85.267-2.547 30.365 8.976 59.861 19.472 86.629 8.883 22.708 16.568 42.311 14.165 58.386-3.634 24.425-11.307 54.385-38.602 69.378-31.936 17.542-84.849 10.951-157.288-19.571-.711-1.407-4.168-3.117-13.605-7.665-29.673-14.26-99.168-47.642-117.799-107.018-9.819-31.328-3.945-65.75 17.481-102.353 18.323-31.271 30.204-58.97 36.925-84.052 24.233-90.442-18.746-146.921-70.193-214.534a2853.121 2853.121 0 0 1-16.692-22.079c-70.036-93.786-107.086-152.16-54.435-261.232 18.539-38.408 59.966-78.95 110.793-108.48 53.153-30.865 108.286-45.057 151.297-38.933 50.451 7.189 82.448 41.45 92.58 99.105 7.703 43.832 8.619 82.134 6.531 116.023 1.266-31.759.01-67.307-6.457-107.468Zm1.782-8.841c-10.272-58.538-42.835-93.342-94.176-100.647-43.418-6.17-99.012 8.105-152.511 39.166-51.143 29.692-92.819 70.539-111.529 109.272-25.033 51.861-30.991 93.785-19.268 135.972 11.565 41.61 40.288 82.229 73.848 127.216 5.619 7.546 11.26 14.933 16.708 22.104 65.29 85.794 116.862 153.564 33.153 296.514-21.712 37.042-27.641 71.985-17.648 103.833 18.88 60.165 88.877 93.785 118.774 108.145 6.048 2.899 11.76 5.646 12.653 6.689l-.12.525.716.295c73.233 30.92 126.851 37.535 159.394 19.681 20.494-11.248 30.182-30.608 35.356-49.92 1.897-7.078 3.186-14.155 4.176-20.816 2.472-16.573-5.297-36.405-14.286-59.346-10.405-26.558-21.829-55.801-19.316-85.804-1.838 30.452 10.683 60.133 22.082 87.122 9.423 22.337 18.342 43.425 16.302 60.257-3.113 25.761-10.358 57.485-39.142 74.284-33.175 19.355-88.423 14.055-164.233-15.762-.678-.986-3.308-2.185-11.239-5.712-28.889-12.813-105.667-46.827-126.326-109.653-10.689-32.531-4.654-68.414 17.96-106.637 19.136-32.352 31.514-60.969 38.451-86.859 24.698-92.173-19.407-149.922-72.157-218.998-5.781-7.568-11.749-15.373-17.715-23.342-73.187-97.105-111.862-157.46-55.478-268.356 19.57-38.503 62.416-79.263 114.598-109.006 54.953-31.332 111.723-45.621 155.765-39.201 51.25 7.486 84.167 42.22 95.164 100.479 8.212 43.494 9.333 81.5 7.115 115.169 1.362-31.569-.074-66.835-7.071-106.664Zm1.808-8.854c-11.167-59.108-44.631-94.381-96.766-102.001-44.462-6.491-101.675 7.886-156.998 39.427-52.483 29.931-95.593 70.971-115.328 109.78-26.859 52.815-33.404 95.756-21.285 139.204 11.904 42.607 41.878 84.572 76.933 131.094 5.966 7.969 11.929 15.793 17.71 23.361 67.168 87.927 120.217 157.371 33.586 303.805-22.89 38.706-28.995 75.085-18.112 108.142 20.908 63.615 98.241 97.901 127.34 110.79 4.92 2.184 9.222 4.1 10.245 4.89l-.088.409.736.3c76.593 30.171 132.547 35.495 166.294 15.8 20.395-11.894 30.217-30.971 35.386-50.263 2.314-8.637 3.693-17.297 4.667-25.385 2.085-17.315-6.919-38.633-16.451-61.184-11.899-28.175-25.027-59.338-21.512-91.051-2.786 32.197 11.41 63.75 24.288 92.331 10.331 22.93 20.095 44.616 18.437 62.21-2.353 24.954-9.048 60.33-39.663 79.195-34.4 21.191-92.002 17.178-171.241-11.95-.677-.676-2.754-1.521-8.364-3.787-27.763-11.233-112.223-45.408-135.236-112.102-11.667-33.803-5.485-71.172 18.361-111.106 19.979-33.466 32.84-63.026 40.009-89.781 25.244-94.212-20.238-153.382-74.643-224.097-5.945-7.736-12.111-15.738-18.237-23.894-76.255-100.73-116.48-163.193-56.569-275.452 20.629-38.631 64.889-79.589 118.412-109.572 56.777-31.811 115.181-46.178 160.267-39.437 52.064 7.807 85.857 43.023 97.728 101.846 8.739 43.326 10.033 81.152 7.724 114.694 1.473-31.436-.132-66.542-7.63-106.216Zm1.807-8.855c-12.041-59.672-46.386-95.407-99.316-103.343-45.486-6.808-104.332 7.647-161.474 39.649-53.82 30.151-98.367 71.403-119.138 110.326-60.448 113.25-19.988 176.083 56.73 277.433 6.145 8.16 12.311 16.163 18.256 23.899 35.476 46.12 66.106 85.952 77.198 133.701 12.157 52.364-1.418 108.966-42.673 178.086-24.123 40.417-30.361 78.307-18.505 112.655 23.297 67.512 108.366 101.913 136.314 113.236 3.383 1.36 8.062 3.665 8.062 3.665 79.989 29.452 138.263 33.46 173.24 11.909 20.439-12.604 30.445-32.291 35.588-51.487 2.737-10.214 4.1-20.3 4.927-29.088 1.703-18.077-8.156-39.954-18.587-63.137-13.026-28.889-27.388-60.837-23.932-93.267-2.697 32.881 12.733 65.218 26.699 94.503 11.268 23.573 21.897 45.862 20.596 64.232-1.854 26.139-8.029 63.324-40.134 84.079-35.635 23.065-95.65 20.323-178.347-8.165-.613-.37-1.949-.852-4.778-1.857-98.188-35.443-132.937-81.697-144.768-114.265-12.782-35.111-6.486-74.079 18.742-115.807 20.723-34.524 34.017-64.999 41.398-92.543 25.852-96.481-21.033-157.058-77.057-229.464-6.095-7.88-12.392-16.02-18.692-24.305C203.259-30.37 161.45-94.967 224.95-208.512c21.695-38.779 67.374-79.955 122.238-110.175 58.596-32.273 118.657-46.732 164.762-39.655 52.859 8.123 87.528 43.821 100.268 103.227 9.26 43.177 10.738 80.866 8.351 114.305 1.462-31.316-.326-66.285-8.296-105.838Zm1.747-17.302c9.78 43.192 11.424 80.885 8.974 114.327 1.53-31.338-.449-66.297-8.933-105.885-12.911-60.256-48.136-96.453-101.841-104.7-46.526-7.148-107.024 7.38-165.971 39.867-55.136 30.375-101.102 71.845-122.958 110.91-64.067 114.568-22.028 179.557 57.812 284.567 6.295 8.305 12.592 16.445 18.687 24.325 36.622 47.312 68.252 88.175 79.666 137.145 12.498 53.671-1.519 111.763-44.137 182.765-25.503 42.211-31.861 81.719-18.89 117.375 21.71 59.686 91.336 95.701 145.91 115.396 1.624.579 3.797 1.532 3.797 1.532l.785.273c83.399 28.758 144.033 31.46 180.226 8.028 20.466-13.255 30.614-32.925 35.81-52.313 3.123-11.657 4.461-23.214 5.166-33.189 1.346-18.853-9.397-41.337-20.77-65.144-13.466-28.183-28.262-59.216-26.72-90.674-.791 31.701 14.894 62.931 29.468 91.905 12.2 24.235 23.712 47.131 22.763 66.297-2.118 42.829-15.38 71.93-40.591 88.986-36.899 24.974-99.328 23.502-185.561-4.366l-.039-.011c-1.211-.324-121.652-34.204-154.211-113.867-9.47-23.174-10.666-48.007-3.631-74.262 4.221-15.753 11.408-32.031 21.557-48.732 21.659-35.675 35.505-67.115 43.122-95.544 26.347-98.328-21.925-160.287-79.589-234.307-6.308-8.102-12.818-16.464-19.325-24.99-40.795-53.46-73.02-97.885-85.804-142.52-13.406-46.845-5.08-92.216 27.049-147.124 22.785-38.94 69.913-80.366 126.074-110.817 60.42-32.752 122.134-47.284 169.273-39.848 53.703 8.411 89.247 44.591 102.832 104.595Z" opacity=".3"/></g><defs><clipPath id="a"><path fill="#fff" d="m0 541.164 262.365-979.159 661.87 177.348-262.364 979.159z"/></clipPath></defs></svg>