<svg xmlns="http://www.w3.org/2000/svg" width="118" height="118" fill="none"><path fill="url(#a)" d="M21.98 21.98a51.594 51.594 0 0 0-10.19 14.46l24.65-24.65a51.249 51.249 0 0 0-14.46 10.19Z"/><path fill="url(#b)" d="M49.15 7.7 7.7 49.15c-.3 1.63-.52 3.28-.66 4.93L54.08 7.04c-1.65.14-3.3.36-4.93.66Z"/><path fill="url(#c)" d="m62.72 7.02-55.7 55.7c.1 1.28.25 2.55.45 3.81L66.54 7.47c-1.27-.2-2.54-.35-3.82-.45Z"/><path fill="url(#d)" d="M73.56 9.08 9.08 73.56c.33 1.07.68 2.13 1.08 3.19l66.59-66.59c-1.06-.4-2.12-.76-3.19-1.08Z"/><path fill="url(#e)" d="M82.69 12.84 12.84 82.69c.49.92 1 1.82 1.55 2.72L85.4 14.4c-.89-.55-1.79-1.07-2.71-1.56Z"/><path fill="url(#f)" d="M90.49 17.94 17.94 90.49c.62.79 1.27 1.56 1.95 2.32l72.93-72.93c-.77-.67-1.54-1.32-2.33-1.94Z"/><path fill="url(#g)" d="M97.13 24.2 24.2 97.13c.76.68 1.53 1.32 2.32 1.95l72.55-72.55c-.62-.8-1.27-1.57-1.94-2.33Z"/><path fill="url(#h)" d="M102.62 31.6 31.6 102.62c.89.55 1.8 1.06 2.72 1.55l69.85-69.85c-.49-.92-1.01-1.82-1.55-2.72Z"/><path fill="url(#i)" d="m106.85 40.26-66.59 66.59c1.05.4 2.12.75 3.19 1.08l64.48-64.48c-.33-1.07-.68-2.13-1.08-3.19Z"/><path fill="url(#j)" d="m109.54 50.47-59.06 59.06c1.27.2 2.54.35 3.81.45l55.7-55.7c-.1-1.27-.26-2.54-.45-3.81Z"/><path fill="url(#k)" d="m109.97 62.93-47.04 47.04a51.6 51.6 0 0 0 4.93-.66l41.45-41.45c.3-1.63.52-3.28.66-4.93Z"/><path fill="url(#l)" d="M80.58 105.22a51.737 51.737 0 0 0 14.46-10.19c4.32-4.32 7.72-9.23 10.19-14.46l-24.65 24.65Z"/><path fill="#6F67D0" d="M58.5 0C26.19 0 0 26.19 0 58.5S26.19 117 58.5 117 117 90.81 117 58.5 90.82 0 58.5 0Zm0 115.14c-31.28 0-56.64-25.36-56.64-56.64S27.22 1.87 58.5 1.87s56.64 25.36 56.64 56.64-25.36 56.63-56.64 56.63Z"/><defs><linearGradient id="g" x1="24.197" x2="99.071" y1="61.635" y2="61.635" gradientUnits="userSpaceOnUse"><stop stop-color="#ED1E79"/><stop offset="1" stop-color="#6B00AA"/></linearGradient><linearGradient id="a" x1="11.784" x2="36.43" y1="24.108" y2="24.108" gradientUnits="userSpaceOnUse"><stop stop-color="#ED1E79"/><stop offset="1" stop-color="#6B00AA"/></linearGradient><linearGradient id="c" x1="7.019" x2="66.535" y1="36.777" y2="36.777" gradientUnits="userSpaceOnUse"><stop stop-color="#ED1E79"/><stop offset="1" stop-color="#6B00AA"/></linearGradient><linearGradient id="d" x1="9.079" x2="76.745" y1="42.912" y2="42.912" gradientUnits="userSpaceOnUse"><stop stop-color="#ED1E79"/><stop offset="1" stop-color="#6B00AA"/></linearGradient><linearGradient id="e" x1="12.842" x2="85.406" y1="49.124" y2="49.124" gradientUnits="userSpaceOnUse"><stop stop-color="#ED1E79"/><stop offset="1" stop-color="#6B00AA"/></linearGradient><linearGradient id="f" x1="17.936" x2="92.811" y1="55.374" y2="55.374" gradientUnits="userSpaceOnUse"><stop stop-color="#ED1E79"/><stop offset="1" stop-color="#6B00AA"/></linearGradient><linearGradient id="b" x1="7.036" x2="54.074" y1="30.556" y2="30.556" gradientUnits="userSpaceOnUse"><stop stop-color="#ED1E79"/><stop offset="1" stop-color="#6B00AA"/></linearGradient><linearGradient id="h" x1="31.602" x2="104.166" y1="67.885" y2="67.885" gradientUnits="userSpaceOnUse"><stop stop-color="#ED1E79"/><stop offset="1" stop-color="#6B00AA"/></linearGradient><linearGradient id="i" x1="40.264" x2="107.93" y1="74.097" y2="74.097" gradientUnits="userSpaceOnUse"><stop stop-color="#ED1E79"/><stop offset="1" stop-color="#6B00AA"/></linearGradient><linearGradient id="j" x1="50.474" x2="109.99" y1="80.232" y2="80.232" gradientUnits="userSpaceOnUse"><stop stop-color="#ED1E79"/><stop offset="1" stop-color="#6B00AA"/></linearGradient><linearGradient id="k" x1="62.933" x2="109.972" y1="86.453" y2="86.453" gradientUnits="userSpaceOnUse"><stop stop-color="#ED1E79"/><stop offset="1" stop-color="#6B00AA"/></linearGradient><linearGradient id="l" x1="80.578" x2="105.224" y1="92.901" y2="92.901" gradientUnits="userSpaceOnUse"><stop stop-color="#ED1E79"/><stop offset="1" stop-color="#6B00AA"/></linearGradient></defs></svg>