<svg xmlns="http://www.w3.org/2000/svg" width="204" height="210" fill="none"><g fill="#F8CD53" clip-path="url(#a)"><path d="M87.938 2.482c1.261 0 2.312-.77 2.767-1.853-1.716.175-3.432.42-5.113.664.56.7 1.366 1.189 2.346 1.189ZM102.088 2.482c1.436 0 2.592-1.049 2.872-2.377-.98-.07-1.961-.105-2.977-.105-.945 0-1.856.035-2.801.07.315 1.363 1.471 2.412 2.906 2.412ZM48.47 14.61c-1.436.84-2.837 1.748-4.238 2.657.386.175.806.28 1.226.28a3.018 3.018 0 0 0 3.012-2.936ZM59.64 11.535a3.009 3.009 0 0 0-3.011 3.006 3.009 3.009 0 0 0 3.012 3.006 3.009 3.009 0 0 0 3.012-3.006 3.009 3.009 0 0 0-3.012-3.006ZM73.791 17.547a3.009 3.009 0 0 0 3.012-3.006 3.009 3.009 0 0 0-3.012-3.006 3.009 3.009 0 0 0-3.012 3.006 3.009 3.009 0 0 0 3.012 3.006ZM87.94 11.535a3.009 3.009 0 0 0-3.012 3.006 3.009 3.009 0 0 0 3.012 3.006 3.009 3.009 0 0 0 3.011-3.006 3.009 3.009 0 0 0-3.011-3.006ZM102.088 17.547a3.01 3.01 0 0 0 3.012-3.006 3.01 3.01 0 0 0-3.012-3.006 3.01 3.01 0 0 0-3.012 3.006 3.01 3.01 0 0 0 3.012 3.006ZM31.31 32.611a3.009 3.009 0 0 0 3.011-3.005c0-1.469-1.05-2.622-2.416-2.902-1.191 1.084-2.382 2.168-3.503 3.32.175 1.434 1.401 2.587 2.907 2.587ZM45.457 26.6a3.009 3.009 0 0 0-3.012 3.006 3.009 3.009 0 0 0 3.012 3.006 3.009 3.009 0 0 0 3.012-3.006 2.987 2.987 0 0 0-3.012-3.006ZM59.64 26.6a3.009 3.009 0 0 0-3.011 3.006 3.009 3.009 0 0 0 3.012 3.006 3.009 3.009 0 0 0 3.012-3.006A3.009 3.009 0 0 0 59.64 26.6ZM73.791 26.6a3.009 3.009 0 0 0-3.012 3.006 3.009 3.009 0 0 0 3.012 3.006 3.009 3.009 0 0 0 3.012-3.006 3.009 3.009 0 0 0-3.012-3.006ZM87.94 26.6a3.009 3.009 0 0 0-3.012 3.006 3.009 3.009 0 0 0 3.012 3.006 3.009 3.009 0 0 0 3.011-3.006A3.009 3.009 0 0 0 87.94 26.6ZM102.088 26.6a3.009 3.009 0 0 0-3.012 3.006 3.009 3.009 0 0 0 3.012 3.006 3.009 3.009 0 0 0 3.012-3.006 3.009 3.009 0 0 0-3.012-3.006ZM17.16 47.676a3.009 3.009 0 0 0 3.012-3.006c0-1.363-.945-2.481-2.206-2.83a81.228 81.228 0 0 0-3.222 4.508c.526.804 1.401 1.328 2.417 1.328ZM31.309 41.665a3.009 3.009 0 0 0-3.012 3.005 3.009 3.009 0 0 0 3.012 3.006 3.009 3.009 0 0 0 3.012-3.006 3.009 3.009 0 0 0-3.012-3.005ZM45.457 41.665a3.009 3.009 0 0 0-3.012 3.005 3.009 3.009 0 0 0 3.012 3.006 3.009 3.009 0 0 0 3.012-3.006 3.009 3.009 0 0 0-3.012-3.005ZM59.64 41.665a3.009 3.009 0 0 0-3.011 3.005 3.009 3.009 0 0 0 3.012 3.006 3.009 3.009 0 0 0 3.012-3.006c0-1.642-1.366-3.005-3.012-3.005ZM73.791 41.665a3.009 3.009 0 0 0-3.012 3.005 3.009 3.009 0 0 0 3.012 3.006 3.009 3.009 0 0 0 3.012-3.006c0-1.642-1.366-3.005-3.012-3.005ZM87.94 41.665a3.009 3.009 0 0 0-3.012 3.005 3.009 3.009 0 0 0 3.012 3.006 3.009 3.009 0 0 0 3.011-3.006c0-1.642-1.365-3.005-3.011-3.005ZM102.088 41.665a3.009 3.009 0 0 0-3.012 3.005 3.009 3.009 0 0 0 3.012 3.006 3.009 3.009 0 0 0 3.012-3.006c0-1.642-1.366-3.005-3.012-3.005ZM17.16 56.73a3.009 3.009 0 0 0-3.012 3.005 3.009 3.009 0 0 0 3.012 3.006 3.009 3.009 0 0 0 3.012-3.006 3.009 3.009 0 0 0-3.012-3.006ZM31.309 62.741a3.009 3.009 0 0 0 3.012-3.006 3.009 3.009 0 0 0-3.012-3.006 3.009 3.009 0 0 0-3.012 3.006 3.009 3.009 0 0 0 3.012 3.006ZM45.457 62.741a3.009 3.009 0 0 0 3.012-3.006 3.009 3.009 0 0 0-3.012-3.006 3.009 3.009 0 0 0-3.012 3.006 3.009 3.009 0 0 0 3.012 3.006ZM59.64 56.73a3.009 3.009 0 0 0-3.011 3.005 3.009 3.009 0 0 0 3.012 3.006 3.009 3.009 0 0 0 3.012-3.006c0-1.643-1.366-3.006-3.012-3.006ZM73.791 62.741a3.009 3.009 0 0 0 3.012-3.006 3.009 3.009 0 0 0-3.012-3.006 3.009 3.009 0 0 0-3.012 3.006 3.009 3.009 0 0 0 3.012 3.006ZM87.94 56.73a3.009 3.009 0 0 0-3.012 3.005 3.009 3.009 0 0 0 3.012 3.006 3.009 3.009 0 0 0 3.011-3.006c0-1.643-1.365-3.006-3.011-3.006ZM102.088 62.741a3.01 3.01 0 0 0 3.012-3.006 3.01 3.01 0 0 0-3.012-3.006 3.01 3.01 0 0 0-3.012 3.006 3.01 3.01 0 0 0 3.012 3.006ZM3.013 77.841a3.009 3.009 0 0 0 3.011-3.006 3.009 3.009 0 0 0-3.011-3.006c-.316 0-.596.105-.876.175-.525 1.538-.98 3.11-1.436 4.684.56.664 1.366 1.153 2.312 1.153ZM17.16 71.83a3.009 3.009 0 0 0-3.012 3.005 3.009 3.009 0 0 0 3.012 3.006 3.009 3.009 0 0 0 3.012-3.006 2.987 2.987 0 0 0-3.012-3.006ZM31.309 71.83a3.009 3.009 0 0 0-3.012 3.005 3.009 3.009 0 0 0 3.012 3.006 3.009 3.009 0 0 0 3.012-3.006 2.987 2.987 0 0 0-3.012-3.006ZM45.457 71.83a3.009 3.009 0 0 0-3.012 3.005 3.009 3.009 0 0 0 3.012 3.006 3.009 3.009 0 0 0 3.012-3.006 2.987 2.987 0 0 0-3.012-3.006ZM59.64 71.83a3.009 3.009 0 0 0-3.011 3.005 3.009 3.009 0 0 0 3.012 3.006 3.009 3.009 0 0 0 3.012-3.006 3.009 3.009 0 0 0-3.012-3.006ZM73.791 71.83a3.009 3.009 0 0 0-3.012 3.005 3.009 3.009 0 0 0 3.012 3.006 3.009 3.009 0 0 0 3.012-3.006 3.009 3.009 0 0 0-3.012-3.006ZM87.94 71.83a3.009 3.009 0 0 0-3.012 3.005 3.009 3.009 0 0 0 3.012 3.006 3.009 3.009 0 0 0 3.011-3.006 3.009 3.009 0 0 0-3.011-3.006ZM102.088 71.83a3.009 3.009 0 0 0-3.012 3.005 3.009 3.009 0 0 0 3.012 3.006 3.009 3.009 0 0 0 3.012-3.006 3.009 3.009 0 0 0-3.012-3.006ZM3.012 92.906A3.009 3.009 0 0 0 6.024 89.9a3.009 3.009 0 0 0-3.012-3.006A3.009 3.009 0 0 0 0 89.9a3.009 3.009 0 0 0 3.012 3.006ZM17.16 86.894a3.009 3.009 0 0 0-3.012 3.006 3.009 3.009 0 0 0 3.012 3.006 3.009 3.009 0 0 0 3.012-3.006 2.987 2.987 0 0 0-3.012-3.006ZM31.309 92.906A3.009 3.009 0 0 0 34.32 89.9a3.009 3.009 0 0 0-3.012-3.006 3.009 3.009 0 0 0-3.012 3.006 3.009 3.009 0 0 0 3.012 3.006ZM45.457 92.906A3.009 3.009 0 0 0 48.47 89.9a3.009 3.009 0 0 0-3.012-3.006 3.009 3.009 0 0 0-3.012 3.006 3.009 3.009 0 0 0 3.012 3.006ZM59.64 86.894A3.009 3.009 0 0 0 56.63 89.9a3.009 3.009 0 0 0 3.012 3.006 3.009 3.009 0 0 0 3.012-3.006 3.009 3.009 0 0 0-3.012-3.006ZM73.791 92.906a3.009 3.009 0 0 0 3.012-3.006 3.009 3.009 0 0 0-3.012-3.006A3.009 3.009 0 0 0 70.78 89.9a3.009 3.009 0 0 0 3.012 3.006ZM87.94 86.894a3.009 3.009 0 0 0-3.012 3.006 3.009 3.009 0 0 0 3.012 3.006A3.009 3.009 0 0 0 90.95 89.9a3.009 3.009 0 0 0-3.011-3.006ZM102.088 92.906A3.01 3.01 0 0 0 105.1 89.9a3.01 3.01 0 0 0-3.012-3.006 3.01 3.01 0 0 0-3.012 3.006 3.01 3.01 0 0 0 3.012 3.006ZM3.012 107.971a3.009 3.009 0 0 0 3.012-3.006 3.009 3.009 0 0 0-3.012-3.006A3.009 3.009 0 0 0 0 104.965a3.009 3.009 0 0 0 3.012 3.006ZM17.16 101.959a3.009 3.009 0 0 0-3.012 3.006 3.009 3.009 0 0 0 3.012 3.006 3.009 3.009 0 0 0 3.012-3.006 3.009 3.009 0 0 0-3.012-3.006ZM31.309 107.971a3.01 3.01 0 0 0 3.012-3.006 3.01 3.01 0 0 0-3.012-3.006 3.009 3.009 0 0 0-3.012 3.006 3.009 3.009 0 0 0 3.012 3.006ZM45.457 107.971a3.009 3.009 0 0 0 3.012-3.006 3.009 3.009 0 0 0-3.012-3.006 3.01 3.01 0 0 0-3.012 3.006 3.01 3.01 0 0 0 3.012 3.006ZM59.64 101.959a3.009 3.009 0 0 0-3.011 3.006 3.009 3.009 0 0 0 3.012 3.006 3.009 3.009 0 0 0 3.012-3.006c0-1.643-1.366-3.006-3.012-3.006ZM73.791 107.971a3.01 3.01 0 0 0 3.012-3.006 3.01 3.01 0 0 0-3.012-3.006 3.009 3.009 0 0 0-3.012 3.006 3.009 3.009 0 0 0 3.012 3.006ZM87.94 101.959a3.009 3.009 0 0 0-3.012 3.006 3.009 3.009 0 0 0 3.012 3.006 3.009 3.009 0 0 0 3.011-3.006c0-1.643-1.365-3.006-3.011-3.006ZM102.088 107.971a3.01 3.01 0 0 0 3.012-3.006 3.01 3.01 0 0 0-3.012-3.006 3.01 3.01 0 0 0-3.012 3.006 3.01 3.01 0 0 0 3.012 3.006ZM116.062 2.482c.98 0 1.786-.49 2.346-1.189a81.7 81.7 0 0 0-5.113-.664c.42 1.084 1.506 1.853 2.767 1.853ZM116.061 11.535a3.009 3.009 0 0 0-3.012 3.006 3.009 3.009 0 0 0 3.012 3.006 3.009 3.009 0 0 0 3.012-3.006 3.009 3.009 0 0 0-3.012-3.006ZM130.209 11.535a3.009 3.009 0 0 0-3.012 3.006 3.009 3.009 0 0 0 3.012 3.006 3.009 3.009 0 0 0 3.012-3.006 2.987 2.987 0 0 0-3.012-3.006ZM144.358 17.547a3.009 3.009 0 0 0 3.011-3.006 3.008 3.008 0 0 0-3.011-3.006 3.009 3.009 0 0 0-3.012 3.006 3.009 3.009 0 0 0 3.012 3.006ZM158.508 17.547c.455 0 .875-.105 1.226-.28a172.862 172.862 0 0 0-4.238-2.656c.07 1.607 1.401 2.936 3.012 2.936ZM116.061 26.6a3.009 3.009 0 0 0-3.012 3.006 3.009 3.009 0 0 0 3.012 3.006 3.009 3.009 0 0 0 3.012-3.006 3.009 3.009 0 0 0-3.012-3.006ZM130.209 26.6a3.009 3.009 0 0 0-3.012 3.006 3.009 3.009 0 0 0 3.012 3.006 3.009 3.009 0 0 0 3.012-3.006 2.987 2.987 0 0 0-3.012-3.006ZM144.358 26.6a3.009 3.009 0 0 0-3.012 3.006 3.009 3.009 0 0 0 3.012 3.006 3.008 3.008 0 0 0 3.011-3.006 2.986 2.986 0 0 0-3.011-3.006ZM158.508 26.6a3.009 3.009 0 0 0-3.012 3.006 3.009 3.009 0 0 0 3.012 3.006 3.009 3.009 0 0 0 3.012-3.006 2.987 2.987 0 0 0-3.012-3.006ZM169.645 29.605a3.008 3.008 0 0 0 3.011 3.006c1.506 0 2.732-1.153 2.942-2.586-1.156-1.119-2.311-2.237-3.537-3.286-1.366.245-2.416 1.398-2.416 2.866ZM116.061 41.665a3.009 3.009 0 0 0-3.012 3.005 3.009 3.009 0 0 0 3.012 3.006 3.009 3.009 0 0 0 3.012-3.006c0-1.642-1.366-3.005-3.012-3.005ZM130.209 41.665a3.009 3.009 0 0 0-3.012 3.005 3.009 3.009 0 0 0 3.012 3.006 3.009 3.009 0 0 0 3.012-3.006 3.009 3.009 0 0 0-3.012-3.005ZM144.358 41.665a3.009 3.009 0 0 0-3.012 3.005 3.009 3.009 0 0 0 3.012 3.006 3.008 3.008 0 0 0 3.011-3.006 3.008 3.008 0 0 0-3.011-3.005ZM158.508 41.665a3.009 3.009 0 0 0-3.012 3.005 3.009 3.009 0 0 0 3.012 3.006 3.009 3.009 0 0 0 3.012-3.006 3.009 3.009 0 0 0-3.012-3.005ZM172.656 41.665a3.008 3.008 0 0 0-3.011 3.005 3.008 3.008 0 0 0 3.011 3.006c1.646 0 3.012-1.363 3.012-3.006.035-1.642-1.331-3.005-3.012-3.005ZM183.828 44.67a3.009 3.009 0 0 0 3.012 3.006c1.016 0 1.891-.559 2.451-1.328a146.406 146.406 0 0 0-3.222-4.509c-1.295.35-2.241 1.468-2.241 2.831ZM116.061 56.73a3.009 3.009 0 0 0-3.012 3.005 3.009 3.009 0 0 0 3.012 3.006 3.009 3.009 0 0 0 3.012-3.006c0-1.643-1.366-3.006-3.012-3.006ZM130.209 56.73a3.009 3.009 0 0 0-3.012 3.005 3.009 3.009 0 0 0 3.012 3.006 3.009 3.009 0 0 0 3.012-3.006 3.009 3.009 0 0 0-3.012-3.006ZM144.358 62.741a3.008 3.008 0 0 0 3.011-3.006 3.009 3.009 0 0 0-3.011-3.006 3.009 3.009 0 0 0-3.012 3.006 3.009 3.009 0 0 0 3.012 3.006ZM158.508 56.73a3.009 3.009 0 0 0-3.012 3.005 3.009 3.009 0 0 0 3.012 3.006 3.009 3.009 0 0 0 3.012-3.006 3.009 3.009 0 0 0-3.012-3.006ZM172.656 56.73a3.008 3.008 0 0 0-3.011 3.005 3.008 3.008 0 0 0 3.011 3.006c1.646 0 3.012-1.363 3.012-3.006.035-1.643-1.331-3.006-3.012-3.006ZM186.84 56.73a3.009 3.009 0 0 0-3.012 3.005 3.009 3.009 0 0 0 3.012 3.006 3.009 3.009 0 0 0 3.012-3.006c0-1.643-1.366-3.006-3.012-3.006ZM116.061 71.83a3.009 3.009 0 0 0-3.012 3.005 3.009 3.009 0 0 0 3.012 3.006 3.009 3.009 0 0 0 3.012-3.006 3.009 3.009 0 0 0-3.012-3.006ZM130.209 71.83a3.009 3.009 0 0 0-3.012 3.005 3.009 3.009 0 0 0 3.012 3.006 3.009 3.009 0 0 0 3.012-3.006 2.987 2.987 0 0 0-3.012-3.006ZM144.358 71.83a3.009 3.009 0 0 0-3.012 3.005 3.009 3.009 0 0 0 3.012 3.006 3.008 3.008 0 0 0 3.011-3.006 2.986 2.986 0 0 0-3.011-3.006ZM158.508 71.83a3.009 3.009 0 0 0-3.012 3.005 3.009 3.009 0 0 0 3.012 3.006 3.009 3.009 0 0 0 3.012-3.006 2.987 2.987 0 0 0-3.012-3.006ZM172.656 71.83a3.008 3.008 0 0 0-3.011 3.005 3.008 3.008 0 0 0 3.011 3.006c1.646 0 3.012-1.363 3.012-3.006.035-1.678-1.331-3.006-3.012-3.006ZM186.84 71.83a3.009 3.009 0 0 0-3.012 3.005 3.009 3.009 0 0 0 3.012 3.006 3.009 3.009 0 0 0 3.012-3.006 3.009 3.009 0 0 0-3.012-3.006ZM197.977 74.835a3.008 3.008 0 0 0 3.011 3.006c.946 0 1.751-.454 2.312-1.153-.455-1.573-.911-3.146-1.436-4.684a2.44 2.44 0 0 0-.876-.175 2.986 2.986 0 0 0-3.011 3.006ZM116.061 86.894a3.009 3.009 0 0 0-3.012 3.006 3.009 3.009 0 0 0 3.012 3.006 3.009 3.009 0 0 0 3.012-3.006 3.009 3.009 0 0 0-3.012-3.006ZM130.209 86.894a3.009 3.009 0 0 0-3.012 3.006 3.009 3.009 0 0 0 3.012 3.006 3.009 3.009 0 0 0 3.012-3.006 2.987 2.987 0 0 0-3.012-3.006ZM144.358 92.906a3.008 3.008 0 0 0 3.011-3.006 3.009 3.009 0 0 0-3.011-3.006 3.009 3.009 0 0 0-3.012 3.006 3.009 3.009 0 0 0 3.012 3.006ZM158.508 86.894a3.009 3.009 0 0 0-3.012 3.006 3.009 3.009 0 0 0 3.012 3.006 3.009 3.009 0 0 0 3.012-3.006 2.987 2.987 0 0 0-3.012-3.006ZM172.656 86.894a3.008 3.008 0 0 0-3.011 3.006 3.008 3.008 0 0 0 3.011 3.006c1.646 0 3.012-1.363 3.012-3.006.035-1.678-1.331-3.006-3.012-3.006ZM186.84 86.894a3.009 3.009 0 0 0-3.012 3.006 3.009 3.009 0 0 0 3.012 3.006 3.009 3.009 0 0 0 3.012-3.006 3.009 3.009 0 0 0-3.012-3.006ZM200.988 86.894a3.008 3.008 0 0 0-3.011 3.006 3.008 3.008 0 0 0 3.011 3.006A3.009 3.009 0 0 0 204 89.9a3.009 3.009 0 0 0-3.012-3.006ZM116.061 101.959a3.009 3.009 0 0 0-3.012 3.006 3.009 3.009 0 0 0 3.012 3.006 3.009 3.009 0 0 0 3.012-3.006c0-1.643-1.366-3.006-3.012-3.006ZM130.209 101.959a3.009 3.009 0 0 0-3.012 3.006 3.009 3.009 0 0 0 3.012 3.006 3.009 3.009 0 0 0 3.012-3.006 3.009 3.009 0 0 0-3.012-3.006ZM144.358 107.971a3.009 3.009 0 0 0 3.011-3.006 3.009 3.009 0 0 0-3.011-3.006 3.009 3.009 0 0 0-3.012 3.006 3.009 3.009 0 0 0 3.012 3.006ZM158.508 101.959a3.009 3.009 0 0 0-3.012 3.006 3.009 3.009 0 0 0 3.012 3.006 3.009 3.009 0 0 0 3.012-3.006 3.009 3.009 0 0 0-3.012-3.006ZM172.656 101.959a3.008 3.008 0 0 0-3.011 3.006 3.008 3.008 0 0 0 3.011 3.006c1.646 0 3.012-1.363 3.012-3.006.035-1.643-1.331-3.006-3.012-3.006ZM186.84 101.959a3.009 3.009 0 0 0-3.012 3.006 3.009 3.009 0 0 0 3.012 3.006 3.009 3.009 0 0 0 3.012-3.006c0-1.643-1.366-3.006-3.012-3.006ZM200.988 101.959a3.008 3.008 0 0 0-3.011 3.006 3.008 3.008 0 0 0 3.011 3.006 3.009 3.009 0 0 0 3.012-3.006c0-1.643-1.366-3.006-3.012-3.006ZM3.012 123.106a3.009 3.009 0 0 0 3.012-3.006 3.009 3.009 0 0 0-3.012-3.006A3.009 3.009 0 0 0 0 120.1a3.009 3.009 0 0 0 3.012 3.006ZM17.16 117.094a3.009 3.009 0 0 0-3.012 3.006 3.009 3.009 0 0 0 3.012 3.006 3.009 3.009 0 0 0 3.012-3.006 2.986 2.986 0 0 0-3.012-3.006ZM31.309 123.106a3.01 3.01 0 0 0 3.012-3.006 3.01 3.01 0 0 0-3.012-3.006 3.009 3.009 0 0 0-3.012 3.006 3.009 3.009 0 0 0 3.012 3.006ZM45.457 123.106a3.009 3.009 0 0 0 3.012-3.006 3.009 3.009 0 0 0-3.012-3.006 3.01 3.01 0 0 0-3.012 3.006 3.01 3.01 0 0 0 3.012 3.006ZM59.64 117.094a3.009 3.009 0 0 0-3.011 3.006 3.009 3.009 0 0 0 3.012 3.006 3.009 3.009 0 0 0 3.012-3.006 3.009 3.009 0 0 0-3.012-3.006ZM73.791 123.106a3.01 3.01 0 0 0 3.012-3.006 3.01 3.01 0 0 0-3.012-3.006 3.009 3.009 0 0 0-3.012 3.006 3.009 3.009 0 0 0 3.012 3.006ZM87.94 117.094a3.009 3.009 0 0 0-3.012 3.006 3.009 3.009 0 0 0 3.012 3.006 3.009 3.009 0 0 0 3.011-3.006 3.009 3.009 0 0 0-3.011-3.006ZM102.088 123.106a3.01 3.01 0 0 0 3.012-3.006 3.01 3.01 0 0 0-3.012-3.006 3.01 3.01 0 0 0-3.012 3.006 3.01 3.01 0 0 0 3.012 3.006ZM6.024 135.165a3.009 3.009 0 0 0-3.011-3.006c-.946 0-1.751.454-2.312 1.153.455 1.573.91 3.146 1.436 4.684.28.105.56.175.876.175a2.987 2.987 0 0 0 3.011-3.006ZM17.16 132.159a3.009 3.009 0 0 0-3.012 3.006 3.009 3.009 0 0 0 3.012 3.006 3.009 3.009 0 0 0 3.012-3.006 3.009 3.009 0 0 0-3.012-3.006ZM31.309 138.171a3.01 3.01 0 0 0 3.012-3.006 3.01 3.01 0 0 0-3.012-3.006 3.009 3.009 0 0 0-3.012 3.006 3.009 3.009 0 0 0 3.012 3.006ZM45.457 138.171a3.009 3.009 0 0 0 3.012-3.006 3.009 3.009 0 0 0-3.012-3.006 3.01 3.01 0 0 0-3.012 3.006 3.01 3.01 0 0 0 3.012 3.006ZM59.64 132.159a3.009 3.009 0 0 0-3.011 3.006 3.009 3.009 0 0 0 3.012 3.006 3.009 3.009 0 0 0 3.012-3.006c0-1.643-1.366-3.006-3.012-3.006ZM73.791 138.171a3.01 3.01 0 0 0 3.012-3.006 3.01 3.01 0 0 0-3.012-3.006 3.009 3.009 0 0 0-3.012 3.006 3.009 3.009 0 0 0 3.012 3.006ZM87.94 132.159a3.009 3.009 0 0 0-3.012 3.006 3.009 3.009 0 0 0 3.012 3.006 3.009 3.009 0 0 0 3.011-3.006c0-1.643-1.365-3.006-3.011-3.006ZM102.088 138.171a3.01 3.01 0 0 0 3.012-3.006 3.01 3.01 0 0 0-3.012-3.006 3.01 3.01 0 0 0-3.012 3.006 3.01 3.01 0 0 0 3.012 3.006ZM17.16 147.224a3.009 3.009 0 0 0-3.012 3.006 3.01 3.01 0 0 0 3.012 3.006 3.01 3.01 0 0 0 3.012-3.006 3.009 3.009 0 0 0-3.012-3.006ZM31.309 153.236a3.01 3.01 0 0 0 3.012-3.006 3.008 3.008 0 0 0-3.012-3.006 3.008 3.008 0 0 0-3.012 3.006 3.009 3.009 0 0 0 3.012 3.006ZM45.457 153.236a3.009 3.009 0 0 0 3.012-3.006 3.008 3.008 0 0 0-3.012-3.006 3.008 3.008 0 0 0-3.012 3.006 3.01 3.01 0 0 0 3.012 3.006ZM59.64 147.224a3.009 3.009 0 0 0-3.011 3.006 3.01 3.01 0 0 0 3.012 3.006 3.01 3.01 0 0 0 3.012-3.006c0-1.643-1.366-3.006-3.012-3.006ZM73.791 153.236a3.01 3.01 0 0 0 3.012-3.006 3.008 3.008 0 0 0-3.012-3.006 3.008 3.008 0 0 0-3.012 3.006 3.009 3.009 0 0 0 3.012 3.006ZM87.94 147.224a3.009 3.009 0 0 0-3.012 3.006 3.01 3.01 0 0 0 3.012 3.006 3.01 3.01 0 0 0 3.011-3.006c0-1.643-1.365-3.006-3.011-3.006ZM102.088 153.236a3.01 3.01 0 0 0 3.012-3.006 3.009 3.009 0 0 0-3.012-3.006 3.009 3.009 0 0 0-3.012 3.006 3.01 3.01 0 0 0 3.012 3.006ZM20.172 165.329a3.01 3.01 0 0 0-3.012-3.006c-1.015 0-1.89.56-2.451 1.329a147.83 147.83 0 0 0 3.222 4.509c1.296-.35 2.241-1.468 2.241-2.832ZM31.309 168.335a3.008 3.008 0 0 0 3.012-3.006 3.01 3.01 0 0 0-3.012-3.006 3.009 3.009 0 0 0-3.012 3.006 3.008 3.008 0 0 0 3.012 3.006ZM45.457 168.335a3.008 3.008 0 0 0 3.012-3.006 3.009 3.009 0 0 0-3.012-3.006 3.01 3.01 0 0 0-3.012 3.006 3.008 3.008 0 0 0 3.012 3.006ZM59.64 162.323a3.01 3.01 0 0 0-3.011 3.006c0 1.643 1.366 3.006 3.012 3.006a3.009 3.009 0 0 0 3.012-3.006c0-1.642-1.366-3.006-3.012-3.006ZM73.791 168.335a3.008 3.008 0 0 0 3.012-3.006 3.01 3.01 0 0 0-3.012-3.006 3.009 3.009 0 0 0-3.012 3.006 3.008 3.008 0 0 0 3.012 3.006ZM87.94 162.323a3.01 3.01 0 0 0-3.012 3.006c0 1.643 1.366 3.006 3.012 3.006a3.009 3.009 0 0 0 3.011-3.006c0-1.642-1.365-3.006-3.011-3.006ZM102.088 168.335a3.009 3.009 0 0 0 3.012-3.006 3.01 3.01 0 0 0-3.012-3.006 3.01 3.01 0 0 0-3.012 3.006 3.009 3.009 0 0 0 3.012 3.006ZM34.32 180.394a3.01 3.01 0 0 0-3.011-3.006c-1.506 0-2.732 1.154-2.942 2.587 1.156 1.118 2.312 2.237 3.537 3.286 1.366-.245 2.417-1.399 2.417-2.867ZM45.457 183.4a3.008 3.008 0 0 0 3.012-3.006 3.009 3.009 0 0 0-3.012-3.006 3.01 3.01 0 0 0-3.012 3.006 3.008 3.008 0 0 0 3.012 3.006ZM59.64 177.388a3.01 3.01 0 0 0-3.011 3.006 3.009 3.009 0 0 0 3.012 3.006 3.009 3.009 0 0 0 3.012-3.006 3.01 3.01 0 0 0-3.012-3.006ZM73.791 183.4a3.008 3.008 0 0 0 3.012-3.006 3.01 3.01 0 0 0-3.012-3.006 3.009 3.009 0 0 0-3.012 3.006 3.008 3.008 0 0 0 3.012 3.006ZM87.94 177.388a3.01 3.01 0 0 0-3.012 3.006 3.009 3.009 0 0 0 3.012 3.006 3.009 3.009 0 0 0 3.011-3.006 3.01 3.01 0 0 0-3.011-3.006ZM102.088 183.4a3.009 3.009 0 0 0 3.012-3.006 3.01 3.01 0 0 0-3.012-3.006 3.01 3.01 0 0 0-3.012 3.006 3.009 3.009 0 0 0 3.012 3.006ZM45.458 192.453c-.455 0-.875.105-1.226.28 1.401.909 2.802 1.783 4.238 2.656a2.995 2.995 0 0 0-3.012-2.936ZM59.64 192.453a3.01 3.01 0 0 0-3.011 3.006 3.009 3.009 0 0 0 3.012 3.006 3.009 3.009 0 0 0 3.012-3.006c0-1.642-1.366-3.006-3.012-3.006ZM73.791 192.453a3.01 3.01 0 0 0-3.012 3.006 3.009 3.009 0 0 0 3.012 3.006 3.009 3.009 0 0 0 3.012-3.006c0-1.642-1.366-3.006-3.012-3.006ZM87.94 192.453a3.01 3.01 0 0 0-3.012 3.006 3.009 3.009 0 0 0 3.012 3.006 3.009 3.009 0 0 0 3.011-3.006c0-1.642-1.365-3.006-3.011-3.006ZM102.088 192.453a3.01 3.01 0 0 0-3.012 3.006 3.009 3.009 0 0 0 3.012 3.006 3.009 3.009 0 0 0 3.012-3.006c0-1.642-1.366-3.006-3.012-3.006ZM87.938 207.518c-.98 0-1.786.49-2.346 1.189 1.68.279 3.397.489 5.113.664a2.992 2.992 0 0 0-2.767-1.853ZM102.088 207.518c-1.435 0-2.591 1.049-2.906 2.412.945.035 1.856.07 2.801.07a82.48 82.48 0 0 0 2.977-.07c-.28-1.363-1.436-2.412-2.872-2.412ZM116.061 117.094a3.009 3.009 0 0 0-3.012 3.006 3.009 3.009 0 0 0 3.012 3.006 3.009 3.009 0 0 0 3.012-3.006 3.009 3.009 0 0 0-3.012-3.006ZM130.209 117.094a3.009 3.009 0 0 0-3.012 3.006 3.009 3.009 0 0 0 3.012 3.006 3.009 3.009 0 0 0 3.012-3.006 2.987 2.987 0 0 0-3.012-3.006ZM144.358 123.106a3.009 3.009 0 0 0 3.011-3.006 3.009 3.009 0 0 0-3.011-3.006 3.009 3.009 0 0 0-3.012 3.006 3.009 3.009 0 0 0 3.012 3.006ZM158.508 117.094a3.009 3.009 0 0 0-3.012 3.006 3.009 3.009 0 0 0 3.012 3.006 3.009 3.009 0 0 0 3.012-3.006 2.987 2.987 0 0 0-3.012-3.006ZM172.656 117.094a3.008 3.008 0 0 0-3.011 3.006 3.008 3.008 0 0 0 3.011 3.006c1.646 0 3.012-1.363 3.012-3.006.035-1.678-1.331-3.006-3.012-3.006ZM186.84 117.094a3.009 3.009 0 0 0-3.012 3.006 3.009 3.009 0 0 0 3.012 3.006 3.009 3.009 0 0 0 3.012-3.006 3.009 3.009 0 0 0-3.012-3.006ZM200.988 117.094a3.008 3.008 0 0 0-3.011 3.006 3.008 3.008 0 0 0 3.011 3.006A3.009 3.009 0 0 0 204 120.1a3.009 3.009 0 0 0-3.012-3.006ZM116.061 132.159a3.009 3.009 0 0 0-3.012 3.006 3.009 3.009 0 0 0 3.012 3.006 3.009 3.009 0 0 0 3.012-3.006c0-1.643-1.366-3.006-3.012-3.006ZM130.209 132.159a3.009 3.009 0 0 0-3.012 3.006 3.009 3.009 0 0 0 3.012 3.006 3.009 3.009 0 0 0 3.012-3.006 3.009 3.009 0 0 0-3.012-3.006ZM144.358 138.171a3.009 3.009 0 0 0 3.011-3.006 3.009 3.009 0 0 0-3.011-3.006 3.009 3.009 0 0 0-3.012 3.006 3.009 3.009 0 0 0 3.012 3.006ZM158.508 132.159a3.009 3.009 0 0 0-3.012 3.006 3.009 3.009 0 0 0 3.012 3.006 3.009 3.009 0 0 0 3.012-3.006 3.009 3.009 0 0 0-3.012-3.006ZM172.656 132.159a3.008 3.008 0 0 0-3.011 3.006 3.008 3.008 0 0 0 3.011 3.006c1.646 0 3.012-1.363 3.012-3.006.035-1.643-1.331-3.006-3.012-3.006ZM186.84 132.159a3.009 3.009 0 0 0-3.012 3.006 3.009 3.009 0 0 0 3.012 3.006 3.009 3.009 0 0 0 3.012-3.006c0-1.643-1.366-3.006-3.012-3.006ZM200.988 132.159a3.008 3.008 0 0 0-3.011 3.006 3.008 3.008 0 0 0 3.011 3.006c.316 0 .596-.105.876-.175.525-1.538.981-3.111 1.436-4.684-.561-.664-1.366-1.153-2.312-1.153ZM116.061 147.224a3.009 3.009 0 0 0-3.012 3.006 3.01 3.01 0 0 0 3.012 3.006 3.01 3.01 0 0 0 3.012-3.006c0-1.643-1.366-3.006-3.012-3.006ZM130.209 147.224a3.009 3.009 0 0 0-3.012 3.006 3.01 3.01 0 0 0 3.012 3.006 3.01 3.01 0 0 0 3.012-3.006 3.009 3.009 0 0 0-3.012-3.006ZM144.358 153.236a3.009 3.009 0 0 0 3.011-3.006 3.008 3.008 0 0 0-3.011-3.006 3.008 3.008 0 0 0-3.012 3.006 3.009 3.009 0 0 0 3.012 3.006ZM158.508 147.224a3.009 3.009 0 0 0-3.012 3.006 3.01 3.01 0 0 0 3.012 3.006 3.01 3.01 0 0 0 3.012-3.006 3.009 3.009 0 0 0-3.012-3.006ZM172.656 147.224a3.008 3.008 0 0 0-3.011 3.006 3.009 3.009 0 0 0 3.011 3.006c1.646 0 3.012-1.364 3.012-3.006.035-1.643-1.331-3.006-3.012-3.006ZM186.84 147.224a3.009 3.009 0 0 0-3.012 3.006 3.01 3.01 0 0 0 3.012 3.006 3.01 3.01 0 0 0 3.012-3.006c0-1.643-1.366-3.006-3.012-3.006ZM116.061 162.323a3.01 3.01 0 0 0-3.012 3.006c0 1.643 1.366 3.006 3.012 3.006a3.009 3.009 0 0 0 3.012-3.006c0-1.642-1.366-3.006-3.012-3.006ZM130.209 162.323a3.01 3.01 0 0 0-3.012 3.006c0 1.643 1.366 3.006 3.012 3.006a3.009 3.009 0 0 0 3.012-3.006 3.01 3.01 0 0 0-3.012-3.006ZM144.358 168.335a3.008 3.008 0 0 0 3.011-3.006 3.009 3.009 0 0 0-3.011-3.006 3.009 3.009 0 0 0-3.012 3.006 3.008 3.008 0 0 0 3.012 3.006ZM158.508 162.323a3.01 3.01 0 0 0-3.012 3.006c0 1.643 1.366 3.006 3.012 3.006a3.009 3.009 0 0 0 3.012-3.006 3.01 3.01 0 0 0-3.012-3.006ZM172.656 162.323a3.009 3.009 0 0 0-3.011 3.006c0 1.643 1.365 3.006 3.011 3.006 1.646 0 3.012-1.363 3.012-3.006a3.01 3.01 0 0 0-3.012-3.006ZM186.84 162.323a3.01 3.01 0 0 0-3.012 3.006c0 1.364.946 2.482 2.206 2.832a80.67 80.67 0 0 0 3.222-4.509c-.525-.804-1.4-1.329-2.416-1.329ZM116.061 177.388a3.01 3.01 0 0 0-3.012 3.006 3.009 3.009 0 0 0 3.012 3.006 3.009 3.009 0 0 0 3.012-3.006 3.01 3.01 0 0 0-3.012-3.006ZM130.209 177.388a3.01 3.01 0 0 0-3.012 3.006 3.009 3.009 0 0 0 3.012 3.006 3.009 3.009 0 0 0 3.012-3.006 2.987 2.987 0 0 0-3.012-3.006ZM144.358 183.4a3.008 3.008 0 0 0 3.011-3.006 3.009 3.009 0 0 0-3.011-3.006 3.009 3.009 0 0 0-3.012 3.006 3.008 3.008 0 0 0 3.012 3.006ZM158.508 177.388a3.01 3.01 0 0 0-3.012 3.006 3.009 3.009 0 0 0 3.012 3.006 3.009 3.009 0 0 0 3.012-3.006 2.987 2.987 0 0 0-3.012-3.006ZM172.656 177.388a3.009 3.009 0 0 0-3.011 3.006c0 1.468 1.05 2.622 2.416 2.902a159.442 159.442 0 0 0 3.537-3.286c-.21-1.468-1.401-2.622-2.942-2.622ZM116.061 192.453a3.01 3.01 0 0 0-3.012 3.006 3.009 3.009 0 0 0 3.012 3.006 3.009 3.009 0 0 0 3.012-3.006c0-1.642-1.366-3.006-3.012-3.006ZM130.209 192.453a3.01 3.01 0 0 0-3.012 3.006 3.009 3.009 0 0 0 3.012 3.006 3.009 3.009 0 0 0 3.012-3.006 3.01 3.01 0 0 0-3.012-3.006ZM144.358 192.453a3.01 3.01 0 0 0-3.012 3.006 3.009 3.009 0 0 0 3.012 3.006 3.008 3.008 0 0 0 3.011-3.006 3.009 3.009 0 0 0-3.011-3.006ZM155.531 195.389c1.436-.838 2.837-1.747 4.238-2.656a2.988 2.988 0 0 0-1.226-.28 2.995 2.995 0 0 0-3.012 2.936ZM116.062 207.518a2.992 2.992 0 0 0-2.767 1.853c1.716-.175 3.432-.42 5.113-.664-.56-.699-1.366-1.189-2.346-1.189Z"/></g><defs><clipPath id="a"><path fill="#fff" d="M0 0h204v210H0z"/></clipPath></defs></svg>