<svg xmlns="http://www.w3.org/2000/svg" width="245" height="44" fill="none"><g clip-path="url(#a)"><path fill="#F8CD53" d="M35.117 3.538C24.647 5.494 14.449 7.38 4.25 9.31c-.657.125-1.826-.11-1.77.777.058 1.124 1.256.958 2.112.958h33.89c4.864 0 6.576 1.679 6.576 6.452 0 4.62 0 4.62-4.793 4.62-.813 0-1.612-.027-2.425.014-2.967.153-4.992 2.248-5.05 5.162-.056 2.817 1.798 5.01 4.68 5.26 1.968.18 3.965.166 5.933.069 1.412-.07 1.769.43 1.669 1.706-.114 1.485 0 2.997-.029 4.496-.057 2.97-2.04 5.106-5.035 5.12-11.667.056-23.32.056-34.988 0C2.11 43.93.057 41.85.043 39.018 0 29.388.029 19.758 0 10.115c0-1.873.927-2.928 2.682-3.413C10.198 4.579 17.715 2.4 25.26.36c3.794-1.026 7.36.167 9.856 3.178Z"/><path fill="#3D4044" d="M41.478 31.137c-1.099 0-2.197.056-3.295-.014-2.126-.125-3.552-1.512-3.666-3.538-.114-2.012 1.127-3.705 3.238-3.885 2.396-.208 4.82-.084 7.231-.14.77-.013 1.027.334.999 1.028-.029.707-.014 1.429-.014 2.137.014 4.426.014 4.426-4.493 4.412Zm-1.398-3.885c-.257-.93-.756-1.748-2.011-1.72-1.313.027-2.04.72-1.983 1.997.057 1.18.899 1.804 2.04 1.749 1.112-.056 1.825-.75 1.954-2.026Z"/><path fill="#F8CD53" d="M11.553 8.922c7.003-1.152 13.992-2.345 20.996-3.427 3.038-.472 4.464.541 5.948 3.788-.186.236-.385.458-.57.694h-26.36c0-.347 0-.694-.014-1.055Z"/><path fill="#F8CD53" d="M11.553 8.922c.014.347.014.708.028 1.055-2.04.25-4.093.194-6.39.055 2.24-.638 4.28-1.027 6.362-1.11ZM37.941 9.977c.186-.236.386-.458.57-.694.286.166.372.486.186.666-.142.139-.499.028-.756.028Z"/></g><path fill="#000" d="M75.839 9.88c.454 0 .68.238.68.714 0 .243-.077.526-.232.846-.144.31-.26.565-.349.764l-9.014 22.263L56 10.063h9.064l5.28 12.417 3.702-9.263c.398-.996.658-1.716.78-2.158.122-.443.255-.747.399-.913.144-.178.348-.266.614-.266ZM94.565 32.126c.565 0 .847.221.847.664 0 .2-.122.376-.365.531-.244.155-.664.233-1.262.233H79.724V10.062h13.082l1.361-.05c.83 0 1.245.244 1.245.731a.799.799 0 0 1-.216.531.597.597 0 0 1-.465.233c-.287 0-.592-.033-.913-.1-.476-.1-1.129-.15-1.959-.15H88.19v5.064h3.022l2.042-.083c.243 0 .448.061.614.183.177.11.266.271.266.481 0 .465-.31.698-.93.698l-.714-.017c-.365-.033-.67-.05-.913-.05H88.19v14.809h3.67c.818 0 1.4-.033 1.743-.1.409-.077.73-.116.962-.116ZM101.355 31.18l.05 1.66c0 .288-.077.509-.232.664a.769.769 0 0 1-.565.232.722.722 0 0 1-.531-.215c-.144-.144-.216-.3-.216-.465 0-.177.011-.338.033-.482.034-.155.061-.326.084-.514.055-.321.083-1.124.083-2.408V9l18.045 14.31v-9.894c0-.753-.022-1.29-.066-1.61-.055-.52-.083-.886-.083-1.096 0-.553.238-.83.714-.83.188 0 .365.066.531.2.177.132.266.326.266.58v.581l-.067 2.407v20.819l-18.046-14.161V31.18ZM142.411 10.494c0 .51-.537.764-1.61.764h-3.852v22.296h-8.5V11.258h-2.49c-.852 0-1.439.039-1.76.116-.42.089-.725.133-.913.133-.564 0-.847-.221-.847-.664 0-.52.548-.78 1.644-.78h14.809c.763 0 1.328-.034 1.693-.1.443-.078.775-.116.996-.116.553 0 .83.216.83.647ZM166.649 10.76l-.099 2.058v9.928c0 3.276-.941 5.938-2.822 7.985-1.926 2.092-4.483 3.138-7.67 3.138-3.409 0-6.065-1.068-7.969-3.204-1.771-1.959-2.656-4.471-2.656-7.537V10.062h8.483v22.396c.852.122 1.787.183 2.806.183 1.029 0 2.069-.205 3.121-.615a7.283 7.283 0 0 0 2.789-1.925c1.726-1.882 2.601-4.632 2.623-8.251v-8.998c0-.332-.028-.725-.083-1.18a11.808 11.808 0 0 1-.067-.929c0-.575.272-.863.814-.863.487 0 .73.293.73.88ZM183.201 25.502l1.361.1c1.948 0 3.603-.681 4.964-2.042 1.362-1.362 2.042-3.055 2.042-5.08 0-2.657-1.167-4.627-3.503-5.91a9.985 9.985 0 0 0-4.117-1.23 19.51 19.51 0 0 0-1.726-.082h-1.129a9.93 9.93 0 0 0-.614.016v22.28h-8.467V10.062h6.292c1.605 0 2.65.006 3.137.017.487.011.919.028 1.295.05.388.011.747.028 1.079.05.487.044 1.174.15 2.059.315a9.217 9.217 0 0 1 2.656.946 8.371 8.371 0 0 1 2.258 1.727c1.361 1.46 2.042 3.199 2.042 5.213 0 1.992-.631 3.752-1.892 5.28-1.295 1.56-3.022 2.567-5.18 3.02 1.029 3.188 2.341 5.092 3.934 5.712.487.188.974.282 1.461.282l1.312-.316c.409 0 .614.21.614.631 0 .587-.686.88-2.058.88-.997 0-1.91-.277-2.74-.83-1.295-.775-2.396-2.28-3.303-4.516l-.482-1.178c-.077-.188-.149-.305-.216-.349-.055-.044-.16-.066-.315-.066-.144 0-.271.01-.382.033l-.398.017c-.443 0-.747-.084-.914-.25-.154-.166-.232-.337-.232-.514 0-.476.387-.714 1.162-.714ZM196.665 10.063h8.467v23.49h-8.467v-23.49ZM212.221 31.18l.05 1.66c0 .288-.078.509-.233.664a.768.768 0 0 1-.564.232.723.723 0 0 1-.532-.215c-.143-.144-.215-.3-.215-.465 0-.177.011-.338.033-.482.033-.155.061-.326.083-.514.055-.321.083-1.124.083-2.408V9l18.046 14.31v-9.894c0-.753-.022-1.29-.067-1.61-.055-.52-.083-.886-.083-1.096 0-.553.238-.83.714-.83.188 0 .365.066.531.2.177.132.266.326.266.58v.581l-.066 2.407v20.819l-18.046-14.161V31.18ZM235.944 10.063h8.467v23.49h-8.467v-23.49Z"/><defs><clipPath id="a"><path fill="#fff" d="M0 0h46v44H0z"/></clipPath></defs></svg>