<svg xmlns="http://www.w3.org/2000/svg" width="194" height="490" fill="none"><g stroke="#BF9B33" opacity=".38"><path d="M170.406 527c21-56.5 38.083-163.301 0-209-77.5-93-119-163-74-223.5 35.068-47.146 97.501-63.5 74-117.5"/><path d="M145.238 527c21-56.5 38.083-163.301 0-209-77.5-93-119-163-74-223.5 35.068-47.146 97.501-63.5 74-117.5"/><path d="M120.07 527c21-56.5 38.083-163.301 0-209-77.5-93-119-163-74-223.5 35.068-47.146 97.501-63.5 74-117.5"/><path d="M94.903 527c21-56.5 38.082-163.301 0-209-77.5-93-119-163-74-223.5 35.067-47.146 97.5-63.5 74-117.5"/><path d="M69.735 527c21-56.5 38.082-163.301 0-209-77.5-93-119-163-74-223.5 35.067-47.146 97.5-63.5 74-117.5"/><path d="M44.567 527c21-56.5 38.082-163.301 0-209-77.5-93-119-163-74-223.5 35.067-47.146 97.5-63.5 74-117.5"/><path d="M24.567 527c21-56.5 38.082-163.301 0-209-77.5-93-119-163-74-223.5 35.067-47.146 97.5-63.5 74-117.5"/><path d="M4.567 527c21-56.5 38.082-163.301 0-209-77.5-93-119.001-163-74-223.5 35.067-47.146 97.5-63.5 74-117.5"/><path d="M-15.433 527c21-56.5 38.082-163.301 0-209-77.5-93-119.001-163-74-223.5 35.067-47.146 97.5-63.5 74-117.5"/></g></svg>