<svg xmlns="http://www.w3.org/2000/svg" width="152" height="80" fill="none"><g clip-path="url(#a)"><path fill="#F8CD53" d="M71.883.223c-2.332.145-4.684.334-6.996.59C60.284 1.316 55.742 2.04 51.382 3c-4.298.936-8.415 2.14-12.308 3.512a126.098 126.098 0 0 0-11.315 4.638c-3.569 1.671-6.955 3.466-10.098 5.384-6.286 3.824-11.436 8.227-14.6 13.088C1.44 32.085.425 34.682.101 37.302c-.325 2.653.162 5.307 1.277 7.882 1.075 2.52 2.819 4.939 5.07 7.224 2.21 2.24 4.968 4.325 8.01 6.243 2.21 1.394 4.623 2.687 7.178 3.88 1.966 1.36 4.116 2.642 6.367 3.857 1.703.914 3.487 1.772 5.292 2.62a120.19 120.19 0 0 0 5.556 2.408 119.3 119.3 0 0 0 11.883 4.125 119.512 119.512 0 0 0 13.14 2.954c2.29.39 4.623.702 6.975.959 2.352.256 4.745.412 7.138.501 2.372.09 4.765.078 7.137-.044a87.746 87.746 0 0 0 6.915-.647 73.179 73.179 0 0 0 6.65-1.237 83.334 83.334 0 0 0 6.327-1.717c4.056-1.271 7.828-2.81 11.376-4.46a91.65 91.65 0 0 0 5.232-2.608 124.76 124.76 0 0 0 5.008-2.832c.974-.58 1.927-1.17 2.88-1.75.263-.156.284-.401 0-.557-.284-.156-.751-.156-1.014 0-2.616 1.46-5.252 2.92-7.949 4.336a117.18 117.18 0 0 1-4.015 1.985 101.19 101.19 0 0 1-4.319 1.95c.061-.022.122-.055.182-.078-2.23.937-4.542 1.818-6.934 2.631a80.835 80.835 0 0 1-7.544 2.119 73.572 73.572 0 0 1-5.373 1.025c-1.906.29-3.833.502-5.8.647.082-.011.183-.011.264-.022a82.557 82.557 0 0 1-6.225.223c-2.13-.011-4.279-.1-6.388-.257-2.94-.223-5.84-.59-8.699-1.037a118.804 118.804 0 0 1-8.475-1.65c-3.326-.791-6.57-1.694-9.653-2.73a127.701 127.701 0 0 1-9.206-3.501 119.497 119.497 0 0 1-7.441-3.49c1.784.591 3.589 1.137 5.434 1.65 2.089.58 4.258 1.104 6.428 1.583 2.23.502 4.481.948 6.773 1.35 2.311.4 4.643.78 6.975 1.125 2.352.346 4.725.635 7.117.87 4.766.457 9.632.635 14.479.635 2.433 0 4.866-.044 7.3-.145 2.433-.1 4.846-.29 7.239-.49 2.372-.201 4.744-.424 7.076-.714a91.332 91.332 0 0 0 6.956-1.137 108.377 108.377 0 0 0 12.551-3.356c3.954-1.315 7.685-2.865 11.052-4.604a61.343 61.343 0 0 0 9.104-5.741c2.697-2.074 5.049-4.281 6.935-6.611 1.906-2.352 3.305-4.816 4.238-7.347 1.926-5.195 1.866-10.613-.73-15.741-1.277-2.508-3.143-4.917-5.374-7.202a38.481 38.481 0 0 0-3.629-3.278c-1.318-1.036-2.798-2.028-4.38-2.965-1.561-.925-3.245-1.773-5.009-2.575a80.976 80.976 0 0 0-5.718-2.308c-3.954-1.45-8.233-2.62-12.633-3.634-6.732-1.539-13.829-2.598-21.048-3.222-.04-.123-.223-.223-.446-.279.04.011.102.022.142.034-.466-.123-.872-.29-1.318-.435-.426-.156-.852-.312-1.298-.457A27.654 27.654 0 0 0 87.7.87a26.103 26.103 0 0 0-1.662-.357 33.257 33.257 0 0 0-3.204-.368A57.735 57.735 0 0 0 79.143 0h-.65c-2.21 0-4.42.09-6.61.223Zm4.4.513C78.331.69 80.38.69 82.427.825c1.521.111 3.001.29 4.42.602.893.212 1.724.457 2.535.747.041.011.082.022.102.033-1.5-.111-3.021-.2-4.522-.267-4.785-.223-9.612-.234-14.397.022-2.413.134-4.806.335-7.178.591a99.142 99.142 0 0 0-6.895.981c-2.27.401-4.501.914-6.67 1.46-2.15.536-4.26 1.138-6.327 1.773-4.117 1.26-8.05 2.72-11.7 4.37a60.932 60.932 0 0 0-9.693 5.485c-2.88 2.018-5.434 4.18-7.564 6.466-2.17 2.33-3.893 4.783-5.13 7.302a21.274 21.274 0 0 0-2.17 7.815c-.202 2.653.183 5.329.974 7.949.79 2.586 2.15 5.128 3.954 7.547 1.298 1.728 2.839 3.4 4.583 4.995a60.369 60.369 0 0 1-3.63-2.375c.02.011.04.034.06.045-3.04-2.185-5.636-4.549-7.603-7.08-1.704-2.263-2.9-4.637-3.529-7.068a14.568 14.568 0 0 1-.02-6.677c-.02.044-.02.078-.04.122.648-2.653 2.007-5.24 3.893-7.703-.02.033-.061.067-.081.1 2.352-3.043 5.475-5.875 9.145-8.484l-.02.011c0-.01.02-.01.02-.022l.02-.01-.02.01c2.575-1.817 5.394-3.512 8.395-5.128a119.287 119.287 0 0 1 9.53-4.582c-.04.022-.101.045-.142.067a117.94 117.94 0 0 1 8.902-3.39c2.98-.991 6.083-1.883 9.287-2.63C57.081 2.475 63.61 1.538 70.22 1.048c-.06 0-.121.011-.162.011 2.13-.167 4.157-.279 6.225-.323Zm15.31 1.393s.02 0 0 0c.02 0 0 0 0 0Zm-2.657 1.762c4.076.312 8.111.747 12.066 1.326 4.096.602 8.131 1.36 12.044 2.263-.121-.033-.243-.055-.365-.089 5.759 1.338 11.254 3.01 16.222 5.106a59.374 59.374 0 0 1 4.826 2.33 40.995 40.995 0 0 1 4.137 2.564 36.817 36.817 0 0 1 4.096 3.445 33.667 33.667 0 0 1 3.468 3.802c.953 1.27 1.804 2.553 2.473 3.88a19.084 19.084 0 0 1 1.541 4.124c.69 2.921.629 5.886-.06 8.807.02-.044.02-.089.04-.133a22.276 22.276 0 0 1-1.602 4.481c-.709 1.483-1.622 2.943-2.697 4.36-2.23 2.875-5.17 5.55-8.618 8.026-3.426 2.419-7.34 4.615-11.74 6.5.02-.012.061-.023.081-.045-4.948 2.096-10.382 3.812-16.1 5.161-1.46.335-2.961.647-4.462.926-1.561.278-3.163.512-4.765.724-3.204.413-6.468.692-9.733.937.06 0 .102-.011.162-.011-1.865.133-3.73.245-5.596.312-1.947.067-3.894.1-5.84.1-3.893 0-7.807-.134-11.66-.412a126.516 126.516 0 0 1-6.184-.625c-2.089-.256-4.137-.58-6.185-.914-2.048-.334-4.076-.68-6.083-1.059a143.193 143.193 0 0 1-5.901-1.26c.06.011.122.023.183.045-6.043-1.405-11.782-3.177-16.993-5.374.04.011.06.034.101.045-.04-.022-.08-.033-.121-.056l-.04-.022c.02 0 .02.011.04.011-.02-.011-.04-.011-.061-.022a47.44 47.44 0 0 1-2.677-1.795c0 .011.02.011.04.022-3.304-2.374-6.062-4.972-8.212-7.726-2.149-2.842-3.63-5.819-4.4-8.862-.75-3.155-.831-6.355-.101-9.51 0 .034-.02.078-.02.112 0-.034.02-.078.02-.112 0-.022 0-.045.02-.067 0 .022 0 .034-.02.056.79-3.11 2.311-6.154 4.542-9.052a37.996 37.996 0 0 1 3.954-4.293c1.5-1.393 3.163-2.73 4.968-4.024a56.63 56.63 0 0 1 5.333-3.333 68.648 68.648 0 0 1 6.022-2.921 96.403 96.403 0 0 1 8.436-3.077 121.83 121.83 0 0 1 9.064-2.508 86.967 86.967 0 0 1 7.503-1.416c2.554-.368 5.17-.647 7.786-.848 6.935-.501 14.052-.4 21.068.1ZM52.842 5.987l-.182.033.183-.033ZM23.664 17.904c-.06.045-.101.078-.162.123.04-.045.101-.078.162-.123ZM14.68 26.3c-.02.022-.04.044-.04.056 0-.023.02-.045.04-.056Zm-4.4 18.383c0 .011 0 .034.02.045-.02-.011-.02-.022-.02-.045Zm-4.643 4.604c.02.034.04.056.06.09-.02-.023-.04-.056-.06-.09Zm32.91 20.469c.02.01.06.022.081.033a.326.326 0 0 1-.081-.033Zm18.878 6.21c.02.01.061.01.081.022-.02-.011-.06-.011-.08-.023Zm67.423-11.339.04-.022c-.02.011-.02.022-.04.022Zm-99.218-1.46c-.02 0 0 0 0 0ZM10.2 35.273s0-.011 0 0c0-.011 0-.011 0 0Zm4.826-15.719s-.02.011 0 0c-.02.011 0 0 0 0Z"/></g><defs><clipPath id="a"><path fill="#fff" d="M0 0h152v80H0z"/></clipPath></defs></svg>