<svg xmlns="http://www.w3.org/2000/svg" width="95" height="28" fill="none"><g fill="#F8CD53" clip-path="url(#a)"><path d="M81.63 27.73c-3.44 0-5.12-2.92-6.6-5.5-1.4-2.43-2.6-4.53-4.92-4.53s-3.53 2.1-4.92 4.53c-1.48 2.58-3.16 5.5-6.6 5.5-3.44 0-5.12-2.92-6.6-5.5-1.4-2.43-2.6-4.53-4.92-4.53s-3.53 2.1-4.92 4.53c-1.48 2.58-3.16 5.5-6.6 5.5-3.44 0-5.12-2.92-6.6-5.5-1.4-2.43-2.6-4.53-4.92-4.53s-3.53 2.1-4.92 4.53c-1.48 2.58-3.16 5.5-6.6 5.5-3.44 0-5.12-2.92-6.6-5.5-1.4-2.43-2.6-4.53-4.92-4.53-.56 0-.99-.43-.99-.96s.43-.97.97-.97c3.44 0 5.12 2.92 6.6 5.5 1.4 2.43 2.6 4.53 4.92 4.53s3.53-2.1 4.92-4.53c1.48-2.58 3.16-5.5 6.6-5.5 3.44 0 5.12 2.92 6.6 5.5 1.4 2.43 2.6 4.53 4.92 4.53s3.53-2.1 4.92-4.53c1.48-2.58 3.16-5.5 6.6-5.5 3.44 0 5.12 2.92 6.6 5.5 1.4 2.43 2.6 4.53 4.92 4.53s3.53-2.1 4.92-4.53c1.48-2.58 3.16-5.5 6.6-5.5 3.44 0 5.12 2.92 6.6 5.5 1.4 2.43 2.6 4.53 4.92 4.53s3.53-2.1 4.92-4.53c1.48-2.58 3.16-5.5 6.6-5.5a.97.97 0 0 1 0 1.94c-2.32 0-3.53 2.1-4.92 4.53-1.46 2.57-3.14 5.49-6.58 5.49ZM81.63 11.96c-3.44 0-5.12-2.92-6.6-5.5-1.4-2.43-2.6-4.53-4.92-4.53s-3.53 2.1-4.92 4.53c-1.48 2.58-3.16 5.5-6.6 5.5-3.44 0-5.12-2.92-6.6-5.5-1.4-2.43-2.6-4.53-4.92-4.53s-3.53 2.1-4.92 4.53c-1.48 2.58-3.16 5.5-6.6 5.5-3.44 0-5.12-2.92-6.6-5.5-1.4-2.43-2.6-4.53-4.92-4.53s-3.53 2.1-4.92 4.53c-1.48 2.58-3.16 5.5-6.6 5.5-3.44 0-5.12-2.92-6.6-5.5-1.4-2.43-2.6-4.53-4.92-4.53C.43 1.93 0 1.5 0 .97S.43 0 .97 0c3.44 0 5.12 2.92 6.6 5.5 1.4 2.43 2.6 4.53 4.92 4.53s3.53-2.1 4.92-4.53C18.9 2.92 20.57 0 24.01 0c3.44 0 5.12 2.92 6.6 5.5 1.4 2.43 2.6 4.53 4.92 4.53s3.53-2.1 4.92-4.53c1.48-2.58 3.16-5.5 6.6-5.5 3.44 0 5.12 2.92 6.6 5.5 1.4 2.43 2.6 4.53 4.92 4.53s3.53-2.1 4.92-4.53c1.48-2.58 3.16-5.5 6.6-5.5 3.44 0 5.12 2.92 6.6 5.5 1.4 2.43 2.6 4.53 4.92 4.53s3.53-2.1 4.92-4.53c1.48-2.58 3.16-5.5 6.6-5.5a.97.97 0 0 1 0 1.94c-2.32 0-3.53 2.1-4.92 4.53-1.46 2.57-3.14 5.49-6.58 5.49Z"/></g><defs><clipPath id="a"><path fill="#fff" d="M0 0h94.12v27.73H0z"/></clipPath></defs></svg>