<svg xmlns="http://www.w3.org/2000/svg" width="59" height="42" fill="none"><path fill="#fff" d="M25.811 5.9h18.437a8.85 8.85 0 0 1 8.835 8.33l.014.52v2.95l2.95.052a2.95 2.95 0 0 1 2.93 2.593L59 20.7v5.9a2.95 2.95 0 0 1-2.555 2.926l-.395.027-2.953-.053v2.95a8.85 8.85 0 0 1-8.33 8.834l-.52.015H17.694a2.212 2.212 0 0 1-.3-4.404l.3-.02h26.555a4.425 4.425 0 0 0 4.404-3.998l.02-.428V14.75a4.425 4.425 0 0 0-3.996-4.404l-.428-.02H25.81a2.213 2.213 0 0 1-.3-4.405l.3-.02h18.437H25.81ZM12.54 20.643v18.443a2.212 2.212 0 0 1-4.401.3l-.021-.3V20.643H5.162A5.162 5.162 0 0 1 0 15.483v-7.37A2.212 2.212 0 0 1 2.212 5.9h2.216V2.212A2.212 2.212 0 0 1 6.339.021L6.64 0a2.212 2.212 0 0 1 2.192 1.912l.02.3V5.9h2.936V2.212A2.212 2.212 0 0 1 13.705.021L14 0a2.212 2.212 0 0 1 2.195 1.912l.02.3-.003 3.688h2.236a2.213 2.213 0 0 1 2.213 2.212v7.372a5.162 5.162 0 0 1-5.163 5.162l-2.958-.003v18.443-18.443Zm3.696-10.319H4.425v5.16c0 .407.33.737.737.737h10.336a.738.738 0 0 0 .738-.737v-5.16Z"/></svg>