<svg xmlns="http://www.w3.org/2000/svg" width="56" height="48" fill="none"><path fill="#fff" d="M11.667 47.6A11.666 11.666 0 1 0 0 35.933 11.68 11.68 0 0 0 11.667 47.6Zm0-19.6a7.934 7.934 0 1 1-7.934 7.933A7.942 7.942 0 0 1 11.667 28Zm21 7.933a11.666 11.666 0 1 0 11.666-11.666 11.68 11.68 0 0 0-11.666 11.666ZM44.333 28a7.934 7.934 0 1 1-7.933 7.933A7.943 7.943 0 0 1 44.333 28ZM35.223 7.954a3.977 3.977 0 1 0 0-7.954 3.977 3.977 0 0 0 0 7.954Z"/><path fill="#fff" d="m20.411 24.068 5.722 5.646v10.42h3.733v-10.81a2.817 2.817 0 0 0-.833-1.994l-5.982-5.901 7.753-7.753 6.786 6.947a2.813 2.813 0 0 0 2.003.844h3.34v-3.734h-2.947L29.196 6.686l-.056.054-.98-.98-13.066 13.067 5.28 5.28.037-.039Z"/></svg>