<svg xmlns="http://www.w3.org/2000/svg" width="64" height="50" fill="none"><path fill="#fff" d="M53.531 14.576C50.304 6.06 42.083 0 32.452 0 22.822 0 14.6 6.052 11.373 14.57 5.308 16.167.841 21.712.876 28.292c.042 7.355 5.749 13.336 12.935 13.977a.565.565 0 0 0 .613-.563v-4.255a.562.562 0 0 0-.493-.557c-1.902-.24-3.699-1.07-5.08-2.43a8.684 8.684 0 0 1-2.62-6.243c0-1.972.64-3.832 1.845-5.382a8.774 8.774 0 0 1 4.657-3.079l2.67-.704.98-2.586a16.98 16.98 0 0 1 2.514-4.473 17.338 17.338 0 0 1 3.692-3.523 17.057 17.057 0 0 1 9.863-3.114c3.558 0 6.968 1.078 9.863 3.121a17.17 17.17 0 0 1 3.692 3.523 16.981 16.981 0 0 1 2.515 4.473l.972 2.579 2.663.704a8.749 8.749 0 0 1 6.489 8.454c0 2.368-.93 4.587-2.621 6.242a8.77 8.77 0 0 1-5.066 2.43.556.556 0 0 0-.486.557v4.263a.57.57 0 0 0 .62.563c7.165-.648 12.858-6.622 12.907-13.963.042-6.58-4.417-12.124-10.469-13.73Z"/><path fill="#fff" d="M22.92 34.83a9.524 9.524 0 0 1 2.783-6.241 9.549 9.549 0 0 1 6.763-2.804c2.55 0 4.953.993 6.763 2.804.1.098.19.197.29.303l-1.762 1.38a.564.564 0 0 0 .211.994l6.919 1.69a.566.566 0 0 0 .697-.542l.035-7.137a.56.56 0 0 0-.908-.443l-1.635 1.282a14.023 14.023 0 0 0-10.603-4.833c-7.566 0-13.738 5.995-14.048 13.505a.561.561 0 0 0 .564.585h3.375a.57.57 0 0 0 .556-.542Zm22.974.536H42.52a.57.57 0 0 0-.564.535 9.525 9.525 0 0 1-2.783 6.242 9.55 9.55 0 0 1-6.763 2.804 9.502 9.502 0 0 1-6.763-2.804c-.1-.098-.19-.197-.29-.303l1.762-1.38a.564.564 0 0 0-.211-.994l-6.919-1.69a.566.566 0 0 0-.697.542l-.028 7.144c0 .472.535.74.909.443l1.634-1.282a14.023 14.023 0 0 0 10.603 4.833c7.566 0 13.738-5.995 14.048-13.505a.561.561 0 0 0-.564-.585Z"/></svg>