<svg xmlns="http://www.w3.org/2000/svg" width="48" height="49" fill="none"><path fill="#fff" d="M28.797 0a1.737 1.737 0 0 1 1.653 1.205l1.91 5.936c.803.392 1.57.833 2.303 1.33l6.099-1.313a1.737 1.737 0 0 1 1.869.834l4.813 8.332a1.737 1.737 0 0 1-.218 2.035l-4.185 4.62c.06.886.06 1.774 0 2.66l4.185 4.627a1.737 1.737 0 0 1 .218 2.035l-4.813 8.336a1.736 1.736 0 0 1-1.869.83l-6.099-1.313c-.73.493-1.5.938-2.3 1.33L30.45 47.42a1.737 1.737 0 0 1-1.653 1.205h-9.628a1.737 1.737 0 0 1-1.653-1.205l-1.907-5.933c-.8-.39-1.572-.838-2.31-1.337l-6.095 1.317a1.736 1.736 0 0 1-1.869-.834L.521 32.301a1.737 1.737 0 0 1 .22-2.035l4.184-4.627a19.38 19.38 0 0 1 0-2.653L.74 18.359a1.737 1.737 0 0 1-.219-2.035l4.814-8.336a1.737 1.737 0 0 1 1.869-.83l6.095 1.317a19.287 19.287 0 0 1 2.31-1.338l1.91-5.932A1.736 1.736 0 0 1 19.166 0h9.631Zm-1.271 3.473H20.44L18.467 9.61l-1.33.65c-.654.32-1.285.684-1.89 1.09l-1.229.834-6.307-1.361-3.543 6.14 4.324 4.786-.104 1.473a15.91 15.91 0 0 0 0 2.181l.104 1.473-4.33 4.786 3.545 6.14 6.308-1.358 1.23.83c.604.407 1.235.771 1.889 1.091l1.33.65 1.976 6.137h7.093l1.98-6.14 1.326-.647c.653-.32 1.284-.684 1.886-1.09l1.226-.83 6.31 1.358 3.544-6.141-4.328-4.786.104-1.473c.05-.727.05-1.457 0-2.185l-.104-1.472 4.331-4.783-3.546-6.14-6.31 1.354-1.227-.826a15.61 15.61 0 0 0-1.886-1.091l-1.327-.646-1.983-6.14h-.003Zm-3.543 10.42a10.42 10.42 0 1 1 0 20.838 10.42 10.42 0 0 1 0-20.838Zm0 3.473a6.946 6.946 0 1 0 0 13.893 6.946 6.946 0 0 0 0-13.893Z"/></svg>