<svg xmlns="http://www.w3.org/2000/svg" width="226" height="56" fill="none"><path fill="#fff" d="M35.52 12.604a4.597 4.597 0 0 0 4.584-4.583 4.597 4.597 0 0 0-4.583-4.584 4.597 4.597 0 0 0-4.584 4.584 4.597 4.597 0 0 0 4.584 4.583ZM11.459 50.417c6.417 0 11.459-5.042 11.459-11.459 0-6.416-5.042-11.458-11.459-11.458C5.042 27.5 0 32.542 0 38.958c0 6.417 5.042 11.459 11.458 11.459Zm0-19.48c4.354 0 8.021 3.667 8.021 8.021 0 4.355-3.666 8.021-8.02 8.021-4.355 0-8.021-3.666-8.021-8.02 0-4.355 3.666-8.022 8.02-8.022Zm6.417-5.27 7.333 6.416v11.459h4.584V29.333l-5.042-5.27 5.5-5.5 1.833 1.833c2.98 2.979 6.875 4.812 11.688 4.812v-4.583c-3.438 0-6.188-1.375-8.25-3.438l-4.354-4.354c-1.146-.916-2.292-1.375-3.667-1.375s-2.52.459-3.208 1.375l-6.417 6.417c-.917.917-1.375 2.063-1.375 3.208 0 1.375.458 2.521 1.375 3.209ZM43.542 27.5c-6.417 0-11.459 5.042-11.459 11.458 0 6.417 5.042 11.459 11.459 11.459C49.958 50.417 55 45.375 55 38.958 55 32.542 49.958 27.5 43.542 27.5Zm0 19.48c-4.355 0-8.021-3.667-8.021-8.022 0-4.354 3.666-8.02 8.02-8.02 4.355 0 8.022 3.666 8.022 8.02 0 4.355-3.667 8.021-8.021 8.021ZM82.109 28.831c1.262.27 2.275.9 3.04 1.893.766.972 1.148 2.089 1.148 3.35 0 1.82-.641 3.268-1.923 4.344C83.112 39.473 81.344 40 79.069 40H68.924V18.22h9.803c2.213 0 3.94.508 5.181 1.521 1.262 1.014 1.893 2.389 1.893 4.126 0 1.283-.341 2.348-1.024 3.196-.662.848-1.551 1.437-2.668 1.768Zm-7.88-1.8h3.474c.87 0 1.531-.185 1.986-.558.476-.393.714-.961.714-1.706s-.238-1.313-.714-1.706c-.455-.393-1.117-.59-1.986-.59H74.23v4.56Zm3.909 8.688c.89 0 1.572-.197 2.047-.59.497-.413.745-1.003.745-1.768 0-.765-.259-1.365-.776-1.8-.496-.434-1.189-.651-2.078-.651h-3.847v4.809h3.909Zm13.904-14.83c-.93 0-1.696-.269-2.296-.807a2.735 2.735 0 0 1-.868-2.047c0-.828.29-1.51.868-2.048.6-.558 1.366-.838 2.296-.838.91 0 1.655.28 2.234.838.6.538.9 1.22.9 2.048 0 .806-.3 1.489-.9 2.047-.58.538-1.324.807-2.234.807Zm2.637 1.8V40h-5.305V22.688h5.305ZM109.103 40l-5.274-7.26V40h-5.305V17.042h5.305v12.689l5.243-7.043h6.546l-7.197 8.687L115.68 40h-6.577Zm24.918-8.935c0 .496-.031 1.013-.093 1.551h-12.007c.083 1.076.424 1.903 1.024 2.482.621.559 1.376.838 2.265.838 1.324 0 2.244-.559 2.761-1.675h5.647a7.646 7.646 0 0 1-1.583 3.07c-.744.911-1.685 1.624-2.823 2.142-1.137.517-2.409.775-3.816.775-1.696 0-3.206-.362-4.529-1.086a7.725 7.725 0 0 1-3.103-3.102c-.744-1.345-1.117-2.916-1.117-4.716 0-1.8.362-3.371 1.086-4.716a7.726 7.726 0 0 1 3.103-3.102c1.323-.724 2.843-1.086 4.56-1.086 1.675 0 3.165.352 4.468 1.055a7.473 7.473 0 0 1 3.04 3.01c.745 1.302 1.117 2.823 1.117 4.56Zm-5.429-1.396c0-.91-.311-1.634-.931-2.172-.621-.538-1.396-.806-2.327-.806-.889 0-1.644.258-2.265.775-.599.517-.972 1.252-1.117 2.203h6.64Z"/><path fill="#E81E28" d="M151.274 40.217c-1.592 0-3.019-.258-4.281-.775-1.262-.517-2.275-1.283-3.04-2.296-.745-1.014-1.138-2.234-1.179-3.661h5.646c.083.806.362 1.427.838 1.861.475.414 1.096.62 1.861.62.786 0 1.407-.175 1.862-.527.455-.372.682-.879.682-1.52 0-.537-.186-.982-.558-1.334a4.142 4.142 0 0 0-1.334-.869c-.517-.227-1.262-.486-2.234-.775-1.406-.434-2.554-.869-3.444-1.303-.889-.435-1.654-1.076-2.296-1.924-.641-.848-.961-1.954-.961-3.32 0-2.026.734-3.608 2.202-4.746 1.469-1.158 3.382-1.737 5.74-1.737 2.399 0 4.333.579 5.802 1.737 1.468 1.138 2.254 2.73 2.357 4.778h-5.739c-.041-.703-.3-1.252-.776-1.644-.475-.414-1.086-.621-1.83-.621-.641 0-1.158.176-1.551.527-.393.331-.59.817-.59 1.459 0 .703.331 1.25.993 1.644.662.393 1.696.817 3.102 1.272 1.407.476 2.544.93 3.413 1.365a6.487 6.487 0 0 1 2.296 1.892c.641.828.962 1.893.962 3.196 0 1.24-.321 2.368-.962 3.382-.621 1.013-1.531 1.82-2.73 2.42-1.2.6-2.617.9-4.251.9Zm20.856-4.715V40h-2.699c-1.924 0-3.423-.465-4.499-1.396-1.075-.951-1.613-2.492-1.613-4.623v-6.887h-2.11v-4.406h2.11V18.47h5.305v4.22h3.475v4.405h-3.475v6.95c0 .516.124.889.373 1.116.248.228.661.342 1.241.342h1.892Zm10.835 4.746c-1.696 0-3.226-.362-4.591-1.086a8.08 8.08 0 0 1-3.196-3.102c-.765-1.345-1.148-2.916-1.148-4.716 0-1.779.393-3.34 1.179-4.684a7.974 7.974 0 0 1 3.227-3.134c1.365-.724 2.895-1.086 4.591-1.086 1.696 0 3.227.362 4.592 1.086a7.965 7.965 0 0 1 3.226 3.134c.786 1.344 1.179 2.905 1.179 4.684 0 1.779-.403 3.35-1.21 4.716a7.97 7.97 0 0 1-3.257 3.102c-1.365.724-2.896 1.086-4.592 1.086Zm0-4.591c1.014 0 1.872-.373 2.575-1.117.724-.745 1.086-1.81 1.086-3.196 0-1.386-.351-2.45-1.055-3.195-.682-.745-1.53-1.117-2.544-1.117-1.034 0-1.892.372-2.575 1.117-.682.724-1.023 1.789-1.023 3.195 0 1.386.33 2.451.992 3.196.683.744 1.531 1.117 2.544 1.117Zm17.179-10.083c.621-.952 1.396-1.696 2.327-2.234.931-.558 1.965-.838 3.102-.838v5.616h-1.458c-1.324 0-2.316.29-2.978.868-.662.559-.993 1.552-.993 2.979V40h-5.305V22.688h5.305v2.886Zm24.284 5.491c0 .496-.031 1.013-.093 1.551h-12.007c.083 1.076.424 1.903 1.024 2.482.621.559 1.376.838 2.265.838 1.324 0 2.244-.559 2.761-1.675h5.647a7.646 7.646 0 0 1-1.583 3.07c-.744.911-1.685 1.624-2.823 2.142-1.137.517-2.409.775-3.816.775-1.696 0-3.206-.362-4.529-1.086a7.725 7.725 0 0 1-3.103-3.102c-.744-1.345-1.117-2.916-1.117-4.716 0-1.8.362-3.371 1.086-4.716a7.726 7.726 0 0 1 3.103-3.102c1.323-.724 2.843-1.086 4.56-1.086 1.675 0 3.165.352 4.468 1.055a7.473 7.473 0 0 1 3.04 3.01c.745 1.302 1.117 2.823 1.117 4.56Zm-5.429-1.396c0-.91-.311-1.634-.931-2.172-.621-.538-1.396-.806-2.327-.806-.889 0-1.644.258-2.265.775-.599.517-.972 1.252-1.117 2.203h6.64Z"/></svg>