<svg xmlns="http://www.w3.org/2000/svg" width="356" height="77" fill="none"><g clip-path="url(#a)"><path fill="#FDDC17" d="M19.464 49.12c.224-1.947 1.077-3.576 2.436-4.984 3.032-3.147 6.774-4.904 11.053-5.43 6.02-.738 11.722.503 17.083 3.266 1.9.98 3.598 2.274 4.831 4.076-.296.117-.51-.01-.682-.24-.1-.133-.178-.294-.391-.242-1.187.289-2.411.263-3.614.342-.93.061-1.8.448-2.747.349-2.14-.223-4.175.636-6.311.637-1.318.002-2.633.384-3.97.355-.699-.014-1.375.12-2.054.233-1.778.293-3.592.44-5.368.547-1.994.12-3.956.567-5.957.526a.467.467 0 0 0-.272.073c-.432.326-.915.23-1.38.155-.219-.035-.406-.063-.621.014-.656.236-1.36.203-2.036.324Zm8.792-7.238c2.135-.599 4.111-.86 6.114-.936 1.993-.076 3.974.079 5.95.331 1.963.252 3.9.663 6.046 1.08-5.786-3.155-13.9-3.398-18.11-.475Z"/><path fill="#FCBA3B" d="M55.708 55.763c-.07.839-.746 1.247-1.294 1.705-.859.718-1.887 1.186-3.002 1.26-2.957.192-5.623 1.264-8.233 2.547-2.431 1.195-4.901 2.284-7.64 2.568-4.629.483-8.932-.188-12.475-3.526-.277-.26-.505-.567-.757-.853.31-.098.64-.065.948-.237.948-.531 1.995-.534 3.047-.488.455.02.91-.01 1.365.007.372.014.714-.046 1.03-.246.44-.28.921-.333 1.438-.344.926-.022 1.883.2 2.775-.153.53-.21 1.055-.237 1.604-.278 1.243-.092 2.535.257 3.726-.397.167-.092.425-.03.64-.02.959.045 1.924.025 2.85-.19.757-.176 1.504-.212 2.267-.256.995-.058 2.053.311 2.976-.391.124-.093.374-.019.566-.027.905-.042 1.805.037 2.716-.117.807-.135 1.522-.574 2.411-.492.904.083 1.865.231 2.75-.223.116-.06.224.04.292.15Z"/><path fill="#FDDC17" d="M45.185 39.029c-2.223-.56-4.441-1.14-6.745-1.277-.246-.015-.378-.145-.484-.357-2.225-4.449-2.826-9.042-1.075-13.78.857-2.322 2.404-4.145 4.559-5.418-.17.712-.295 1.388-.062 2.154.33 1.086.571 2.217.747 3.332.368 2.344.95 4.642 1.378 6.97.176.955.32 1.916.47 2.872.173 1.09.488 2.163.691 3.259.138.742.043 1.572.52 2.245Zm-6.2-3.213c-.467-2.142-.899-4.284-.909-6.492-.011-2.209.29-4.369.917-6.553-2.263 2.743-2.282 9.977-.007 13.045Z"/><path fill="#FCC432" d="M55.708 55.763c-.067-.11-.175-.21-.291-.15-.886.453-1.847.307-2.75.222-.89-.082-1.605.357-2.412.492-.91.153-1.812.075-2.716.117-.192.008-.442-.066-.566.027-.923.702-1.98.333-2.977.39-.762.045-1.51.08-2.265.256-.927.216-1.892.236-2.85.191-.215-.01-.474-.071-.64.02-1.192.655-2.484.305-3.727.397-.55.04-1.073.067-1.604.279-.892.354-1.847.132-2.775.152-.517.011-.999.063-1.439.344-.314.2-.657.262-1.029.246-.454-.019-.91.013-1.365-.007-1.052-.046-2.098-.043-3.047.488-.308.173-.639.14-.948.237-1.058-1.12-1.79-2.431-2.285-3.88.304.035.758-.153.887.103.425.844 1.11.468 1.668.388 1.11-.16 2.216-.385 3.334-.33 1.14.055 2.217-.275 3.327-.384.307-.03.705.026.901-.142.754-.65 1.585-.31 2.384-.269.406.022.796.1 1.198-.034.844-.28 1.69-.467 2.59-.224.265.071.609.084.846-.026.74-.343 1.514-.372 2.299-.377.67-.004 1.378.112 2-.067a8.757 8.757 0 0 1 2.374-.362c.55-.006 1.117.065 1.648-.042 1.364-.273 2.744-.49 4.118-.359 1.201.117 2.191-.859 3.394-.497.018.006.05-.01.066-.024.576-.56 1.3-.319 1.972-.372.382-.03.66.052.583.564.51-.407.682-1.014 1.216-1.28.04 1.19-.209 2.322-.685 3.406-.088.205-.127.478-.434.507Z"/><path fill="#FDD026" d="M19.724 54.58a7.594 7.594 0 0 1-.443-3.16c.487-.158.843-.57 1.415-.589 2.277-.076 4.533-.493 6.82-.42.308.01.64.034.924-.06 1.086-.354 2.197-.402 3.323-.372.685.019 1.396.124 1.944-.478.153-.166.41-.082.623-.092 1.167-.049 2.334.076 3.503-.118.393-.066.603-.369.948-.442.484-.102.943.114 1.416.125.973.023 1.926-.271 2.857-.352 2.522-.218 5.046-.576 7.59-.501.412.011.845.021 1.194-.167.631-.342 1.291-.26 1.95-.265.923-.009 1.14-.194 1.338-1.18.744.943 1.363 1.94 1.419 3.187-.369.046-.158-.48-.48-.492-.005 1.067-.006 1.087-1.118 1.063-1.284-.03-2.47.708-3.781.455-.075-.014-.199.05-.25.116-.264.35-.473.362-.8.025-.29-.298-.8-.302-1.05-.026-.469.517-1.024.415-1.586.442-.714.035-1.423-.019-2.144.09-1.075.163-2.135.437-3.251.358-.802-.056-1.655-.207-2.422.098-1.322.527-2.706.47-4.075.613-1.505.158-3.009.114-4.514.134-.118.001-.27-.005-.345.061-.527.47-1.164.36-1.78.365-.742.005-1.486.003-2.228 0-.243 0-.502-.014-.629.244-.174.358-.493.29-.798.34-1.08.182-2.167-.038-3.258.1-.684.086-1.343.584-2.087.215-.124-.061-.19.107-.143.239.055.165.098.321-.082.444Z"/><path fill="#FECA2D" d="M19.724 54.58c.182-.123.139-.28.08-.446-.046-.132.018-.3.142-.238.742.369 1.403-.13 2.087-.216 1.091-.136 2.177.082 3.258-.099.305-.05.623.018.798-.34.125-.257.386-.244.629-.244.742.001 1.486.004 2.228 0 .616-.005 1.253.105 1.78-.365.075-.066.229-.06.345-.062 1.505-.02 3.009.025 4.513-.133 1.37-.144 2.754-.087 4.076-.614.767-.304 1.62-.153 2.422-.097 1.116.077 2.178-.195 3.251-.358.722-.109 1.43-.054 2.144-.09.564-.028 1.119.073 1.587-.443.25-.275.76-.271 1.05.026.328.336.536.326.8-.024.05-.066.174-.13.249-.117 1.309.253 2.497-.484 3.78-.455 1.113.025 1.114.005 1.12-1.063.32.013.11.54.479.493.283.694.26 1.426.286 2.154-.535.266-.705.872-1.216 1.28.077-.511-.2-.595-.582-.564-.67.053-1.397-.189-1.973.372-.016.015-.047.03-.066.024-1.203-.362-2.192.612-3.394.497-1.374-.132-2.753.086-4.117.359-.531.106-1.098.036-1.649.041a8.76 8.76 0 0 0-2.374.362c-.621.18-1.33.064-2 .068-.787.004-1.56.033-2.299.376-.237.11-.58.096-.846.026-.899-.243-1.746-.054-2.59.224-.402.134-.792.056-1.198.035-.798-.042-1.63-.381-2.384.268-.195.168-.594.112-.9.142-1.11.11-2.187.441-3.328.384-1.118-.056-2.226.17-3.333.33-.559.08-1.243.458-1.67-.388-.127-.255-.583-.067-.885-.103-.198-.304-.268-.65-.3-1.002Z"/><path fill="#FDD51F" d="M55.123 46.51c-.198.985-.415 1.17-1.338 1.179-.658.005-1.317-.076-1.95.266-.349.188-.78.178-1.193.166-2.544-.075-5.069.284-7.59.501-.931.08-1.884.375-2.858.352-.473-.011-.932-.227-1.416-.125-.345.074-.553.377-.948.443-1.17.193-2.336.069-3.503.117-.211.009-.47-.074-.623.092-.548.6-1.259.496-1.944.479-1.126-.03-2.237.017-3.323.372-.285.093-.616.068-.924.058-2.287-.073-4.544.345-6.82.421-.57.019-.928.432-1.415.589-.027-.774-.051-1.547.183-2.3.678-.12 1.38-.087 2.036-.322.217-.078.403-.05.621-.015.465.075.949.171 1.38-.155a.467.467 0 0 1 .272-.073c2.001.043 3.964-.407 5.958-.526 1.775-.106 3.59-.254 5.367-.547.68-.112 1.356-.247 2.053-.233 1.338.029 2.653-.355 3.971-.355 2.137 0 4.171-.861 6.312-.637.946.099 1.817-.289 2.746-.35 1.203-.078 2.427-.052 3.614-.34.213-.053.29.108.392.242.172.23.385.356.681.24l-.01.02c.04.06.077.122.115.182.054.085.104.171.154.259Z"/><path fill="#FCC432" d="M52.639 42.583c-.95-.596-1.9-1.19-2.85-1.787-.04-.326.528-.273.411-.584-.201-.542-.09-1.212-.365-1.64-.587-.91-.376-1.955-.677-2.914-.313-.997-.33-2.162-.627-3.205-.336-1.186-.017-2.53-.87-3.587-.05-.062-.029-.185-.026-.28.014-.704.305-1.464-.409-2.024-.027-.021-.023-.092-.021-.138.043-.817-.24-1.577-.374-2.36-.33-1.905-.89-3.782-.925-5.736-.003-.146-.006-.351-.136-.384-.732-.184-.588-.749-.582-1.257.997-.296 2.018-.325 3.047-.273.003.997-.177 2 .124 2.983a7.847 7.847 0 0 0 1.117 3.033l.341.694c-.289.11-.505.266-.459.626.065.517-.011 1.099.203 1.541.52 1.076.521 2.27.717 3.377.308 1.738.782 3.437 1.059 5.177.059.372.079.743.181 1.117.292 1.072.608 2.16.685 3.26.082 1.198.246 2.366.64 3.486.147.417.093.635-.204.875Z"/><path fill="#FCBA3B" d="M52.639 42.583c.297-.24.35-.458.204-.875-.394-1.118-.558-2.288-.64-3.487-.075-1.098-.392-2.187-.685-3.258-.102-.377-.122-.747-.181-1.118-.278-1.739-.753-3.44-1.06-5.177-.195-1.109-.196-2.301-.716-3.377-.214-.444-.138-1.024-.203-1.54-.045-.361.17-.518.46-.627.092.105.187.208.276.317.53.654.965 1.393 1.699 1.862l.001-.009.148.148-.01.003a.177.177 0 0 0 .032.128c.256.504.862.66 1.138 1.143-.09.605.255 1.163.256 1.722.003 1.844.596 3.573.904 5.357.208 1.206.42 2.421.666 3.612.357 1.728.6 3.483 1.04 5.195.09.354.241.71.076 1.114-.11.27.168.407.373.53-.199.453-.41.898-.792 1.287-.882-1.123-1.904-2.067-2.986-2.95Z"/><path fill="#FAB043" d="M56.417 44.243c-.205-.123-.484-.26-.373-.53.165-.403.014-.76-.076-1.114-.44-1.712-.684-3.467-1.04-5.195-.246-1.19-.458-2.404-.666-3.612-.308-1.782-.903-3.511-.904-5.357 0-.558-.345-1.117-.256-1.722l.14.009c1.086 1.017 2.342 1.8 3.598 2.582.83.708 1.794 1.244 2.578 2.01-.022 4.114-.855 8.062-2.44 11.855-.156.373-.294.758-.561 1.074Z"/><path fill="#FECA2D" d="M45.188 16.687c-.005.508-.15 1.073.582 1.257.13.033.133.238.136.385.034 1.954.595 3.83.925 5.736.135.782.417 1.542.374 2.36-.003.047-.006.116.021.137.714.56.422 1.32.409 2.024-.002.095-.023.22.026.28.854 1.057.534 2.401.87 3.587.297 1.043.314 2.208.627 3.205.301.959.09 2.005.677 2.914.276.426.162 1.098.365 1.64.117.311-.452.257-.411.584-.373-.103-.731-.234-1.029-.494-.72-.706-.747-1.61-.722-2.527a.112.112 0 0 0-.023-.068c-.787-.892-.26-2.077-.714-3.12-.346-.8-.38-1.85-.665-2.781-.343-1.128-.313-2.347-.595-3.484-.29-1.17-.223-2.426-.829-3.525-.082-.15-.007-.378-.027-.567-.102-.977-.334-1.938-.504-2.898a23.591 23.591 0 0 0-.402-1.905c-.19-.715-.23-1.667-1.25-1.893 0-.051-.002-.103-.004-.153.674-.384 1.402-.59 2.163-.694Z"/><path fill="#FDD51F" d="M45.185 39.028c-.478-.672-.383-1.503-.52-2.244-.204-1.098-.517-2.169-.691-3.26-.153-.956-.297-1.916-.471-2.872-.427-2.329-1.01-4.626-1.378-6.97a24.887 24.887 0 0 0-.747-3.331c-.233-.766-.108-1.442.062-2.155.292-.248.616-.44.99-.544-.151.517.516.728.456 1.208-.166 1.323.401 2.533.726 3.743.51 1.901.628 3.857 1.09 5.764.39 1.613.62 3.276.972 4.914.358 1.661.839 3.326.845 5.057 0 .173.089.446.214.504.39.18.318.482.306.785l-1.854-.599Z"/><path fill="#FDD026" d="M47.038 39.627c.011-.303.083-.606-.307-.785-.125-.058-.212-.33-.214-.504-.006-1.73-.486-3.397-.844-5.057-.353-1.637-.582-3.3-.973-4.913-.462-1.908-.58-3.864-1.09-5.765-.323-1.21-.891-2.42-.726-3.743.06-.48-.607-.69-.456-1.208 0 0 .003.015.005.015l.16-.108a.112.112 0 0 1 .107-.04l.331.016c1.019.225 1.059 1.179 1.249 1.892.165.62.29 1.279.403 1.905.171.96.403 1.921.503 2.898.02.19-.054.42.028.567.605 1.099.538 2.354.828 3.525.284 1.136.252 2.357.596 3.484.283.93.316 1.982.665 2.78.453 1.046-.075 2.23.713 3.121a.11.11 0 0 1 .023.068c-.024.917.002 1.822.722 2.527l-1.723-.675Z"/><path fill="#8CB73E" d="M73.357 25.024C69.916 13.978 62.364 6.464 51.568 2.246c-1.824-.712-3.697-1.305-5.66-1.532-2.258-.55-4.554-.7-6.87-.714A31.854 31.854 0 0 0 33.105.5a29.637 29.637 0 0 0-7.481 2.093c.377.165.561.316.48.856-.12.805-.162 1.661.107 2.476 2.286-.68 4.548-1.447 6.901-1.876l.284-.037c.13-.385.344-.316.581-.104 1.265-.099 2.528-.225 3.794-.293 2.738-.146 5.442.194 8.14.613 1.495.421 3.027.72 4.479 1.279 12.679 4.884 20.425 13.934 22.725 27.342 1.424 8.303-.315 16.104-4.675 23.316-1.13 1.869-2.501 3.555-3.9 5.223.028.03.054.06.08.093.076-.056.162-.102.226-.17 9.705-10.49 12.755-22.668 8.512-36.288ZM45.497 1.558c-.02 0-.04-.011-.06-.019.005-.017.013-.035.018-.053l.062.022c-.007.017-.013.05-.02.05Zm1.226.003c-.141.016-.217-.066-.215-.205.003-.13.072-.236.195-.263.155-.035.192.083.198.21-.003.126-.033.242-.178.258Z"/><path fill="#71A246" d="M63.262 25.041a9.99 9.99 0 0 0-1.16-3.807c-.49-1.012-1.087-1.949-1.939-2.703-1.007-1.14-2.228-1.985-3.61-2.608-.011.076.008.17-.105.188l-.027-.247c-.078-.02-.157-.039-.236-.057-.527-.533-1.283-.514-1.912-.799-1.479-.668-3.063-.895-4.671-1.107 1.57.988 3.006 2.148 4.493 3.241 1.031 1.016 2.113 1.982 3.004 3.131.026.12.103.259-.115.277a11.986 11.986 0 0 0-2.111-2.035c-.692-.626-1.386-1.248-2.195-1.724a34.026 34.026 0 0 0-3.374-2.218c-.302-.175-.468-.136-.567.208-.158.546-.334 1.087-.502 1.63.003.997-.177 2 .124 2.983a7.847 7.847 0 0 0 1.117 3.034l.341.693c.093.105.187.209.277.318.53.653.965 1.393 1.699 1.86l.001-.008.148.148-.01.003c.066.014.133.027.199.042l-.167.086c.256.504.862.66 1.138 1.143l.14.009c1.086 1.017 2.342 1.8 3.598 2.582.83.708 1.794 1.244 2.58 2.01a20.266 20.266 0 0 1 2.852 2.625c.98-2.957 1.512-5.864.99-8.898ZM49.917 11.724c.315-.268.446-.588.148-.933-.295-.341-.635-.267-.95-.002a6.215 6.215 0 0 0-.473.438c-1.15 1.193-1.653 2.648-1.796 4.275-.045.533.083.721.615.606.524.142.646-.129.65-.603.005-.355.085-.712.17-1.06.259-1.077.783-1.999 1.636-2.721Z"/><path fill="#81B040" d="m12.4 60.46.134-.133c.508.549 1.11 1.02 1.438 1.72l.003-.005c-.611-.44-1.098-1.005-1.575-1.581Z"/><path fill="#DFE0E3" d="M62.875 63.193c-.185.35-.476.568-.895.64.206-.263.347-.59.758-.64l.068-.01.07.01Z"/><path fill="#FDD026" d="M66.505 65.5c-.135-.03-.331-.05-.233-.245.118-.237.336-.223.55-.1-.051.164-.178.26-.317.345Z"/><path fill="#8CB73E" d="M33.395 4.013c.13-.385.344-.316.581-.104-.178.125-.38.115-.581.104Z"/><path fill="#A5CC3C" d="M14.126 62.07c.196.144.422.262.416.556l.006-.008c-.186-.1-.347-.226-.426-.431a.527.527 0 0 1 .004-.116ZM63.314 62.766c-.121.14-.226.302-.449.268l.011.01c.121-.137.22-.31.448-.27l-.01-.008ZM64.619 61.483a.495.495 0 0 1-.295.279l-.042-.05c.02-.16.14-.242.258-.322a1.6 1.6 0 0 1 .079.093Z"/><path fill="#FECA2D" d="M61.143 67.037c-.016.171-.002.385-.272.187l.272-.187Z"/><path fill="#A5CC3C" d="M15.133 63.039c-.19-.005-.32-.066-.283-.292l-.007.01.282.29c-.002 0 .008-.008.008-.008Z"/><path fill="#71A246" d="M56.553 15.924c-.011.076.008.17-.106.189-.009-.082-.019-.164-.027-.247l.133.058Z"/><path fill="#DFE0E3" d="m61.687 64.107.05-.02.014.078c-.018-.003-.04-.002-.054-.012-.009-.007-.008-.03-.01-.046Z"/><path fill="#FDD51F" d="m43.031 17.533-.33-.016c.067-.142.196-.14.326-.138l.004.154Z"/><path fill="#A5CC3C" d="M14.542 62.627c.146-.06.219.043.3.13l.008-.01c-.137.04-.237 0-.3-.129l-.008.009Z"/><path fill="#81B040" d="M14.126 62.07a.438.438 0 0 0-.002.116c-.093-.005-.142-.052-.149-.144l-.003.004.154.025Z"/><path fill="#A5CC3C" d="m64.18 61.905-.151.137.005.006c-.064-.111.01-.151.097-.184l.049.041ZM15.413 63.339c.012.01.027.019.04.029l-.033-.038-.007.009Z"/><path fill="#A5CC3C" d="M15.421 63.332a13.18 13.18 0 0 0-.144-.145l-.008.008c.047.049.096.096.144.145l.008-.008ZM64.324 61.762l-.144.144s-.05-.04-.05-.042l.153-.15.04.048ZM63.894 62.194c-.022-.113.021-.168.14-.146l-.005-.006-.147.14.012.012ZM62.875 63.192l-.07-.008-.067.01.138-.15-.011-.008.01.156Z"/><path fill="#A5CC3C" d="M15.277 63.185c-.095-.004-.142-.052-.145-.146l-.008.008c.048.049.096.1.145.148l.008-.01Z"/><path fill="#71A246" d="M9.072 15.917c-.042.06-.082.12-.124.178l.124-.178ZM8.924 16.158l-.145.223c.047-.075.096-.15.145-.223Z"/><path fill="#FDD51F" d="M42.592 17.557Z"/><path fill="#A5CC3C" d="M63.884 62.183c-.048.047-.095.096-.144.143l.01.012c-.022-.117.029-.163.144-.144l-.01-.011Z"/><path fill="#A5CC3C" d="M63.606 62.48c.003-.093.03-.16.145-.142l-.01-.012c-.047.048-.095.097-.144.144l.009.01ZM63.465 62.625c-.017-.11.047-.142.14-.145l-.008-.01-.14.147c0-.002.008.008.008.008Z"/><path fill="#FDDC17" d="M54.972 46.25c-.039-.06-.076-.121-.115-.183.098.025.131.09.115.182Z"/><path fill="#A5CC3C" d="M63.324 62.774c-.012-.105.037-.152.14-.15l-.01-.01-.142.15.012.01Z"/><path fill="#81B040" d="m51.932 25.445.199.041-.167.087a.179.179 0 0 1-.032-.128ZM51.794 25.294l.148.148-.148-.148Z"/><path fill="#FDD026" d="M70.634 57.39c.217.249.217.249.016.602-.213-.203.073-.41-.025-.587l.009-.015Z"/><path fill="#79A842" d="M26.102 3.448c.08-.538-.104-.69-.48-.856-2.629.996-5.086 2.307-7.35 3.977-.055.058-.111.114-.168.171l-.005-.022c-.29.118-.553.27-.723.548 0-.002-.008.001-.008.001-.678.317-1.21.83-1.764 1.311-2.492 2.168-4.75 4.542-6.533 7.338l-.124.178-.031.023.005.039-.142.216-.002-.007c-.719.868-1.23 1.863-1.739 2.857-5.135 10.037-5.6 20.303-1.4 30.752a32.944 32.944 0 0 0 6.76 10.483l.133-.134c-.141-.191-.276-.388-.423-.575-6.6-8.4-8.911-17.869-7.01-28.35.814-4.491 2.63-8.603 5.095-12.435.325-.44.653-.881.976-1.325 1.936-2.666 4.277-4.936 6.83-7 1.511-1.046 3.014-2.106 4.652-2.952 1.175-.607 2.37-1.18 3.555-1.767-.267-.81-.225-1.665-.104-2.47Z"/><path fill="#FCC432" d="M77.657 32.956c-.373-2.875-1.035-5.687-2.12-8.389a8.885 8.885 0 0 0-.744-1.864l-.554-1.335c.055.485.134.953.433 1.333.163.743.436 1.45.721 2.154.635 2.305 1.184 4.629 1.424 7.011.807 8.001-.636 15.554-4.521 22.625-.537.978-1.242 1.857-1.662 2.9.217.248.217.248.016.601-.213-.203.073-.41-.025-.587-.33.146-.443.463-.593.752.04.007.09.012.14.017-.05-.005-.1-.01-.14-.017a70.377 70.377 0 0 1-4.002 4.72c-1.457 1.34-2.94 2.652-4.5 3.873a.63.63 0 0 0-.389.287c-.015.171-.001.385-.272.187-1.558.995-3.135 1.959-4.76 2.84-2.51 1.168-5.087 2.155-7.759 2.886-.138-.004-.268.016-.364.13-.023-.028-.047-.031-.075-.007l-.516.111-.336.067c-1.442.215-2.875.477-4.33.621-5.57.552-10.996-.086-16.273-1.929a37.532 37.532 0 0 1-13.574-8.26c-3.827-3.621-6.783-7.835-8.867-12.667C1.384 44.904.514 38.53 1.185 31.934c.272-2.667.826-5.283 1.712-7.819.32-.912.66-1.815.99-2.723-.657 1.096-1.128 2.266-1.555 3.456C.05 31.19-.563 37.703.518 44.342c1.126 6.919 3.927 13.111 8.425 18.514 4.889 5.87 10.966 9.992 18.255 12.326 5.21 1.669 10.54 2.143 15.965 1.61 1.377-.135 2.76-.302 4.092-.717.368-.072.757-.053 1.1-.241.168-.005.339.001.473-.13a30.178 30.178 0 0 0 7.432-2.758c.183-.03.358-.074.446-.263 1.882-.809 3.582-1.916 5.2-3.156.146-.032.254-.107.293-.26l.023-.024c.936-.478 1.68-1.212 2.454-1.897.648-.573 1.407-1.047 1.829-1.847-.135-.03-.331-.05-.233-.246.118-.237.336-.222.55-.1a.065.065 0 0 0 .06-.049c1.625-1.364 2.903-3.022 4.064-4.778 2.696-3.681 4.525-7.773 5.72-12.152 1.364-5 1.658-10.085.992-15.218Z"/><path fill="#79A842" d="M18.578 40.363c-.341-1.029-.862-1.965-1.455-2.867-.6-1.094-1.338-2.095-2.118-3.068-.057-.524-.433-.89-.671-1.322-.612-1.114-1.212-2.23-1.704-3.51-1.546 1.826-2.775 3.68-3.42 5.875a9.455 9.455 0 0 0-.654 4.316 7.97 7.97 0 0 0 .702 3.168l.095.15c-.005 0-.007-.002-.012-.004l.187.558c-.016.153.114.214.196.304l.204.319c.003.11.038.198.144.246l.157.264c.037.108.079.212.224.198l.035.033a.065.065 0 0 0-.039.059c.773 1.351 1.922 2.354 3.112 3.315.444.359.915.689 1.391 1.008.473.316.93.666 1.611.928a31.2 31.2 0 0 1-3.81-6.55c-.078-.233-.158-.465-.235-.697a13.736 13.736 0 0 1-.115-.207c.13-.247-.222-.398-.127-.638l.246.009c.376 1.163.89 2.263 1.548 3.293.76 1.52 1.778 2.868 2.796 4.22.312.413.474.185.702-.06 1.443-1.545 1.832-3.445 1.868-5.467.034-1.359-.322-2.637-.858-3.873Zm-6.857 1.954c.126-.028.255-.064.381-.089.029-.044.029-.105.02-.168.009.063.009.124-.02.168-.127.025-.253.06-.381.09Zm1.015-.736c-.112.011-.231.076-.343.078.11-.002.231-.067.343-.078ZM17.854 50.939c-1.708.311-3.332.186-4.792-.86-.383-.273-.773-.34-1.058.087-.277.415-.089.76.297 1.03 1.213.849 2.56 1.254 4.185 1.244.43.025.997-.068 1.56-.167.854-.148.385-.806.398-1.206.016-.469-.386-.166-.59-.128Z"/></g><path fill="#F9D25D" d="m114.389 54.041-7.056-23.236h-.164c.246 4.73.369 7.884.369 9.46v13.776H102V24.415h8.451l6.933 22.656h.123l7.344-22.656h8.451v29.627h-5.785V37.733c.028-.857.123-3.153.288-6.888h-.165l-7.548 23.195h-5.703ZM154.444 54.041l-1.189-3.07h-.165c-1.039 1.3-2.105 2.213-3.199 2.739-1.067.498-2.476.746-4.226.746-2.161 0-3.856-.622-5.087-1.867-1.231-1.245-1.846-3.015-1.846-5.311 0-2.407.834-4.177 2.502-5.311 1.669-1.162 4.171-1.798 7.508-1.909l3.897-.124v-.996c0-2.296-1.162-3.444-3.487-3.444-1.805 0-3.911.553-6.318 1.66l-2.01-4.191c2.571-1.356 5.429-2.034 8.574-2.034 3.009 0 5.306.664 6.892 1.992 1.614 1.328 2.421 3.334 2.421 6.017V54.04h-4.267Zm-1.805-10.497-2.379.083c-1.778.055-3.104.387-3.98.995-.847.581-1.271 1.48-1.271 2.697 0 1.743.984 2.615 2.953 2.615 1.423 0 2.558-.415 3.405-1.245.848-.83 1.272-1.923 1.272-3.278v-1.867ZM185.644 54.041h-6.113V40.805c0-1.632-.287-2.85-.861-3.651-.574-.83-1.491-1.245-2.749-1.245-1.695 0-2.926.58-3.692 1.742-.766 1.135-1.149 3.043-1.149 5.727V54.04h-6.112V31.386h4.677l.82 2.905h.328a6.391 6.391 0 0 1 2.831-2.49c1.203-.553 2.557-.83 4.061-.83 2.599 0 4.568.72 5.908 2.158 1.367 1.41 2.051 3.457 2.051 6.14v14.773ZM211.417 31.386v3.153l-3.487.913c.629.996.943 2.13.943 3.403 0 2.434-.834 4.329-2.502 5.684-1.668 1.356-3.993 2.034-6.974 2.034l-1.108-.083-.903-.083c-.629.47-.943 1.01-.943 1.618 0 .885 1.121 1.328 3.364 1.328h3.815c2.462 0 4.335.54 5.621 1.618 1.285 1.051 1.928 2.614 1.928 4.689 0 2.655-1.094 4.702-3.282 6.14-2.188 1.467-5.32 2.2-9.395 2.2-3.118 0-5.511-.553-7.179-1.66-1.641-1.079-2.462-2.614-2.462-4.606 0-1.355.411-2.503 1.231-3.444.848-.912 2.092-1.563 3.733-1.95-.629-.276-1.176-.719-1.641-1.328-.465-.608-.697-1.258-.697-1.95 0-.857.246-1.576.738-2.157.493-.581 1.204-1.148 2.134-1.702-1.176-.498-2.106-1.314-2.79-2.448-.684-1.134-1.026-2.476-1.026-4.025 0-2.462.794-4.37 2.38-5.726 1.586-1.355 3.856-2.033 6.81-2.033.629 0 1.367.055 2.215.166.875.11 1.436.194 1.682.249h7.795Zm-17.271 25.85c0 .858.396 1.522 1.189 1.992.821.498 1.956.747 3.405.747 2.188 0 3.898-.304 5.128-.913 1.258-.608 1.888-1.438 1.888-2.49 0-.857-.37-1.452-1.108-1.784-.739-.304-1.874-.456-3.405-.456h-3.159c-1.121 0-2.065.263-2.831.788-.738.526-1.107 1.231-1.107 2.117Zm2.215-18.423c0 1.217.273 2.186.82 2.905.575.72 1.423 1.079 2.544 1.079 1.149 0 1.983-.36 2.502-1.08.547-.718.821-1.687.821-2.904 0-2.738-1.108-4.108-3.323-4.108-2.243 0-3.364 1.37-3.364 4.108ZM220.009 42.672c0 2.24.355 3.942 1.066 5.104.739 1.134 1.929 1.701 3.569 1.701 1.641 0 2.818-.567 3.529-1.701.711-1.134 1.066-2.836 1.066-5.104 0-2.24-.369-3.914-1.107-5.02-.712-1.135-1.888-1.702-3.529-1.702-1.613 0-2.789.567-3.528 1.701-.711 1.107-1.066 2.78-1.066 5.021Zm15.466 0c0 3.68-.957 6.57-2.872 8.672-1.914 2.075-4.594 3.112-8.041 3.112-2.16 0-4.061-.47-5.702-1.41-1.641-.968-2.899-2.338-3.774-4.108-.875-1.798-1.313-3.887-1.313-6.266 0-3.707.957-6.583 2.872-8.63 1.914-2.048 4.594-3.071 8.041-3.071 2.16 0 4.061.47 5.702 1.41 1.641.941 2.899 2.297 3.774 4.067s1.313 3.845 1.313 6.224ZM270.069 45.826c0 2.655-.957 4.758-2.872 6.307-1.887 1.549-4.526 2.323-7.917 2.323-3.118 0-5.881-.594-8.287-1.784v-5.85c1.969.885 3.637 1.521 5.005 1.908 1.367.36 2.625.54 3.774.54 1.367 0 2.407-.263 3.118-.789.738-.525 1.107-1.314 1.107-2.365a2.51 2.51 0 0 0-.492-1.535c-.328-.47-.807-.913-1.436-1.328-.601-.415-1.86-1.079-3.774-1.992-1.778-.857-3.118-1.673-4.02-2.448a9.868 9.868 0 0 1-2.175-2.738c-.519-1.052-.779-2.269-.779-3.652 0-2.628.875-4.689 2.625-6.182 1.778-1.494 4.212-2.241 7.303-2.241 1.531 0 2.981.18 4.348.54 1.395.359 2.845.87 4.349 1.535l-2.01 4.896c-1.559-.664-2.858-1.12-3.898-1.37a12.499 12.499 0 0 0-2.994-.373c-1.176 0-2.079.277-2.708.83-.629.553-.944 1.273-.944 2.158 0 .553.123 1.037.37 1.452.273.415.683.816 1.23 1.203.547.388 1.86 1.08 3.939 2.075 2.735 1.328 4.608 2.656 5.62 3.983 1.012 1.328 1.518 2.96 1.518 4.897ZM284.337 49.519c1.066 0 2.352-.236 3.856-.706v4.606c-1.532.692-3.405 1.037-5.62 1.037-2.435 0-4.212-.622-5.334-1.867-1.121-1.272-1.682-3.153-1.682-5.643V36.033h-2.912V33.42l3.364-2.075 1.764-4.771h3.897v4.813h6.277v4.647h-6.277v10.913c0 .885.246 1.535.738 1.95.493.415 1.136.623 1.929.623ZM297.571 42.672c0 2.24.355 3.942 1.067 5.104.738 1.134 1.928 1.701 3.569 1.701s2.817-.567 3.528-1.701c.711-1.134 1.066-2.836 1.066-5.104 0-2.24-.369-3.914-1.107-5.02-.711-1.135-1.887-1.702-3.528-1.702-1.614 0-2.79.567-3.528 1.701-.712 1.107-1.067 2.78-1.067 5.021Zm15.466 0c0 3.68-.957 6.57-2.871 8.672-1.915 2.075-4.595 3.112-8.041 3.112-2.161 0-4.062-.47-5.703-1.41-1.641-.968-2.899-2.338-3.774-4.108-.875-1.798-1.313-3.887-1.313-6.266 0-3.707.957-6.583 2.872-8.63 1.914-2.048 4.595-3.071 8.041-3.071 2.16 0 4.061.47 5.702 1.41 1.641.941 2.899 2.297 3.774 4.067.876 1.77 1.313 3.845 1.313 6.224ZM330.602 30.971c.82 0 1.504.055 2.051.166l-.451 5.81c-.493-.14-1.094-.208-1.806-.208-1.941 0-3.459.511-4.553 1.535-1.094.996-1.641 2.407-1.641 4.232v11.535h-6.113V31.386h4.636l.902 3.817h.288a8.681 8.681 0 0 1 2.83-3.07 6.871 6.871 0 0 1 3.857-1.162ZM345.99 35.37c-1.285 0-2.297.414-3.036 1.244-.738.83-1.162 2.006-1.272 3.527h8.575c-.028-1.521-.424-2.697-1.19-3.527-.739-.83-1.764-1.245-3.077-1.245Zm.861 19.086c-3.61 0-6.427-1.01-8.451-3.029-2.023-2.019-3.035-4.868-3.035-8.547 0-3.79.929-6.722 2.789-8.797 1.887-2.075 4.486-3.112 7.795-3.112 3.173 0 5.634.913 7.384 2.738 1.778 1.826 2.667 4.344 2.667 7.552v2.988h-14.441c.055 1.77.561 3.154 1.518 4.15.985.968 2.339 1.452 4.062 1.452 1.34 0 2.612-.139 3.815-.415 1.203-.305 2.461-.761 3.774-1.37v4.772a13.063 13.063 0 0 1-3.446 1.203c-1.203.277-2.68.415-4.431.415Z"/><defs><clipPath id="a"><path fill="#fff" d="M0 0h78v77H0z"/></clipPath></defs></svg>