<svg xmlns="http://www.w3.org/2000/svg" width="22" height="22" fill="none"><g clip-path="url(#a)"><path fill="#FF0D51" d="M11.009 22C4.943 22.006.01 17.085-.001 11.017-.01 4.938 4.928-.004 11.007 0 17.076.004 21.998 4.928 22 10.998 22 17.066 17.078 21.994 11.009 22Zm5.619-13.65c-.007-.476-.187-.868-.58-1.15-.591-.426-1.302-.357-1.852.191a765.173 765.173 0 0 0-4.077 4.084c-.17.173-.262.203-.446.01-.62-.646-1.26-1.273-1.896-1.903-.612-.608-1.474-.626-2.042-.048-.56.57-.542 1.42.055 2.022a600.153 600.153 0 0 0 3.065 3.065c.612.607 1.43.63 2.042.025 1.772-1.753 3.53-3.522 5.29-5.287.277-.276.443-.606.44-1.008Z"/></g><defs><clipPath id="a"><path fill="#fff" d="M0 0h22v22H0z"/></clipPath></defs></svg>