<svg width="110" height="115" fill="none" xmlns="http://www.w3.org/2000/svg"><path d="m49.967 42.97 4.7-6.474 4.72 6.474 7.624-2.467v33.93l-7.623-2.487h-.02l-4.7 6.494-4.7-6.474-7.624 2.468v-33.93l7.623 2.467ZM67.011 19.541 54.668 36.496 42.344 19.541V9.238L54.668 0 67.01 9.238V19.54ZM42.344 95.396 54.668 78.44 67.01 95.396v10.382l-12.343 9.159-12.324-9.159V95.396Z" fill="#8DC63F"/><path d="M42.344 19.54v20.963l-19.967-6.474-6.043-8.33 4.543-14.725 15.404.237 6.063 8.33Z" fill="#8DC63F"/><path d="M74.635 63.952 67.01 66.42v8.013l-7.623-2.487h-.02l-4.7 6.494-4.7-6.474-2.923-4.026-4.7-6.455-2.904-4.026-4.72-6.475 7.623-2.467v-8.014l7.623 2.468 4.7-6.475 4.721 6.474 2.903 4.007 4.72 6.494 2.904 3.988 4.72 6.493ZM93.062 89.316l-4.582 14.646-15.366-.158-6.102-8.409V74.433l19.947 6.474 6.103 8.41ZM22.376 34.03 34.72 50.983 14.773 57.46 4.977 54.28 0 39.714l12.6-8.883 9.776 3.198Z" fill="#8DC63F"/><path d="m109.355 75.223-12.502 8.902-9.894-3.217-12.324-16.956 19.967-6.493 9.855 3.217 4.898 14.547ZM14.773 57.459l19.947 6.474-12.344 16.975-9.776 3.197L0 75.223l4.977-14.567 9.796-3.197ZM109.355 39.714l-4.898 14.547-9.855 3.197-19.967-6.474L86.959 34.03l9.894-3.218 12.502 8.903ZM22.377 80.907l19.967-6.474v20.962l-6.063 8.33-15.404.237-4.543-14.725 6.043-8.33Z" fill="#8DC63F"/><path d="m69.915 57.458 4.72 6.494-7.624 2.468v8.013l-7.623-2.487h-.02l-4.68-1.52-7.643-2.487-4.7-1.52-7.624-2.486 4.72-6.475-4.72-6.474 7.623-2.467v-8.014l7.623 2.468 4.72 1.54 7.604 2.466 4.72 1.54 7.624 2.467-4.72 6.474Z" fill="#2BB573"/><path d="m69.915 57.458 4.72 6.494-7.624 2.468-4.72 1.54-7.603 2.467-4.72 1.54-7.624 2.466V66.42l-7.623-2.487 4.72-6.475-4.72-6.474 7.623-2.467 4.7-1.52 7.644-2.487 4.7-1.54 7.623-2.467v8.014l7.624 2.467-4.72 6.474Z" fill="#2BB573"/><path d="m74.635 50.984-4.72 6.474-2.904 4.007-4.72 6.494-2.903 3.987h-.02l-4.7 6.494-4.7-6.474-7.624 2.468V66.42l-7.623-2.487 4.72-6.474 2.903-4.007 4.7-6.455 2.924-4.026 4.7-6.475 4.72 6.474 7.623-2.467v8.014l7.624 2.467Z" fill="#2BB573"/><path d="m86.959 34.029-19.947 6.474V19.541l6.102-8.409 15.366-.158 4.582 14.646-6.103 8.409Z" fill="#8DC63F"/></svg>