<svg width="371" height="485" fill="none" xmlns="http://www.w3.org/2000/svg"><path d="M411.18 386.566c-28.709-22.224-89.513-53.086-93.2-108.516-4.609-69.288 20.45-120.57-82.369-165.883-67.088-29.565-145.128-72.79-99.828-136.813" stroke="#C5E0A0"/><path d="M433.011 388.117c-28.71-22.224-89.514-53.086-93.201-108.516-4.609-69.288 20.45-120.571-82.369-165.883-67.088-29.565-145.128-72.79-99.828-136.813" stroke="#C5E0A0"/><path d="M454.841 389.668c-28.71-22.224-89.514-53.086-93.201-108.517-4.609-69.288 20.45-120.57-82.369-165.882-67.088-29.565-145.128-72.79-99.828-136.813" stroke="#C5E0A0"/><path d="M476.671 391.219c-28.71-22.224-89.514-53.086-93.201-108.517-4.609-69.288 20.45-120.57-82.369-165.882-67.088-29.566-145.128-72.79-99.828-136.813" stroke="#C5E0A0"/><path d="M498.501 392.769c-28.71-22.224-89.514-53.086-93.201-108.516-4.609-69.288 20.45-120.57-82.369-165.883-67.088-29.565-145.128-72.79-99.828-136.813" stroke="#C5E0A0"/><path d="M520.333 394.32c-28.71-22.224-89.514-53.086-93.201-108.516-4.609-69.288 20.45-120.571-82.369-165.883-67.088-29.565-145.128-72.79-99.828-136.813" stroke="#C5E0A0"/><path d="M542.163 395.871c-28.71-22.224-89.513-53.086-93.201-108.517-4.608-69.288 20.45-120.57-82.369-165.882-67.088-29.565-145.128-72.79-99.828-136.813" stroke="#C5E0A0"/><path d="M563.993 397.422c-28.71-22.224-89.513-53.086-93.2-108.517-4.609-69.288 20.449-120.57-82.37-165.882-67.088-29.566-145.128-72.79-99.828-136.813" stroke="#C5E0A0"/><path d="M585.823 398.973c-28.71-22.224-89.513-53.086-93.2-108.517-4.609-69.288 20.45-120.57-82.37-165.882-67.088-29.566-145.128-72.79-99.827-136.813" stroke="#C5E0A0"/><path d="M607.653 400.523c-28.709-22.224-89.513-53.086-93.2-108.516-4.609-69.288 20.45-120.57-82.37-165.882-67.088-29.566-145.128-72.791-99.827-136.813" stroke="#C5E0A0"/><path d="M634.86 405.01c-28.709-22.224-89.513-53.086-93.2-108.516-4.609-69.288 20.45-120.57-82.37-165.882-67.088-29.566-145.128-72.791-99.827-136.813" stroke="#C5E0A0"/></svg>