<svg width="299" height="298" fill="none" xmlns="http://www.w3.org/2000/svg"><g clip-path="url(#a)" fill="#F7EDE1"><path d="M289.544 137.284a3.576 3.576 0 0 0 3.793 3.357 3.575 3.575 0 0 0 3.356-3.793 3.575 3.575 0 0 0-3.793-3.357 3.575 3.575 0 0 0-3.356 3.793ZM260.485 62.051a3.58 3.58 0 0 0 5.689 2.675 3.589 3.589 0 0 0 1.46-3.112 3.58 3.58 0 0 0-5.689-2.675 3.557 3.557 0 0 0-1.46 3.112ZM195.595 12.964a3.572 3.572 0 0 0 2.06 4.626 3.588 3.588 0 0 0 4.871-3.561 3.587 3.587 0 0 0-2.292-3.125c-1.842-.71-3.916.218-4.639 2.06ZM119.178 12.95a3.573 3.573 0 0 0 2.851-3.725c-.013-.164-.027-.341-.068-.518a3.57 3.57 0 0 0-4.229-2.784 3.573 3.573 0 0 0-2.852 3.725c.014.164.027.341.068.519a3.564 3.564 0 0 0 4.23 2.784ZM51.71 48.705a3.59 3.59 0 0 0-1.01-2.293 3.582 3.582 0 0 0-5.076-.054 3.596 3.596 0 0 0-.068 5.076 3.582 3.582 0 0 0 5.076.055 3.567 3.567 0 0 0 1.077-2.784ZM13.808 120.963c.082-.341.11-.682.082-1.023a3.593 3.593 0 0 0-2.783-3.276 3.57 3.57 0 0 0-4.284 2.689c-.082.341-.11.682-.082 1.023a3.59 3.59 0 0 0 2.783 3.275 3.579 3.579 0 0 0 4.284-2.688ZM20.588 200.318a3.235 3.235 0 0 0-.205-.996 3.578 3.578 0 0 0-4.584-2.156 3.575 3.575 0 0 0-2.36 3.589c.013.341.081.668.204.996a3.579 3.579 0 0 0 4.584 2.156 3.576 3.576 0 0 0 2.36-3.589ZM69.664 264.32a3.572 3.572 0 0 0-1.406-2.633 3.584 3.584 0 0 0-5.02.668 3.638 3.638 0 0 0-.737 2.402 3.574 3.574 0 0 0 1.405 2.634 3.572 3.572 0 0 0 5.02-.669 3.657 3.657 0 0 0 .738-2.402ZM145.536 291.613a3.602 3.602 0 0 0-3.288-3.357 3.582 3.582 0 0 0-3.874 3.276 3.2 3.2 0 0 0 0 .518 3.6 3.6 0 0 0 3.288 3.357 3.581 3.581 0 0 0 3.874-3.275 3.21 3.21 0 0 0 0-.519ZM216.975 273.982a3.583 3.583 0 1 0 7.151-.436 3.583 3.583 0 0 0-7.151.436ZM273.774 214.319a3.528 3.528 0 0 0-.451 1.965 3.608 3.608 0 0 0 1.829 2.921 3.584 3.584 0 0 0 4.884-1.379c.355-.627.491-1.31.45-1.965a3.604 3.604 0 0 0-1.828-2.92 3.608 3.608 0 0 0-4.884 1.378ZM289.477 161.316c-.014.15-.014.3 0 .45a3.586 3.586 0 0 0 3.343 3.358c1.978.122 3.684-1.365 3.806-3.344.014-.15.014-.3 0-.45a3.585 3.585 0 0 0-3.342-3.357c-1.965-.137-3.671 1.364-3.807 3.343ZM273.663 82.67c.027.52.177 1.038.45 1.516a3.586 3.586 0 0 0 4.871 1.405 3.578 3.578 0 0 0 1.842-3.357 3.409 3.409 0 0 0-.45-1.514 3.586 3.586 0 0 0-4.871-1.406 3.578 3.578 0 0 0-1.842 3.357ZM218.026 22.776a3.587 3.587 0 0 0 1.46 4.858 3.582 3.582 0 0 0 4.857-1.46c.327-.614.464-1.269.423-1.91a3.592 3.592 0 0 0-1.883-2.948 3.593 3.593 0 0 0-4.857 1.46ZM142.399 2.443a3.585 3.585 0 0 0-3.302 3.793v.069a3.588 3.588 0 0 0 3.847 3.302 3.584 3.584 0 0 0 3.302-3.794v-.068a3.58 3.58 0 0 0-3.847-3.302ZM68.832 35.795a3.58 3.58 0 0 0 .696-5.022 3.587 3.587 0 0 0-6.44 2.375 3.54 3.54 0 0 0 .723 1.951 3.575 3.575 0 0 0 5.021.696ZM20.63 97.914c.178-.478.246-.969.218-1.447a3.585 3.585 0 0 0-6.945-1.023 3.561 3.561 0 0 0-.217 1.447 3.59 3.59 0 0 0 2.346 3.152c1.87.696 3.93-.26 4.598-2.129ZM13.752 176.819a3.58 3.58 0 0 0-4.366-3.289 3.578 3.578 0 0 0-2.715 4.285 3.579 3.579 0 0 0 4.284 2.715 3.576 3.576 0 0 0 2.797-3.711ZM51.205 248.245a3.594 3.594 0 0 0-6.14-2.307 3.528 3.528 0 0 0-1.023 2.743 3.594 3.594 0 0 0 6.14 2.306c.736-.764 1.09-1.76 1.023-2.742ZM121.252 289.034c.068-.327.095-.641.068-.955a3.593 3.593 0 0 0-2.838-3.289 3.582 3.582 0 0 0-4.243 2.77c-.068.328-.096.642-.068.956a3.593 3.593 0 0 0 2.837 3.289 3.583 3.583 0 0 0 4.244-2.771ZM201.612 282.607a3.576 3.576 0 0 0-4.625-2.075 3.588 3.588 0 0 0-2.306 3.562c.027.355.095.71.232 1.065a3.576 3.576 0 0 0 4.625 2.074 3.588 3.588 0 0 0 2.306-3.562 3.758 3.758 0 0 0-.232-1.064ZM260.034 236.85a3.637 3.637 0 0 0 1.446 2.675 3.576 3.576 0 0 0 5.008-.751c.518-.71.75-1.542.695-2.347a3.632 3.632 0 0 0-1.446-2.675 3.592 3.592 0 0 0-5.021.751 3.715 3.715 0 0 0-.682 2.347Z"/><path d="M133.161 289.607c.055-1.01.027-2.074-.027-3.097-.137-2.334-.491-4.49-.723-5.732.04-.191.068-.368.095-.573.123-.901.464-1.911.723-3.016.259-1.105.682-2.252 1.064-3.412.628-1.815 1.365-3.493 2.061-4.953 6.931-7.11 11.174-13.524 11.174-13.524-3.234 8.051-4.339 14.738-4.012 20.074.751 12.364 9.087 17.563 16.059 15.762 5.676-1.46 8.063-7.724 7.722-13.265-.259-4.189-2.06-7.969-5.171-8.938-7.217-2.238-10.137 4.066-10.137 4.066a46.99 46.99 0 0 1-.164-1.896c-.736-12.31 4.203-22.435 11.611-30.323 9.783 5.813 17.614 14.752 19.92 27.798 0 0-4.557-5.254-10.86-1.092-2.17 1.419-3.043 4.326-2.852 7.519.368 6.128 4.68 13.306 11.447 13.101 6.358-.177 12.225-5.895 11.652-15.571-.369-6.004-3.22-13.537-10.001-22.216 0 0 5.867 4.994 14.489 9.907 1.078 1.215 2.252 2.62 3.357 4.19.696.996 1.419 1.978 1.964 2.975.56.996 1.174 1.869 1.542 2.702.096.191.178.341.259.518.178 1.802.642 5.554 1.719 8.693 1.419 4.135 3.903 5.418 5.758 4.913.955-.628 1.569-1.829 1.474-3.494-.069-1.146-.478-2.524-1.378-4.066-1.651-2.88-4.162-5.705-5.403-7.015-.082-.177-.137-.341-.219-.532-.395-.819-.641-1.856-1.023-2.934-.382-1.078-.641-2.265-.941-3.439a49.048 49.048 0 0 1-.955-5.199c2.005-9.785 2.101-17.522 2.101-17.522 5.375 28.234 22.498 31.196 29.511 23.649 1.896-2.047 2.579-4.599 2.415-7.192-.423-7-6.958-14.342-12.266-12.868-6.358 1.76-6.44 7.232-6.358 8.597.014.191.028.314.028.314-5.54-6.892-8.077-14.438-8.541-22.026-.232-3.78.054-7.56.75-11.272 11.365-.395 22.799 2.88 31.79 12.61 0 0-6.672-1.952-9.728 4.953-.369.819-.505 1.72-.45 2.634.409 6.796 11.337 15.189 18.828 10.058 3.192-2.184 5.13-6.005 4.871-10.426-.437-7.342-6.972-16.335-23.904-22.258 0 0 7.64 1.037 17.573.505 1.555.437 3.302.983 5.062 1.706 1.118.464 2.265.901 3.261 1.446 1.009.533 1.992.942 2.756 1.447.177.109.327.205.504.3 1.119 1.42 3.534 4.326 6.14 6.373 3.438 2.702 6.208 2.457 7.49 1.024.191-.437.287-.915.246-1.433-.096-1.583-1.337-3.453-4.257-4.981-2.947-1.529-6.59-2.538-8.336-2.975-.164-.109-.3-.205-.478-.328-.777-.477-1.555-1.214-2.442-1.91-.9-.696-1.774-1.556-2.66-2.388-1.392-1.324-2.606-2.702-3.657-3.944-3.588-9.253-7.668-15.789-7.668-15.789 19.784 20.838 35.801 14.083 37.602 3.93a8.638 8.638 0 0 0 .123-2.129c-.546-8.952-14.585-14.643-19.251-9.416-1.965 2.197-2.47 4.34-2.36 6.141.163 2.811 1.855 4.776 1.855 4.776-12.566-4.203-20.247-13.278-24.558-23.799 9.345-6.483 20.738-9.908 33.563-6.578 0 0-6.031 1.774-5.621 8.365.013.341.054.696.109 1.065 1.16 7.464 18.323 10.235 22.334.737.655-1.556.942-3.248.846-4.954-.518-8.693-11.16-17.822-34.518-12.241 0 0 7.013-3.262 15.103-9.116a47.81 47.81 0 0 1 5.13-1.269c1.201-.218 2.388-.464 3.521-.546 1.132-.095 2.183-.286 3.097-.273.218 0 .382-.013.586-.013 1.706.586 5.308 1.719 8.609 2.046 4.353.424 6.549-1.296 6.85-3.193-.301-1.897-2.484-3.63-6.836-3.234-3.302.3-6.917 1.419-8.623 2.006-.191 0-.368-.014-.586-.014-.914.014-1.965-.177-3.097-.286-1.133-.096-2.334-.355-3.521-.573a51.346 51.346 0 0 1-5.143-1.297c-8.05-5.868-15.035-9.184-15.035-9.184 24.585 6.018 35.132-4.394 34.586-13.469a11.036 11.036 0 0 0-.818-3.562c-3.957-9.512-21.148-6.837-22.335.628a10.32 10.32 0 0 0-.123 2.293c.341 5.581 5.594 7.15 5.594 7.15-12.839 3.262-24.204-.218-33.522-6.755 4.352-10.508 12.088-19.542 24.681-23.677 0 0-2.074 2.402-1.883 5.705.096 1.583.71 3.37 2.333 5.213 4.844 5.472 19.879-.846 19.306-10.44a6.647 6.647 0 0 0-.123-1.01c-1.76-10.153-17.723-17.003-37.629 3.739 0 0 4.107-6.509 7.736-15.748 1.051-1.242 2.278-2.606 3.67-3.916.887-.833 1.76-1.679 2.674-2.375.901-.696 1.678-1.419 2.456-1.91.177-.123.314-.219.478-.328 1.76-.423 5.402-1.42 8.35-2.934 3.192-1.637 4.379-3.698 4.284-5.363a3.157 3.157 0 0 0-.246-1.023c-1.269-1.447-4.052-1.706-7.49.982-2.62 2.047-5.048 4.94-6.167 6.346-.164.095-.314.19-.505.3-.764.505-1.746.9-2.756 1.433-1.01.532-2.142.969-3.275 1.42-1.773.709-3.52 1.241-5.075 1.678-9.933-.587-17.573.423-17.573.423 18.269-6.278 24.477-16.185 24.013-23.786-.218-3.712-2.033-6.878-4.816-8.789-7.75-5.363-19.306 3.849-18.883 10.754.041.641.177 1.269.436 1.856 3.029 6.919 9.701 4.994 9.701 4.994-9.046 9.69-20.479 12.91-31.844 12.446a48.283 48.283 0 0 1-.696-5.772c-.573-9.403 1.733-18.956 8.65-27.498 0 0-.082.546-.027 1.378.123 2.115 1.091 6.073 6.317 7.56 5.676 1.597 12.784-6.85 12.334-14.247-.123-2.088-.86-4.094-2.388-5.759-6.972-7.587-24.108-4.708-29.62 23.5 0 0-.014-1.12-.123-3.043a109.712 109.712 0 0 0-1.869-14.411c.218-1.61.505-3.412.968-5.254.301-1.174.573-2.36.969-3.439.382-1.078.641-2.102 1.037-2.934.082-.191.15-.355.232-.532 1.242-1.31 3.779-4.122 5.444-6.987 1.078-1.87 1.473-3.48 1.391-4.763-.081-1.31-.641-2.265-1.459-2.811-1.856-.519-4.339.75-5.772 4.872-1.091 3.125-1.582 6.878-1.76 8.679-.082.177-.163.327-.259.518-.368.833-.982 1.706-1.555 2.689-.56.996-1.283 1.965-1.979 2.975-1.105 1.57-2.292 2.961-3.383 4.176-8.65 4.871-14.531 9.825-14.531 9.825 7.859-9.962 10.506-18.423 10.124-24.796-.491-8.065-5.826-12.8-11.584-12.991-7.408-.246-11.91 8.338-11.528 14.738.15 2.497 1.05 4.667 2.824 5.855 6.289 4.189 10.874-1.038 10.874-1.038-2.374 13.033-10.247 21.93-20.07 27.703-6.358-6.837-10.86-15.312-11.474-25.41a38.998 38.998 0 0 1 .191-6.878s2.892 6.319 10.11 4.108c3.642-1.106 5.525-6.073 5.211-11.054-.3-4.913-2.715-9.853-7.667-11.163-7.668-2.02-17.055 4.449-16.141 19.72.273 4.571 1.474 9.92 3.916 16.061 0 0-4.216-6.44-11.106-13.592a49.608 49.608 0 0 1-2.046-4.967c-.382-1.16-.792-2.306-1.051-3.412-.259-1.105-.6-2.115-.709-3.03a9.748 9.748 0 0 1-.096-.572c.341-1.774.955-5.513.805-8.816 0-.068-.014-.136-.014-.205-.259-4.216-2.237-6.1-4.12-6.127-1.514.464-2.729 2.17-2.551 5.131.041.642.136 1.338.327 2.102.764 3.22 2.388 6.646 3.206 8.256.028.191.041.368.069.573.041.26.068.519.081.792.041.71.028 1.487.069 2.306.068 1.133-.014 2.347-.069 3.575a48.595 48.595 0 0 1-.545 5.254c-4.68 8.816-6.945 16.226-6.945 16.226.355-3.576.409-6.837.232-9.771-1.255-20.606-14.148-25.901-21.898-21.289-3.602 2.143-4.898 6.169-4.652 10.194.354 5.868 3.97 11.75 8.445 11.818 7.559.123 8.582-6.755 8.582-6.755 1.76 4.244 2.674 8.447 2.92 12.528.463 7.683-1.474 14.997-4.83 21.63-11.024-2.825-21.066-9.185-26.946-21.057 0 0 5.839 3.753 10.737-2.006 1.05-1.228 1.446-2.88 1.337-4.667-.395-6.592-7.695-15.203-15.404-12.692-4.802 1.556-8.322 6.373-7.926 12.856.409 6.755 5.075 15.311 17 23.854 0 0-7.027-3.139-16.687-5.418-1.378-.86-2.906-1.883-4.407-3.084-.94-.764-1.91-1.501-2.728-2.306-.819-.792-1.651-1.46-2.238-2.156-.15-.164-.259-.287-.395-.424-.669-1.678-2.17-5.144-4.094-7.846-2.537-3.562-5.266-4.108-6.903-3.084-.505.6-.792 1.405-.723 2.374.081 1.406.886 3.111 2.77 4.913 2.387 2.292 5.607 4.299 7.162 5.213.123.15.232.286.369.45.6.682 1.146 1.597 1.8 2.525.67.914 1.256 1.992 1.883 3.043.97 1.665 1.747 3.33 2.402 4.817.832 9.88 2.892 17.304 2.892 17.304C58.967 51.502 41.708 53.481 37.11 62.706a8.894 8.894 0 0 0-.928 4.585c.478 7.888 10.656 15.216 16.031 11.886 3.684-2.292 4.312-5.35 4.189-7.546-.096-1.624-.614-2.77-.614-2.77 10.874 7.573 15.69 18.436 16.85 29.763-10.792 3.589-22.69 3.657-34.055-3.14 0 0 6.945 0 7.94-7.491.042-.341.055-.669.042-1.01-.437-7.123-15.022-13.62-21.257-5.99-1.746 2.142-2.647 4.898-2.47 7.819.478 7.956 8.95 17.099 29.948 18.163 0 0-7.654 1.16-17.068 4.49a48.105 48.105 0 0 1-5.28-.232c-1.214-.136-2.428-.232-3.534-.464-1.118-.218-2.183-.341-3.042-.6-.205-.055-.368-.096-.56-.15-1.473-1.051-4.611-3.153-7.694-4.395-4.053-1.637-6.645-.6-7.477 1.133a2.683 2.683 0 0 0-.014.573c.11 1.774 1.801 3.698 5.676 4.463 3.247.641 7.026.586 8.841.504.191.069.355.11.56.178.873.246 1.828.723 2.892 1.146 1.064.41 2.128.996 3.22 1.542 1.705.874 3.26 1.856 4.611 2.757 6.044 7.874 11.802 12.991 11.802 12.991-24.463-14.192-37.875-3.807-37.26 6.278l.04.532c1.119 10.249 18.364 12.514 21.612 5.691.805-1.679 1.05-3.18.968-4.476-.245-3.985-3.547-6.128-3.547-6.128 13.234.492 23.167 7.028 30.262 15.926-7.15 8.856-17.11 15.352-30.344 15.775 0 0 3.861-2.483 3.588-7.082-.068-1.065-.354-2.238-.955-3.521-3.206-6.837-20.465-4.654-21.638 5.581a11.025 11.025 0 0 0-.055 1.897c.573 9.607 13.821 18.519 37.206 5.104 0 0-5.771 5.09-11.87 12.937-1.35.887-2.92 1.856-4.625 2.729-1.091.546-2.17 1.119-3.233 1.529-1.065.423-2.006.9-2.893 1.132a12.5 12.5 0 0 1-.56.178c-1.8-.082-5.58-.164-8.84.464-4.148.791-5.813 2.934-5.69 4.803 0 .069.014.137.014.191.818 1.747 3.397 2.784 7.463 1.174 3.083-1.228 6.235-3.316 7.709-4.353.19-.055.354-.096.559-.15.873-.273 1.937-.383 3.056-.587 1.119-.232 2.333-.314 3.547-.451 1.842-.177 3.698-.218 5.28-.204 9.387 3.37 17.041 4.571 17.041 4.571-22.32 1.024-30.534 11.245-30.043 19.501a11.021 11.021 0 0 0 2.442 6.346c6.386 7.888 21.735.819 21.284-6.55-.013-.11-.013-.232-.027-.342-.955-7.492-7.9-7.532-7.9-7.532 11.407-6.742 23.29-6.619 34.069-2.975-1.228 11.313-6.1 22.162-17 29.681 0 0 .764-1.679.627-3.848-.123-2.047-1.037-4.545-4.147-6.496-5.622-3.535-16.591 4.653-16.1 12.964a8.785 8.785 0 0 0 .914 3.425c4.544 9.253 21.803 11.313 35.05-14.192 0 0-2.114 7.41-3 17.317-.656 1.474-1.447 3.125-2.402 4.777-.628 1.05-1.214 2.115-1.897 3.029-.668.928-1.214 1.842-1.814 2.525-.137.164-.246.3-.369.45-1.569.901-4.788 2.893-7.19 5.172-2.115 2.006-2.879 3.917-2.783 5.404.04.737.3 1.379.723 1.87 1.624 1.023 4.366.505 6.917-3.057 1.938-2.688 3.452-6.155 4.134-7.833.137-.15.246-.273.396-.423.587-.696 1.419-1.365 2.251-2.143.819-.791 1.788-1.528 2.743-2.292 1.5-1.188 3.015-2.184 4.393-3.044 9.687-2.238 16.74-5.349 16.74-5.349-13.165 9.334-17.545 18.737-17.122 25.751.327 5.472 3.588 9.498 7.872 10.917 8.132 2.689 15.881-7.041 15.472-13.728-.082-1.365-.505-2.593-1.323-3.575-4.858-5.787-10.724-2.061-10.724-2.061 5.948-11.845 16.017-18.164 27.055-20.92 2.633 5.267 4.38 10.958 4.734 16.921.341 5.555-.532 11.341-3.001 17.25 0 0-.996-6.878-8.541-6.796-4.966.054-8.91 7.246-8.514 13.674.205 3.357 1.583 6.495 4.612 8.324 8.582 5.172 23.603-1.856 21.98-28.576-.041-.751-.109-1.528-.178-2.32 0 0 2.224 7.383 6.849 16.212.219 1.379.41 2.907.505 4.531l.041.764c.041 1.215.123 2.429.041 3.576-.054 1.132-.027 2.197-.164 3.097-.027.219-.041.382-.068.573-.832 1.611-2.469 5.022-3.247 8.243-.3 1.215-.396 2.293-.341 3.207.136 2.279 1.214 3.63 2.524 4.026 1.896-.041 3.916-1.952 4.134-6.319Zm27.792-16.84c1.023.314 2.169 2.402 2.347 5.35.232 3.753-1.16 8.215-4.721 9.129-2.074.533-4.325.069-6.194-1.282a9.03 9.03 0 0 1-1.665-1.57l4.885-9.648c.505-.941 1.978-3.029 5.348-1.979Zm-13.112-1.432c.041.682.096 1.378.178 2.087l.859 7.861c-.736-1.761-1.2-3.848-1.337-6.155-.109-1.801-.027-3.712.232-5.731.014.641.041 1.296.068 1.938Zm38.325 10.303c-1.391 1.514-3.219 2.374-5.157 2.429-4.352.123-7.095-5.445-7.326-9.334-.11-1.856.313-3.439 1.05-3.917 2.947-1.938 4.953-.355 5.621.368l7.231 8.338a8.303 8.303 0 0 1-1.419 2.116Zm2.593-8.871c.054.969.041 1.911-.069 2.798l-1.364-7.697a40.538 40.538 0 0 0-.873-3.903c1.61 3.671 2.183 6.619 2.306 8.802Zm14.353-9.784c.259 1.214.477 2.456.832 3.562.068.218.136.45.191.655l-.368-.574c-.614-1.009-1.378-1.978-2.129-2.974a44.742 44.742 0 0 0-1.582-1.911c.695.368 1.378.751 2.101 1.105.191-.737.382-1.46.546-2.183.122.764.245 1.542.409 2.32Zm19.688-11.04c-.096-1.583.423-3.644 3.424-4.476.6-.164 1.555.15 2.538.859 2.51 1.788 4.461 5.323 4.652 8.379.109 1.72-.354 3.139-1.35 4.217-1.883 2.034-4.762 2.757-7.736 1.965l-1.528-10.944ZM215.691 255l4.926 6.127c-2.756-1.911-5.212-5.063-7.204-9.212a48.276 48.276 0 0 0 2.278 3.085Zm26.005-19.351 10.587 3.111c.028.191.041.355.041.505.178 2.839-.996 5.404-3.124 6.864-2.347 1.611-5.171.642-6.644-.082-3.507-1.719-5.799-4.926-5.922-6.905-.013-.3.014-.559.109-.764 1.447-3.234 3.984-2.975 4.953-2.729Zm9.319-.901-5.253-5.677a42.723 42.723 0 0 0-2.947-2.907c4.584 3.03 6.972 6.114 8.2 8.584Zm8.049-33.216c1.174.505 2.374.969 3.602 1.379l7.545 2.497c-3.383-.096-7.19-1.433-11.147-3.876Zm7.968-4.994c-.013-.014-.846-1.078-.928-2.457-.068-1.078.382-2.129 1.351-3.22.641-.724 2.77-.996 5.444-.068 3.138 1.091 6.617 3.766 6.808 7.055.027.382 0 .791-.068 1.187-.491 2.784-2.606 4.981-5.635 5.895-.068.028-.15.041-.218.069l-6.754-8.461Zm19.565-22.367a6.904 6.904 0 0 1-.532 3.152c-1.351 3.207-5.498 3.89-8.636 3.508-3.37-.424-5.84-2.047-6.031-3.303a6.952 6.952 0 0 1-.082-.696c-.177-3.043 2.101-4.053 2.756-4.271l10.601-3.112c1.16 1.433 1.829 3.043 1.924 4.722Zm-12.334-48.2c-.436-.15-2.647-1.023-2.797-3.575a6.43 6.43 0 0 1 .082-1.419c.205-1.256 2.674-2.866 6.044-3.262 3.138-.368 7.286.328 8.623 3.548.3.71.478 1.474.519 2.252.122 2.088-.669 4.176-2.224 5.923l-10.247-3.467Zm5.621-26.46c.028.19.055.382.069.573.191 3.248-2.92 6.032-6.099 7.342-2.906 1.201-5.43 1.037-6.194.191-.846-.956-1.283-1.87-1.337-2.784-.096-1.542.9-2.825.9-2.825l7.231-8.352c2.934.956 4.967 3.125 5.43 5.855Zm-9.468-6.414-7.463 2.456c-1.228.41-2.442.86-3.616 1.365 3.93-2.416 7.709-3.726 11.079-3.821Zm-33.209-33.134a1.305 1.305 0 0 1-.109-.478c-.109-1.787 1.992-4.953 5.294-6.823 1.296-.737 4.625-2.238 7.299-.396 1.828 1.256 2.947 3.344 3.097 5.732.041.669 0 1.35-.109 2.074l-10.492 2.62c-1.023.26-3.561.505-4.98-2.73Zm8.964 9.348 5.403-5.827c-1.392 2.852-4.039 5.868-8.323 8.679 1.01-.9 1.979-1.842 2.92-2.852Zm-21.284-33.912c2.988-.778 5.867-.04 7.736 2.006.819.9 1.255 1.965 1.337 3.289.177 3.002-1.664 6.864-4.284 8.98-1.132.914-2.265 1.35-2.961 1.16-1.378-.396-3.233-1.215-3.397-3.93-.014-.315 0-.547 0-.56l1.569-10.945Zm-3.697 1.72-4.953 6.1a44.675 44.675 0 0 0-2.292 3.07c2.005-4.135 4.475-7.274 7.245-9.17Zm-20.575-.71c.532-.628 1.078-1.242 1.596-1.91.751-.997 1.542-1.966 2.142-2.976l.369-.573c-.068.219-.123.437-.191.655-.355 1.12-.587 2.348-.86 3.562-.177.819-.286 1.61-.409 2.402-.177-.75-.355-1.501-.546-2.28-.709.383-1.392.752-2.101 1.12Zm-25.268-9.211c-.559-.369-.955-1.42-1.037-2.743-.177-2.962 1.119-6.496 3.165-8.598 1.269-1.296 2.688-1.938 4.216-1.883 2.429.082 5.062 1.556 6.549 4.572l-7.272 8.31c-.382.423-2.415 2.47-5.621.341Zm12.593 3.015 1.405-7.71c.028.218.041.45.055.682.191 3.235-.614 6.906-2.319 10.836a42.93 42.93 0 0 0 .859-3.808Zm-35.282-17.931c1.964-1.61 4.379-2.184 6.63-1.597 3.166.833 4.489 4.422 4.68 7.52.219 3.616-1.078 6.577-2.387 6.973-3.384 1.037-4.844-1.051-5.294-1.938l-4.598-10.044c.314-.327.628-.628.969-.914Zm-4.475 14.001c-.232-3.766.245-7.041 1.337-9.648l-.874 7.833a49.34 49.34 0 0 0-.272 3.985c-.082-.737-.15-1.46-.191-2.17ZM132.138 24.7c.095-1.242.232-2.483.204-3.657v-.682c.069.218.137.436.191.655.301 1.132.764 2.292 1.201 3.466.287.764.614 1.515.928 2.238-.56-.532-1.078-1.078-1.665-1.61a109.3 109.3 0 0 0-1.146 1.937c.137-.764.232-1.542.287-2.347Zm-26.551 8.393c-1.582-.028-4.229-3.494-4.502-8.052-.109-1.76.095-4.967 2.701-6.51 2.197-1.31 4.994-1.296 7.477.015.164.095.341.19.505.286l-1.624 10.931c-.095.56-.709 3.384-4.557 3.33Zm12.239-4.272-3.002-7.26c2.115 2.62 3.615 6.4 4.352 11a47.127 47.127 0 0 0-1.35-3.74Zm-39.69 5.282c.532-3.016 2.36-5.336 5.035-6.21 1.65-.532 3.397-.19 5.184 1.024 2.66 1.815 4.803 5.295 4.98 8.092.028.478.014 1.351-.395 1.829-2.293 2.702-4.653 1.733-5.499 1.228l-9.305-5.963Zm.041 4.107 3.48 7.015a45.593 45.593 0 0 0 1.991 3.589c-3.643-4.34-5.007-8.01-5.47-10.604Zm-17.04 29.695a43.262 43.262 0 0 0-3.07-2.333l-6.536-4.517c3.234 1.037 6.508 3.384 9.605 6.85Zm-9.047 2.538s.246.615.3 1.433c.096 1.652-.613 2.852-2.291 3.89-.723.45-2.265.204-3.848-.615-3.274-1.692-5.88-5.171-6.058-8.092a4.835 4.835 0 0 1 .519-2.552c1.255-2.524 3.902-4.053 7.067-4.067h.218l4.093 10.004Zm-25.24 18.11c-.11-1.87.45-3.658 1.569-5.036 2.387-2.934 6.794-1.788 8.09-1.378 3.507 1.132 5.95 3.534 6.045 5.076 0 .082 0 .164-.014.232-.464 3.507-2.974 3.971-3.97 4.012H27.518c-.382-.969-.614-1.938-.668-2.907Zm2.974 6.359 6.7 4.012a43.203 43.203 0 0 0 3.41 1.842c-4.611-1.474-7.954-3.548-10.11-5.854ZM19.796 168.74l7.777-.246a43.793 43.793 0 0 0 4.052-.314c-5.362 1.474-9.25 1.215-11.829.56Zm18.5 37.132c.574 0 3.453.205 3.958 4.108.081 1.351-2.033 3.657-5.294 4.926-2.92 1.133-6.781 1.433-8.855-1.146-.928-1.147-1.46-2.552-1.555-4.067-.082-1.283.177-2.606.723-3.889l11.024.068Zm-2.032-7.478-6.74 3.984c2.347-2.511 5.826-4.489 10.233-5.854a57.508 57.508 0 0 0-3.493 1.87Zm4.011 34.444a4.911 4.911 0 0 1-.505-1.897c-.19-3.262 2.62-6.687 5.499-8.407 2.087-1.241 3.765-1.351 4.448-.928 1.937 1.215 2.224 2.484 2.278 3.33.068 1.065-.273 1.938-.273 1.938l-4.584 10.044c-3.084-.068-5.635-1.597-6.863-4.08Zm10.901 3.493 6.468-4.462a47.966 47.966 0 0 0 3.083-2.32c-3.097 3.411-6.344 5.731-9.55 6.782Zm41.19 22.435c.287.328.369.86.383 1.228.136 2.279-1.515 6.005-4.516 8.311-1.338 1.037-3.425 2.102-5.69 1.351-2.633-.873-4.475-3.207-4.994-6.236l9.32-5.923c.49-.287 3.028-1.679 5.498 1.269Zm-11.228-6.441-3.493 6.96c.491-2.621 1.883-6.25 5.485-10.508a38.855 38.855 0 0 0-1.992 3.548Zm21.98 26.802c-2.02-1.215-2.565-3.466-2.674-5.131-.178-2.989.941-6.414 2.715-8.311.641-.696 1.323-1.092 1.842-1.105 3.533-.041 4.352 2.374 4.529 3.357l1.569 10.93c-2.633 1.583-5.607 1.679-7.981.26Zm11.065-2.975 3.029-7.233a45.55 45.55 0 0 0 1.323-3.589c-.764 4.517-2.238 8.215-4.352 10.822Zm93.499-36.75-.477.041.123-1.461c.109.478.232.956.354 1.42Zm-6.576 15.543a96.163 96.163 0 0 1-.832 3.739 95.776 95.776 0 0 1-3.356-1.842c-7.504-4.285-12.825-8.557-18.392-12.555 6.235.355 10.956-.396 14.353-1.924 3.37-1.556 7.054-4.517 10.888-9.444-.655 6.796-.955 13.592-2.661 22.026Zm55.298-38.511c.873.887 1.733 1.802 2.633 2.552.177.15.355.301.518.451a27.197 27.197 0 0 0-.627-.287c-1.051-.518-2.238-.914-3.411-1.351-.778-.286-1.528-.505-2.306-.737.764-.068 1.528-.136 2.306-.232-.246-.778-.518-1.501-.791-2.252.545.628 1.077 1.242 1.678 1.856Zm-6.044-5.677c.45 1.174.9 2.375 1.323 3.603a92.364 92.364 0 0 1-3.82.273c-8.596.45-15.349-.259-22.157-.614 5.43-3.071 8.909-6.264 10.942-9.375 2.005-3.125 3.438-7.697 4.011-13.92 3.124 6.087 6.576 11.968 9.701 20.033Zm31.175-43.955-7.572-1.965a45.172 45.172 0 0 0-3.997-.846c5.675.095 9.332 1.474 11.569 2.811Zm-5.471-18.341c1.215.273 2.429.573 3.589.723.231.027.463.068.682.096-.219.041-.451.068-.682.095-1.16.137-2.374.437-3.602.696-.778.178-1.542.382-2.279.587.587-.45 1.173-.914 1.76-1.392-.614-.505-1.214-.955-1.828-1.433.778.218 1.555.437 2.36.628Zm-8.145-1.515a94.804 94.804 0 0 1 3.056 2.306 109.584 109.584 0 0 1-3.07 2.293c-7.012 5.049-13.111 8.106-19.06 11.518 2.906-5.527 4.189-10.14 4.216-13.852 0-.354-.014-.709-.041-1.091-.218-3.507-1.487-7.765-4.093-12.787 5.935 3.439 12.006 6.523 18.992 11.613Zm2.319-12.473a42.212 42.212 0 0 0 3.807-.791l7.668-1.965c-2.934 1.76-6.849 2.688-11.475 2.756Zm-13.875.478c-.45-.246-.887-.505-1.337-.751h-.014c.505.096 1.01.191 1.515.273l-.164.478Zm-5.69-47.3c-3.165 8.039-6.644 13.893-9.796 19.966-.532-6.223-1.964-10.781-3.956-13.92-2.02-3.125-5.485-6.332-10.902-9.43 6.809-.313 13.576-.996 22.171-.504 1.256.068 2.538.163 3.821.286a85.711 85.711 0 0 1-1.338 3.603Zm2.893-6.29c.764-.232 1.528-.45 2.306-.724 1.173-.436 2.36-.832 3.411-1.337.204-.095.423-.191.627-.287-.164.15-.341.3-.518.45-.901.751-1.76 1.652-2.647 2.54-.6.6-1.133 1.227-1.678 1.841.273-.75.545-1.473.791-2.238a69.05 69.05 0 0 0-2.292-.245Zm-21.571-1.433a53.94 53.94 0 0 0-1.528.095h-.013c.477-.19.955-.382 1.419-.586l.122.49Zm-38.652-24.195c-3.384-1.529-8.104-2.32-14.339-1.993 5.58-3.957 10.914-8.215 18.446-12.46a97.454 97.454 0 0 1 3.37-1.814c.3 1.255.573 2.51.818 3.739 1.678 8.447 1.924 15.243 2.552 22.026-3.821-4.94-7.477-7.93-10.847-9.498Zm-61.533-22.75a82.362 82.362 0 0 1 1.856-3.356c.928.9 1.828 1.8 2.715 2.715 6.003 6.223 9.891 11.832 14.107 17.222-5.88-2.101-10.628-2.702-14.312-2.197-3.67.532-8.063 2.43-13.139 6.087 2.538-6.373 4.721-12.828 8.773-20.47ZM67.903 54.355c-.586-1.091-1.16-2.21-1.814-3.193-.123-.191-.246-.382-.368-.587.177.15.34.3.518.45.86.792 1.883 1.515 2.892 2.266.683.505 1.378.941 2.06 1.392-.777-.164-1.528-.328-2.332-.464.027.791.068 1.57.095 2.333-.341-.723-.668-1.46-1.05-2.197Zm4.19 7.151c-.07-.833-.137-1.679-.192-2.525-.027-.436-.054-.86-.068-1.296 1.269.246 2.51.519 3.738.819 8.405 1.992 14.708 4.599 21.175 6.864-6.085 1.42-10.41 3.48-13.234 5.882-2.797 2.442-5.485 6.318-7.777 12.118-1.269-6.7-2.92-13.292-3.643-21.862Zm-42.214 52.539c-1.092-.6-2.17-1.242-3.248-1.706-.218-.095-.422-.191-.627-.286.218.027.45.068.682.095 1.16.205 2.401.246 3.643.342.791.054 1.583.068 2.36.081-.695.273-1.391.546-2.087.846.464.669.928 1.297 1.392 1.938-.683-.45-1.365-.9-2.115-1.31Zm-2.21 14.739-7.928-.273c3.261-.846 7.273-.642 11.734.573a43.072 43.072 0 0 0-3.806-.3Zm-2.388 7.341c.014.014 1.678 1.201 1.787 3.044.041.75-.15 1.596-.587 2.511-.545 1.146-3.37 1.992-6.726 1.432-3.11-.532-6.89-2.374-7.272-5.827l-.027-.341c-.164-2.756 1.323-5.39 3.97-7.028l8.855 6.209Zm11.993-18.341a94.212 94.212 0 0 1-2.279-3.084c1.2-.477 2.401-.914 3.588-1.337 8.118-2.852 14.804-4.08 21.434-5.65-4.352 4.476-6.78 8.529-7.858 12.077-.682 2.334-.983 5.159-.778 8.543.11 1.788.41 3.794.832 5.923-4.72-4.954-9.673-9.635-14.94-16.472Zm-21.285 49.292c-2.155-1.474-3.438-3.603-3.588-5.95a7.078 7.078 0 0 1 .027-1.201c.396-3.453 4.175-5.281 7.3-5.8 3.343-.546 6.167.314 6.712 1.46.342.737.533 1.42.574 2.047.122 2.129-1.72 3.439-1.747 3.467l-9.277 5.977Zm10.465 17.863c1.078-.464 2.156-1.092 3.247-1.692.737-.409 1.433-.86 2.129-1.296-.464.641-.942 1.255-1.392 1.924a65.6 65.6 0 0 0 2.088.859c-.778 0-1.556.028-2.36.069-1.242.082-2.497.136-3.657.327-.232.041-.464.068-.682.096.204-.096.422-.191.627-.287Zm11.952-.982a107.211 107.211 0 0 1-3.588-1.351c.75-1.051 1.528-2.075 2.292-3.071 5.294-6.796 10.26-11.449 14.994-16.376-.764 3.753-1.023 7.015-.86 9.771.11 1.733.369 3.289.765 4.667 1.05 3.562 3.56 7.642 7.886 12.146-6.645-1.624-13.357-2.866-21.489-5.786Zm29.975 59.308c.764-.137 1.528-.273 2.278-.423-.668.436-1.337.859-2.005 1.337-.996.737-2.033 1.46-2.892 2.238-.178.15-.355.3-.519.45l.368-.573c.655-.969 1.228-2.088 1.829-3.18.395-.723.71-1.446 1.05-2.169a64.388 64.388 0 0 0-.109 2.32Zm6.74-4.245c-1.228.287-2.483.546-3.752.792.068-1.296.164-2.566.273-3.821.778-8.611 2.456-15.216 3.78-21.944 2.264 5.814 4.925 9.812 7.708 12.255 2.81 2.429 7.122 4.503 13.193 5.95-6.467 2.238-12.784 4.817-21.202 6.768Zm61.082 4.79c-6.398.273-14.243-5.69-17.914-8.843-1.187-2.265-2.496-4.557-4.134-6.973-2.892.328-5.484.833-7.981 1.406-4.775-.737-14.408-2.812-18.378-7.847a2.495 2.495 0 0 1-.246-.328 2.416 2.416 0 0 1-.368-.204c-5.526-3.235-8.91-12.501-10.287-17.127.218-2.552.368-5.185.3-8.092-2.606-1.283-5.062-2.266-7.477-3.139-3.615-3.207-10.601-10.153-11.215-16.54-.014-.081-.014-.163-.014-.245 0-.055 0-.109-.013-.178a4.468 4.468 0 0 1-.205-.368c-.846-1.679-1.269-3.685-1.392-5.813-.313-5.145 1.051-10.904 2.006-14.179 1.57-2.02 3.11-4.162 4.625-6.646-1.5-2.497-3.042-4.64-4.584-6.673-.71-2.539-1.665-6.551-1.91-10.617-.205-3.385.082-6.783 1.419-9.362l.204-.368c0-.137.014-.273.028-.41.641-6.373 7.668-13.291 11.297-16.485 2.415-.86 4.87-1.815 7.49-3.098a72.62 72.62 0 0 0-.095-6.509c-.028-.56-.096-1.078-.15-1.638 1.418-4.64 4.83-13.837 10.369-17.03.122-.069.245-.137.368-.192l.246-.327c3.984-5.022 13.63-7.042 18.418-7.751 2.484.587 5.076 1.105 7.968 1.446 1.651-2.401 2.961-4.694 4.162-6.946 3.683-3.125 11.556-9.047 17.955-8.747.15 0 .286.013.409.027.123-.055.246-.096.382-.15 6.058-2.06 15.267 1.446 19.674 3.439a71.45 71.45 0 0 0 5.921 5.527c2.688-1.133 5.035-2.348 7.259-3.603 4.789-.641 14.626-1.365 19.838 2.347.122.082.232.164.327.246.137.027.259.054.409.082 6.222 1.542 12.061 9.484 14.695 13.537.504 2.511 1.105 5.077 1.992 7.847 2.865.505 5.498.75 8.049.9 4.38 2.061 13.044 6.756 15.418 12.706.054.136.095.259.136.395l.287.287c3.533 3.739 4.638 10.849 4.939 15.994.081 1.255.109 2.388.109 3.329-.928 2.375-1.815 4.872-2.565 7.683 2.142 1.979 4.229 3.603 6.289 5.118 2.183 3.466 5.922 10.207 6.276 16.021a12.09 12.09 0 0 1-.163 3.002c-.028.137-.055.273-.096.41.028.122.068.259.082.409.082.437.137.873.164 1.324.368 6.141-3.957 13.865-6.358 17.672-2.074 1.501-4.161 3.111-6.317 5.076.737 2.825 1.61 5.309 2.524 7.697-.055 4.831-.737 14.67-5.157 19.31a3.053 3.053 0 0 1-.3.287 4.447 4.447 0 0 1-.151.382c-2.414 5.936-11.092 10.589-15.485 12.623-2.551.136-5.185.368-8.05.86a68.976 68.976 0 0 0-2.033 7.846c-2.66 4.04-8.541 11.941-14.762 13.456-.137.027-.273.068-.409.082l-.328.245c-5.239 3.685-15.062 2.907-19.851 2.252-2.224-1.255-4.557-2.484-7.245-3.63-2.251 1.842-4.161 3.671-5.949 5.5-4.42 1.965-13.643 5.431-19.701 3.329a3.096 3.096 0 0 1-.382-.15c-.082.096-.218.109-.369.109Zm-4.979 21.002c-3.998-7.669-6.154-14.137-8.678-20.497 5.048 3.671 9.442 5.595 13.112 6.141 3.684.519 8.432-.068 14.326-2.129-4.244 5.377-8.159 10.959-14.19 17.154a99.803 99.803 0 0 1-2.729 2.702 75.27 75.27 0 0 1-1.841-3.371Zm.477 11.941c.014-.559 0-1.132-.041-1.719-.041-.642-.095-1.297-.136-1.952a43.056 43.056 0 0 0-.26-2.347c.369.641.737 1.297 1.133 1.938.6-.546 1.146-1.092 1.719-1.651-.341.75-.682 1.487-.996 2.279-.437 1.16-.914 2.32-1.228 3.452-.068.219-.136.451-.191.655v-.655Z"/><path d="M265.654 181.827c-2.237-1.692-2.878-5.145-3.028-7.629-.096-1.637.013-2.838.013-2.838-6.781.86-12.661 2.92-17.668 5.595 2.742 4.967 6.549 9.907 11.774 14.315 0 0 3.575-6.809 8.227-7.137 1.951-.136 4.516.205 7.272.901-2.688-.915-5.021-2.02-6.59-3.207Zm-9.577 3.343a46.638 46.638 0 0 1-5.335-6.509 45.569 45.569 0 0 1 8.05-2.552c.273 2.074.805 3.875 1.569 5.404-1.719.969-3.152 2.333-4.284 3.657ZM233.401 245.133c-1.76-2.224-3.124-4.421-3.807-6.264a5.641 5.641 0 0 1-.327-1.583c-.246-4.121 3.438-8.843 3.438-8.843a50.865 50.865 0 0 0-17.887-4.844 50.423 50.423 0 0 0-.013 6.427 51.55 51.55 0 0 0 2.183 11.982s6.685-3.794 10.778-1.556c1.733.942 3.698 2.621 5.635 4.681Zm-14.571-15.352a64.055 64.055 0 0 1-.069-1.638 48.645 48.645 0 0 1 8.159 2.197c-.736 1.583-1.405 3.453-1.596 5.391-1.965-.096-3.916.273-5.58.778a44.946 44.946 0 0 1-.914-6.728ZM168.43 267.377c1.009-4.544 8.268-7.082 8.268-7.082-3.602-5.814-7.914-10.304-12.43-13.756a50.963 50.963 0 0 0-8.131 16.649s7.667.423 9.905 4.517c.941 1.719 1.692 4.189 2.197 6.987a28.935 28.935 0 0 1-.123-1.488c-.123-2.238-.027-4.258.314-5.827Zm-7.013-7.328a46.718 46.718 0 0 1 3.711-7.56 48.153 48.153 0 0 1 5.662 6.236c-1.487.928-3.043 2.143-4.257 3.685-1.61-1.147-3.438-1.883-5.116-2.361ZM112.274 252.707a50.55 50.55 0 0 0-2.934-14.22 50.794 50.794 0 0 0-15.84 9.621s5.621 4.08 5.894 8.475c.014.232.014.45 0 .682-.136 1.951-.846 4.449-1.924 7.069 1.283-2.525 2.715-4.681 4.107-6.059 3.315-3.275 10.778-1.488 10.778-1.488.028-1.392 0-2.743-.081-4.08Zm-12.648-4.394a47.29 47.29 0 0 1 7.204-4.367 47.437 47.437 0 0 1 1.391 8.311c-1.746-.028-3.724.163-5.58.805-.723-1.829-1.869-3.439-3.015-4.749ZM67.468 202.024a50.791 50.791 0 0 0-18.528-.478s1.037 2.661 1.214 5.595c.11 1.87-.123 3.849-1.214 5.295-1.173 1.569-3.11 3.275-5.444 4.899 2.456-1.433 4.816-2.47 6.74-2.879 4.557-.969 9.878 4.571 9.878 4.571 3.807-5.677 6.099-11.463 7.354-17.003Zm-13.507 8.624c.218-1.146.3-2.401.218-3.752a20.124 20.124 0 0 0-.205-1.87 47.25 47.25 0 0 1 8.446.232 47.256 47.256 0 0 1-3.33 7.738c-1.46-.969-3.22-1.87-5.13-2.348ZM30.753 149.853c4.352 1.651 5.84 9.198 5.84 9.198a50.71 50.71 0 0 0 15.375-10.345c-4.038-3.998-9.073-7.655-15.321-10.425 0 0-1.515 7.532-5.88 9.156-1.843.683-4.394 1.078-7.232 1.188 2.824.122 5.376.532 7.218 1.228Zm8.254-5.909a46.68 46.68 0 0 1 6.958 4.749 47.47 47.47 0 0 1-6.985 4.708c-.71-1.597-1.692-3.316-3.043-4.735 1.35-1.42 2.347-3.139 3.07-4.722ZM43.863 80.023c2.32 1.638 4.243 3.357 5.417 4.927.777 1.05 1.119 2.374 1.2 3.725.205 3.466-1.255 7.165-1.255 7.165a50.925 50.925 0 0 0 18.528-.382c-1.241-5.54-3.493-11.34-7.258-17.059 0 0-5.348 5.514-9.905 4.531-1.924-.423-4.285-1.474-6.727-2.907Zm18.828 12.173a47.153 47.153 0 0 1-8.445.191c.191-1.228.3-2.593.218-3.944a15.704 15.704 0 0 0-.204-1.678c1.91-.45 3.67-1.351 5.143-2.32a46.065 46.065 0 0 1 3.288 7.751ZM98.042 33.298c1.065 2.633 1.76 5.117 1.883 7.082v.027c.287 4.64-5.935 9.103-5.935 9.103 5.09 4.571 10.492 7.655 15.8 9.689a51.08 51.08 0 0 0 3.11-18.273s-7.476 1.747-10.778-1.542c-1.378-1.406-2.797-3.562-4.08-6.086Zm10.697 12.118a48.565 48.565 0 0 1-1.419 8.297 46.723 46.723 0 0 1-7.19-4.394c1.16-1.31 2.306-2.907 3.042-4.736 1.842.655 3.821.846 5.567.833ZM156.725 34.73c1.814 6.605 4.693 12.119 8.049 16.69 4.53-3.425 8.869-7.888 12.498-13.687 0 0-7.245-2.58-8.227-7.124a15.925 15.925 0 0 1-.3-2.32c-.096-1.5-.028-3.193.15-4.994-.532 2.784-1.283 5.254-2.238 6.973-2.251 4.067-9.932 4.462-9.932 4.462Zm14.598 4.545a46.29 46.29 0 0 1-5.689 6.209 46.882 46.882 0 0 1-3.67-7.587c1.678-.478 3.52-1.201 5.116-2.334 1.214 1.542 2.77 2.77 4.243 3.712ZM215.214 74.606v.027c5.662-.437 11.72-1.842 17.914-4.763 0 0-3.165-4.094-3.397-7.983-.054-.846.041-1.692.328-2.47.682-1.842 2.06-4.026 3.833-6.236-1.951 2.06-3.929 3.725-5.648 4.653-4.093 2.21-10.765-1.61-10.765-1.61a50.824 50.824 0 0 0-2.265 18.382Zm10.533-12.064c.191 1.938.832 3.821 1.569 5.404a46.073 46.073 0 0 1-8.159 2.156 46.69 46.69 0 0 1 1.01-8.365c1.678.505 3.616.887 5.58.805ZM256.964 107.167c-5.253 4.394-9.073 9.306-11.843 14.26a50.908 50.908 0 0 0 17.641 5.677s0-.068-.013-.191c-.069-1.214-.301-7.724 3.083-10.248 1.569-1.174 3.916-2.266 6.604-3.18-2.756.682-5.321 1.01-7.272.86-4.667-.355-8.2-7.178-8.2-7.178Zm3.561 9.784c-.887 1.733-1.365 3.657-1.597 5.39a47.158 47.158 0 0 1-8.036-2.592 46.138 46.138 0 0 1 5.376-6.482c1.119 1.323 2.551 2.702 4.257 3.684ZM294.798 191.72c-1.582-2.06-5.075-3.902-10.628-4.271-2.715-.177-5.635-.669-8.404-1.378 2.701.914 5.416 2.101 7.79 3.425 4.857 2.729 8.787 3.098 11.242 2.224ZM240.523 255.027c2.606 4.913 5.731 7.342 8.255 7.929-.218-2.593-2.156-6.032-6.631-9.335-2.183-1.61-4.38-3.602-6.331-5.69 1.774 2.238 3.425 4.694 4.707 7.096ZM168.771 278.349a49.1 49.1 0 0 1 .164 2.061 44.13 44.13 0 0 1-.054 6.454 23.613 23.613 0 0 0-.055 3.521c.218 3.63 1.31 6.168 2.702 7.615.668-1.269 1.036-3.03.9-5.227-.109-1.787-.546-3.875-1.433-6.209-.955-2.538-1.719-5.404-2.224-8.215ZM93.363 275.811c.56-2.661 1.46-5.486 2.552-8.12-1.297 2.552-2.852 5.063-4.503 7.219-3.002 3.917-4.052 7.369-3.902 9.88.014.328.055.628.123.914 2.265-1.255 4.584-4.448 5.73-9.893ZM40.399 219.328c-2.47 1.446-5.13 2.729-7.695 3.643-5.226 1.883-8.077 4.626-9.032 7.042 2.592.15 6.276-1.283 10.178-5.24 1.924-1.925 4.216-3.821 6.549-5.445ZM19.838 148.611c-2.852-.123-5.799-.491-8.446-1.092-5.416-1.242-9.29-.477-11.406 1.037 2.101 1.529 5.963 2.32 11.393 1.106 2.66-.587 5.607-.942 8.459-1.051ZM34.245 72.531c-3.889-3.97-7.559-5.431-10.151-5.28.941 2.428 3.765 5.171 8.99 7.082 2.552.928 5.213 2.224 7.669 3.684-2.333-1.65-4.598-3.548-6.508-5.486ZM94.019 21.794c-1.119-5.445-3.425-8.652-5.69-9.935-.122.587-.163 1.242-.122 1.965.15 2.388 1.269 5.459 3.847 8.857 1.638 2.17 3.18 4.694 4.462 7.246-1.065-2.634-1.951-5.472-2.497-8.133ZM169.59 11.122l.04.655c.151 2.525.069 5.24-.204 7.86.518-2.81 1.31-5.663 2.278-8.201 1.201-3.112 1.61-5.786 1.474-7.915-.082-1.42-.41-2.607-.887-3.521-1.76 1.801-3.07 5.363-2.742 10.644l.041.478ZM241.055 43.328c-1.283 2.388-2.947 4.844-4.735 7.069 1.951-2.075 4.162-4.067 6.358-5.663 4.489-3.29 6.44-6.715 6.672-9.308-2.538.587-5.662 3.003-8.295 7.902ZM275.955 112.448c2.77-.696 5.689-1.16 8.405-1.324 5.553-.341 9.045-2.156 10.642-4.217-2.443-.873-6.386-.546-11.243 2.156-2.36 1.31-5.089 2.484-7.804 3.385ZM218.053 193.768c.232 3.834 2.961 7.15 6.726 7.614 2.334.287 3.807-.491 4.708-1.378a4.734 4.734 0 0 0 .286-1.979c-.055-.846-.327-1.815-.969-2.879-2.169-3.576-6.972-4.572-10.751-2.538-.013.395-.013.777 0 1.16Zm7.34 3.466c.041.068.069.123.11.191-.069 0-.137-.014-.219-.027-1.078-.137-2.005-.806-2.592-1.788 1.119.136 2.128.696 2.701 1.624ZM184.653 233.233c1.801 1.502 3.466 1.638 4.707 1.392 1.01-.764 1.992-2.101 2.061-4.462 0-.205 0-.423-.014-.628-.232-3.903-3.588-7.014-7.668-7.328a8.594 8.594 0 0 0-1.719 5.677c.109 2.047.996 3.985 2.633 5.349Zm1.365-5.99c.805.655 1.323 1.555 1.378 2.538 0 .095.013.191 0 .273 0 .082 0 .15-.014.218-.054-.041-.109-.082-.164-.136-.968-.805-1.159-1.911-1.2-2.498a1.861 1.861 0 0 1 0-.395ZM141.02 239.388a7.363 7.363 0 0 0 1.242-4.599c-.136-2.361-1.351-4.694-3.411-6.25-3.452 1.283-5.703 4.599-5.498 8.024.041.587.136 1.16.327 1.747.71 2.238 2.033 3.262 3.206 3.712 1.256-.082 2.811-.682 4.134-2.634Zm-3.52-2.279a4.016 4.016 0 0 1-.15-.778c-.054-.805.219-1.624.696-2.32.109.328.178.683.191 1.024.027.532-.041 1.337-.559 2.101-.041.069-.082.123-.123.178-.014-.068-.027-.137-.055-.205ZM98.193 212.108a8.766 8.766 0 0 0-.518-2.483c-4.203-.915-8.541 1.378-9.633 5.417a7.327 7.327 0 0 0-.259 2.198 4.943 4.943 0 0 0 .942 2.661c1.105.6 2.742.941 4.911.013 3.07-1.31 4.748-4.517 4.557-7.806Zm-6.29 3.972c.287-1.051 1.092-1.856 2.129-2.293-.273 1.01-.9 1.965-1.978 2.429l-.205.082c.027-.068.04-.137.054-.218ZM73.266 171.415c-3.043-3.044-7.927-3.467-11.024-.656-1.747 1.57-2.115 3.194-2.047 4.463.614 1.105 1.801 2.279 4.12 2.675 4.12.696 8.01-2.279 8.95-6.482Zm-8.5 2.483c.054-.054.095-.095.163-.15.805-.723 1.924-.982 3.043-.778-.832.764-1.91 1.147-2.988.969a6.49 6.49 0 0 1-.218-.041ZM64.453 119.571c-2.32.382-3.507 1.542-4.134 2.648a4.822 4.822 0 0 0 0 .627c.068 1.147.56 2.511 2.02 3.849 3.096 2.825 7.967 2.429 11.037-.601-.914-4.216-4.79-7.205-8.923-6.523Zm.6 4.149a.799.799 0 0 1-.15-.15c.068-.014.136-.028.218-.041 1.065-.178 2.142.218 2.975.982-1.12.191-2.252-.054-3.043-.791ZM98.52 84.431c-.177-2.893-1.8-5.554-4.516-6.727-2.156-.928-3.793-.6-4.912 0-.573.778-1.05 1.897-.955 3.398.028.45.11.928.246 1.446 1.078 4.04 5.389 6.36 9.605 5.459.423-1.174.6-2.388.532-3.576Zm-6.276-2.92c-.014-.068-.041-.136-.055-.205l.205.082c1.119.478 1.72 1.474 1.965 2.443-1.023-.45-1.828-1.27-2.115-2.32ZM142.699 62.078a7.426 7.426 0 0 0-1.214-3.63c-1.31-1.951-2.865-2.552-4.12-2.66-1.187.45-2.511 1.46-3.234 3.697a7.072 7.072 0 0 0-.327 2.648c.191 3.084 2.333 5.95 5.471 7.137 2.319-1.747 3.588-4.504 3.424-7.192Zm-4.898-.177a3.148 3.148 0 0 1 .15-1.174c.028-.068.041-.136.069-.204.041.054.081.109.122.177.328.491.505 1.037.546 1.637a4.04 4.04 0 0 1-.205 1.502c-.395-.6-.641-1.256-.682-1.938ZM182.402 71.208a8.73 8.73 0 0 0 1.692 4.64c4.298-.314 7.804-3.726 7.722-7.902 0-.109 0-.218-.013-.327-.123-2.143-1.064-3.398-2.019-4.135-1.242-.26-2.893-.123-4.708 1.364-1.923 1.583-2.81 3.958-2.674 6.36Zm5.403-3.357v.177c.027 1.078-.518 2.102-1.405 2.811-.041-1.173.409-2.224 1.228-2.893.054-.054.109-.095.164-.136.013.013.013.027.013.04ZM218.284 105.57v.054c3.779 2.061 8.582 1.092 10.765-2.483.818-1.324 1.05-2.498.982-3.494a4.556 4.556 0 0 0-.287-1.364c-.9-.887-2.374-1.679-4.707-1.406-4.12.491-7.013 4.408-6.753 8.693Zm7.34-4.531c-.573.928-1.569 1.474-2.688 1.61.587-.968 1.515-1.651 2.592-1.774.082-.013.151-.013.219-.013-.041.054-.082.123-.123.177ZM230.945 149.157c2.06 3.78 6.631 5.554 10.397 3.739 2.115-1.023 2.933-2.47 3.22-3.698-.273-1.228-1.092-2.688-3.193-3.726-3.779-1.842-8.35-.095-10.424 3.685Zm8.65-.082c.069.027.137.068.191.096-.054.027-.122.068-.191.095-.982.464-2.128.396-3.138-.109 1.024-.491 2.17-.56 3.138-.082ZM197.206 164.81a6.373 6.373 0 0 0 2.292-1.338 6.213 6.213 0 0 0-1.201-2.374c-4.884-5.991-12.456-2.115-12.988-1.829.3.532 4.529 7.901 11.897 5.541ZM185.361 138.799c.532.287 8.077 4.203 13.003-1.76.573-.696.968-1.501 1.214-2.375a6.222 6.222 0 0 0-2.292-1.351c-7.354-2.402-11.625 4.954-11.925 5.486ZM136.054 185.648a14.388 14.388 0 0 0-.723-3.698c-.546.204-7.722 3.057-7.299 9.893.027.355.068.71.122 1.079.151.887.492 1.705.996 2.47.901-.11 1.76-.383 2.525-.847 3.902-2.347 4.556-6.1 4.379-8.897ZM174.216 177.91c.164 2.661 1.214 8.093 6.999 9.635.86.232 1.76.259 2.661.109a6.243 6.243 0 0 0 .3-2.334c0-.109-.014-.204-.028-.313-.873-7.683-9.332-8.516-9.946-8.557 0 .137-.027.683.014 1.46ZM131.566 170.691l3.083.191c1.842.109 3.602.491 5.253 1.133a17.38 17.38 0 0 1 4.284 3.248l2.142 2.21 2.688-1.501c1.61-.9 3.302-1.528 5.035-1.883 1.76-.15 3.561 0 5.348.41l3.001.696 1.447-2.73a17.444 17.444 0 0 1 3.22-4.298c1.405-1.079 2.988-1.925 4.734-2.552l2.906-1.038-.246-3.07-.027-.396c-.109-1.706.041-3.37.409-4.967a17.167 17.167 0 0 1 2.606-4.695l1.883-2.442-1.869-2.457a17.291 17.291 0 0 1-2.579-4.708 18.069 18.069 0 0 1-.395-2.729c-.055-.86-.041-1.747.041-2.634l.273-3.07-2.907-1.037a17.545 17.545 0 0 1-4.72-2.566 17.451 17.451 0 0 1-3.193-4.312l-1.432-2.73-3.002.683c-1.801.409-3.602.546-5.362.382a17.068 17.068 0 0 1-5.021-1.911l-2.688-1.514-2.155 2.197a17.31 17.31 0 0 1-4.298 3.22c-1.651.642-3.411 1.01-5.253 1.119l-3.083.178-.628 3.016a17.569 17.569 0 0 1-1.869 5.035 17.33 17.33 0 0 1-3.82 3.78l-2.497 1.815 1.105 2.88a17.36 17.36 0 0 1 1.146 5.172v.082a17.443 17.443 0 0 1-1.173 5.24l-1.119 2.879 2.483 1.829c1.487 1.092 2.77 2.361 3.793 3.794a17.48 17.48 0 0 1 1.856 5.049l.6 3.002Zm.928-10.235a21.171 21.171 0 0 0-4.817-4.872 21.154 21.154 0 0 0 1.447-6.686c0-.11-.014-.219-.014-.328-.123-2.102-.587-4.244-1.405-6.373a21.456 21.456 0 0 0 4.843-4.844 21.557 21.557 0 0 0 2.429-6.401c2.387-.136 4.639-.641 6.685-1.46a20.963 20.963 0 0 0 5.499-4.066 21.594 21.594 0 0 0 6.412 2.388c2.197.218 4.502.082 6.836-.451 1.118 2.116 2.51 3.958 4.106 5.486a21.549 21.549 0 0 0 5.99 3.316 21.188 21.188 0 0 0-.041 3.221c.068 1.242.259 2.456.532 3.616.709 2.088 1.787 4.122 3.247 6.032a21.31 21.31 0 0 0-3.274 6.018 21.177 21.177 0 0 0-.56 6.359c.014.164.028.314.028.478-2.252.805-4.271 1.924-6.004 3.289a21.482 21.482 0 0 0-4.134 5.459c-2.333-.546-4.638-.696-6.835-.478a21.063 21.063 0 0 0-6.426 2.361 21.23 21.23 0 0 0-5.485-4.094 20.89 20.89 0 0 0-6.685-1.488c-.451-2.415-1.269-4.571-2.374-6.482ZM119.914 168.508c-.6-.123-8.936-1.761-11.979 5.349-.354.819-.504 1.706-.491 2.62a6.374 6.374 0 0 0 2.579.655c7.722.232 9.755-8.038 9.891-8.624ZM101.223 146.878a6.364 6.364 0 0 0-1.829 1.938 6.305 6.305 0 0 0 1.815 1.937c6.372 4.381 12.539-1.473 12.975-1.91-.423-.409-6.562-6.305-12.961-1.965ZM110.159 120.567a6.373 6.373 0 0 0-2.579.642c0 .191 0 .382.014.573.041.71.191 1.392.464 2.033 3.001 7.124 11.351 5.541 11.951 5.418-.136-.587-2.114-8.857-9.85-8.666ZM174.353 121.55c0 .014 0 .014 0 0 .614-.041 9.073-.819 9.987-8.502a5.57 5.57 0 0 0 .027-1.064 6.323 6.323 0 0 0-.3-1.583 6.47 6.47 0 0 0-2.661.095c-7.463 1.952-7.094 10.413-7.053 11.054ZM136.245 110.592c-.15-2.525-1.146-5.404-4.339-7.342a6.237 6.237 0 0 0-2.524-.86 6.341 6.341 0 0 0-1.01 2.457c-.136.791-.177 1.528-.136 2.224.368 6.018 6.753 8.584 7.258 8.788.109-.286.914-2.565.751-5.267ZM160.272 193.003c-.273-4.612-4.311-7.806-4.693-8.092-.246.341-2.702 3.753-2.456 7.71.109 1.761.75 3.644 2.346 5.404a6.27 6.27 0 0 0 2.17 1.529 6.278 6.278 0 0 0 1.664-2.075c.792-1.596 1.051-3.097.969-4.476Z"/><path d="m160.832 222.071 1.623-1.092c5.717-3.862 9.032-9.416 10.124-16.949a25.47 25.47 0 0 0 .232-5.254c-.014-.273-.041-.532-.068-.792a26.197 26.197 0 0 0 4.666 3.862c6.385 4.149 12.743 5.309 19.415 3.549l1.896-.505.778-1.802c1.432-3.329 2.046-6.782 1.842-10.262-.191-3.07-1.024-6.25-2.484-9.471-.886-1.937-1.937-3.671-3.151-5.213 1.855.478 3.861.737 6.044.751 7.613.041 13.589-2.416 18.255-7.519l1.323-1.447-.327-1.938c-1.146-6.809-4.803-12.131-11.215-16.253a25.455 25.455 0 0 0-5.444-2.674 24.829 24.829 0 0 0 5.458-2.648c6.426-4.094 10.123-9.389 11.297-16.185l.327-1.924-1.31-1.446c-4.639-5.118-10.601-7.602-18.214-7.602-2.238 0-4.243.26-6.017.683 1.214-1.515 2.265-3.248 3.152-5.159 1.924-4.162 2.783-8.283 2.551-12.227-.15-2.525-.75-5.05-1.801-7.506l-.764-1.8-1.896-.506c-6.672-1.788-13.03-.669-19.429 3.453-1.773 1.146-3.343 2.429-4.693 3.848.136-1.27.163-2.58.082-3.917a24.357 24.357 0 0 0-.219-2.142c-1.05-7.547-4.325-13.1-10.028-17.004l-1.623-1.105-1.869.6c-6.577 2.102-11.325 6.483-14.49 13.415a25.046 25.046 0 0 0-1.869 5.759 25.448 25.448 0 0 0-3.384-5.008c-4.952-5.787-10.724-8.68-17.627-8.884l-1.965-.055-1.242 1.515c-3.833 4.64-5.58 10.194-5.198 16.512.055.846.137 1.706.273 2.607.3 2.088.819 4.053 1.555 5.868-1.623-.956-3.465-1.761-5.566-2.388-7.3-2.184-13.712-1.502-19.633 2.06l-1.678 1.01-.233 1.951a23.403 23.403 0 0 0-.136 4.245c.314 5.131 2.429 10.016 6.317 14.492 1.392 1.597 2.893 2.975 4.475 4.094-1.95.082-3.957.41-5.99.996-7.312 2.116-12.347 6.155-15.39 12.351l-.859 1.76.86 1.76c3.015 6.223 8.022 10.276 15.335 12.432 2.033.601 4.039.942 5.976 1.024a25.149 25.149 0 0 0-4.502 4.08c-4.68 5.35-6.781 11.04-6.4 17.372.028.451.069.901.123 1.351l.219 1.952 1.678 1.023c5.894 3.603 12.307 4.313 19.619 2.17 2.088-.614 3.957-1.419 5.594-2.374-.736 1.801-1.268 3.78-1.582 5.868a29.37 29.37 0 0 0-.3 6.031c.3 4.899 2.019 9.307 5.13 13.101l1.241 1.515 1.965-.041c6.903-.164 12.688-3.03 17.668-8.789a25.123 25.123 0 0 0 3.411-4.981c.355 1.911.969 3.835 1.842 5.759 3.124 6.946 7.845 11.354 14.421 13.483l1.829.56Zm34.354-37.051c1.31 2.88 1.979 5.541 2.129 8.052.177 3.029-.396 5.813-1.528 8.433-5.035 1.324-10.342.778-16.209-3.029-5.839-3.794-8.05-8.68-8.309-12.978-.232-3.93 1.16-7.369 2.906-9.048 4.052-3.139 15.486-3.521 21.011 8.57Zm12.402-29.886c5.881 3.78 8.569 8.393 9.428 13.538-3.52 3.834-8.282 6.25-15.281 6.209-11.488-.055-16.29-7.97-16.618-13.319a7.654 7.654 0 0 1 .178-2.293c1.705-4.831 11.119-11.327 22.293-4.135Zm9.524-25.56c-.887 5.131-3.589 9.73-9.496 13.483-11.215 7.137-20.589.587-22.28-4.244a7.382 7.382 0 0 1-.164-1.16c-.314-5.281 4.366-14.37 16.686-14.37 7.013 0 11.761 2.429 15.254 6.291Zm-37.275-29.995c5.881-3.78 11.188-4.299 16.222-2.948.833 1.966 1.351 4.013 1.488 6.182.191 3.139-.451 6.537-2.183 10.29-5.581 12.063-17.014 11.627-21.039 8.474-1.473-1.433-2.674-4.094-2.865-7.246-.286-4.694 1.692-10.453 8.377-14.752Zm-31.339-8.038c2.906-6.359 7.095-9.675 12.047-11.258 4.298 2.934 7.354 7.314 8.323 14.233.082.628.15 1.242.177 1.829.723 11.872-8.459 17.126-13.302 16.676-3.63-.723-8.705-5.322-9.128-12.405-.15-2.674.355-5.731 1.883-9.075Zm-30.712 10.208a27.55 27.55 0 0 1-.232-2.28c-.355-5.772 1.351-10.152 4.284-13.714 5.198.15 10.137 2.17 14.694 7.478 3.138 3.658 4.462 7.315 4.653 10.631.355 5.827-2.797 10.535-5.69 12.036-4.734 1.856-15.813-.996-17.709-14.151Zm-20.315 25.178c-3.534-4.081-5.103-8.106-5.349-12.118a20.456 20.456 0 0 1 .11-3.535c4.461-2.688 9.7-3.657 16.399-1.651 8.869 2.647 12.143 8.979 12.457 14.07.136 2.224-.3 4.203-1.064 5.54-2.988 4.162-13.849 7.751-22.553-2.306Zm-3.493 32.178c-6.713-1.978-10.587-5.636-12.852-10.33 2.292-4.681 6.18-8.324 12.906-10.262 12.73-3.671 19.866 5.172 20.179 10.289v.055c-.272 5.104-7.476 14.001-20.233 10.248Zm17.505 1.201c3.888-2.879 6.521-7.246 6.74-11.217l.013-.287-.013-.232c-.232-3.957-2.852-8.283-6.686-11.163 4.83-.314 9.401-2.565 11.747-5.799l.123-.178.109-.177c1.201-2.102 1.774-4.858 1.597-7.792a18.364 18.364 0 0 0-1.16-5.309c4.243 2.361 9.319 2.948 13.03 1.488l.191-.082.191-.096c3.233-1.678 6.358-5.65 7.463-10.767 2.401 4.49 6.385 7.533 10.151 8.283l.204.041.205.014c3.888.368 8.432-1.474 11.856-4.79l.232-.232a17.806 17.806 0 0 0-.014 2.552c.232 3.944 1.76 7.656 4.094 9.894l.15.15.163.136c3.138 2.457 8.159 3.357 12.894 2.32-2.443 3.248-3.793 7.247-3.575 10.836.041.641.123 1.255.259 1.842l.055.205.068.204c1.31 3.767 5.048 7.233 9.591 8.912-4.543 1.664-8.309 5.117-9.632 8.87l-.068.204-.055.205c-.259 1.065-.354 2.238-.273 3.466.191 3.166 1.406 6.414 3.534 9.225-4.734-1.064-9.755-.191-12.92 2.252l-.164.123-.15.15c-2.838 2.729-4.434 7.397-4.148 12.2 0 .082.014.15.014.232-.355-.355-.71-.696-1.092-1.023-3.261-2.812-7.463-4.367-10.983-4.067l-.205.014-.204.041c-3.875.75-7.804 3.766-10.192 8.174-1.119-5.309-4.339-9.143-7.408-10.754l-.191-.095-.191-.082c-3.712-1.474-8.787-.914-13.044 1.419.955-2.484 1.337-5.035 1.187-7.437-.123-2.129-.668-4.094-1.555-5.664l-.109-.177-.123-.177c-2.32-3.248-6.876-5.514-11.706-5.855Zm-19.429 26.011c-.04-.382-.082-.751-.095-1.133-.287-4.804 1.146-9.607 5.403-14.479 8.759-10.003 19.592-6.359 22.566-2.211.573 1.01.955 2.375 1.037 3.93.314 5.282-2.661 12.746-12.525 15.639-6.713 1.952-11.952.969-16.386-1.746Zm44.205 18.272c-4.584 5.282-9.523 7.288-14.735 7.41-2.415-2.947-3.97-6.441-4.229-10.808-.096-1.61-.014-3.343.259-5.199 1.951-13.155 13.043-15.953 17.791-14.056 2.579 1.351 5.335 5.24 5.635 10.208.218 3.739-.969 8.106-4.721 12.445Zm11.952 1.747c-1.132-2.524-1.705-4.885-1.828-7.055-.491-8.229 5.226-13.619 9.196-14.397 4.475-.396 12.62 4.094 13.221 14.138a21.697 21.697 0 0 1-.205 4.435c-.996 6.919-4.08 11.285-8.391 14.192-4.953-1.597-9.128-4.94-11.993-11.313Z"/><path d="M162.128 231.309c9.155-4.025 14.967-10.153 18.01-17.017 7.162 2.224 15.608 1.897 24.667-2.347 4.857-7.315 6.658-14.602 6.249-21.289a26.985 26.985 0 0 0-.3-2.77c7.231-2.006 14.148-6.851 19.483-15.312a51.302 51.302 0 0 0-.068-3.261c-.505-8.461-3.507-15.202-7.927-20.197 4.993-5.595 8.2-13.415 8.118-23.417-5.28-8.489-12.184-13.374-19.402-15.407.342-2.129.451-4.326.314-6.578-.341-5.609-2.237-11.545-6.153-17.509-9.032-4.285-17.477-4.653-24.654-2.47-3.015-6.877-8.787-13.032-17.928-17.112-9.919 1.282-17.218 5.526-22.075 11.258-6.249-4.149-14.435-6.21-24.327-4.694-7.654 6.44-11.501 13.96-12.484 21.397-7.504-.109-15.512 2.58-23.003 9.198-1.487 4.817-2.019 9.348-1.76 13.524a30.882 30.882 0 0 0 2.824 11.245c-6.371 3.957-11.651 10.548-14.38 20.183 2.674 9.634 7.927 16.253 14.271 20.251-2.142 4.504-3.247 9.717-2.892 15.517.177 2.934.723 6.018 1.705 9.238 7.463 6.66 15.459 9.389 22.962 9.321.956 7.437 4.762 14.984 12.375 21.466 9.878 1.569 18.078-.45 24.354-4.572 4.83 5.746 12.116 10.031 22.021 11.354Zm-24.218-14.711c-5.648 3.712-12.674 5.131-20.397 4.122-5.785-5.213-9.291-11.477-10.151-18.178l-.45-3.534-3.574.041c-6.754.068-13.44-2.538-19.388-7.56a36.526 36.526 0 0 1-1.228-7.219c-.3-4.872.546-9.43 2.51-13.551l1.529-3.221-3.016-1.897c-5.716-3.589-9.932-9.402-12.224-16.84 2.333-7.424 6.576-13.21 12.306-16.785l3.03-1.883-1.515-3.235c-1.42-3.029-2.252-6.318-2.456-9.77-.218-3.521.218-7.219 1.269-11 5.975-4.981 12.674-7.56 19.428-7.464l3.561.054.478-3.534c.886-6.7 4.42-12.937 10.232-18.123 7.723-.955 14.749.492 20.37 4.23l2.975 1.98 2.305-2.716c4.366-5.145 10.724-8.488 18.406-9.703 7.012 3.37 12.142 8.393 14.858 14.575l1.432 3.275 3.411-1.037c6.467-1.966 13.603-1.351 20.738 1.787 2.947 4.777 4.598 9.69 4.898 14.602.11 1.911.028 3.821-.272 5.704l-.56 3.521 3.438.969c6.495 1.842 12.17 6.223 16.482 12.719-.15 7.778-2.592 14.533-7.081 19.569l-2.374 2.661 2.36 2.675c4.161 4.708 6.494 10.685 6.917 17.781.041.601.055 1.215.069 1.829-4.339 6.468-10.028 10.822-16.536 12.637l-3.439.955.546 3.534c.123.792.205 1.583.259 2.388.369 6.005-1.309 12.009-4.98 17.877-7.135 3.098-14.298 3.685-20.738 1.679l-3.411-1.051-1.446 3.262c-2.742 6.168-7.886 11.163-14.926 14.506-7.681-1.256-14.012-4.626-18.364-9.798l-2.293-2.73-2.988 1.897Z"/><path d="M155.756 113.007c.395-.3 5.048-3.93 4.734-9.116-.068-1.091-.355-2.238-.941-3.452a6.438 6.438 0 0 0-1.651-2.088c-.832.355-1.583.86-2.183 1.528-1.978 2.143-2.511 4.476-2.388 6.564.219 3.466 2.21 6.264 2.429 6.564ZM152.563 163.527c.082-.014.164-.041.232-.055 1.364-.3 2.715-.45 4.066-.491a22.343 22.343 0 0 1 3.056-2.729c.068-.055.136-.096.191-.151l.177-.177a21.922 21.922 0 0 1 3.152-2.62c.245-1.324.6-2.648 1.091-3.944.028-.082.055-.15.082-.232.014-.082.027-.164.055-.232.3-1.351.709-2.661 1.241-3.903a22.117 22.117 0 0 1-1.214-3.916c-.014-.082-.027-.164-.055-.232-.027-.082-.054-.151-.081-.232a21.466 21.466 0 0 1-1.065-3.958 23.806 23.806 0 0 1-3.138-2.634 2.035 2.035 0 0 1-.163-.177 1.012 1.012 0 0 1-.191-.15 24.382 24.382 0 0 1-3.043-2.743 23.258 23.258 0 0 1-4.066-.519c-.082-.013-.163-.041-.232-.054-.082 0-.163-.014-.245-.014a21.947 21.947 0 0 1-4.039-.669 22.994 22.994 0 0 1-3.697 1.761c-.082.027-.15.054-.232.082a22.258 22.258 0 0 1-3.984 1.746 21.941 21.941 0 0 1-2.156 3.48c-.054.068-.095.123-.15.191-.041.069-.082.137-.109.219a22.566 22.566 0 0 1-2.292 3.398c.041.354.068.696.082 1.05a22.76 22.76 0 0 1-.028 3.044c0 .081-.013.163-.013.245 0 .082.013.164.013.246 0 .082.014.15.014.232.082 1.31.041 2.593-.095 3.875a21.793 21.793 0 0 1 2.264 3.412c.041.068.082.137.11.218l.15.192a22.693 22.693 0 0 1 2.142 3.493c1.282.423 2.537.969 3.752 1.638.068.041.136.082.218.122.082.028.15.055.232.082a24.252 24.252 0 0 1 3.684 1.774 22.09 22.09 0 0 1 4.038-.641c.082-.027.164-.027.246-.027Zm-6.153-5.691a28.086 28.086 0 0 0-2.579-1.242 29.093 29.093 0 0 0-1.583-2.388 29.05 29.05 0 0 0-1.501-2.443c.028-.887.028-1.787-.027-2.688 0-.055-.014-.109-.014-.164.069-.969.082-1.924.055-2.866a32.845 32.845 0 0 0 1.514-2.429 32.31 32.31 0 0 0 1.597-2.374 24.63 24.63 0 0 0 2.578-1.228 32.254 32.254 0 0 0 2.62-1.133c.928.164 1.869.287 2.838.368.941.205 1.883.355 2.824.464a28.679 28.679 0 0 0 2.183 1.843 25.4 25.4 0 0 0 2.129 1.91c.231.915.518 1.829.845 2.73.205.941.464 1.869.751 2.756-.3.901-.56 1.815-.764 2.757-.341.9-.628 1.815-.86 2.729a25.226 25.226 0 0 0-2.128 1.911 26.02 26.02 0 0 0-2.197 1.828c-.941.096-1.883.246-2.824.451-.969.068-1.91.191-2.838.354a38.316 38.316 0 0 0-2.619-1.146Z"/></g><defs><clipPath id="a"><path fill="#fff" d="M0 0h299v298H0z"/></clipPath></defs></svg>