<svg width="180" height="189" fill="none" xmlns="http://www.w3.org/2000/svg"><g opacity=".6"><path d="m82.137 70.636 7.727-10.642 7.759 10.642 12.532-4.055v55.775l-12.532-4.088h-.032l-7.727 10.675-7.727-10.643-12.531 4.056V66.581l12.531 4.055ZM110.155 32.122 89.864 59.994 69.606 32.122V15.185L89.864 0l20.291 15.185v16.937Z" fill="#8DC63F"/><path d="m69.606 156.815 20.258-27.872 20.291 27.872v17.067l-20.291 15.055-20.258-15.055v-17.067ZM69.606 32.122V66.58L36.784 55.938 26.85 42.245l7.467-24.205 25.322.39 9.967 13.692Z" fill="#8DC63F"/><path d="m122.687 105.127-12.532 4.056v13.173l-12.532-4.088h-.032l-7.727 10.675-7.727-10.643-4.804-6.619-7.727-10.61-4.772-6.619-7.76-10.642 12.532-4.056V66.58l12.531 4.055 7.727-10.642 7.76 10.642 4.772 6.587 7.759 10.675 4.772 6.554 7.76 10.675Z" fill="#8DC63F"/><path d="m152.976 146.82-7.532 24.076-25.258-.26-10.032-13.822v-34.458l32.79 10.642 10.032 13.822ZM36.783 55.938l20.29 27.872-32.789 10.642-16.103-5.224L0 65.283l20.713-14.601 16.07 5.256Z" fill="#8DC63F"/><path d="m179.759 123.654-20.55 14.634-16.265-5.289-20.258-27.872 32.822-10.675 16.2 5.289 8.051 23.913ZM24.284 94.452l32.79 10.643-20.29 27.904-16.071 5.256L0 123.654l8.181-23.945 16.103-5.257ZM179.759 65.282l-8.051 23.913-16.2 5.257-32.822-10.643 20.258-27.871 16.265-5.29 20.55 14.634Z" fill="#8DC63F"/><path d="m36.784 132.998 32.822-10.642v34.458l-9.966 13.692-25.323.39-7.467-24.205 9.934-13.693Z" fill="#8DC63F"/><path d="m114.927 94.452 7.76 10.675-12.532 4.056v13.173l-12.532-4.088h-.032l-7.694-2.498-12.564-4.089-7.727-2.498-12.532-4.088 7.76-10.643-7.76-10.642 12.532-4.056V66.58l12.531 4.055 7.76 2.531 12.499 4.056 7.759 2.53 12.532 4.057-7.76 10.642Z" fill="#2BB573"/><path d="m114.927 94.452 7.76 10.675-12.532 4.056-7.759 2.531-12.5 4.056-7.759 2.53-12.531 4.056v-13.173l-12.532-4.088 7.76-10.643-7.76-10.642 12.532-4.056 7.727-2.499 12.564-4.088 7.726-2.53 12.532-4.056v13.173l12.532 4.056-7.76 10.642Z" fill="#2BB573"/><path d="m122.687 83.81-7.76 10.642-4.772 6.587-7.759 10.675-4.773 6.554h-.032l-7.727 10.675-7.727-10.643-12.531 4.056v-13.173l-12.532-4.088 7.76-10.643 4.772-6.587 7.727-10.61 4.804-6.619 7.727-10.642 7.76 10.642 12.531-4.055v13.173l12.532 4.056Z" fill="#2BB573"/><path d="m142.944 55.938-32.79 10.642V32.122L120.186 18.3l25.258-.26 7.532 24.075-10.032 13.823Z" fill="#8DC63F"/></g></svg>