<svg width="116" height="116" fill="none" xmlns="http://www.w3.org/2000/svg"><circle opacity=".2" cx="58" cy="58" r="58" fill="#8DC63F"/><g clip-path="url(#a)" fill="#8DC63F"><path d="M25.97 43.947c.294-.305.406-.726.73-1.018.885-.802 1.967-.539 2.995-.576.16-.005.184.13.184.258-.002.163 0 .323 0 .486 0 8.92.006 17.844-.002 26.764 0 1.462.32 2.805 1.276 3.962 1.114 1.349 2.552 2.07 4.31 2.137 2.095.082 4.187.192 6.249.595 3.565.696 6.898 1.916 9.778 4.174.328.258.634.54.885.915-.887-.165-1.77-.35-2.66-.491-3.79-.608-7.603-.663-11.427-.384-3.157.229-6.274.712-9.368 1.378-1.375.294-2.03-.09-2.944-1.56-.005-12.214-.005-24.426-.005-36.64Z"/><path d="M55.761 79.87c-1.593-1.599-3.304-2.882-5.209-3.907-3.005-1.62-6.232-2.563-9.61-3.04a39.342 39.342 0 0 0-4.974-.383c-1.732-.024-2.59-.907-2.59-2.621V37.237c0-1.8.948-2.65 2.77-2.597 3.158.092 6.257.489 9.257 1.509 4.124 1.401 7.521 3.752 9.93 7.395.314.476.472.989.472 1.546.002 11.502.002 23.007 0 34.509.002.053-.016.108-.046.27ZM59.3 79.878v-.784c0-10.976.029-21.95-.035-32.926-.01-1.611.549-2.84 1.521-4.022 3.123-3.802 7.271-5.824 12.017-6.841 2.137-.458 4.305-.62 6.485-.678 1.492-.04 2.443.938 2.443 2.502.003 9.515 0 19.03 0 28.544 0 1.44.003 2.881 0 4.322-.003 1.622-.884 2.519-2.544 2.542-3.054.045-6.06.403-9.009 1.204-4.01 1.092-7.585 2.937-10.553 5.855-.072.071-.15.132-.325.282Z"/><path d="M62.715 81.605c.882-.957 1.937-1.677 3.048-2.319 2.8-1.62 5.86-2.487 9.049-2.957 1.588-.234 3.192-.277 4.79-.36 2.691-.14 4.698-1.718 5.438-4.252.184-.63.19-1.283.192-1.932.003-8.905.008-17.81-.013-26.714 0-.56.104-.712.717-.75 2.456-.144 3.24 1.008 3.229 3.172-.056 11.399-.024 22.798-.027 34.195 0 1.864-1.223 2.83-3.07 2.438-.402-.085-.801-.174-1.204-.253-5.712-1.151-11.47-1.58-17.28-1.02a47.654 47.654 0 0 0-4.869.752Z"/></g><defs><clipPath id="a"><path fill="#fff" transform="translate(25.97 34.627)" d="M0 0h63.194v47.612H0z"/></clipPath></defs></svg>