<svg width="23" height="21" fill="none" xmlns="http://www.w3.org/2000/svg"><g clip-path="url(#a)" fill="#8DC63F"><path d="M9.14 18.03c-.097-.155-.192-.31-.29-.465-1.656-2.638-3.518-5.14-5.363-7.652a53.202 53.202 0 0 0-.747-.997c-.075-.096-.08-.157.015-.248.482-.456.963-.913 1.43-1.385.14-.14.219-.057.324.014 1.46.996 2.922 1.99 4.378 2.992.17.118.246.111.377-.052 2.218-2.781 4.654-5.362 7.393-7.663C17.7 1.696 18.78.86 19.937.125a.757.757 0 0 1 .433-.124c.8.006 1.602.002 2.403.002h.215c.036.077-.014.097-.041.121-2.491 2.127-4.581 4.603-6.554 7.18-2.584 3.373-4.934 6.9-7.105 10.54-.037.061-.053.142-.149.187ZM1.99 3.16a.39.39 0 0 1 .398.405.404.404 0 0 1-.42.39c-.203-.007-.394-.2-.394-.397 0-.22.188-.398.415-.397ZM10.333 3.568c-.007.21-.22.4-.43.387a.403.403 0 0 1-.383-.425.395.395 0 0 1 .41-.369c.226.003.41.188.403.407ZM3.563 3.956c-.218-.007-.408-.206-.399-.417.01-.22.203-.39.43-.378.215.01.39.19.387.396a.423.423 0 0 1-.418.399ZM4.76 3.542a.39.39 0 0 1 .42-.38c.216.01.391.186.39.393a.424.424 0 0 1-.416.4.4.4 0 0 1-.394-.413ZM8.314 3.956c-.215-.014-.403-.223-.387-.43a.408.408 0 0 1 .444-.364.4.4 0 0 1 .372.409.418.418 0 0 1-.43.385Z"/><path d="M13.502 3.555a.404.404 0 0 1-.41.4c-.203-.001-.397-.188-.404-.386a.404.404 0 0 1 .402-.408c.23-.003.41.17.412.394ZM17.855 14.805a.423.423 0 0 1-.404-.412.404.404 0 0 1 .402-.382.39.39 0 0 1 .409.393.4.4 0 0 1-.407.4ZM2.387 20.612A.396.396 0 0 1 1.97 21c-.208-.007-.395-.192-.395-.391a.4.4 0 0 1 .413-.395.388.388 0 0 1 .4.4ZM7.148 3.547a.4.4 0 0 1-.398.409.422.422 0 0 1-.41-.406c0-.203.18-.381.394-.39a.39.39 0 0 1 .414.387ZM18.261 19.052a.4.4 0 0 1-.405.402.423.423 0 0 1-.405-.411c.004-.202.192-.383.401-.386a.396.396 0 0 1 .409.395ZM17.867 11.695c-.231.002-.417-.172-.416-.39a.421.421 0 0 1 .415-.402.403.403 0 0 1 .396.388.387.387 0 0 1-.395.404ZM10.334 20.604c.002.209-.2.4-.417.396a.402.402 0 0 1-.397-.384.387.387 0 0 1 .397-.402.4.4 0 0 1 .417.39ZM18.261 17.502a.394.394 0 0 1-.406.397.413.413 0 0 1-.404-.382.422.422 0 0 1 .402-.414.401.401 0 0 1 .408.4ZM8.743 20.6c.003.214-.19.401-.411.4a.417.417 0 0 1-.406-.381c-.01-.215.172-.4.4-.405a.397.397 0 0 1 .417.387ZM15.097 20.604c0 .213-.2.4-.417.396a.41.41 0 0 1-.4-.384.395.395 0 0 1 .4-.402c.232-.002.418.172.417.39ZM18.261 8.206a.4.4 0 0 1-.409.398.422.422 0 0 1-.4-.415c.006-.198.2-.382.405-.383.227 0 .406.178.404.4ZM18.261 12.848a.398.398 0 0 1-.4.404c-.205.002-.401-.18-.41-.379a.42.42 0 0 1 .398-.418.4.4 0 0 1 .412.393ZM18.26 9.761a.399.399 0 0 1-.413.392c-.22-.009-.406-.204-.395-.416a.4.4 0 0 1 .407-.373c.232 0 .406.17.402.397ZM.795 3.55a.402.402 0 0 1-.398.407c-.22 0-.4-.185-.397-.409a.387.387 0 0 1 .386-.387.388.388 0 0 1 .41.39ZM11.908 3.547a.4.4 0 0 1-.395.41.4.4 0 0 1-.4-.404.386.386 0 0 1 .382-.392c.23-.008.409.16.413.386ZM.795 6.66a.388.388 0 0 1-.411.388A.388.388 0 0 1 0 6.633a.4.4 0 0 1 .398-.38c.221 0 .4.184.397.408ZM.803 8.202a.415.415 0 0 1-.408.404.4.4 0 0 1-.006-.799.41.41 0 0 1 .414.395ZM3.984 20.601A.416.416 0 0 1 3.57 21a.412.412 0 0 1-.404-.407.398.398 0 0 1 .4-.379.4.4 0 0 1 .418.387ZM5.166 20.214c.23.003.411.184.403.402a.409.409 0 0 1-.4.383.394.394 0 0 1-.41-.394.385.385 0 0 1 .407-.39ZM.405 13.252A.397.397 0 0 1 0 12.854c0-.213.165-.388.379-.399a.413.413 0 0 1 .425.386.411.411 0 0 1-.4.411ZM.386 17.898A.39.39 0 0 1 0 17.485a.4.4 0 0 1 .395-.383.4.4 0 0 1 .4.405.389.389 0 0 1-.409.391ZM13.502 20.596a.405.405 0 0 1-.404.403.419.419 0 0 1-.41-.375.398.398 0 0 1 .395-.41c.233-.007.415.159.419.382ZM16.682 20.61a.408.408 0 0 1-.42.389.39.39 0 0 1-.389-.412.384.384 0 0 1 .4-.373c.23 0 .413.178.409.396ZM17.861 20.214c.233 0 .405.17.4.398a.395.395 0 0 1-.415.387.41.41 0 0 1-.395-.389.4.4 0 0 1 .41-.396ZM18.262 15.958c-.002.225-.18.39-.413.384a.396.396 0 0 1-.398-.381.396.396 0 0 1 .407-.395c.24 0 .407.162.404.392ZM.794 19.051a.4.4 0 0 1-.4.404.4.4 0 0 1-.006-.798.392.392 0 0 1 .406.394ZM.795 14.393a.397.397 0 1 1-.795.01c0-.218.161-.384.38-.392.235-.009.41.153.415.383ZM.395 10.903c.223-.001.401.178.4.404 0 .23-.171.393-.407.388A.385.385 0 0 1 0 11.312a.398.398 0 0 1 .395-.409ZM6.757 20.214a.383.383 0 0 1 .39.406c-.008.219-.17.37-.397.371-.23.002-.414-.172-.412-.39a.399.399 0 0 1 .419-.387ZM.794 9.764a.394.394 0 0 1-.412.389.396.396 0 0 1-.382-.42.384.384 0 0 1 .4-.37c.236.003.4.169.394.4ZM.397 4.716c.239 0 .404.166.398.4-.006.223-.168.377-.397.377-.239 0-.403-.166-.398-.4.006-.223.167-.376.397-.377ZM.386 20.99c-.239-.005-.398-.175-.385-.412.01-.22.179-.37.408-.364a.376.376 0 0 1 .385.412c-.012.222-.178.37-.408.365ZM11.909 20.609c-.004.233-.176.39-.418.38a.374.374 0 0 1-.378-.394c.004-.232.177-.39.418-.38a.376.376 0 0 1 .378.394ZM.396 15.565c.23 0 .392.152.399.374.007.236-.157.402-.396.404-.237 0-.404-.166-.399-.4.006-.223.167-.377.396-.378Z"/></g><defs><clipPath id="a"><path fill="#fff" d="M0 0h23v21H0z"/></clipPath></defs></svg>