<svg width="252" height="93" fill="none" xmlns="http://www.w3.org/2000/svg"><g filter="url(#a)"><g clip-path="url(#b)"><path d="M32.022 8.646c.73 2.76 3.184 4.23 4.836 6.292.93 1.16 1.387 2.236 1.356 3.707a285.412 285.412 0 0 0 0 11.704c.023 1.311-.152 2.403-1.295 3.199-1.302.91-1.112 1.834.061 2.683 1.463 1.061 1.554 2.07-.008 3.123-1.249.842-1.249 1.744-.03 2.638 1.226.91 1.523 2.123 1.485 3.616-.091 3.82-.045 7.648-.015 11.477.008.553-.365 1.334.396 1.614.556.205.968-.386 1.333-.743 4.204-4.078 8.462-8.134 8.553-14.6 0-.083.206-.166.374-.303.152.106.457.213.464.341.396 6.542 4.479 10.893 9.072 14.85 2.087 1.79 4.463 3.245 6.733 4.821 5.537 3.866 10.13 8.445 11.73 15.305.281 1.205.464 2.426.357 3.638-.121 1.479.51 1.797 1.866 1.782 4.692-.068 9.384-.023 14.076-.015.274 0 .54.068 1.104.151-1.873.607-87.926.72-90.462-.159h6.238c3 0 6.002-.038 8.995.015 1.173.023 1.638-.34 1.615-1.561-.069-3.783 1.135-7.224 3.183-10.37.595-.91.656-1.827.656-2.828-.016-7.792.022-15.6-.038-23.4-.016-1.493.266-2.699 1.5-3.593 1.226-.887 1.257-1.789-.008-2.653-1.477-1.016-1.6-2.024-.053-3.093 1.379-.947 1.272-1.895-.03-2.827-1.036-.743-1.272-1.759-1.257-3.002.068-3.904.099-7.808-.008-11.704-.045-1.592.442-2.767 1.554-3.866 1.584-1.562 3.054-3.23 4.578-4.852.8-.12.449-1.144 1.089-1.387ZM56.898 61.02c-.069.394.045.599.487.47l-.03-.008c-.008.212-.107.508 0 .63 4.928 5.965 7.32 12.818 7.327 20.512 0 .886.48 1.228 1.31 1.19 2.597-.122 5.21.318 7.784-.273 1.714.788 2.156-.015 2.118-1.607-.183-6.633-3.71-11.401-8.668-15.328-.343-.273-.731-1.614-1.706-.636-.876-.683-1.5-1.759-2.788-1.827l.023-.091c.304-1.281-.96-1.122-1.5-1.622-2.53-2.07-5.058-4.147-7.587-6.216-.114.151-.228.303-.35.447.853 1.16 1.706 2.312 2.559 3.472.19.159.373.318.564.477l-.046-.03c.023.326.137.546.525.455l-.022-.015Zm-15.15-.463-.023.015c.412.122.51-.113.526-.454l-.046.03c.358.015.472-.243.579-.508.876-1.069 1.866-2.077 2.08-3.775-1.989 1.706-3.71 3.32-5.576 4.745-2.468 1.895-5.057 3.639-7.586 5.45-1.798 1.092-3.13 2.676-4.502 4.208-2.962 3.305-4.615 7.148-4.798 11.598-.053 1.349.206 2.342 1.92 1.842 2.376.037 4.76-.023 7.12.159 1.86.144 2.301-.523 2.316-2.312.061-6.936 2.21-13.182 6.657-18.602.442-.531 1.265-.97.899-1.918h-.046c.473.159.572-.06.48-.478Zm-9.734-48.271.023.015c-.107-.144-.206-.28-.312-.425-.069.13-.137.258-.214.387-.616-.379-.685.205-.914.508l.016-.015c-.9.978-2.3 1.592-2.37 3.191l.016-.008c-.487-.174-.647-.022-.457.463-1.12-.197-1.317.667-1.325 1.372-.053 4.404-.152 8.823.046 13.22.053 1.205.807 2.714 2.734 2.032 2.041-1.039-.13-1.986-.1-3.01.115-3.881.024-7.77.054-11.658.015-1.456 1.112-2.396 2.148-3.055.754-.478 1.402.606 2.049 1.091.183.781.518 1.57.518 2.35.015 4.154-.046 8.316-.084 12.47-.77.69-.145 1.288.274 1.683.404.379 1.006.106 1.47-.213.838-.576 1.067-1.372 1.051-2.365-.045-2.736-.327-5.51.054-8.194.61-4.23-1.28-7.103-4.319-9.574-.114-.09-.236-.174-.358-.265Zm.213 23.613c1.295-.706 1.204-1.403-.015-2.093-.944-1.205-1.394-.045-1.942.432-.67.584-.198 1.092.251 1.524.518.508 1.036 1.372 1.706.136ZM50.98 55.47c-.054-.591-.26-1.092-.884-1.6v2.525l.023.91v3.236c-.023 6.481-.069 12.955-.053 19.436 0 1.19-.328 2.426.281 3.578 3.572.591 7.152.288 10.732.151 1.539.448 1.98-.174 1.973-1.698-.046-7.92-2.834-14.682-8.386-20.337.053-.235-.038-.326-.274-.266-1.135-1.978-2.278-3.957-3.413-5.935ZM31.655 17.576c-.982.068-.967.819-.967 1.486-.015 3.35-.015 6.7 0 10.051 0 .667-.046 1.44.975 1.463.777-.227.754-.887.754-1.486.015-3.35.015-6.708 0-10.059 0-.591.046-1.258-.762-1.455Zm4.639 43.155c.708-.698.403-1.585.411-2.388.03-4.033.03-8.073 0-12.106-.008-.803.282-1.69-.404-2.395-.48-.842-1.013-1.327-1.028.151-.046 5.435-.023 10.863-.008 16.298.008.819.275 1.266 1.029.44Zm-5.492 3.843c2.483-1.016 3.138-2.85 2.986-5.45-.221-3.806-.061-7.634-.061-11.447 0-3.229 0-3.229-2.887-3.48-.29-.431-.533-1.083-1.12-.992-.594.09-.358.743-.358 1.152-.015 6.625-.015 13.243.008 19.868 0 .387-.297 1.054.358 1.092.35.022.716-.478 1.074-.743ZM48.428 57V53.59c-2.11 4.42-5.11 8.088-7.952 11.886-3.648 4.874-5.149 10.506-5.255 16.548-.023 1.493.343 2.251 1.972 1.584 3.222.371 6.452.16 9.674.197 1.302.015 1.706-.523 1.69-1.789-.083-8.346-.091-16.677-.13-25.015ZM26.18 68.508c1.317-.5 1.546-1.243 1.546-2.024.015-7.755.008-15.502.008-23.423-1.539.515-1.57 1.607-1.562 2.774.023 4.738.008 9.476.008 14.213v8.46Zm10.092-30.92c-.556-.447-1.097-1.22-1.714-1.296-.86-.099-1.607.773-1.645 1.538-.03.683.77 1.41 1.5 1.501.846.106 1.12-.841 1.859-1.743Zm-4.89 4.715c.868-.182 1.379-.857 1.432-1.57.053-.757-.51-1.584-1.318-1.584-.77-.007-1.455.804-1.515 1.479-.061.727.746 1.243 1.4 1.675Zm-2.11-4.518c-.152-.553.198-1.5-.655-1.463-.724.038-1.462.773-1.47 1.524-.007.636.693 1.334 1.348 1.402 1.143.121.48-.985.777-1.463Z" fill="#3C1E1B"/><path d="M32.022 8.646c-.64.25-.297 1.266-1.105 1.387.092-.833.084-1.69.305-2.486.328-1.175.328-1.994-.86-2.843-1.257-.91-1.227-2.19-.442-4.116 1.058 3.298 1.591 3.737 4.775 3.874-2.78 2.365-2.78 2.365-2.673 4.184Z" fill="#402424"/><path d="M48.427 57.001c.038 8.338.046 16.677.13 25.007.015 1.266-.389 1.805-1.691 1.79-3.222-.03-6.451.174-9.673-.198-.587-7.087 1.561-13.386 5.773-19.003 1.866-2.502 3.8-4.95 5.461-7.596ZM41.306 61.034c.366.94-.457 1.38-.899 1.918-4.448 5.42-6.596 11.666-6.657 18.602-.015 1.789-.464 2.456-2.315 2.312-2.361-.182-4.745-.114-7.122-.152-.396-3.138.313-6.064 1.669-8.876 1.56-3.237 4.052-5.731 6.542-8.225 2.97-1.812 5.606-4.116 8.782-5.58ZM50.347 83.555c-.601-1.152-.274-2.388-.281-3.578-.016-6.474.03-12.955.053-19.428.693 0 1.112.47 1.516.924 4.448 4.98 7 10.78 7.632 17.42 0 1.395-.008 2.782-.008 4.177-2.932.932-5.956.053-8.912.485ZM73.775 83.54c-2.574.59-5.194.151-7.784.273-.83.037-1.31-.304-1.31-1.19-.007-7.702-2.407-14.555-7.327-20.513-.107-.121 0-.417 0-.629 1.493.144 2.277 1.645 3.694 1.925l.533.35c.305.37.625.681 1.15.393 1.288.06 1.912 1.137 2.788 1.827-.312 1.13.792 1.342 1.31 1.872 4.296 4.367 7.525 9.188 6.947 15.692ZM33.415 16.393c-.647-.477-1.287-1.569-2.049-1.091-1.043.66-2.14 1.591-2.148 3.055-.03 3.888.061 7.77-.053 11.658-.03 1.016 2.14 1.97.099 3.002-1.142-.735-1.493-1.759-1.47-3.116.076-4.502.023-8.997.023-13.5.472.167.602-.015.457-.463l-.015.008c1.812-.887 2.452-1.743 2.368-3.191l-.015.015c.77.652.922.22.914-.508.16.197.335.205.518.03l-.023-.015.366.273c3.039 2.479 4.92 5.344 4.319 9.574-.381 2.683-.107 5.458-.054 8.194.015.993-.213 1.79-1.051 2.365-.465.319-1.066.592-1.47.213-.419-.395-1.036-.993-.274-1.683 1.089 0 1.394-.584 1.386-1.607-.046-3.662-.023-7.323-.015-10.984 0-1.243-.564-2.001-1.813-2.229ZM30.848 44.198c2.887.25 2.887.25 2.887 3.48 0 3.82-.168 7.648.06 11.446.153 2.592-.51 4.434-2.985 5.442-.16-6.784-.244-13.576.038-20.368Z" fill="#8DC63F"/><path d="M48.428 57.001c-1.661 2.646-3.596 5.102-5.47 7.596-4.211 5.617-6.36 11.916-5.773 19.003-1.63.667-2.003-.09-1.972-1.584.106-6.041 1.607-11.666 5.255-16.548 2.841-3.798 5.842-7.474 7.952-11.886.008 1.145.008 2.282.008 3.419Z" fill="#EDE6DE"/><path d="M59.266 78.878c-.633-6.633-3.176-12.44-7.632-17.42-.404-.455-.823-.925-1.516-.925v-3.236c1.028 1.364 2.034 2.744 3.085 4.078.442.56.487.53 1.18.015.237-.06.328.03.275.265-1.12 1.031.099 1.645.525 2.236 4.28 5.928 6.413 12.462 5.888 19.793-3.58.136-7.16.447-10.732-.152 2.955-.424 5.98.455 8.904-.493 1.302-1.228 1.302-2.88.023-4.161Z" fill="#81B53A"/><path d="M26.18 68.508v-8.46c0-4.737.014-9.475-.008-14.213-.008-1.175.03-2.259 1.56-2.774 0 7.921.009 15.668-.007 23.423 0 .78-.22 1.524-1.546 2.024Z" fill="#CFC1A7"/><path d="M61.08 83.7c.525-7.331-1.608-13.865-5.889-19.793-.426-.599-1.645-1.205-.525-2.236 5.56 5.655 8.34 12.416 8.386 20.338.008 1.516-.434 2.137-1.973 1.69Z" fill="#8DC63F"/><path d="M73.776 83.54c.586-6.504-2.643-11.325-6.946-15.7-.518-.53-1.623-.734-1.31-1.871.967-.978 1.363.363 1.706.636 4.95 3.927 8.485 8.695 8.667 15.328.038 1.592-.403 2.387-2.117 1.607Z" fill="#F2ECE6"/><path d="M32.524 66.598c-2.49 2.494-4.981 4.988-6.543 8.224-1.355 2.813-2.064 5.746-1.668 8.877-1.713.5-1.972-.485-1.92-1.842.184-4.45 1.837-8.293 4.8-11.598 1.37-1.531 2.703-3.115 4.5-4.207.382.03.686.174.831.546Z" fill="#EDE6DE"/><path d="M30.849 44.198c-.29 6.792-.206 13.584-.046 20.376-.358.265-.731.765-1.066.743-.655-.046-.358-.705-.358-1.092-.023-6.625-.016-13.243-.008-19.868 0-.41-.236-1.061.358-1.152.587-.091.83.56 1.12.993ZM27.81 16.4c0 4.504.053 9.006-.023 13.501-.023 1.357.327 2.38 1.47 3.116-1.927.682-2.681-.826-2.735-2.032-.198-4.396-.099-8.816-.045-13.22.015-.697.22-1.561 1.333-1.364Z" fill="#E0DBDA"/><path d="M33.415 16.393c1.25.228 1.813.986 1.805 2.229-.007 3.661-.03 7.323.015 10.984.016 1.023-.289 1.607-1.386 1.607.038-4.154.1-8.316.084-12.47 0-.788-.335-1.569-.518-2.35Z" fill="#F9F8F8"/><path d="M32.525 66.598c-.153-.372-.457-.516-.83-.538 2.536-1.812 5.118-3.556 7.586-5.45 1.866-1.426 3.58-3.04 5.575-4.746-.213 1.706-1.204 2.714-2.08 3.775-.304.045-.533.174-.578.508 0 0 .045-.03.045-.023-.297.008-.502.129-.525.455l.023-.015c-.313 0-.51.129-.48.47h.045c-3.176 1.463-5.811 3.767-8.781 5.564Z" fill="#E8DDD1"/><path d="M36.295 60.73c-.754.827-1.02.38-1.029-.431-.015-5.436-.038-10.87.008-16.298.015-1.478.548-.993 1.028-.152 0 5.625 0 11.257-.007 16.882Z" fill="#EDE6DE"/><path d="M61.048 63.406c-1.424-.28-2.2-1.781-3.694-1.925l.03.008c.023-.342-.175-.47-.487-.47l.023.015c-.03-.319-.236-.44-.526-.455l.046.03c-.06-.31-.266-.447-.563-.47-.854-1.16-1.707-2.312-2.56-3.472.115-.151.229-.303.35-.447 2.53 2.07 5.058 4.147 7.587 6.216l-.206.97Z" fill="#E8DDD1"/><path d="M31.663 30.576c-1.02-.03-.975-.796-.975-1.463-.015-3.35-.015-6.7 0-10.051 0-.675-.015-1.418.968-1.486 0 4.328.007 8.664.007 13Z" fill="#E0DBDA"/><path d="M31.664 30.576c-.008-4.336-.008-8.672-.008-13.008.808.197.762.872.77 1.463.015 3.35.015 6.709 0 10.06-.008.598.015 1.258-.762 1.485Z" fill="#CBA840"/><path d="M54.392 61.398c-.693.508-.74.546-1.18-.015-1.052-1.342-2.065-2.722-3.086-4.079l-.023-.91c.298-.31.587-.613.884-.924 1.127 1.978 2.27 3.957 3.405 5.928Z" fill="#F2ECE6"/><path d="M36.295 60.73c.008-5.624.008-11.256.015-16.88.686.704.396 1.584.404 2.395.03 4.033.03 8.073 0 12.105-.015.796.29 1.683-.42 2.38Z" fill="#8DC63F"/><path d="M36.271 37.588c-.739.902-1.013 1.85-1.858 1.743-.731-.09-1.539-.818-1.5-1.5.038-.766.784-1.638 1.645-1.54.617.076 1.157.842 1.713 1.297ZM31.381 42.303c-.655-.432-1.462-.94-1.401-1.675.06-.675.746-1.486 1.515-1.478.808.007 1.38.826 1.318 1.584-.046.712-.563 1.38-1.432 1.569Z" fill="#CFC1A7"/><path d="M29.272 37.785c-.304.485.366 1.584-.784 1.47-.655-.068-1.356-.765-1.348-1.402.007-.75.746-1.493 1.47-1.523.86-.046.518.901.662 1.455Z" fill="#E8DDD1"/><path d="M32.228 35.898c-.67 1.235-1.189.371-1.707-.137-.449-.432-.913-.94-.25-1.524.54-.47.997-1.637 1.941-.432-1.21.713-1.127 1.403.016 2.093Z" fill="#CFC1A7"/><path d="M32.227 35.898c-1.142-.69-1.226-1.388-.015-2.093 1.219.69 1.31 1.388.015 2.093Z" fill="#8DC63F"/><path d="M30.628 12.755c.083 1.448-.556 2.304-2.37 3.191.062-1.6 1.463-2.213 2.37-3.191Z" fill="#E0DBDA"/><path d="M50.98 55.47c-.298.31-.587.614-.884.925V53.87c.624.508.838 1.009.883 1.6Z" fill="#E8DDD1"/><path d="M61.049 63.407c.068-.326.137-.645.206-.97.54.5 1.805.34 1.5 1.621a53.388 53.388 0 0 1-1.173-.303c-.183-.113-.358-.235-.533-.348Z" fill="#F2ECE6"/><path d="M31.518 12.262c.008.728-.144 1.167-.913.508.228-.303.304-.887.913-.508Z" fill="#E0DBDA"/><path d="M61.582 63.755c.389.099.785.205 1.173.303l-.023.091c-.525.288-.853-.022-1.15-.394Z" fill="#E8DDD1"/><path d="M32.036 12.292c-.182.175-.358.16-.517-.03.068-.129.137-.258.213-.386.099.136.206.28.304.416Z" fill="#E0DBDA"/><path d="M32.38 12.55c-.123-.09-.245-.182-.366-.273.121.099.243.182.365.273ZM28.266 15.938c.145.448.015.63-.457.463-.183-.485-.03-.637.457-.463Z" fill="#E0DBDA"/><path d="M59.266 78.878c1.288 1.281 1.28 2.933-.007 4.177 0-1.388 0-2.782.007-4.177Z" fill="#8DC63F"/></g><path d="M104.422 82.785V44.542h6.497v16.094h18.387V44.542h6.47v38.243h-6.47V66.638h-18.387v16.147h-6.497ZM151.477 83.582c-2.103 0-3.882-.39-5.338-1.169-1.456-.797-2.561-1.85-3.316-3.16-.737-1.31-1.106-2.754-1.106-4.33 0-1.38.234-2.62.701-3.717a7.353 7.353 0 0 1 2.157-2.869c.971-.814 2.229-1.478 3.774-1.991 1.169-.372 2.535-.709 4.098-1.01a97.18 97.18 0 0 1 5.123-.823c1.851-.266 3.783-.549 5.796-.85l-2.318 1.302c.018-1.983-.432-3.444-1.348-4.383-.917-.938-2.463-1.407-4.637-1.407-1.313 0-2.58.301-3.802.903-1.222.602-2.076 1.638-2.561 3.107l-5.931-1.832c.719-2.426 2.085-4.373 4.098-5.843 2.031-1.47 4.763-2.204 8.196-2.204 2.588 0 4.861.416 6.82 1.248 1.977.832 3.442 2.195 4.395 4.09a8.637 8.637 0 0 1 .944 3.107c.107 1.045.161 2.187.161 3.426v17.608h-5.688V76.57l.943 1.01c-1.312 2.071-2.848 3.594-4.61 4.567-1.743.957-3.927 1.435-6.551 1.435Zm1.294-5.1c1.474 0 2.732-.256 3.774-.77 1.043-.513 1.87-1.142 2.481-1.885.629-.744 1.051-1.443 1.267-2.098.341-.815.53-1.744.566-2.789.054-1.062.081-1.92.081-2.576l1.995.584c-1.959.301-3.64.567-5.042.797-1.402.23-2.606.451-3.612.664a23.23 23.23 0 0 0-2.669.664c-.755.266-1.393.575-1.915.93-.521.353-.925.76-1.213 1.221-.269.46-.404 1-.404 1.62 0 .708.18 1.337.539 1.886.36.53.881.956 1.564 1.274.701.32 1.563.478 2.588.478ZM176.936 82.785V53.65c0-.726.027-1.523.081-2.39.054-.886.207-1.762.459-2.63.251-.867.71-1.655 1.375-2.363.826-.903 1.716-1.523 2.669-1.86a9.347 9.347 0 0 1 2.857-.584c.935-.053 1.753-.08 2.454-.08h3.639v5.206h-3.37c-1.24 0-2.165.31-2.777.93-.593.602-.889 1.398-.889 2.39v30.515h-6.498Zm-4.691-23.663v-5.02h18.225v5.02h-18.225ZM206.022 83.582c-3.594 0-6.515-.797-8.762-2.39-2.246-1.594-3.612-3.834-4.097-6.72l6.632-1.009c.341 1.416 1.096 2.532 2.264 3.346 1.169.815 2.642 1.222 4.422 1.222 1.563 0 2.768-.301 3.612-.903.863-.62 1.295-1.46 1.295-2.523 0-.655-.162-1.177-.486-1.567-.305-.407-.988-.797-2.049-1.168-1.06-.372-2.687-.841-4.879-1.408-2.445-.637-4.386-1.319-5.824-2.045-1.438-.743-2.471-1.62-3.1-2.63-.629-1.008-.944-2.23-.944-3.664 0-1.788.476-3.346 1.429-4.674.953-1.328 2.283-2.346 3.99-3.054 1.708-.726 3.721-1.09 6.039-1.09 2.265 0 4.269.346 6.012 1.036 1.762.69 3.182 1.674 4.26 2.948 1.078 1.275 1.743 2.771 1.995 4.489l-6.632 1.168c-.162-1.221-.728-2.186-1.699-2.895-.952-.708-2.228-1.106-3.828-1.195-1.528-.088-2.759.142-3.694.69-.934.532-1.401 1.284-1.401 2.258 0 .55.188 1.018.566 1.408.377.39 1.132.779 2.264 1.168 1.151.39 2.858.868 5.123 1.434 2.318.585 4.17 1.258 5.554 2.019 1.401.743 2.408 1.638 3.019 2.682.629 1.045.944 2.31.944 3.798 0 2.886-1.07 5.152-3.209 6.799-2.12 1.646-5.059 2.47-8.816 2.47ZM232.094 83.582c-2.103 0-3.883-.39-5.338-1.169-1.456-.797-2.562-1.85-3.316-3.16-.737-1.31-1.106-2.754-1.106-4.33 0-1.38.234-2.62.701-3.717a7.334 7.334 0 0 1 2.157-2.869c.97-.814 2.229-1.478 3.774-1.991 1.169-.372 2.535-.709 4.098-1.01a97.012 97.012 0 0 1 5.123-.823c1.851-.266 3.783-.549 5.796-.85l-2.318 1.302c.017-1.983-.432-3.444-1.348-4.383-.917-.938-2.463-1.407-4.638-1.407a8.503 8.503 0 0 0-3.801.903c-1.222.602-2.076 1.638-2.561 3.107l-5.931-1.832c.719-2.426 2.085-4.373 4.098-5.843 2.031-1.47 4.762-2.204 8.195-2.204 2.589 0 4.862.416 6.821 1.248 1.977.832 3.442 2.195 4.395 4.09a8.615 8.615 0 0 1 .943 3.107c.108 1.045.162 2.187.162 3.426v17.608h-5.688V76.57l.943 1.01c-1.312 2.071-2.849 3.594-4.61 4.567-1.743.957-3.927 1.435-6.551 1.435Zm1.294-5.1c1.474 0 2.732-.256 3.774-.77 1.043-.513 1.869-1.142 2.481-1.885.629-.744 1.051-1.443 1.267-2.098.341-.815.53-1.744.566-2.789.054-1.062.081-1.92.081-2.576l1.995.584c-1.959.301-3.64.567-5.042.797-1.402.23-2.606.451-3.612.664a23.23 23.23 0 0 0-2.669.664c-.755.266-1.393.575-1.915.93-.521.353-.925.76-1.213 1.221-.269.46-.404 1-.404 1.62 0 .708.179 1.337.539 1.886.359.53.881.956 1.564 1.274.701.32 1.563.478 2.588.478Z" fill="#000"/></g><defs><clipPath id="b"><path fill="#fff" transform="translate(4 .588)" d="M0 0h90.463v83.823H0z"/></clipPath><filter id="a" x="0" y=".588" width="252" height="91.823" filterUnits="userSpaceOnUse" color-interpolation-filters="sRGB"><feFlood flood-opacity="0" result="BackgroundImageFix"/><feColorMatrix in="SourceAlpha" values="0 0 0 0 0 0 0 0 0 0 0 0 0 0 0 0 0 0 127 0" result="hardAlpha"/><feOffset dy="4"/><feGaussianBlur stdDeviation="2"/><feComposite in2="hardAlpha" operator="out"/><feColorMatrix values="0 0 0 0 0 0 0 0 0 0 0 0 0 0 0 0 0 0 0.25 0"/><feBlend in2="BackgroundImageFix" result="effect1_dropShadow_1_22496"/><feBlend in="SourceGraphic" in2="effect1_dropShadow_1_22496" result="shape"/></filter></defs></svg>