<svg xmlns="http://www.w3.org/2000/svg" width="34" height="34" fill="none"><path fill="#9CC9C0" d="M.853 24.031c.181-.26.137-.575.2-.863.39-1.802 1.283-3.315 2.581-4.607 2.347-2.339 4.688-4.683 7.03-7.025 2.603-2.603 5.205-5.205 7.805-7.81 1.293-1.296 2.798-2.216 4.608-2.57 3.222-.628 6.047.198 8.28 2.59 2.494 2.673 3.069 5.827 1.853 9.281-.436 1.24-1.193 2.285-2.117 3.212-4.982 4.999-9.953 10.008-14.946 14.995-3.058 3.054-7.61 3.564-11.231 1.243-2.182-1.399-3.48-3.42-3.933-5.98-.024-.136.017-.306-.13-.408V24.03Zm8.867 8.061c1.856.027 3.72-.737 5.123-2.135 2.22-2.212 4.424-4.439 6.643-6.652.17-.169.188-.257.008-.437-3.196-3.19-6.386-6.388-9.57-9.59-.171-.173-.255-.18-.431-.004-2.227 2.24-4.466 4.468-6.694 6.708-1.274 1.28-1.994 2.829-2.097 4.636-.23 4.064 2.925 7.415 7.018 7.474ZM25.127 2.797c-2.015.039-3.63.566-4.912 1.807-2.38 2.303-4.7 4.668-7.055 6.998-.214.212-.051.292.067.41 3.175 3.178 6.352 6.354 9.523 9.538.183.185.274.199.466.005 2.195-2.218 4.405-4.424 6.606-6.64 1.314-1.322 2.032-2.909 2.112-4.782.17-3.985-3.056-7.349-6.807-7.336Z"/><path fill="#9CC9C0" d="M19.14 12.314c-.484-.002-.761-.158-.925-.48-.16-.315-.154-.631.064-.926.06-.081.122-.164.192-.233.983-.97 1.962-1.944 2.951-2.906.516-.502 1.156-.469 1.49.063.2.318.202.643-.003.959a1.917 1.917 0 0 1-.266.32c-.955.944-1.91 1.886-2.868 2.828-.21.207-.437.387-.634.375Z"/></svg>