<svg xmlns="http://www.w3.org/2000/svg" width="50" height="50" fill="none"><path fill="#2E514A" d="M39.75 37.62a.976.976 0 0 0-1.358.246c-.298.43-.635.847-1.004 1.242-.246.264-.585.583-.954.897a.977.977 0 0 0 1.265 1.488c.431-.367.818-.731 1.118-1.053.432-.463.829-.955 1.18-1.462a.976.976 0 0 0-.247-1.359ZM35.496 41.998a.977.977 0 0 0-1.299-.47l-.03.014a.976.976 0 1 0 .788 1.787l.071-.032a.977.977 0 0 0 .47-1.3Z"/><path fill="#2E514A" d="M47.083 2.54H2.917A2.92 2.92 0 0 0 0 5.456v27.368a2.92 2.92 0 0 0 2.917 2.917h20.566c.871 3.689 2.843 6.301 4.566 7.975 2.514 2.443 5.397 3.744 6.511 3.744 1.114 0 3.997-1.301 6.512-3.744 1.723-1.674 3.695-4.286 4.566-7.975h1.445A2.92 2.92 0 0 0 50 32.825V5.457a2.92 2.92 0 0 0-2.917-2.918Zm-2.942 29.2c0 5.145-2.375 8.558-4.368 10.515-2.364 2.322-4.788 3.225-5.213 3.253-.424-.028-2.849-.93-5.212-3.253-1.993-1.957-4.368-5.37-4.368-10.515v-4.81a43.707 43.707 0 0 0 9.58-4.051 45.22 45.22 0 0 0 9.58 4.051v4.81Zm3.906 1.085a.965.965 0 0 1-.964.964h-1.105a18.02 18.02 0 0 0 .116-2.049v-5.55a.977.977 0 0 0-.72-.942 43.08 43.08 0 0 1-10.32-4.34.977.977 0 0 0-.987 0 41.9 41.9 0 0 1-10.32 4.34.977.977 0 0 0-.72.942v5.55c0 .712.04 1.395.116 2.05H2.917a.965.965 0 0 1-.964-.965V16.211h46.094v16.614Zm0-18.567H1.953v-3.906h46.094v3.906Zm0-5.86H1.953V5.458c0-.532.433-.965.964-.965h44.166c.531 0 .964.433.964.965v2.942Z"/><path fill="#2E514A" d="M11.718 23.047c-.588 0-1.17.119-1.708.346a4.4 4.4 0 0 0-6.104 4.048 4.4 4.4 0 0 0 6.104 4.049c.538.227 1.12.346 1.708.346a4.4 4.4 0 0 0 4.395-4.395 4.4 4.4 0 0 0-4.395-4.394Zm-3.417 6.836a2.444 2.444 0 0 1-2.442-2.442A2.444 2.444 0 0 1 8.301 25a2.444 2.444 0 0 1 2.441 2.441 2.444 2.444 0 0 1-2.441 2.442Zm3.66-.012a4.368 4.368 0 0 0 .734-2.43c0-.897-.27-1.732-.735-2.429a2.445 2.445 0 0 1 2.2 2.43 2.445 2.445 0 0 1-2.2 2.429ZM9.906 18.652H4.883a.977.977 0 0 0 0 1.953h5.023a.977.977 0 0 0 0-1.953ZM12.792 18.652h-.046a.977.977 0 1 0 0 1.954h.046a.977.977 0 0 0 0-1.954ZM39.921 29.495a.977.977 0 0 0-1.38 0l-5.223 5.222-2.737-2.737a.977.977 0 0 0-1.38 1.381l3.426 3.428a.974.974 0 0 0 1.381 0l5.913-5.913a.977.977 0 0 0 0-1.381Z"/></svg>