<svg xmlns="http://www.w3.org/2000/svg" width="60" height="61" fill="none"><g fill="#2E514A" clip-path="url(#a)"><path d="M16.25 47.936h-5c-.69 0-1.25-.565-1.25-1.262 0-.696.56-1.261 1.25-1.261h5c.69 0 1.25.565 1.25 1.261 0 .697-.56 1.262-1.25 1.262ZM56.875 47.936H53.75c-.69 0-1.25-.565-1.25-1.262 0-.696.56-1.261 1.25-1.261h2.088l1.685-9.063c-.023-4.637-3.948-8.598-8.773-8.598h-8.207l-3.978 17.66h7.185c.69 0 1.25.566 1.25 1.262 0 .697-.56 1.262-1.25 1.262H35c-.38 0-.74-.174-.977-.474a1.262 1.262 0 0 1-.243-1.065l4.545-20.184c.13-.577.635-.984 1.22-.984h9.205c6.203 0 11.25 5.094 11.25 11.354l-1.897 10.323a1.25 1.25 0 0 1-1.228 1.03Z"/><path d="M48.75 52.982c-3.445 0-6.25-2.829-6.25-6.308 0-3.479 2.805-6.307 6.25-6.307S55 43.195 55 46.674c0 3.48-2.805 6.308-6.25 6.308Zm0-10.092c-2.068 0-3.75 1.698-3.75 3.784 0 2.087 1.682 3.785 3.75 3.785s3.75-1.698 3.75-3.785c0-2.086-1.682-3.784-3.75-3.784ZM21.25 52.982c-3.445 0-6.25-2.829-6.25-6.308 0-3.479 2.805-6.307 6.25-6.307s6.25 2.828 6.25 6.307c0 3.48-2.805 6.308-6.25 6.308Zm0-10.092c-2.067 0-3.75 1.698-3.75 3.784 0 2.087 1.683 3.785 3.75 3.785S25 48.76 25 46.674c0-2.086-1.683-3.784-3.75-3.784ZM16.25 25.229h-10c-.69 0-1.25-.565-1.25-1.261 0-.697.56-1.262 1.25-1.262h10c.69 0 1.25.565 1.25 1.262 0 .696-.56 1.261-1.25 1.261ZM16.25 32.798H3.75c-.69 0-1.25-.565-1.25-1.261 0-.697.56-1.262 1.25-1.262h12.5c.69 0 1.25.565 1.25 1.262 0 .696-.56 1.261-1.25 1.261ZM16.25 40.367h-15C.56 40.367 0 39.8 0 39.105c0-.696.56-1.261 1.25-1.261h15c.69 0 1.25.565 1.25 1.261 0 .697-.56 1.262-1.25 1.262Z"/><path d="M35 47.935h-8.75c-.69 0-1.25-.565-1.25-1.261s.56-1.261 1.25-1.261h7.752l5.68-25.23H11.25c-.69 0-1.25-.565-1.25-1.261 0-.697.56-1.262 1.25-1.262h30c.38 0 .74.174.977.474.238.298.328.692.243 1.065l-6.25 27.752c-.13.578-.637.984-1.22.984Z"/></g><defs><clipPath id="a"><path fill="#fff" d="M0 0h60v60.55H0z"/></clipPath></defs></svg>