<svg xmlns="http://www.w3.org/2000/svg" width="33" height="53" fill="none"><g clip-path="url(#a)"><path fill="#2E514A" d="M30.148 0c.906.349 1.218 1.025 1.204 1.971-.05 3.501.184 7.014-.084 10.5-.482 6.277-3.8 10.576-9.583 12.982-1.034.43-2.13.668-3.242.805-.29.036-.402.094-.401.42.015 2.777.01 5.554.01 8.33.157.063.171-.08.222-.147 2.832-3.663 6.542-5.818 11.12-6.462.63-.088 1.27-.116 1.906-.127 1.049-.02 1.735.667 1.697 1.708-.24 6.415-3.16 11.219-8.716 14.4-1.81 1.035-3.79 1.612-5.862 1.846-.319.036-.378.145-.376.441.016 1.536.01 3.07.007 4.605-.003 1.034-.655 1.742-1.576 1.725-.9-.015-1.521-.715-1.524-1.727-.003-1.449-.028-2.899.014-4.347.015-.517-.134-.676-.639-.745-4.357-.592-7.926-2.625-10.69-6.039C1.248 37.19.07 33.78 0 29.983c-.019-1.046.651-1.739 1.7-1.71 5.228.142 9.496 2.248 12.803 6.305.126.154.243.314.368.476.128-.102.076-.214.076-.307.004-2.674-.002-5.346.01-8.02 0-.311-.067-.414-.403-.472C8.071 25.133 3.894 21.416 2.091 15.07c-.355-1.25-.434-2.546-.434-3.842 0-3.02.025-6.038-.013-9.056C1.63 1.21 1.852.455 2.75 0h.828c.454.205.814.528 1.16.88 1.598 1.613 3.213 3.208 4.803 4.826.253.257.373.259.624.003 1.616-1.642 3.256-3.262 4.876-4.9.339-.341.688-.649 1.148-.808h.62c.46.16.812.467 1.15.808 1.622 1.638 3.26 3.258 4.877 4.9.252.254.37.257.625-.001 1.59-1.62 3.207-3.215 4.802-4.828.347-.352.705-.675 1.16-.879L30.147 0ZM4.968 5.327l-.206.144c0 .877-.007 1.755.001 2.632.015 1.604-.11 3.215.085 4.81a11.74 11.74 0 0 0 14.384 10.054c4.958-1.154 8.673-5.55 8.96-10.66.125-2.223.028-4.45.044-6.674 0-.062.016-.141-.12-.195-.1.095-.222.205-.336.32-1.12 1.123-2.239 2.247-3.363 3.366-.862.86-1.695.855-2.558-.007-1.67-1.67-3.345-3.335-5-5.02-.279-.283-.427-.297-.714-.004-1.641 1.674-3.305 3.326-4.963 4.984-.917.916-1.725.92-2.63.014-1.11-1.11-2.22-2.217-3.322-3.334-.114-.116-.177-.285-.262-.43ZM3.383 31.483c-.156-.067-.169.098-.127.303.108.54.188 1.087.334 1.615 1.51 5.433 6.093 8.999 10.914 9.69.297.043.35-.002.302-.296-.243-1.509-.686-2.952-1.427-4.288-2.166-3.912-5.473-6.222-9.996-7.024Zm14.973 11.622c.171-.022.342-.037.51-.069 2.547-.481 4.79-1.578 6.695-3.342 2.248-2.082 3.62-4.648 4.164-7.665.072-.398.058-.575-.455-.479-4.498.848-7.78 3.316-9.867 7.382-.626 1.217-1.002 2.523-1.205 3.877-.016.12-.144.334.158.296Z"/></g><defs><clipPath id="a"><path fill="#fff" d="M0 0h33v53H0z"/></clipPath></defs></svg>