<svg xmlns="http://www.w3.org/2000/svg" width="42" height="57" fill="none"><g fill="#2E514A" clip-path="url(#a)"><path d="M16.848 57c-.267-.73-.654-1.4-1.055-2.053-.55-.898-.808-1.825-.717-2.885.063-.732.013-.737-.696-.737-3.68 0-7.36.002-11.041 0-2.058-.001-3.327-1.3-3.329-3.404C.01 35.27.015 22.615 0 9.961c0-.466.114-.587.567-.572 1.115.034 1.116.009 1.116 1.126v37.126c0 .167-.007.335.003.502.054.898.58 1.471 1.457 1.474 3.863.017 7.726.005 11.588.014.294 0 .368-.1.364-.384-.013-.964-.007-1.93-.002-2.894.012-2.038 1.345-3.46 3.35-3.568.363-.019.73-.047 1.09-.014.458.041.607-.082.603-.593-.03-3.209-.02-6.42-.012-9.629.006-1.763 1.138-3.114 2.836-3.423 1.863-.338 3.748 1.098 3.835 3.028.08 1.777.043 3.561.031 5.342-.003.438.03.561.509.372 1.632-.649 3.366.043 4.165 1.635.16.317.25.377.588.209 1.684-.847 3.58-.194 4.462 1.52.142.275.218.363.547.2 2.25-1.116 4.812.41 4.858 2.963.068 3.95.028 7.903.044 11.855.001.268-.075.333-.335.343-1.343.051-1.341.06-1.347-1.322l-.038-10.52c-.002-.41-.02-.811-.252-1.176-.393-.62-1.119-.941-1.788-.766-.745.195-1.258.772-1.29 1.53a33.944 33.944 0 0 0-.009 2.28c.009.335-.083.442-.425.447-1.282.015-1.282.03-1.282-1.29 0-.964.008-1.93 0-2.894-.01-1.073-.69-1.806-1.658-1.812-.969-.006-1.67.721-1.685 1.788-.017 1.242-.014 2.486.003 3.729.005.348-.067.482-.447.482-1.25 0-1.25.016-1.25-1.264 0-1.54.004-3.08-.002-4.619-.004-1.058-.688-1.823-1.636-1.85-.957-.03-1.708.754-1.717 1.835-.015 1.8-.015 3.599.004 5.4.005.388-.102.5-.485.496-1.2-.01-1.2.006-1.2-1.197 0-4.434.003-8.87-.002-13.303-.002-.909-.57-1.602-1.384-1.739a1.669 1.669 0 0 0-1.851 1.049c-.113.298-.133.611-.132.93.005 2.17.003 4.341.003 6.512 0 4.1-.007 8.2.01 12.3.002.47-.128.586-.577.572-1.102-.033-1.103-.009-1.103-1.13 0-2.023-.009-4.046.007-6.068.003-.388-.044-.586-.494-.516-.375.058-.764.025-1.145.039-.994.034-1.704.699-1.717 1.708-.03 2.225-.014 4.453-.025 6.678-.001.22.094.389.189.567.409.763.789 1.544 1.23 2.288.22.374.127.517-.216.685-.31.153-.666.251-.886.56-.073-.002-.146-.002-.219-.002Z"/><path d="M31.939 19.7c0 5.492-.006 10.985.01 16.477.001.46-.064.636-.576.614-1.103-.048-1.104-.013-1.104-1.128V3.658c0-1.492-.453-1.95-1.929-1.95-1.458 0-2.915.009-4.373-.006-.322-.003-.46.065-.44.427.03.498.017 1-.002 1.502-.056 1.567-1.256 2.904-2.799 2.946-2.513.067-5.028.034-7.542.04-.656.002-1.314.018-1.967-.015-1.799-.09-3-1.373-3.02-3.198-.004-.37-.03-.746.006-1.113.044-.447-.076-.607-.551-.595-1.44.034-2.879.007-4.318.013-1.107.005-1.643.548-1.65 1.674-.008 1.299-.015 2.598.007 3.896.005.351-.095.427-.427.427C.01 7.708.01 7.721.01 6.467c0-1.095-.007-2.19.002-3.284C.028 1.376 1.352.007 3.124.006c8.564-.008 17.127-.008 25.692 0 1.799.001 3.118 1.368 3.121 3.22.006 5.49.002 10.984.002 16.475ZM15.862 1.709c-1.856 0-3.713.006-5.568-.006-.317-.002-.466.058-.44.424.033.46-.01.927.016 1.388.048.82.61 1.382 1.417 1.385 3.057.012 6.114.012 9.172 0 .802-.003 1.361-.577 1.405-1.397.024-.426-.022-.854.015-1.278.036-.414-.086-.533-.504-.527-1.838.024-3.676.01-5.513.01Z"/><path d="M15.957 23.011c-3.352 0-6.704-.01-10.056.012-.466.003-.62-.138-.55-.588.019-.126.003-.258.003-.39 0-.75.001-.79.732-.754.477.024.416-.288.464-.558.707-4.027 3.006-6.635 6.803-7.895a5.61 5.61 0 0 1 1.282-.256c.37-.033.534-.16.463-.54-.088-.475.117-.636.56-.558.107.018.22.012.328.001.523-.055.95-.019.795.719-.07.333.197.332.414.361 2.23.301 4.114 1.3 5.658 2.958 1.396 1.497 2.223 3.284 2.495 5.323.05.368.16.448.495.44.727-.016.727.002.727.715 0 1.012 0 1.012-.994 1.012-3.206-.002-6.413-.002-9.62-.002Zm-.059-1.735c2.458 0 4.916-.003 7.373.003.285 0 .45.021.393-.4-.511-3.734-3.886-6.684-7.703-6.7-3.79-.017-7.24 2.957-7.747 6.657-.054.397.08.448.421.446 2.421-.012 4.842-.006 7.264-.006ZM10.111 41.073c-1.273 0-2.544-.01-3.816.007-.31.005-.39-.089-.395-.401-.02-1.335-.03-1.335 1.276-1.335 2.216 0 4.434.009 6.65-.009.379-.003.493.098.49.493-.01 1.245.006 1.245-1.208 1.245H10.11ZM10.067 32.508c1.274 0 2.547.012 3.821-.008.335-.006.425.088.427.432.003 1.278.017 1.278-1.235 1.278-2.22 0-4.439-.008-6.658.007-.373.003-.537-.038-.525-.494.032-1.214.006-1.215 1.223-1.215h2.947ZM10.07 37.636c-1.255 0-2.51-.009-3.764.006-.292.003-.4-.055-.403-.385-.016-1.319-.03-1.319 1.284-1.319 2.2 0 4.401.01 6.602-.008.38-.003.539.053.53.501-.026 1.204-.002 1.204-1.192 1.204l-3.057.001ZM16.937 27.504c0 .817 0 .817-1.017.816-.688 0-.688 0-.688-1.04 0-.674 0-.674 1.099-.673.606.002.606.002.606.897ZM12.732 28.317c-.844 0-.844 0-.844-1.034 0-.674 0-.674 1.082-.673.596 0 .596 0 .595 1.111 0 .596 0 .596-.833.596ZM19.429 26.61c.851 0 .851 0 .851.853 0 .854 0 .854-.859.854-.82 0-.82 0-.82-.832v-.055c0-.82 0-.82.828-.82Z"/></g><defs><clipPath id="a"><path fill="#fff" d="M0 0h42v57H0z"/></clipPath></defs></svg>