<svg xmlns="http://www.w3.org/2000/svg" width="264" height="81" fill="none"><g clip-path="url(#a)"><path fill="#0F4E46" d="M64.89 41.765c.537.508.505 1.177.505 1.828-.003 1.574.007 3.148-.05 4.722-.024.645.19.826.82.812 1.411-.038 2.823-.017 4.235-.01 3.27.017 5.666 2.159 5.79 5.398.35 9.187-6.696 18.047-16.63 17.734-3.192-.101-5.7.616-8.37 2.615-13.913 10.403-32.67 7.268-43.196-6.969C2.602 60.6.315 52.362.554 43.388c.042-1.613.787-2.498 2.322-2.867 1.946.404 3.892.453 5.834-.028.18-.003.358-.01.541-.014-.056.115-.148.227-.165.349-1.043 6.92-.239 13.547 3.516 19.586 4.341 6.983 10.57 11.253 18.943 11.796 10.155.662 19.53-5.495 23.544-15.073 2.217-5.287 2.694-10.727 1.764-16.33 2.437-.035 4.875-.136 7.302.153l-.028-.028c.021.199.13.29.33.265l-.028-.025c-.017.206.08.307.288.31l-.01-.02.003.41c.053-.038.116-.073.18-.107Zm-5.407 24.59c6.155.774 11.244-3.628 11.335-9.685.018-1.205-.495-1.727-1.766-1.744-1.237-.018-2.477.055-3.706-.025-.79-.052-1.05.255-1.226.958-.667 2.682-1.697 5.234-3.01 7.669-.506.947-1.068 1.863-1.627 2.828Z"/><path fill="#88C65B" d="M56.846 40.807c.93 5.603.453 11.043-1.764 16.33-4.014 9.578-13.386 15.735-23.544 15.073-8.374-.547-14.598-4.813-18.943-11.796-3.758-6.042-4.563-12.666-3.516-19.586.017-.122.109-.234.165-.349 2.202-.097 4.405-.125 6.607.014l-.116.544c-2.947 7.373-2.09 14.359 2.536 20.75 6.207 8.577 17.707 10.05 26.049 3.524 7.043-5.51 9.515-15.857 5.866-24.54l.01-.274.334-.032c1.957.502 3.91.516 5.863-.007.09.014.182.025.277.039l.176.31Z"/><path fill="#87C55A" d="M12.707 21.172v-.133c.032-3.451.734-4.085 4.219-3.824 8.935.669 13.203 9.4 11.77 16.177-.165.784-.625.955-1.268 1.056-5.146.808-9.16-1.063-12.17-5.155-1.771-2.396-2.547-5.15-2.551-8.121ZM53.248 21.084c-.014 7.704-5.792 13.826-12.835 13.544-3.41-.136-3.171.035-3.347-3.27-.348-6.645 3.864-12.447 9.856-13.806 1.244-.282 2.501-.452 3.8-.243 2.326.372 2.333.341 2.466 2.646.025.432.046.871.06 1.129ZM39.262 11.412c-.098 4.542-1.767 8.22-5.29 11.051-.71.571-1.212.582-1.946.035-7.155-5.346-7.06-17.003.183-22.195.625-.45 1.022-.387 1.598.059 3.67 2.838 5.357 6.6 5.455 11.05Z"/><path fill="#00352B" d="m15.734 41.037.116-.544c5.673-.017 11.346-.045 17.018-.045 5.627 0 11.258.032 16.885.045.01.094.021.189.028.283-10.745 0-21.493 0-32.238-.007-.618 0-1.233 0-1.809.268ZM56.845 40.806c-.056-.1-.112-.205-.172-.306 2.012-.017 4.025-.045 6.041-.049.527 0 1.05.077 1.433.509-2.43-.29-4.868-.188-7.302-.154ZM8.706 40.493c-1.942.48-3.888.432-5.834.028 1.946-.146 3.888-.097 5.834-.028Z"/><path fill="#87C55A" d="M56.396 40.462c-1.953.519-3.91.508-5.863.007 1.957-.004 3.91-.007 5.863-.007Z"/><path fill="#0F4E46" d="M49.785 40.775c-.01-.094-.021-.188-.028-.282.147.004.298.004.446.007l-.01.275h-.408Z"/><path fill="#00352B" d="M64.89 41.764c-.064.035-.127.07-.19.108 0-.136-.004-.275-.004-.411l.194.303Z"/><path fill="#00352B" d="M64.706 41.482c-.203-.004-.302-.101-.288-.31.099.104.194.205.288.31Z"/><path fill="#00352B" d="M64.45 41.196c-.2.025-.309-.07-.33-.264l.33.264Z"/><path fill="#0E4E47" d="M49.785 40.775c.137 0 .27-.003.408-.003 3.649 8.682 1.176 19.029-5.866 24.539-8.343 6.526-19.843 5.053-26.05-3.525-4.625-6.39-5.482-13.377-2.535-20.75.576-.268 1.187-.264 1.809-.264 10.74.003 21.486.003 32.234.003Zm-24.458 10.27c-.038.087-.08.178-.12.265 1.276.993 2.53 2.013 3.833 2.964.632.46.78.937.541 1.672-.537 1.636-1.001 3.298-1.595 5.286 1.563-1.205 2.888-2.138 4.106-3.19.685-.592 1.142-.522 1.788.018 1.23 1.02 2.522 1.967 4.092 3.18-.604-2.038-1.057-3.713-1.612-5.357-.239-.704-.105-1.104.492-1.543 1.324-.968 2.592-2.013 3.881-3.026-1.394-.265-2.708-.38-3.99-.237-1.486.17-2.108-.411-2.403-1.8-.302-1.425-.832-2.8-1.359-4.507-.615 2.006-1.163 3.663-1.626 5.342-.2.718-.548.975-1.3.95-1.573-.051-3.15-.017-4.728-.017Z"/><path fill="#88C65B" d="M25.327 51.045c1.578 0 3.155-.035 4.728.018.752.024 1.1-.234 1.3-.951.464-1.679 1.008-3.336 1.626-5.343.527 1.707 1.054 3.083 1.36 4.507.295 1.386.92 1.968 2.402 1.8 1.282-.146 2.596-.03 3.99.237-1.289 1.014-2.557 2.059-3.881 3.027-.597.435-.727.836-.492 1.543.555 1.644 1.008 3.319 1.612 5.356-1.57-1.212-2.862-2.156-4.092-3.18-.646-.536-1.102-.609-1.788-.017-1.218 1.052-2.539 1.985-4.106 3.19.594-1.985 1.058-3.646 1.595-5.286.242-.735.091-1.212-.54-1.672-1.304-.951-2.558-1.971-3.833-2.964.039-.087.08-.174.12-.265Z"/></g><path fill="#fff" d="M103.894 67.315c-1.37 0-2.658-.24-3.861-.72a9.22 9.22 0 0 1-3.157-2.143c-.9-.94-1.606-2.09-2.115-3.45-.508-1.371-.763-2.937-.763-4.7 0-2.31.43-4.282 1.292-5.916.861-1.645 2.041-2.902 3.539-3.774 1.497-.88 3.186-1.321 5.065-1.321 2.604 0 4.664.607 6.181 1.82 1.527 1.205 2.56 2.898 3.098 5.08l-3.612.573c-.401-1.253-1.057-2.25-1.967-2.995-.91-.753-2.07-1.13-3.48-1.13-1.419-.02-2.599.288-3.538.925-.94.636-1.65 1.532-2.13 2.687-.469 1.155-.704 2.505-.704 4.052 0 1.546.235 2.892.705 4.038.47 1.135 1.174 2.02 2.114 2.657.95.636 2.134.964 3.553.984 1.067.01 2.002-.181 2.805-.573.802-.401 1.458-1.003 1.967-1.806.509-.812.852-1.825 1.028-3.04h-3.73V55.79h7.488c.02.157.035.387.045.69.009.303.014.485.014.543 0 1.997-.396 3.774-1.189 5.33a8.788 8.788 0 0 1-3.377 3.641c-1.468.881-3.225 1.322-5.271 1.322ZM120.498 66.874V51.017h3.127v3.862l-.382-.5a5.663 5.663 0 0 1 .778-1.438c.333-.44.73-.803 1.19-1.087.391-.264.822-.47 1.292-.617.479-.156.969-.25 1.468-.279.499-.039.984-.02 1.453.06v3.303c-.469-.137-1.013-.181-1.629-.132a3.736 3.736 0 0 0-1.645.514c-.489.264-.89.601-1.204 1.012a4.287 4.287 0 0 0-.675 1.41 6.173 6.173 0 0 0-.22 1.688v8.061h-3.553ZM142.966 67.315c-1.605 0-3.015-.348-4.229-1.043a7.426 7.426 0 0 1-2.848-2.892c-.675-1.234-1.013-2.653-1.013-4.258 0-1.733.333-3.235.998-4.508.666-1.282 1.591-2.275 2.775-2.98 1.185-.705 2.555-1.057 4.111-1.057 1.645 0 3.04.386 4.185 1.16 1.155.763 2.011 1.845 2.569 3.244.558 1.4.769 3.05.632 4.948h-3.509v-1.292c-.01-1.722-.314-2.98-.911-3.773-.597-.793-1.536-1.19-2.819-1.19-1.448 0-2.525.45-3.23 1.352-.705.89-1.057 2.197-1.057 3.92 0 1.605.352 2.848 1.057 3.729.705.881 1.733 1.321 3.083 1.321.872 0 1.62-.19 2.247-.572.636-.392 1.126-.955 1.468-1.689l3.495 1.057c-.607 1.43-1.547 2.54-2.82 3.333-1.262.793-2.657 1.19-4.184 1.19Zm-5.462-7.386v-2.672h10.909v2.672h-10.909ZM164.448 67.315c-1.605 0-3.015-.348-4.228-1.043a7.422 7.422 0 0 1-2.849-2.892c-.675-1.234-1.013-2.653-1.013-4.258 0-1.733.333-3.235.999-4.508.665-1.282 1.59-2.275 2.775-2.98 1.184-.705 2.554-1.057 4.111-1.057 1.644 0 3.039.386 4.184 1.16 1.155.763 2.012 1.845 2.57 3.244.558 1.4.768 3.05.631 4.948h-3.509v-1.292c-.01-1.722-.313-2.98-.91-3.773-.598-.793-1.537-1.19-2.82-1.19-1.448 0-2.525.45-3.23 1.352-.704.89-1.057 2.197-1.057 3.92 0 1.605.353 2.848 1.057 3.729.705.881 1.733 1.321 3.084 1.321.871 0 1.62-.19 2.246-.572.636-.392 1.126-.955 1.468-1.689l3.495 1.057c-.607 1.43-1.547 2.54-2.819 3.333-1.263.793-2.658 1.19-4.185 1.19Zm-5.462-7.386v-2.672h10.909v2.672h-10.909ZM189.259 66.874V59.24c0-.499-.034-1.052-.103-1.659a5.733 5.733 0 0 0-.484-1.747 3.316 3.316 0 0 0-1.116-1.395c-.49-.362-1.155-.543-1.997-.543-.45 0-.896.073-1.336.22a3.063 3.063 0 0 0-1.204.764c-.352.352-.636.841-.852 1.468-.215.617-.323 1.41-.323 2.378l-2.099-.895c0-1.351.259-2.575.778-3.67a6.25 6.25 0 0 1 2.32-2.614c1.018-.656 2.271-.984 3.758-.984 1.175 0 2.144.196 2.908.587.763.392 1.37.891 1.82 1.498.45.607.783 1.253.999 1.938.215.685.352 1.336.411 1.953.068.607.103 1.1.103 1.483v8.853h-3.583Zm-10.997 0V51.017h3.157v4.919h.425v10.938h-3.582ZM215.267 66.874V49.05h-6.842V45.73h17.222v3.319h-6.842v17.824h-3.538ZM236.67 67.315c-1.606 0-3.015-.348-4.229-1.043a7.42 7.42 0 0 1-2.848-2.892c-.676-1.234-1.013-2.653-1.013-4.258 0-1.733.332-3.235.998-4.508.666-1.282 1.591-2.275 2.775-2.98 1.184-.705 2.555-1.057 4.111-1.057 1.645 0 3.039.386 4.185 1.16 1.155.763 2.011 1.845 2.569 3.244.558 1.4.768 3.05.631 4.948h-3.509v-1.292c-.009-1.722-.313-2.98-.91-3.773-.597-.793-1.537-1.19-2.819-1.19-1.449 0-2.525.45-3.23 1.352-.705.89-1.057 2.197-1.057 3.92 0 1.605.352 2.848 1.057 3.729.705.881 1.732 1.321 3.083 1.321.871 0 1.62-.19 2.247-.572.636-.392 1.125-.955 1.468-1.689l3.494 1.057c-.607 1.43-1.546 2.54-2.819 3.333-1.262.793-2.657 1.19-4.184 1.19Zm-5.462-7.386v-2.672h10.909v2.672h-10.909ZM255.09 67.315c-1.145 0-2.114-.216-2.907-.646-.793-.44-1.395-1.023-1.806-1.748a4.859 4.859 0 0 1-.602-2.393c0-.763.127-1.448.382-2.055a4.053 4.053 0 0 1 1.174-1.586c.529-.45 1.214-.817 2.056-1.101.636-.206 1.38-.392 2.232-.558a52.06 52.06 0 0 1 2.789-.455c1.009-.147 2.061-.304 3.157-.47l-1.263.72c.01-1.097-.234-1.905-.734-2.423-.499-.52-1.341-.779-2.525-.779a4.57 4.57 0 0 0-2.07.5c-.666.333-1.131.905-1.395 1.718l-3.23-1.014c.391-1.34 1.135-2.417 2.231-3.23 1.107-.812 2.594-1.218 4.464-1.218 1.409 0 2.648.23 3.715.69a4.615 4.615 0 0 1 2.393 2.26c.284.559.455 1.131.514 1.719.058.577.088 1.209.088 1.894v9.734h-3.098V63.44l.514.557c-.715 1.146-1.552 1.987-2.511 2.526-.949.528-2.139.793-3.568.793Zm.705-2.82c.803 0 1.488-.141 2.055-.425.568-.284 1.018-.631 1.351-1.043.343-.41.573-.797.69-1.16.186-.45.289-.964.309-1.541.029-.587.044-1.062.044-1.424l1.086.323a270.4 270.4 0 0 0-2.745.44c-.764.127-1.42.25-1.968.367-.548.108-1.033.23-1.453.367a4.494 4.494 0 0 0-1.043.514 2.28 2.28 0 0 0-.661.676c-.146.254-.22.553-.22.895 0 .392.098.74.294 1.043.196.293.479.528.851.704.382.177.852.265 1.41.265Z"/><defs><clipPath id="a"><path fill="#fff" d="M.536 0h75.66v81H.536z"/></clipPath></defs></svg>