<svg xmlns="http://www.w3.org/2000/svg" width="100" height="100" fill="none"><g clip-path="url(#a)"><path fill="#593A1B" d="M41.231 75.392c3.19-2.976 3.68-7.635 1.093-10.406-2.586-2.772-7.267-2.607-10.457.37-3.19 2.975-3.679 7.634-1.093 10.406 2.586 2.771 7.268 2.606 10.457-.37ZM83.44 75.391c3.19-2.976 3.68-7.635 1.093-10.407-2.586-2.771-7.267-2.606-10.457.37-3.19 2.976-3.679 7.635-1.093 10.407 2.586 2.771 7.268 2.606 10.457-.37Z"/><path fill="#FC981A" d="M7.75 39.02a3.335 3.335 0 1 0-6.67 0 3.335 3.335 0 0 0 6.67 0Z"/><path fill="#FC981A" d="M67.695 69.715c1.186-5.859 6.721-10.515 12.67-10.515 5.95 0 9.86 4.318 9.746 9.87 6.196.163 7.92-7.995 7.92-7.995.522-2.282 1.301-6.729 1.953-11.094.209-1.398.045-2.772-.474-3.986-1.004-2.348-2.973-6.541-5.848-10.836-2.144-3.203-5.752-5.104-9.865-5.17a422.311 422.311 0 0 0-6.68-.063l-.015-.015c-.233-3.924-3.094-6.926-7.108-7.286-2.611-.234-12.955-.402-17.92-.402-1.972 0-4.804.027-7.668.074v-.011h-.02l-.009-.004-.008.004H9.955a3.337 3.337 0 0 0-3.336 3.336v.017a3.32 3.32 0 0 0 3.319 3.319l6.939.01a3.315 3.315 0 0 1 3.076 3.308v.017a3.337 3.337 0 0 1-3.336 3.336h-3.555a3.337 3.337 0 0 0 0 6.672h3.555a3.337 3.337 0 0 1 0 6.672H3.312a3.337 3.337 0 0 0 0 6.672h13.31a3.337 3.337 0 0 1 0 6.672h-4.114a3.337 3.337 0 0 0 0 6.672l13.135-.01 1.093-2.72c2.237-4.128 6.686-7.05 11.397-7.05 5.951 0 10.18 4.66 9.713 10.524H67.69m9.11-35.178c1.742.002 4.002.026 6.267.063 2.746.045 5.149 1.304 6.59 3.459 1.744 2.607 3.139 5.187 4.149 7.252.642 1.312-.541 3.021-2.094 3.021h-16.65L76.8 34.555Z"/><path fill="#FBB358" d="M69.992 22.623c-2.611-.234-12.955-.402-17.92-.402-1.972 0-4.804.027-7.668.074v-.012h-.02l-.009-.004-.008.004H9.955A3.337 3.337 0 0 0 6.62 25.62v.018a3.32 3.32 0 0 0 3.319 3.318l6.939.01a3.316 3.316 0 0 1 3.076 3.308v.018a3.337 3.337 0 0 1-3.336 3.336h-3.555a3.337 3.337 0 0 0 0 6.672h3.555a3.337 3.337 0 0 1 0 6.672H3.312a3.334 3.334 0 0 0-3.289 2.804v1.063a3.336 3.336 0 0 0 3.29 2.805H16.62a3.337 3.337 0 0 1 3.336 3.335c0 .794-.277 1.52-.74 2.092a54.51 54.51 0 0 0 13.406-.52c1.705-.859 3.586-1.347 5.51-1.347.166 0 .33.006.494.012 16.982-4.824 30.557-17.746 36.287-34.328-1.242-1.26-2.941-2.082-4.924-2.26l.002-.004Z"/><path fill="#fff" d="M57.682 34.59h-6.365c-.758 0-1.46.615-1.567 1.373l-1.54 10.96c-.108.759.421 1.374 1.179 1.374h6.365c.668 0 1.285-.541 1.379-1.21.094-.667-.371-1.208-1.04-1.208h-5.13c-.01 0-.017-.01-.017-.02l.49-3.488s.008-.014.017-.014h3.992c.669 0 1.286-.54 1.38-1.209.093-.668-.372-1.209-1.04-1.209h-3.988c-.01 0-.017-.01-.017-.02l.408-2.897s.008-.014.017-.014h5.135c.668 0 1.285-.541 1.379-1.21.094-.667-.371-1.208-1.04-1.208h.003ZM34.974 34.59h-5.71c-.757 0-1.458.616-1.566 1.373l-1.55 11.04c-.1.714.398 1.294 1.113 1.294s1.375-.58 1.476-1.295l.598-4.25s.008-.013.017-.013h3.336c.715 0 1.375-.58 1.477-1.295.1-.715-.398-1.295-1.113-1.295H29.72c-.01 0-.018-.01-.018-.02l.412-2.935s.008-.014.018-.014h4.478c.715 0 1.377-.58 1.477-1.295.1-.715-.399-1.295-1.113-1.295ZM46.573 35.475c-1.096-.942-3.031-.885-3.031-.885h-4.414c-.758 0-1.46.615-1.566 1.373l-1.551 11.04c-.1.714.398 1.294 1.113 1.294s1.375-.58 1.477-1.295l.468-3.336s.008-.013.018-.013h2.861s.014.003.016.011l1.344 3.904c.154.448.566.731 1.062.731h.049c.957 0 1.725-1.002 1.426-1.861l-1.112-3.202s0-.017.01-.021a4.096 4.096 0 0 0 1.576-1.147c.686-.816 1.11-1.796 1.272-2.945.107-.767.082-1.465-.078-2.09a3.038 3.038 0 0 0-.938-1.556l-.002-.002ZM44.98 39.12s-.26 2.113-2.487 2.113H39.41l.594-4.226h3.084s2.265-.145 1.892 2.113ZM68.348 34.59h-6.365c-.758 0-1.46.615-1.567 1.373l-1.54 10.96c-.108.759.421 1.374 1.179 1.374h6.365c.668 0 1.285-.541 1.379-1.21.094-.667-.371-1.208-1.04-1.208h-5.13c-.01 0-.017-.01-.017-.02l.49-3.488s.008-.014.017-.014h3.993c.668 0 1.285-.54 1.378-1.209.094-.668-.37-1.209-1.039-1.209h-3.988c-.01 0-.017-.01-.017-.02l.408-2.897s.008-.014.017-.014h5.135c.668 0 1.285-.541 1.379-1.21.094-.667-.371-1.208-1.04-1.208h.003Z"/></g><defs><clipPath id="a"><path fill="#fff" d="M0 0h100v100H0z"/></clipPath></defs></svg>