<svg xmlns="http://www.w3.org/2000/svg" width="256" height="270" fill="none"><path fill="#5B9412" d="M120.526 254.268c66.564 0 120.525-53.993 120.525-120.598 0-66.604-53.961-120.597-120.525-120.597C53.961 13.073 0 67.066 0 133.67c0 66.605 53.961 120.598 120.526 120.598Z"/><path fill="#5B9412" d="M8.603 132.404c.005 1.936.23-1.042.058 1.267-.086-.258-.149-.636-.058-1.267ZM126.952 245.365a66.243 66.243 0 0 1 4.948-.641c1.729-.248 3.535-.473 5.355-.693 1.815-.282 3.639-.607 5.435-.927a77.76 77.76 0 0 0 5.145-1.31c.769-.219-.11.402 1.605-.162a90.998 90.998 0 0 1 2.502-.86c.884-.292 1.825-.564 2.771-.928 1.901-.702 3.979-1.319 6.033-2.15l3.128-1.171c1.032-.43 2.064-.86 3.081-1.286 2.063-.803 3.993-1.768 5.837-2.595l-.392.306c1.419-.607 2.876-1.845 4.309-2.614.043.047-.406.334-.039.224.129-.181.755-.569 1.414-.965.664-.387 1.319-.861 1.577-1.1.578-.282.606-.124 1.351-.501l.669-.684c.468-.463 1.056-.874 1.657-1.343a41.905 41.905 0 0 1 1.978-1.395c.697-.474 1.428-.952 2.145-1.468.697-.54 1.39-1.104 2.039-1.701-.105.143-.353.392-.105.258 1.065-.937 2.226-1.888 3.358-2.958.578-.521 1.165-1.052 1.758-1.592.301-.268.597-.535.902-.803.297-.277.583-.564.875-.851.582-.568 1.17-1.142 1.762-1.715.583-.579 1.199-1.128 1.744-1.74 1.117-1.2 2.235-2.38 3.286-3.551-.105.244-.172.497.148.287.038-.388 1.27-1.898 2.345-3.207.33-.22.793-.779 1.271-1.52.492-.732 1.065-1.592 1.729-2.333l-.067.168c.358-.65.716-1.057 1.056-1.439.329-.387.616-.769.845-1.333l.688-.655c.1-.712 1.38-1.625 1.92-2.724l-.076-.005c.549-1.004 1.007-1.415 1.533-2.337l.086-.067c1.294-2.113 2.116-3.303 1.877-3.374.611-.65-1.118 2.131-.182 1.099 3.97-7.15 7.523-14.807 10.084-22.621.396-.851.621-1.405.773-1.577.177-.808.803-2.997.879-3.747-.071.267.273-.478.402-.894.262-.702.262-1.128.3-1.558.029-.435.067-.879.306-1.668-.081.65-.052.889.091.698.062-.708.205-1.515.372-2.347.086-.416.172-.841.254-1.262.062-.425.129-.85.191-1.257-.005.263-.048.66.043.617.095-1.826.63-3.245.759-4.832.024.206.029.406.048.607.549-2.504-.196-.793.201-2.968-.02.531.062.354.105.459-.005-1.042.129-2.385.262-3.723.081-1.348.182-2.691.215-3.714.01.124.053.096.053.096.038-.559.081-1.123.119-1.692.038-.574.038-1.152.062-1.74a74.06 74.06 0 0 0 .029-3.604c.072-.893.396.297.282-2.079-.292.091-.225-4.019-.521-2.614v-1.692l-.1-1.845c-.072-1.218-.153-2.351-.258-3.02.181.898.282-1.018.435.659l.081-1.29c.133.177.057 1.314.181.894-.033-.851-.506-3.279-.539-4.034-.187-.765-.411-1.496-.631-2.342-.244-.846-.525-1.802-.759-3.04.32 1.152.2-.721.391.062l-.587-1.687a23.38 23.38 0 0 0-.621-1.668c-.201-.812.186-.224-.163-1.395-.062.076-.229-.43-.372-.77-.019-.157-.234-1.003-.416-1.864-.043-.215-.086-.43-.129-.635a15.18 15.18 0 0 1-.124-.574c-.067-.349-.091-.616-.048-.726.01-.387.435 1.3.277.377-.425-1.491-.539-1.534-.969-3.025l.028-.043c-.124-.497-.339-1.224-.558-1.663-.211-.445-.359-.631-.258-.077.215.679.095-.31.324.722-.363-.641-1.003-2.323-1.499-3.79.215.483.267.396.41.573-.845-1.907-1.738-3.924-2.684-6.05-.143.019.549.712.607 1.056-.23-.712-.502-1.42-.789-2.117-.31-.689-.659-1.358-.984-2.022a60.857 60.857 0 0 1-.936-1.936 25.118 25.118 0 0 1-.401-.932c-.129-.305-.258-.597-.368-.889.206.35-.076.278-.057.24-.635-1.282-.43-1.315-.922-2.113.062-.139-.568-1.028-1.036-1.869-.301-.401-.063-.248.329.488l-5.087-8.37c-.038.101-1.237-1.452-1.672-2.016l.311.124c-.287-.592-1.39-1.93-1.333-2.117-.53-.554.354.612 1.209 1.716.215.277.425.55.611.793.172.249.325.469.43.626.215.311.248.378-.062-.028-.134-.555-1.877-2.18-1.409-1.97-.846-1.151-1.777-2.184-2.474-3.364.219.33.917.76.195-.139-1.284-1.582-.425-.401-1.495-1.663l-.697-.765c-.182.058-1.103-1.443-.788-.721-.019-.311-1.987-2.18-1.624-2.218l.363.062c-.588-.655-1.127-.927-1.653-1.381-.062-.1-.177-.306-.119-.296-.182.071-.502-.35-.932-.818-.425-.473-.921-1.032-1.38-1.319-.592-.707-1.39-1.558-2.107-2.323-.745-.73-1.399-1.39-1.633-1.768a62.97 62.97 0 0 1-3.277-2.81c.263.186.602.463.722.468-.698-.74-.946-.836-1.687-1.4.096.048-.253-.32-.721-.813-.473-.487-1.055-1.099-1.466-1.486-1.175-.789-.913-.34-1.094-.335-.798-1.065-3.234-2.294-4.385-3.445.425.243 1.777 1.05.874.3-.85-1.022-2.254-1.314-3.869-2.614.086.172.182.34.263.516-.674-.654-2.656-1.505-2.317-1.639-.64-.287-2.006-1.4-1.958-1.037-1.39-.98-3.215-1.96-4.863-2.91-1.695-.87-3.224-1.688-4.045-2.39-.449-.196-1.543-.736-1.376-.502.674.468 1.07.382 1.295.616-.392-.19-.512-.167-.569-.153-.931-.501-1.686-.855-.673-.66-1.037-.563-1.643-.706-2.322-.874a11.239 11.239 0 0 1-1.137-.325c-.439-.153-.96-.372-1.647-.664.172-.057-.024-.182-.846-.488l-1.619-.42c-1.782-.755-.932-.655-.903-.856-.243-.09-.501-.181-.755-.277-.257-.081-.52-.158-.759-.234-.487-.143-.908-.249-1.156-.253l-1.113-.64c.817.463-.845-.163-1.323-.273l.473.11c-.153-.134-1.299-.497-1.901-.617.052.081.372.206.75.363.377.163.817.335 1.127.46-.525-.082-1.294-.388-2.006-.464.282-.125-1.581-.593-2.364-.837-.898-.296-1.07-.124-1.333-.205.005-.105-1.476-.435-.731-.373.32.057.683.296 1.218.354-.578-.235-.458-.416-1.748-.603-.97-.124.148.43-1.615-.105.483.062.588.005.97.024l-1.662-.487-.11.157c-.22-.095-.057-.076-.153-.12-.544.077-2.579-.563-3.009-.391-.86-.134-1.782-.445-2.598-.607l.162.014c-.984-.267-2.321-.482-3.191-.444l.048-.034c-.549-.08-1.853-.22-2.555-.205-1.371-.31-.387-.722-1.959-.698-1.423-.129-2.254.148-1.695.296-1.266-.157-2.632-.22-3.97-.296-1.342-.038-2.656-.048-3.835-.22-.368.062-.139.115-.898.134-.468-.014-.941-.048-1.424-.038-.477.014-.96.028-1.442.048-.965.038-1.93.071-2.871.11-.468.023-.936.019-1.39.052-.454.029-.898.058-1.333.081-.869.043-1.69.058-2.44.029 1.074-.158.057-.182.024-.282-.884.225-1.094-.081-1.39.215.105.153.024.234 1.079.22-1.113.1-2.508.315-3.783.473-1.275.153-2.431.263-3.057.268.626 0 .153.086-.315.23.119-.283-1.514-.03-2.727.281l-.144.182-.83-.015c-.464.139-.46.397-1.701.497-.077-.043-.158-.085-.392-.08-1.232.415-2.952 1.032-4.347 1.218-.391.005-.773.053-1.16.076-.569.187-1.505.598-.473.373-1.166.268-2.126.488-2.885.66-.382.086-.712.153-.999.2-.286.053-.52.1-.716.115-3.788 1.711-9.338 3.843-13.666 5.884l.082-.163c-1.218.43-.521.459-1.357.789.32-.287-.98.23-.138-.354-1.696.731-2.02 1.262-3.062 1.855-.09.22.812-.526.692-.25-.076.073-.659.336-1.237.622-.582.282-1.127.646-1.199.808-.444.153-.215-.177-.047-.382l-.917.66c-1.328.453 2.483-1.989 1.07-1.559l-.884.55c-.984.286 2.264-1.616-.053-.383-.936.67-1.605 1.444-.678 1.028-2.006 1.243-.683.994-2.852 2.29-.324.128.091-.158.54-.45.454-.277.927-.574.664-.535-.282.11-.55.244-.807.392-.253.157-.492.334-.726.506-.468.35-.912.703-1.376.96 1.037-.563.325.173-.291.617-1.142.603.583-.635-.96.33-.182.273-1.529 1.257-.263.555-.396.587-1.6 1.003-2.278 1.763-.607.172 1.242-1.491-.45-.416.378-.014-1.848 1.654-.806 1.29-.67.407-.836.326-.445-.11-1.003.527-1.944 1.927-2.479 1.827l-.172.401c-.32.163-.74.43-1.265.698-.387.306-.975.841-1.462 1.29-.478.46-.879.794-.946.645-.22.235-1.93 1.697-1.127 1.291 1.142-.813 1.113-1.176 1.891-1.458-.902.464-1.504 1.343-2.058 1.931l-.182-.005c-.33.354-1.194 1.047-1.318 1.358.22-.306.024-.235-.272.005l-.24.487c-1.346 1.415-.558.076-1.895 1.429l.945-1.104c-.21.244-.797.564-1.418 1.233-.139.368-.473.97-.602 1.271-.702.808-.473.206-1.08 1.09.268-.378.535-.765.808-1.138.1-.195-.846.474-1.83 1.516-.592.707-1.39 1.897-.33.922-.491.521-1.26 1.176-.96.684-1.074 1.218.278-.039-.597 1.06-.458.359-1.748 1.602-2.584 2.314l.745-1.295-.64.736c.655-1.105-.554.372-.267-.325-.468.482-.936 1.151-1.314 1.682.793-.617.526-.124.168.511-.35.646-.803 1.425-.488 1.31-.783 1.08-1.213 1.276-1.6 1.52a2.426 2.426 0 0 0-.602.516c-.215.263-.477.645-.764 1.3.34-.316-.21.903.693-.516-1.003 1.319-.373 1.123-1.624 2.628.721-1.261-1.194 1.066-.148-.764.014.181.75-.904.907-1.186-.506.478-.205-.325-1.19 1.066-.577.87-1.394 2.036-1.126 1.97.19.08.902-1.306.683-.646-1.156 1.711-1.548 1.869-1.725 2.777.679-1.114 1.027-1.276 1.128-1.176l-.746 1.32.048-.321c-1.39 1.993-.181.736-1.48 2.69-.268.264-.555.522-.813.799.091-.602 1.925-2.83 1.386-2.681-.42.64-.66 1.094-.898 1.534-.24.44-.497.855-.884 1.462.134-.296.34-.683.492-.965-.315.45-.989.688-1.839 2.729-.468 1.037-.033.325.072.416-1.213 2.14-1.376 2.886-2.088 4.301-.09-.41-1.299 2.48-.75.798.511-.645 2.093-3.828 2.35-4.683-.726.62 1.004-1.659.99-2.28-.994 1.71-1.219 1.472-1.558 1.649-.287.473-.478.98-.616 1.28.053.297.41-.33.607-.267-.144.239-.282.473-.42.707-.134.24-.25.483-.369.717-.234.473-.458.937-.654 1.377a25.191 25.191 0 0 0-.907 2.236c-.42.612-.492.325-.11-.463-.144.296-.292.592-.44.894-.133.305-.272.611-.406.917-.277.612-.554 1.228-.83 1.845-.283.612-.564 1.214-.842 1.811-.291.588-.51 1.2-.76 1.769.89-1.386-.95 2.619-.3 1.692.559-1.22 1.185-2.199 1.046-1.458-.325.765-.12-.076-.31.22-.23 1.051-.865 1.434-.99 2.504.784-2.265-.19-.573-.262-1.07-.506 1.663-.138-.134-.769 1.467a162.38 162.38 0 0 1-1.571 5.568c-.44 1.128-.86 2.6-1.242 4.048-.096.363-.187.722-.277 1.075l-.21 1.047a70.55 70.55 0 0 1-.383 1.821c-.377 1.071-.477.263-.802 1.453-.32 1.405.535-.975-.067 1.075l-.01-.21c-.066.645-.878 3.819-.596 4.502l-.187-.698c-.095.387-.095.765-.12 1.09-.1 0-.271.445-.219-.205-.11.315-.196.645-.258.984-.048.339-.081.688-.11 1.042-.052.707-.08 1.429-.167 2.141l.296-.889a40.493 40.493 0 0 1-.368 3.236c-.095 1.008-.2 2.002-.257 3.188l-.172-.086v1.414c-.134-.353-.383.932-.24 1.683-.104-1.229-.119-2.457-.18-3.695.18-1.013.128 1.133.348.502.196-.53.306-2.724.172-3.092-.09.836-.048.879-.038 1.539-.263.253-.167-1.018-.268-1.668-.038.439-.148 1.061-.086 1.161-.071-.879.034-1.749.21-3.188-.028.985.22-.511.24-.134-.201-.138-.092-1.524.195-3.293.468-1.218.43-3.336.865-5.367.066.875.047 1.965-.082 3.212.335-1.257.249-1.424.583-2.681-.062-.655-.186-1.138.09-2.815l.178-.053c.267-1.515.024-1.577.525-3.47.497-1.606.98-3.24 1.433-4.784.497-1.525 1.003-2.944 1.419-4.158l.181-.038c.034-.368.134-.832.282-1.358.172-.516.382-1.084.611-1.667.45-1.167.946-2.38 1.228-3.303.73-1.462 1.438-3.092 2.063-4.54.296-.732.66-1.377.956-1.95.305-.57.587-1.047.84-1.386 2.556-5.162 5.059-9.583 8.636-14.377l-.391.956c.477-.975.51-.487 1.093-1.362-.85.875.636-1.338 1.008-1.984.898-.989 1.825-2.193 2.718-3.378.936-1.152 1.81-2.304 2.522-3.255l.182.038c.167-.249.343-.502.535-.75.195-.244.406-.483.625-.727a39.05 39.05 0 0 1 1.395-1.453l1.519-1.486c.516-.507 1.084-.975 1.629-1.487.291-.186.788-.449 1.414-1.07.496-.645.883-1.133 1.39-1.635.506-.497 1.079-1.06 1.93-1.892.329-.282.711-.607 1.117-.951.205-.173.415-.35.63-.526.22-.172.45-.34.679-.511a94.902 94.902 0 0 1 2.555-1.855c4.944-4.254 10.695-7.67 16.598-10.978l.521-.053a99.53 99.53 0 0 1 2.193-1.257c.759-.401 1.557-.764 2.354-1.147.803-.373 1.615-.745 2.427-1.118.812-.368 1.657-.665 2.479-.999.826-.32 1.643-.64 2.45-.951.2-.077.401-.158.602-.234l.607-.201c.4-.134.797-.268 1.189-.402.779-.267 1.538-.53 2.264-.783l1.065-.383c.354-.114.693-.224 1.027-.33l-.425.46c1.715-.383 3.821-1.176 3.334-1.277.43-.095.908-.23 1.4-.377.496-.124 1.012-.258 1.504-.383.989-.248 1.906-.459 2.48-.454 1.762-.363 2.12-.611 3.591-.922.893-.134 1.643-.249 2.326-.349.679-.105 1.28-.215 1.882-.282 1.204-.153 2.374-.325 4.06-.569l-.84.086c-.363.12-.378.258.463.172.31-.062.759-.124 1.232-.186.478-.038.979-.081 1.4-.12.845-.08 1.375-.172.726-.315a49.914 49.914 0 0 0 2.909-.148c.253-.02.511-.038.769-.062l.778-.029c.521-.024 1.051-.043 1.577-.067 1.05-.043 2.101-.086 3.114-.105 1.008.005 1.973.081 2.856.172-.296-.115.597-.11.97-.172.798.024 1.605.043 2.407.096.798.076 1.596.157 2.369.234a70.48 70.48 0 0 0 2.25.191c.358.024.712.043 1.056.062.339.034.668.058.988.077.497.114-.821.076.469.253.769.057.028-.134.979-.077.645.058 1.289.125 1.934.196a21.77 21.77 0 0 1 1.93.278c1.275.238 2.546.492 3.802.755.315.067.626.129.936.196.311.071.616.157.922.234l1.815.468c.602.148 1.194.297 1.782.445.587.138 1.17.272 1.734.44 8.134 1.94 16.268 5.261 23.371 8.956l-.114.029c.625.248 1.294.54 1.944.917.644.383 1.299.794 1.934 1.195 1.275.803 2.512 1.53 3.516 1.94.496.407 2.02 1.339 1.542 1.21a18.96 18.96 0 0 1 1.62.965c.597.383 1.203.875 1.853 1.353.645.482 1.313.984 1.992 1.462.339.234.678.469 1.012.698.325.239.655.464.975.679-.22-.182-.359-.268-.636-.445 1.175 1.033 2.336 1.926 3.516 2.83a57.326 57.326 0 0 1 3.492 3.058c-.273-.19-.75-.573-.875-.578.43.473 1.051.903 1.601 1.31.535.42.988.831 1.113 1.204.53.502.506.22.171-.076 5.154 5.008 10.432 10.624 14.865 16.684 1.466 2.256 1.38 2.41 1.271 2.414-.125.014-.225-.163 1.026 1.544.129.33.254.133.22.224.97 1.324 1.022 2.366 1.796 3.222-.038-.521.487.587.626.544.755 1.463 1.165 2.357 1.571 3.16.196.401.411.77.631 1.195.22.42.478.879.807 1.433l-.196-.114c.421.635.827 1.31 1.223 2.002l.588 1.047c.191.349.353.712.53 1.066.692 1.42 1.366 2.781 2.073 3.87 6.563 15.433 9.648 31.636 9.152 48.029-.316 8.096-1.414 16.087-3.368 23.901-1.939 7.82-4.815 15.438-8.588 22.746a95.68 95.68 0 0 0-2.083 3.469c-.558.928-1.089 1.922-2.087 3.786.043-.177.162-.411-.019-.192.052.153-.287.818-.712 1.458-.411.65-.836 1.319-.84 1.553-3.306 5.095-6.597 9.655-10.762 14.324.626-.765.788-1.281.034-.382l-.679 1.037-.186.105c-.506.626-1.032 1.334-.392.793-5.244 5.87-11.181 11.017-17.539 15.462-6.358 4.445-13.131 8.192-20.138 11.336-1.667.746-3.74 1.511-5.827 2.361-1.037.445-2.116.799-3.153 1.171-1.041.368-2.049.727-2.985 1.057-5.679 1.553-11.158 2.628-16.694 3.441a172.17 172.17 0 0 1-17.1 1.319s.392-.177 1.385-.392c.497-.105 1.152-.22 1.978-.33.415-.052.874-.105 1.38-.148.492-.076 1.051-.105 1.658-.186ZM8.637 130.076c.138-.411.248-1.758.391-.674-.124.13-.277.818-.391.674Z"/><path fill="#5B9412" d="M16.776 95.168c-.019-.057.24-.454.296-.554-.148.416-.205.831-.386 1.142.143-.425.066-.377.09-.588ZM20.386 86.775c.048.177-.674 1.993-1.132 3.045l1.132-3.045ZM24.714 79.454c.449-.588.396-.383-.096.468-.09.029.048-.268.096-.468ZM24.785 78.799c.349-.612.583-.884.812-1.147-.1-.029-.76 1.448-.812 1.147ZM35.496 63.834c.263-.353.831-1.127 1.194-1.362-.377.292-1.294 1.726-1.194 1.362ZM41.06 57.344c.196-.196.292-.263.488-.516.387-.33.081.115-.206.435l-.282.081ZM183.696 42.786l-.788-.492.177-.014.611.506ZM224.73 96.358c.368.856.106.645.139.798-.282-.788.229.249-.139-.798ZM231.738 132.595l-.009-.286.238.09-.229.196ZM45.673 23.597c-1.858 1.352 1.26-.354-1.151.975.148-.32.444-.684 1.15-.975Z"/><path fill="#5B9412" d="M16.116 215.804c1.404 1.248 2.775 2.696 4.136 4.254 1.438 1.496 2.87 3.102 4.313 4.741a212.617 212.617 0 0 0 4.571 4.679 62.252 62.252 0 0 0 4.834 4.038c.368.297.215.383.182.555-.039.177.057.43.936 1.047.836.53 1.705 1.123 2.603 1.768.903.64 1.815 1.352 2.818 2.022.989.688 1.997 1.41 3.019 2.165.516.368 1.013.779 1.552 1.132l1.61 1.109c1.075.751 2.159 1.515 3.234 2.294 1.108.732 2.211 1.463 3.305 2.189 2.154 1.51 4.37 2.796 6.396 4.096l-.597-.11c1.533 1.018 3.84 1.381 5.54 2.285-.038.114-.635-.105-.3.239.3-.062 1.108.267 1.944.631.835.372 1.743.683 2.168.726.645.425.464.664 1.314 1.195l1.18.033c.807.048 1.619.297 2.493.545.87.258 1.767.607 2.698.98.927.368 1.883.784 2.871 1.133.998.315 2.02.597 3.057.779-.22.033-.64-.015-.353.177 1.652.339 3.377.788 5.197 1.132.902.196 1.82.392 2.75.598l1.396.315c.468.096.945.172 1.423.263l2.866.531c.96.167 1.91.387 2.875.501 1.925.263 3.831.536 5.684.741-.315.12-.621.339-.21.569.43-.402 2.737-.273 4.734-.148.215.138.535.2.936.229.401.038.879.014 1.399-.029 1.047-.071 2.269-.157 3.435.039l-.206.091c.879-.192 1.515-.082 2.112.009.597.081 1.16.12 1.867-.158l1.094.368c.764-.645 2.508.373 3.945.024l-.047-.129c1.342-.21 2.054.086 3.305-.071l.124.066c2.928-.239 4.648-.1 4.538-.583 1.06.311-2.823.431-1.17.875 9.62-1.19 19.459-2.882 28.783-5.692 1.118-.115 1.815-.249 2.111-.144.893-.415 3.444-1.285 4.194-1.816-.306.115.683.038 1.18-.11.874-.186 1.27-.521 1.691-.831.42-.316.864-.631 1.805-.889-.669.411-.855.664-.544.74.697-.492 1.566-.931 2.483-1.352.459-.206.927-.421 1.39-.631.454-.229.908-.459 1.343-.693-.244.206-.65.449-.521.564 1.767-1.31 3.601-1.553 5.182-2.605-.162.196-.339.373-.506.559.731-.229 1.108-.449 1.333-.602.219-.157.272-.277.31-.392.077-.229.096-.454 1.304-.97-.516.373-.267.373-.31.531.96-.803 2.34-1.616 3.721-2.409 1.351-.851 2.722-1.663 3.725-2.356-.105.11-.028.157-.028.157a78.574 78.574 0 0 1 1.724-1.037c.578-.349 1.146-.736 1.729-1.113 1.161-.76 2.341-1.558 3.487-2.457.95-.492.138.817 2.35-.937-.42-.411 3.702-3.02 1.973-2.566.496-.335 1.065-.717 1.657-1.119.573-.43 1.166-.884 1.744-1.319 1.146-.879 2.192-1.73 2.741-2.308-.692.851 1.366-.196-.148 1.104l1.4-.688c-.019.325-1.261.927-.693.85.798-.616 2.785-2.796 3.52-3.312.569-.755 1.056-1.543 1.672-2.394.597-.87 1.28-1.845 2.317-2.925-.836 1.156 1.017-.115.415.635l1.08-1.873c.363-.621.716-1.238 1.036-1.888.645-.755.478.153 1.333-1.013-.162-.053.186-.578.382-.985.153-.114.817-.903 1.533-1.658.182-.187.363-.373.54-.545a6.4 6.4 0 0 1 .492-.487c.311-.282.583-.469.76-.459.449-.201-.937 1.333-.082.611 1.161-1.429 1.061-1.615 2.217-3.044l.081.019c.411-.449.95-1.161 1.199-1.701.253-.536.282-.841-.234-.411-.521.659.477-.034-.425.846.272-.87 1.437-2.653 2.522-4.12-.297.554-.129.583-.144.884.277-.564.569-1.118.879-1.673.158-.277.315-.554.478-.831l.458-.861c.626-1.147 1.295-2.308 1.973-3.498-.205-.187-.148 1.123-.492 1.381a19.98 19.98 0 0 0 1.543-2.175c.449-.774.841-1.572 1.242-2.351a40.78 40.78 0 0 1 1.203-2.237c.211-.349.421-.688.645-1.008.215-.325.43-.641.664-.927-.181.444-.458.038-.377.047.821-1.476 1.132-1.218 1.524-2.26.258.009.587-1.262 1.055-2.294.124-.593.239-.211-.2.673.32-.726 1.003-2.595 1.896-4.64.936-2.032 1.825-4.354 2.689-5.974-.181.004.363-2.266.621-3.059l.224.435c.459-.646.918-2.658 1.252-2.686.095-.918-.396.736-.855 2.327-.115.397-.225.789-.325 1.138-.119.339-.22.635-.291.846-.153.42-.196.497-.043-.091.129-.12.243-.387.344-.712.09-.33.153-.717.219-1.066.125-.703.225-1.257.363-.927.277-.798.459-1.611.679-2.404.21-.794.501-1.549.879-2.275-.191.425.071 1.467.444.153.64-2.323.038-.708.492-2.61l.215-1.209c-.311-.172.668-2.036.033-1.291.401-.195.693-3.412 1.204-3.025l.358.44c.225-1.018-.048-1.769-.043-2.6.077-.124.229-.368.287-.296-.33-.163-.134-.751.047-1.482.182-.727.411-1.582.273-2.242.334-1.037.616-2.385.883-3.589.215-1.214.435-2.284.726-2.758.034-1.687.072-3.211.383-5.09.023.383-.01.904.128 1.028.33-1.166.177-1.482.182-2.581.038.129.205-.454.406-1.238.201-.779.459-1.759.602-2.413-.115-1.678-.521-1.128-.741-1.315.387-.731.344-1.911.297-3.135-.02-1.224-.182-2.49.152-3.432.091.574.316 2.433.502 1.052.693-1.515-.454-3.078-.148-5.52l-.554.607c.32-1.1-.468-3.58.124-3.351-.239-.807.076-2.891-.468-2.59.1-2.012-.21-4.435-.401-6.672-.306-2.222-.526-4.258-.196-5.563-.148-.559-.33-1.993-.554-1.654-.12.989.439 1.281.282 1.668-.086-.511-.254-.597-.335-.64-.09-1.248-.239-2.223.435-1.138-.086-1.4-.449-2.065-.846-2.815a8.757 8.757 0 0 1-.587-1.295c-.182-.521-.334-1.171-.502-2.036.263.105.287-.172.01-1.171l-.836-1.811c-.435-2.242.21-1.391.573-1.544-.081-.297-.172-.607-.258-.918-.105-.306-.21-.607-.305-.889-.206-.564-.416-1.037-.631-1.266l.057-1.568c-.038 1.147-.506-.903-.759-1.424l.248.525c.091-.258-.372-1.605-.678-2.26-.091.12-.024.526.053 1.004.071.482.186 1.027.262 1.414-.344-.545-.549-1.5-1.031-2.213.453.144-.392-1.964-.669-2.896-.287-1.08-.731-1.07-.826-1.381.181-.096-.564-1.725-.015-1.004.187.34.101.884.468 1.42-.109-.741.277-.794-.506-2.132-.607-.999-.597.54-1.18-1.558.301.492.483.535.779.898l-.578-1.969-.358.048c-.019-.287.081-.124.076-.258-.282-.215-.602-.922-.912-1.615-.158-.344-.311-.689-.468-.956-.168-.263-.325-.459-.468-.521-.464-.913-.684-2.06-1.061-2.968l.105.158c-.157-.588-.434-1.234-.75-1.83a9.94 9.94 0 0 0-.496-.847 10.315 10.315 0 0 0-.531-.683l.091.014c-.277-.593-1.046-1.936-1.61-2.571-.53-1.587.903-1.114-.334-2.533-.841-1.463-1.887-1.96-1.734-1.272-.664-1.357-1.552-2.7-2.393-4.038-.883-1.31-1.762-2.59-2.297-3.91-.359-.282-.277-.005-.841-.707-.296-.468-.583-.951-.912-1.405-.339-.45-.683-.904-1.022-1.358-.693-.903-1.386-1.801-2.064-2.68-.339-.44-.65-.89-.989-1.306a35.688 35.688 0 0 1-.965-1.242c-.611-.822-1.146-1.63-1.571-2.423.922.898.32-.158.459-.306-.913-.622-.564-1.205-1.209-1.147-.172.287-.353.306.334 1.352-.874-.99-2.034-2.174-3.037-3.307-1.003-1.133-1.863-2.199-2.25-2.839.377.65-.053.272-.535-.057.497-.215-.826-1.645-1.992-2.562l-.363.072-.458-.904c-.473-.325-.875.01-1.725-1.209a.679.679 0 0 0-.095-.526c-1.304-.84-3.172-1.954-4.218-3.254-.229-.421-.492-.803-.74-1.21-.578-.41-1.672-.955-.793-.071-1.013-.985-1.844-1.797-2.503-2.438a15.826 15.826 0 0 1-.831-.88c-.23-.257-.416-.477-.535-.692-4.438-2.213-10.222-6.113-15.094-8.947l.258-.115c-1.194-.96-.874-.052-1.72-.693.54.038-.788-.96.392-.635-1.805-1.234-2.66-.966-3.945-1.53-.33.167 1.089.358.668.574-.129-.01-.764-.411-1.428-.784-.659-.378-1.385-.65-1.633-.526-.411-.392.114-.516.463-.554l-1.294-.364c-1.247-1.175 3.763.722 2.512-.597l-1.146-.459c-.865-.937 3.2.913.458-.564-1.323-.373-2.636-.263-1.643.43-1.29-.54-1.696-.43-2.111-.348a1.91 1.91 0 0 1-.75.014c-.33-.058-.764-.22-1.452-.502-.325-.277.239-.072.821.153.578.239 1.19.483 1.008.186a4.17 4.17 0 0 0-.903-.564 8.323 8.323 0 0 0-.988-.334c-.664-.187-1.323-.34-1.877-.636 1.218.688-.048.665-.903.402-1.314-.78 1.075-.024-.893-.89-.425.11-2.312-.458-.808.364-.917.234-2.02-.937-3.272-.899-.515-.63 2.413-.167.263-1.161.21.507-2.918-.459-1.944.526-.826-.42-.817-.755-.105-.765-1.151-.712-3.258-.296-3.429-1.19l-.555.263c-.353-.249-.888-.516-1.471-.927-.554-.168-1.485-.325-2.249-.469-.769-.129-1.367-.296-1.233-.583-.377-.029-2.942-.707-2.054-.038 1.524.66 1.916.158 2.651.946-1.003-.745-2.312-.52-3.267-.597l-.091-.273c-.568-.043-1.815-.43-2.221-.239.454-.047.273-.253-.157-.401l-.659.239c-2.279-.277-.397-.74-2.608-1.08l1.724.057c-.377-.014-1.056-.502-2.135-.607-.473.249-1.309.488-1.705.674-1.261-.076-.492-.468-1.768-.32.554-.048 1.113-.11 1.672-.148.268-.082-.984-.717-2.656-.966-1.089-.048-2.804.177-1.156.617-.831-.125-1.972-.507-1.275-.645-1.906-.173.201.387-1.457.363-.64-.292-2.694-.827-3.926-1.286l1.777-.377-1.147-.125c1.534-.291-.721-.42.168-.803-.784-.157-1.753-.095-2.527-.052 1.118.506.449.678-.411.865-.869.2-1.93.387-1.619.75-1.572.005-2.035-.444-2.527-.784-.248-.167-.502-.31-.898-.353-.401-.043-.946-.005-1.772.272.53.191-1.022.688.955.526-1.949-.11-1.342.679-3.625.368 1.705-.268-1.83-.717.64-1.109-.167.23 1.376.186 1.758.124-.803-.272.186-.697-1.83-.717-1.232.053-2.913.053-2.665.416.053.397 1.868-.024 1.084.368-2.431.091-2.851-.42-3.84.301 1.533-.114 1.925.278 1.901.55l-1.767.234.334-.277c-2.856-.081-.826.511-3.578.545-.439-.153-.883-.325-1.323-.459.631-.497 4.027.038 3.506-.679-.902.02-1.5.13-2.082.215-.583.091-1.156.139-2.006.134.372-.095.883-.167 1.256-.234-.645-.01-1.357-.889-3.888-.11-1.309.335-.325.292-.335.564-2.88.301-3.697.76-5.531 1.042.306-.578-3.267.392-1.309-.425.984.186 5.116-.445 6.1-.975-1.113-.54 2.278-.11 2.847-.803-2.326.186-2.274-.44-2.689-.813-.655.029-1.271.253-1.648.354-.234.406.616.325.702.717-.325.014-.65.033-.97.062a31.887 31.887 0 0 0-2.718.454c-1.112.239-2.068.52-2.751.798-.888-.072-.678-.487.339-.66-.382.063-.769.13-1.156.192-.386.076-.773.157-1.165.234-.779.153-1.562.301-2.345.44-.784.133-1.562.262-2.326.392-.77.11-1.51.296-2.236.43 1.992.172-3.167.903-1.777 1.108 1.567-.229 2.971-.105 2.193.368-.96.187-.029-.277-.459-.31-1.137.621-2.02-.086-3.085.721 2.693-.845.348-.87.735-1.462-1.93.74.005-.358-1.977.11-1.906.808-4.251 1.73-6.391 2.466-1.419.244-3.129.832-4.782 1.463-.41.162-.821.32-1.222.478-.392.176-.779.353-1.147.52-.74.34-1.423.65-2.01.89-1.329.267-.703-.584-2.088-.13-1.576.646 1.404.082-1.032.789l.182-.191c-.645.416-4.366 1.591-4.7 2.619l.449-.87c-.454.148-.788.454-1.113.674-.105-.167-.679-.1-.039-.535a5.016 5.016 0 0 0-1.16.358 10.61 10.61 0 0 0-1.08.617c-.711.454-1.409.96-2.159 1.357l1.132-.191c-1.218.798-2.297 1.338-3.377 1.864-1.05.573-2.101 1.128-3.276 1.892l-.105-.344-1.333 1.028c.09-.249-.225-.225-.64-.053-.416.168-.927.493-1.213.865.52-.535 1.084-.998 1.633-1.496l1.662-1.476c1.147-.44-.931 1.037-.1.946.712-.067 2.895-1.472 3.1-1.974-.884.468-.884.564-1.485 1.066-.521-.249.788-1.018 1.29-1.663-.454.267-1.161.53-1.185.717.76-.75 1.671-1.253 3.195-2.065-.94.707.702-.029.377.296-.08-.44 1.319-1.319 3.258-2.203 1.59-.191 3.492-1.96 5.794-2.873-.74.818-1.753 1.668-3.033 2.447 1.485-.449 1.552-.726 3.038-1.175.54-.622.85-1.252 2.646-2.194l.225.253c1.633-.826 1.456-1.28 3.663-2.045a234.269 234.269 0 0 0 5.655-1.802c1.83-.545 3.559-1.009 5.025-1.424l.191.272c.363-.282.875-.54 1.481-.774a28.18 28.18 0 0 1 2.035-.574c1.442-.358 2.966-.688 4.046-1.099 1.939-.225 3.997-.674 5.832-1.066.912-.215 1.791-.306 2.55-.396.765-.082 1.429-.106 1.935-.034C109.726.446 115.744-.214 122.861.063l-1.204.45c1.276-.33.822.272 2.069.215-1.424-.383 1.738-.478 2.631-.67 1.577.278 3.377.354 5.15.388 1.762.09 3.491.095 4.915.08l.071.33c.363-.038.731-.057 1.108-.057.373.005.755.043 1.137.081.769.086 1.562.22 2.374.378s1.638.344 2.479.526c.841.181 1.686.44 2.551.63.372.21.941.632 1.977.804.989-.053 1.739-.053 2.58.062.84.124 1.791.263 3.19.473.502.129 1.075.282 1.691.454.306.086.621.177.941.268.32.1.635.215.96.325 1.28.449 2.56.927 3.53 1.328 1.92.354 3.769.975 5.641 1.558.931.31 1.877.583 2.79.956l2.751 1.104c.917.373 1.839.75 2.761 1.123.907.416 1.81.832 2.722 1.248.917.406 1.834.817 2.752 1.223.917.411 1.815.875 2.736 1.29l.34.603c.912.373 1.834.779 2.77 1.21.922.448 1.834.97 2.756 1.48.922.522 1.844 1.057 2.761 1.597.917.545 1.781 1.171 2.665 1.75l2.599 1.758c.215.144.425.287.635.43.205.153.406.306.611.454.406.301.807.598 1.204.89a114.789 114.789 0 0 0 3.434 2.442c.358.258.702.516 1.041.76l-.893.095c1.495 1.477 3.793 2.887 3.673 2.203.378.373.832.75 1.314 1.128.468.397.951.803 1.419 1.195.926.789 1.757 1.549 2.077 2.189 1.524 1.51 2.126 1.577 3.459 2.782.721.807 1.332 1.476 1.891 2.079.559.597 1.075 1.118 1.548 1.663.969 1.075 1.948 2.093 3.358 3.565l-.645-.774c-.406-.239-.631-.086.014.688.287.254.654.64 1.041 1.061.363.435.75.899 1.075 1.286.664.765 1.146 1.195.965.368.602.913 1.318 1.845 2.092 2.786.196.235.392.474.588.712l.568.741 1.156 1.487a94.602 94.602 0 0 1 2.245 2.968 23.187 23.187 0 0 1 1.71 2.968c-.024-.416.597.454.96.75.525.798 1.046 1.61 1.533 2.442.459.846.912 1.687 1.357 2.505a57.59 57.59 0 0 0 1.337 2.346c.22.373.454.722.669 1.07.21.35.42.684.635 1.004.191.584-.759-.683-.057.698.497.775.248-.114.879.837.401.664.788 1.338 1.16 2.017.373.683.745 1.367 1.051 2.079a136.39 136.39 0 0 1 1.806 4.268l.43 1.06c.133.354.253.718.377 1.071.253.712.501 1.42.75 2.118.248.697.501 1.38.759 2.055.134.334.263.669.392 1.003.129.33.239.67.363.994.454 1.162.903 2.338 1.342 3.513l.659 1.778c.196.602.378 1.204.564 1.811.368 1.215.731 2.428 1.099 3.642l.272.913.224.923.445 1.845c.291 1.228.582 2.456.874 3.675.229 1.233.453 2.461.683 3.68.114.612.224 1.219.339 1.821l.167.908.129.908c.172 1.209.339 2.409.506 3.594l-.167-.086c.244.774.425 1.635.492 2.528.062.894.076 1.817.1 2.72.039 1.802.144 3.513.602 4.77-.114.764.043 2.896-.272 2.346.129.631.186 1.396.21 2.247.034.846-.057 1.778-.095 2.738-.053.966-.101 1.96-.101 2.949-.004.492.015.985.024 1.472 0 .483.019.961.057 1.424.034-.339.015-.535-.028-.927-.277 1.855-.344 3.599-.411 5.377-.11 1.773-.291 3.57-.64 5.506-.024-.402.005-1.128-.134-1.262-.224.736-.157 1.644-.138 2.466-.005.818-.077 1.544-.502 1.902-.124.861.272.67.335.139-1.495 8.45-3.206 17.483-6.052 26.005-1.29 2.949-1.615 2.925-1.763 2.791-.167-.139-.081-.368-.797 2.06-.292.329.148.382-.02.387-.558 1.888-1.92 2.49-2.082 3.885.645-.325-.148.918.081 1.066-.97 1.711-1.624 2.696-2.168 3.623-.278.459-.497.918-.765 1.42a18.26 18.26 0 0 0-.802 1.792l-.105-.316a25.408 25.408 0 0 1-1.003 2.624c-.191.435-.387.87-.593 1.305-.2.435-.439.846-.654 1.262-.884 1.663-1.724 3.274-2.178 4.798-10.585 17.01-24.246 31.257-40.663 42.02-8.177 5.21-16.76 9.617-25.769 13.053a120.209 120.209 0 0 1-28.224 7.054c-2.331-.004-3.564.034-4.853.129-1.29.072-2.622.254-5.13.603.2-.12.511-.173.167-.235-.105.258-.989.383-1.906.411-.917.043-1.863.086-2.092.345-7.26.2-13.981.148-21.418-.746 1.185.072 1.815-.287.416-.402l-1.495.173-.22-.168c-.965-.038-2.03.034-1.07.354-9.367-1.052-18.49-3.422-27.174-6.696-8.693-3.274-16.956-7.441-24.847-12.144-1.848-1.167-4.012-2.677-6.281-4.13-1.146-.707-2.24-1.515-3.32-2.27-1.08-.76-2.125-1.496-3.1-2.179-5.325-4.622-10.035-9.349-14.563-14.262-4.438-4.994-8.67-10.175-12.978-15.834 0 0 .55.186 1.557.932.502.373 1.123.884 1.844 1.582.358.349.745.745 1.156 1.195.382.449.807.96 1.309 1.486ZM47.951 22.03c.554-.058 1.968-.823 1.084.171-.257-.12-1.093.11-1.084-.172Z"/><path fill="#5B9412" d="M87.778 7.251c.034-.086.612-.038.75-.028-.501.143-.922.454-1.356.434.511-.152.401-.243.606-.406ZM98.343 5.148c-.124.254-2.345.856-3.673 1.128l3.673-1.128ZM108.37 4.78c.874.12.645.244-.506.34-.091-.115.281-.21.506-.34ZM109.029 4.202c.826-.077 1.251.019 1.662.115-.043-.196-1.901.286-1.662-.115ZM130.66 4.737c.521.01 1.653-.043 2.111.258-.525-.239-2.536.03-2.111-.258ZM140.678 5.607c.32.067.444.124.826.12.573.196-.076.263-.578.205l-.248-.325ZM251.029 133.522l-.105-1.094.224.157-.119.937ZM226.902 209.39c-.53.966-.626.488-.759.612.568-.808.014.463.759-.612ZM196.859 240.996l.268-.201.181.445-.449-.244Z"/></svg>