<svg xmlns="http://www.w3.org/2000/svg" width="100" height="100" fill="none"><path fill="#FC981A" d="M25 31.25v37.5h50V34.375a15.519 15.519 0 0 1-9.334-3.125H25Z"/><path fill="#FC981A" d="M59.375 14.063 50 6.25v6.25c-20.71 0-37.5 16.79-37.5 37.5 0 16.05 10.086 29.737 24.263 35.09l2.798-2.334C25.68 78.336 15.625 65.346 15.625 50c0-18.984 15.39-34.375 34.375-34.375v6.25l9.375-7.813Z"/><path fill="#FC981A" d="M25 31.25h6.25v37.5H25v-37.5Z"/><path fill="#B37324" d="M46.875 31.25v9.375L50 37.5l3.125 3.125V31.25h-6.25Z"/><path fill="#F0F0F0" d="M59.375 59.375h9.375V62.5h-9.375v-3.125ZM59.375 53.125h9.375v3.125h-9.375v-3.125Z"/><path fill="#FC981A" d="M80.134 33.49A34.185 34.185 0 0 1 84.375 50c0 18.985-15.39 34.375-34.375 34.375v-6.25l-9.375 7.813L50 93.75V87.5c20.71 0 37.5-16.789 37.5-37.5a37.27 37.27 0 0 0-4.534-17.831c-.893.53-1.838.975-2.832 1.322ZM75 31.25c6.904 0 12.5-5.596 12.5-12.5S81.904 6.25 75 6.25s-12.5 5.596-12.5 12.5 5.596 12.5 12.5 12.5Z"/><path fill="#FC981A" d="M65.625 18.75c0-6.373 4.773-11.622 10.938-12.392A12.574 12.574 0 0 0 75 6.25c-6.903 0-12.5 5.597-12.5 12.5s5.597 12.5 12.5 12.5c.53 0 1.05-.044 1.563-.108-6.165-.77-10.938-6.019-10.938-12.392Z"/><path fill="#F0F0F0" d="M82.813 15.625 73.436 25l-6.25-6.25 3.126-3.125 3.124 3.125 6.25-6.25 3.126 3.125Z"/></svg>