<svg xmlns="http://www.w3.org/2000/svg" width="100" height="100" fill="none"><g clip-path="url(#a)"><path fill="#FC981A" d="M12.65 55.783a.833.833 0 0 1-.433-1.546l8.8-5.347-11.744 6.777a.833.833 0 0 1-.852-1.432l21.412-13.107L4.636 55.667a.834.834 0 0 1-.855-1.429L37.52 33.38 2.133 53.81a.833.833 0 0 1-.857-1.428l38.056-23.619-37.2 21.474a.834.834 0 0 1-.846-1.437l1.04-.625-.193.112a.834.834 0 0 1-.855-1.43L28.429 30.07 2.133 45.25a.833.833 0 0 1-.862-1.417l31.627-19.945L2.133 41.65a.833.833 0 0 1-.865-1.423L30.642 21.51 2.132 37.97a.833.833 0 0 1-.851-1.432l.785-.478a.833.833 0 0 1-.79-1.465l11.376-7.082-10.52 6.072a.833.833 0 0 1-.866-1.418l18.692-12-17.825 10.29a.834.834 0 0 1-.857-1.429l1.077-.666-.22.126a.833.833 0 0 1-.879-1.415L18.622 15.51l-16.49 9.52a.833.833 0 0 1-.886-1.41l14.666-10-13.78 7.963a.833.833 0 0 1-.898-1.401l12.417-8.802-11.518 6.648a.833.833 0 0 1-.884-1.41l3.702-2.5-2.818 1.62a.835.835 0 1 1-.904-1.405l4.937-3.541-4.033 2.328a.833.833 0 0 1-.967-1.347l5.86-5.166-4.893 2.821A.833.833 0 0 1 1.09 8.157L3.888 4.99 2.133 6A.833.833 0 0 1 .999 4.867l.687-1.209a.833.833 0 0 1-.29-1.545L3.333 1a.833.833 0 0 1 1.141 1.133l-.508.894L7.468 1a.823.823 0 0 1 1.061.193.833.833 0 0 1-.02 1.079L5.711 5.438 13.409 1a.833.833 0 0 1 .967 1.345L8.519 7.512 19.802 1a.834.834 0 0 1 .904 1.398L15.769 5.94 24.332 1a.834.834 0 0 1 .884 1.41L21.51 4.917 28.304 1a.833.833 0 0 1 .899 1.4l-12.415 8.8L34.462 1a.833.833 0 0 1 .885 1.408l-14.666 9.99L40.429 1a.833.833 0 0 1 .878 1.413l-17.37 11.56L46.418 1a.834.834 0 0 1 .855 1.428l-1.075.667L49.834 1a.834.834 0 0 1 .866 1.422L32 14.417 55.25 1a.833.833 0 0 1 .859 1.428L44.739 9.5 59.472 1a.834.834 0 0 1 .85 1.432l-.681.416L62.844 1a.833.833 0 0 1 .865 1.423L34.332 21.135 69.219 1a.833.833 0 0 1 .861 1.425L38.456 22.357 75.453 1a.833.833 0 0 1 .855 1.428L49.166 19.21 80.71 1a.833.833 0 0 1 .847 1.435l-1 .605 3.151-1.825a.833.833 0 0 1 .855 1.428L46.5 26.275l38.034-21.96a.833.833 0 0 1 .853 1.428l-33.72 20.849L84.533 7.618a.833.833 0 0 1 .85 1.434L63.978 22.167l20.555-11.87a.833.833 0 0 1 .848 1.433l-8.793 5.343 7.945-4.586a.834.834 0 0 1 .856 1.428L59.044 30.38l25.489-14.713a.833.833 0 0 1 .855 1.43L67.533 28.178l17-9.813a.833.833 0 0 1 .853 1.428l-11.667 7.219 10.809-6.239a.834.834 0 0 1 .86 1.425L69.133 32.435l15.4-8.89a.834.834 0 0 1 .871 1.418L63.413 39.36l21.12-12.193a.833.833 0 0 1 .876 1.415l-18.45 12.24 17.574-10.144a.834.834 0 0 1 .88 1.414l-14.69 9.868 13.81-7.972a.833.833 0 0 1 .868 1.42l-3.263 2.109 2.395-1.382a.833.833 0 0 1 .896 1.402L74.873 44.97l9.666-5.575a.834.834 0 0 1 .889 1.407l-3.944 2.706 3.055-1.763a.833.833 0 0 1 .925 1.382l-6.283 4.833 5.358-3.092a.833.833 0 0 1 .909 1.395l-.622.452a.846.846 0 0 1 .803.333.834.834 0 0 1-.113 1.109l-2.375 2.148 1.398-.807a.834.834 0 0 1 1.167 1.085l-1.112 2.289a.834.834 0 0 1 .744 1.486l-2.26 1.305a.833.833 0 0 1-1.167-1.085l1.108-2.278-5.833 3.363a.834.834 0 0 1-.977-1.333l2.374-2.147-6.044 3.484a.833.833 0 0 1-.908-1.395l.198-.144-2.666 1.539a.834.834 0 0 1-.927-1.382l6.285-4.842-10.779 6.224a.833.833 0 0 1-1.106-.285c-.114-.18-.154-.396-.114-.604a.833.833 0 0 1 .332-.518l3.944-2.705-7.132 4.112a.833.833 0 0 1-.897-1.402l10.564-7.432-15.305 8.834a.833.833 0 0 1-.869-1.42l3.267-2.112-6.119 3.532a.833.833 0 0 1-.881-1.412l14.69-9.868-19.54 11.28a.834.834 0 0 1-.877-1.415l18.45-12.24L38.5 55.667a.833.833 0 0 1-.873-1.417l22-14.402-27.407 15.819a.833.833 0 0 1-.861-1.425l16.258-10.235-20.197 11.666a.833.833 0 0 1-.857-1.428L38.23 47.02l-14.983 8.647a.834.834 0 0 1-.857-1.429l17.85-11.071-21.666 12.51a.834.834 0 0 1-.859-1.427l26.334-16.462-30.98 17.879a.833.833 0 0 1-.417.116Z"/><path fill="#FC981A" d="M32.894 49.117a.833.833 0 0 1-.451-1.535l15.891-10.21L28.184 49a.833.833 0 0 1-.865-1.422l18.227-11.643L22.913 49a.833.833 0 0 1-.864-1.423l18.49-11.743-22.705 13.1a.833.833 0 0 1-.863-1.424l22.197-14.136-22.487 12.98a.833.833 0 1 1-.865-1.425L37.72 30.977 15.348 43.894a.833.833 0 1 1-.866-1.425L36.29 28.593l-23.122 13.35a.833.833 0 0 1-.866-1.421l21.445-13.77L9.61 40.685a.833.833 0 0 1-.868-1.42L29.134 26.12 8.801 37.858a.833.833 0 1 1-.857-1.43l1.367-.846-.51.293a.833.833 0 0 1-.862-1.425l5.729-3.607L8.8 33.652a.833.833 0 0 1-.865-1.424l6.98-4.456-6.115 3.53a.834.834 0 0 1-.88-1.413l12.167-8.14L8.8 28.267a.833.833 0 0 1-.878-1.415l6.833-4.54L8.8 25.747a.834.834 0 0 1-.88-1.413l3.471-2.316-2.591 1.5a.833.833 0 0 1-.902-1.398l6.102-4.357-5.197 3a.833.833 0 0 1-.923-1.383l4.983-3.808-3.778 2.18a.833.833 0 0 1-.972-1.333l7.72-6.93a.833.833 0 0 1 .404-.867l1.666-.958a.833.833 0 0 1 .974 1.333L15.2 12.3l8.032-4.633a.833.833 0 0 1 .923 1.383l-4.988 3.803 9-5.186a.833.833 0 0 1 .901 1.4l-6.103 4.345 9.96-5.745a.833.833 0 0 1 .878 1.413l-3.47 2.315 6.46-3.728a.833.833 0 0 1 .879 1.413l-6.839 4.538 10.334-5.951a.833.833 0 0 1 .88 1.413L29.88 17.215l16.535-9.548a.833.833 0 0 1 .865 1.423l-6.992 4.46 10.199-5.883a.833.833 0 0 1 .861 1.425l-5.726 3.601 8.711-5.026a.833.833 0 0 1 .855 1.428l-1.35.834 3.932-2.262a.833.833 0 0 1 .868 1.42L38.248 22.229l25.23-14.562a.833.833 0 0 1 .866 1.422l-21.42 13.745L68.988 7.792a.833.833 0 0 1 .863 1.423L48.018 23.108l22-12.703a.833.833 0 0 1 .863 1.425L49 25.772l22.382-12.925a.834.834 0 1 1 .865 1.425L50.056 28.41l23.562-13.603a.833.833 0 0 1 .863 1.423l-18.5 11.755 20.897-12.06a.833.833 0 0 1 .866 1.422L59.516 29l18.352-10.603a.833.833 0 0 1 .866 1.423l-15.9 10.217 15.035-8.68a.833.833 0 0 1 .874 1.418L62.708 33.334l15.166-8.752a.834.834 0 0 1 .87 1.421l-8.39 5.439 7.52-4.334a.833.833 0 0 1 .885 1.41l-11.46 7.8 10.575-6.104a.834.834 0 0 1 .88 1.415l-4.888 3.266 4.008-2.313a.833.833 0 0 1 .92 1.383L69.531 41l8.333-4.813a.833.833 0 0 1 .9 1.4l-1.745 1.241.82-.471a.833.833 0 0 1 .96 1.352l-7.916 6.823a.833.833 0 0 1-.365 1.013L68 49a.833.833 0 0 1-.96-1.352l3.978-3.43L62.728 49a.833.833 0 0 1-.9-1.398l1.745-1.243L59 49a.833.833 0 0 1-.922-1.383l9.255-7.037-14.6 8.42a.833.833 0 0 1-.881-1.413l4.888-3.267L48.633 49a.833.833 0 0 1-.887-1.408l11.458-7.8L43.254 49a.833.833 0 0 1-.87-1.42l8.402-5.448L38.888 49a.833.833 0 0 1-.875-1.416l16.036-10.556L33.311 49a.833.833 0 0 1-.417.117Z"/><path fill="#FC981A" d="M45.654 38.833a.834.834 0 0 1-.597-1.415l3.197-3.28-7.577 4.375a.833.833 0 0 1-.935-1.373l4.185-3.334-5.873 3.39a.833.833 0 0 1-.91-1.393l2.897-2.125-3.614 2.087a.833.833 0 0 1-.916-1.389l4.633-3.468-5.103 2.945a.833.833 0 0 1-.914-1.388l4.432-3.299-4.392 2.535a.833.833 0 0 1-.923-1.383l4.465-3.42-3.903 2.253a.833.833 0 0 1-.947-1.364l4.142-3.4-2.697 1.555a.834.834 0 0 1-.98-1.334l2.53-2.333a.833.833 0 0 1-.148-1.51l4.891-2.834a.834.834 0 0 1 .982 1.334l-1.578 1.462 4.946-2.855a.833.833 0 0 1 .947 1.364l-4.143 3.402 6.215-3.587a.833.833 0 0 1 .923 1.382l-4.465 3.42 5.577-3.22a.833.833 0 0 1 .915 1.389l-4.435 3.311 4.946-2.855a.833.833 0 0 1 .917 1.388l-4.63 3.467 4.695-2.71a.833.833 0 0 1 .91 1.393l-2.902 2.127 2.407-1.388a.833.833 0 0 1 .937 1.373l-4.182 3.323 3.07-1.771a.833.833 0 0 1 1.013 1.302l-3.295 3.38a.833.833 0 0 1 .595 1.535l-4.891 2.833a.833.833 0 0 1-.417.103ZM94.106 98.652a.833.833 0 0 1-.688-1.304L95.37 94.5l-2.236 1.292a.833.833 0 0 1-1.05-1.264l2.033-2.38-1.723 1a.834.834 0 0 1-1.039-1.278l2.115-2.37-1.916 1.107a.834.834 0 0 1-1.059-1.254l2.99-3.61-3.128 1.807a.833.833 0 0 1-1.023-1.29l2.725-2.907-2.875 1.667a.834.834 0 0 1-.965-1.35l.881-.77-.78.45a.833.833 0 0 1-.981-1.333l2.046-1.885-2.191 1.265a.833.833 0 0 1-1-1.317l3.126-3.062-3.63 2.095a.834.834 0 0 1-.98-1.333l2.855-2.62-3.378 1.952a.833.833 0 0 1-1-1.314l4.098-4.056-5.188 3a.833.833 0 0 1-.958-1.355l2.888-2.479-3.712 2.125a.833.833 0 0 1-.936-1.366l1.873-1.5-2.587 1.5a.833.833 0 0 1-.978-1.334l4.645-4.25-6.422 3.709A.833.833 0 0 1 75 68.4l.041-.032-.821.475a.834.834 0 0 1-.969-1.346l5.362-4.725-7.923 4.573a.834.834 0 0 1-.932-1.377l3.99-3.121-6.228 3.595a.834.834 0 0 1-.9-1.4l.815-.58-2.61 1.5a.833.833 0 0 1-.905-1.397l2.833-2.05-5.545 3.202a.833.833 0 1 1-.833-1.444l19.458-11.23a.833.833 0 0 1 .907 1.397l-2.834 2.053 3.784-2.183a.834.834 0 0 1 .9 1.4l-.819.582 1.405-.81a.834.834 0 0 1 .932 1.376l-3.992 3.124 4.902-2.834a.833.833 0 0 1 .968 1.347l-5.358 4.722 6.522-3.765a.833.833 0 0 1 .911 1.391l-.043.032.183-.105a.834.834 0 0 1 .979 1.333l-4.667 4.24 5.385-3.11a.833.833 0 0 1 .938 1.374l-1.873 1.5 1.973-1.14a.834.834 0 0 1 .96 1.355L89.008 68.8l3.032-1.75a.834.834 0 0 1 1 1.313l-4.09 4.065 4.361-2.518a.833.833 0 0 1 .98 1.333l-2.856 2.62 2.766-1.596a.834.834 0 0 1 1 1.316l-3.125 3.062 2.982-1.722a.833.833 0 0 1 .982 1.334L94 78.143l1.666-.963a.833.833 0 0 1 .967 1.348l-.883.77.36-.206a.833.833 0 0 1 1.023 1.29l-2.728 2.911 2.261-1.308a.833.833 0 0 1 1.059 1.253l-2.99 3.609 2.44-1.405a.833.833 0 0 1 1.036 1.276L96.1 89.072l1.383-.799a.833.833 0 0 1 1.05 1.264L96.5 91.915l1.206-.697a.833.833 0 0 1 1.105 1.192l-1.951 2.857 1-.579a.833.833 0 0 1 .833 1.444l-4.167 2.408a.815.815 0 0 1-.42.112Z"/><path fill="#FC981A" d="M54.93 71.735a.833.833 0 0 1-.633-1.375l1.853-2.167-2.863 1.654a.833.833 0 0 1-.889-1.41l6.747-4.617-7.697 4.443a.833.833 0 0 1-.881-1.413l4.053-2.725-4.775 2.758a.834.834 0 0 1-.918-1.386l10.801-8.132L47.197 64.6a.833.833 0 0 1-.909-1.393l7.962-5.825-9.238 5.333a.833.833 0 0 1-.91-1.393l6.083-4.457L43.018 61a.833.833 0 0 1-.896-1.403l2.22-1.564-2.849 1.645a.834.834 0 0 1-.895-1.403l3.484-2.442-3.574 2.062a.833.833 0 0 1-.928-1.378l9.378-7.319-1.875 1.082a.833.833 0 0 1-.923-1.382l6.472-4.956a.834.834 0 0 1 .388-.939l3.46-2a.833.833 0 0 1 .922 1.382l-.062.048 1.152-.666a.833.833 0 0 1 .928 1.378l-9.38 7.322 9.5-5.489a.833.833 0 0 1 .895 1.404l-3.478 2.441 2.615-1.508a.833.833 0 0 1 .896 1.402l-2.22 1.563 4.347-2.51a.834.834 0 0 1 .91 1.393l-6.078 4.455 9.333-5.388a.833.833 0 0 1 .907 1.393l-7.95 5.825 11.023-6.366a.834.834 0 0 1 .918 1.386l-10.806 8.137L74.9 50.5a.834.834 0 0 1 .883 1.413l-4.05 2.72 5.404-3.118a.834.834 0 0 1 .886 1.41L60.735 64.758a.833.833 0 0 1-.148.834l-1.854 2.166.804-.463a.833.833 0 0 1 .833 1.442l-5.023 2.901a.815.815 0 0 1-.417.097Z"/><path fill="#4F030C" d="M86.207 8.078c0-1.588.728-5.565-.912-6.608-10.02-1.12-20.563.008-30.747-.378-16.833.15-33.706-.254-50.533 0C2.44 1.177.737 1.773.47 3.518 3.834 65.735-15.5 54.91 39.02 55.575c-.033 6.792 9.745 10 13.707 14.968 3.79 4.249 9.677.645 8.5-4.666 15.988.5 26.902 14.867 30.223 29.483.459 1.812 1.089 3.394 3.178 3.737 13.392-.048-2.75-40.97-10.5-43.812 2.049-.373 2.289-2.716 2.072-4.515l.007-42.692Zm8.143 67.99c.6 3.3 6.052 22.652.139 20.609-3.229-16-17.774-36.265-35.706-31.564.604 4.244-.753 8.222-4.785 3.582-2.82-4.218-17.366-9.925-10.734-15.105 4.166-3.5 8.211-7.212 12.384-10.677 3.457-2.19 3.137 3.826 3.137 5.536 16.049.915 31.913 10.321 35.565 27.62ZM9.54 29.255c.222-4.037-.428-8.373.222-12.278 3.405-.87 8.857-3.992 7.595-8.182 16.702.155 33.405 0 50.11.055 1 .06 1.142.235 1.5 1.46a8.897 8.897 0 0 0 4.815 6.039c1.345.618 3.268.474 3.352 2.213.166 6.951.241 14.156-.142 21.033-3.334.834-8.984 4.334-7.74 8.065a.207.207 0 0 0 .058.15c-2.563.472-5.433-.333-8.068-.26.87-12.166-9.7-4.451-14.018.267-5.867-1.103-27.667 2.423-29.585-1.755-4.03-10.562-9.819-.538-8.099-16.807Zm64.147 20.267a37.069 37.069 0 0 0-3.888-1.023c9.971-17.734 10.134 3.35 9.741-25.684 2.055-9.97-5.59-4.683-7.928-12.257-.457-1.426-.334-2.593-2.08-2.741-16.942-.167-33.978.015-50.937 0-3.991-.179-3.028 4.5-5.453 6.466-4.085 3.109-7.145 1.06-6.015 8.115.742 5.686-1.54 12.966.833 18.015a8.5 8.5 0 0 1 7.183 5.987c1.119 5.544 24.846 1.112 30.886 2.45-2.072 1.933-4.334 3.527-6.322 5.575H5.667c-1.32 0-2.425.299-2.792-1.415.389-16.7-.5-34.573.4-50.768 25.858-.017 51.879.011 77.79 0 5.987-.442 1.484 21.07 2.732 26-.644 8.375 1.261 18.732-.695 26.188a32.105 32.105 0 0 0-9.415-4.908Z"/><path fill="#262626" d="M45.319 38.93c10.666-1.57 12.556-17.378 2.061-20.788-17.83-5.454-21.023 23.493-2.062 20.788Zm-9.562-15.39c4.278-8.068 16.623-3.768 16.358 4.905-.742 15.633-23.197 8.343-16.358-4.905Z"/></g><defs><clipPath id="a"><path fill="#fff" d="M0 0h100v100H0z"/></clipPath></defs></svg>