<svg xmlns="http://www.w3.org/2000/svg" width="30" height="30" fill="none"><g clip-path="url(#a)"><mask id="b" width="30" height="30" x="0" y="0" maskUnits="userSpaceOnUse" style="mask-type:luminance"><path fill="#fff" d="M0 0h30v30H0V0Z"/></mask><g mask="url(#b)"><path fill="#FC981A" d="M25 2.5H10A2.507 2.507 0 0 0 7.5 5v15c0 1.375 1.125 2.5 2.5 2.5h15c1.375 0 2.5-1.125 2.5-2.5V5c0-1.375-1.125-2.5-2.5-2.5ZM14.7 16.6 12.113 14a1.253 1.253 0 0 1 0-1.75 1.245 1.245 0 0 1 1.762 0l1.7 1.713L21.1 8.387a1.245 1.245 0 0 1 1.762 0 1.253 1.253 0 0 1 0 1.75L16.45 16.6c-.462.5-1.262.5-1.75 0ZM3.75 7.5c-.688 0-1.25.563-1.25 1.25V25c0 1.375 1.125 2.5 2.5 2.5h16.25c.688 0 1.25-.563 1.25-1.25 0-.688-.563-1.25-1.25-1.25h-15C5.562 25 5 24.437 5 23.75v-15c0-.688-.563-1.25-1.25-1.25Z"/></g></g><defs><clipPath id="a"><path fill="#fff" d="M0 0h30v30H0z"/></clipPath></defs></svg>