<svg xmlns="http://www.w3.org/2000/svg" width="333" height="90" fill="none"><g clip-path="url(#a)"><mask id="b" width="75" height="84" x="0" y="0" maskUnits="userSpaceOnUse" style="mask-type:luminance"><path fill="#fff" d="M8.784 21.992H71.219c-11.217 2.296-21.258 8.632-28.244 17.596H8.784C3.956 39.586 0 35.628 0 30.79c0-4.84 3.953-8.798 8.784-8.798Zm2.683 21.991h28.46A47.309 47.309 0 0 0 33.48 61.58H11.467c-4.827 0-8.78-3.96-8.78-8.798s3.95-8.798 8.78-8.798Zm12.878 21.993h8.667l-.028.42a46.5 46.5 0 0 0 2.235 17.175H24.343c-4.83 0-8.78-3.96-8.78-8.796.002-4.84 3.95-8.8 8.782-8.8Zm47.248-48.38a2.483 2.483 0 0 0 2.482-2.485 2.483 2.483 0 0 0-2.482-2.484 2.483 2.483 0 0 0-2.479 2.484 2.483 2.483 0 0 0 2.48 2.484Zm-61.24 54.737a3.175 3.175 0 0 0 3.175-3.18 3.175 3.175 0 0 0-3.175-3.179 3.175 3.175 0 0 0-3.169 3.18 3.174 3.174 0 0 0 3.17 3.179ZM21.468 0h37.066c4.83 0 8.78 3.96 8.78 8.798s-3.95 8.797-8.78 8.797H21.467c-4.83 0-8.78-3.96-8.78-8.797 0-4.838 3.95-8.798 8.78-8.798Z"/></mask><g mask="url(#b)"><path fill="url(#c)" d="M74.075 0H0v83.571h74.075V0Z"/></g><mask id="d" width="28" height="37" x="1" y="1" maskUnits="userSpaceOnUse" style="mask-type:luminance"><path fill="#fff" d="M23.217 23.758H8.784c-3.858 0-7.02 3.168-7.02 7.032s3.164 7.031 7.02 7.031h10.715c1.488-2.412 3.717-2.903 3.717-5.632v-8.43h.001Zm-1.75-7.929h1.665c-.007-2.107.162-4.053 1.06-5.612 1.485-2.578 3.827-3.021 3.827-5.82v-2.63h-6.551c-3.858 0-7.02 3.167-7.02 7.03-.002 3.864 3.162 7.032 7.02 7.032Z"/></mask><g mask="url(#d)"><path fill="url(#e)" d="M28.019 1.766H1.764v36.055h26.255V1.766Z"/></g><mask id="f" width="19" height="6" x="3" y="25" maskUnits="userSpaceOnUse" style="mask-type:luminance"><path fill="#fff" d="M21.686 25.29H8.784c-3.016 0-5.491 2.481-5.491 5.5h18.392v-5.5Z"/></mask><g mask="url(#f)"><path fill="url(#g)" d="M21.686 25.29H3.295v5.5h18.391v-5.5Z"/></g><mask id="h" width="12" height="6" x="15" y="3" maskUnits="userSpaceOnUse" style="mask-type:luminance"><path fill="#fff" d="M23.286 8.798c.437-.63.944-1.18 1.513-1.731.433-.421.983-.895 1.322-1.391.275-.405.37-.794.37-1.279V3.3h-5.024c-3.011 0-5.49 2.48-5.49 5.5h7.31v-.002Z"/></mask><g mask="url(#h)"><path fill="url(#i)" d="M26.491 3.3H15.977v5.5H26.49V3.3Z"/></g><mask id="j" width="21" height="37" x="19" y="1" maskUnits="userSpaceOnUse" style="mask-type:luminance"><path fill="#fff" d="M32.256 23.758h-9.041v8.43c0 2.73-2.229 3.221-3.717 5.633H33.31l-.003-.004c-1.482-2.576-.974-6.218-.974-9.879v-.674c0-1.183-.055-2.364-.077-3.506ZM23.13 15.83h11.777C37.002 14.453 40 13.685 40 11.561V1.767H28.019v2.632c0 2.799-2.342 3.241-3.826 5.82-.9 1.558-1.07 3.504-1.062 5.611Z"/></mask><g mask="url(#j)"><path fill="url(#k)" d="M40.001 1.766H19.5v36.055h20.501V1.766Z"/></g><mask id="l" width="61" height="65" x="36" y="25" maskUnits="userSpaceOnUse" style="mask-type:luminance"><path fill="#fff" d="M96.462 28.128c-17.115-6.684-36.579-1.918-48.684 11.923C35.67 53.892 33.51 73.844 42.383 89.959a82.606 82.606 0 0 1 20.18-44.926A74.337 74.337 0 0 0 46.97 87.247c10.843-5.36 19.2.976 29.154-10.115 13.621-15.176-5.173-34.927 20.338-49.004Z"/></mask><g mask="url(#l)"><path fill="url(#m)" d="M96.462 21.442h-62.95V89.96h62.95V21.442Z"/></g><mask id="n" width="60" height="42" x="37" y="25" maskUnits="userSpaceOnUse" style="mask-type:luminance"><path fill="#fff" d="M96.462 28.128c-17.115-6.684-36.579-1.918-48.684 11.923a43.696 43.696 0 0 0-10.74 26.254A41.135 41.135 0 0 1 55.676 37.46a41.007 41.007 0 0 1 34.008-4.618h.004c1.812-1.628 4.037-3.204 6.773-4.714Z"/></mask><g mask="url(#n)"><path fill="url(#o)" d="M96.462 21.442H37.037v44.864h59.425V21.442Z"/></g></g><g clip-path="url(#p)"><path fill="#fff" fill-rule="evenodd" d="M332.703 8.63c-3.779-.02-7.554-.033-11.331-.052-1.644 3.25-3.277 6.451-4.91 9.601-1.612 3.123-3.265 6.185-4.886 9.223a1526.846 1526.846 0 0 0-4.911-9.63c-1.612-3.128-3.263-6.218-4.888-9.26-4.108-.018-8.22-.027-12.305-.046a859.05 859.05 0 0 1 7.865 14.364c2.637 4.954 5.24 10.024 7.863 15.18v16.791c3.888.752 7.774 1.512 11.684 2.264V39.672c2.621-4.893 5.29-9.87 7.887-14.988a891.443 891.443 0 0 0 7.932-16.055Zm-65.645 31.887v-7.513c6.109.394 12.219.826 18.328 1.325v-9.137c-6.109-.329-12.219-.611-18.328-.874v-6.922c6.929.17 13.862.372 20.814.592V8.466c-10.797-.027-21.594-.052-32.367-.065v40.09c11.042.948 22.083 2.136 33.123 3.635v-9.541a985.81 985.81 0 0 0-21.57-2.068ZM235.801 8.37v20.784c-3.044-3.494-6.109-6.967-9.132-10.439-3.019-3.46-6.064-6.902-9.086-10.345h-9.617V47.3c3.798-.047 7.617-.099 11.44-.15V26.487c3.021 3.437 6.07 6.91 9.085 10.396 3.025 3.494 6.089 7.006 9.13 10.584 3.199.141 6.402.301 9.621.45V8.386c-3.823-.003-7.642-.014-11.441-.014ZM178.885 40.33c-3.132.23-5.936-.667-7.931-2.574-2.002-1.916-3.221-4.827-3.221-8.443 0-3.606 1.214-6.64 3.221-8.78 1.992-2.122 4.799-3.357 7.931-3.428 3.131-.065 5.908 1.032 7.91 2.987 1.997 1.944 3.241 4.756 3.241 8.189 0 3.446-1.244 6.348-3.241 8.442-2.002 2.105-4.779 3.373-7.91 3.607Zm0 9.512c6.588-.62 12.324-3.169 16.416-7.034 4.036-3.818 6.532-8.964 6.532-14.847 0-5.87-2.474-10.932-6.532-14.551-4.07-3.623-9.818-5.822-16.416-5.822-6.596 0-12.373 2.288-16.416 6.269-4.088 4.03-6.511 9.758-6.511 16.242 0 6.503 2.43 11.898 6.511 15.358 4.045 3.429 9.812 5.006 16.416 4.385ZM138.143 8.512V25.83c-5.309.413-10.616.822-15.927 1.26V8.58c-3.887.017-7.775.03-11.663.05V60.524a3491.22 3491.22 0 0 0 11.663-2.68V38.63c5.311-.695 10.62-1.343 15.927-1.992v17.975c3.888-.658 7.775-1.296 11.663-1.953V8.476c-3.888.007-7.775.026-11.663.036Z" clip-rule="evenodd"/></g><path fill="#FC981A" d="M197.067 76.83c0 1.451-.529 2.601-1.588 3.448-1.043.847-2.503 1.27-4.379 1.27-1.724 0-3.251-.325-4.582-.975v-3.199c1.089.484 2.011.832 2.767 1.044.757.196 1.452.294 2.088.294.756 0 1.331-.143 1.724-.43.408-.288.613-.719.613-1.294 0-.317-.091-.597-.273-.84-.181-.256-.446-.498-.794-.725-.333-.227-1.028-.59-2.087-1.09-.983-.468-1.724-.914-2.223-1.338-.5-.438-.9-.938-1.203-1.497-.287-.575-.431-1.24-.431-1.997 0-1.437.484-2.563 1.452-3.38.983-.817 2.329-1.225 4.038-1.225.848 0 1.649.098 2.405.295.772.196 1.573.476 2.405.84l-1.111 2.676c-.863-.363-1.581-.612-2.156-.748a6.977 6.977 0 0 0-1.656-.205c-.65 0-1.149.152-1.497.454-.348.303-.522.696-.522 1.18 0 .302.068.567.204.794.151.227.378.446.681.658.302.212 1.028.59 2.178 1.134 1.512.726 2.548 1.452 3.108 2.178s.839 1.619.839 2.677ZM206.251 81.322h-3.426v-13.34h-4.401v-2.86h12.228v2.86h-4.401v13.34ZM227.852 73.2c0 2.677-.666 4.741-1.997 6.193-1.331 1.437-3.236 2.156-5.717 2.156-2.48 0-4.386-.719-5.717-2.156-1.331-1.452-1.997-3.524-1.997-6.216 0-2.693.666-4.75 1.997-6.171 1.331-1.422 3.244-2.133 5.74-2.133 2.48 0 4.378.718 5.694 2.155 1.331 1.422 1.997 3.48 1.997 6.171Zm-11.82 0c0 1.814.34 3.183 1.021 4.106.695.907 1.724 1.361 3.085 1.361 2.738 0 4.107-1.822 4.107-5.468 0-3.645-1.362-5.467-4.084-5.467-1.362 0-2.39.461-3.086 1.384-.696.907-1.043 2.268-1.043 4.083ZM234.633 72.315h1.112c1.089 0 1.89-.182 2.405-.545.514-.363.771-.93.771-1.701 0-.772-.265-1.316-.794-1.634-.529-.333-1.346-.5-2.45-.5h-1.044v4.38Zm0 2.79v6.217h-3.426v-16.2h4.719c2.193 0 3.819.401 4.878 1.203 1.059.802 1.588 2.02 1.588 3.653 0 .953-.264 1.8-.794 2.54-.514.742-1.255 1.324-2.223 1.748 2.435 3.645 4.023 5.997 4.764 7.056h-3.811l-3.857-6.217h-1.838ZM255.509 81.322h-9.324v-16.2h9.324v2.814h-5.898v3.562h5.49v2.813h-5.49v4.175h5.898v2.836Z"/><defs><linearGradient id="c" x1="37.038" x2="37.038" y1="70.735" y2="-42.424" gradientUnits="userSpaceOnUse"><stop stop-color="#F46B15"/><stop offset="1" stop-color="#FCD000"/></linearGradient><linearGradient id="e" x1="14.891" x2="14.891" y1="98.003" y2="14.86" gradientUnits="userSpaceOnUse"><stop stop-color="#F46B15"/><stop offset="1" stop-color="#FCD000"/></linearGradient><linearGradient id="g" x1="12.49" x2="12.49" y1="30.736" y2="18.658" gradientUnits="userSpaceOnUse"><stop stop-color="#FABD04"/><stop offset="1" stop-color="#fff"/></linearGradient><linearGradient id="i" x1="21.234" x2="21.234" y1="8.461" y2="-1.665" gradientUnits="userSpaceOnUse"><stop stop-color="#FCD000"/><stop offset="1" stop-color="#FDFDFD"/></linearGradient><linearGradient id="k" x1="29.75" x2="29.75" y1="87.298" y2="-1.052" gradientUnits="userSpaceOnUse"><stop stop-color="#F46B15"/><stop offset="1" stop-color="#FCD000"/></linearGradient><linearGradient id="m" x1="72.332" x2="51.473" y1="81.437" y2="8.583" gradientUnits="userSpaceOnUse"><stop stop-color="#3FA025"/><stop offset="1" stop-color="#E2DE02"/></linearGradient><linearGradient id="o" x1="77.111" x2="60.923" y1="80.045" y2="23.715" gradientUnits="userSpaceOnUse"><stop stop-color="#3FA025"/><stop offset="1" stop-color="#E2DE02"/></linearGradient><clipPath id="a"><path fill="#fff" d="M0 0h96.463v89.959H0z"/></clipPath><clipPath id="p"><path fill="#fff" d="M110.553 7.587h222.15v52.938h-222.15z"/></clipPath></defs></svg>