<svg xmlns="http://www.w3.org/2000/svg" width="267" height="73" fill="none"><g clip-path="url(#a)"><mask id="b" width="60" height="67" x="0" y="0" maskUnits="userSpaceOnUse" style="mask-type:luminance"><path fill="#fff" d="M7.034 17.612h49.999c-8.982 1.838-17.024 6.912-22.618 14.09H7.035C3.167 31.702 0 28.532 0 24.657s3.166-7.045 7.034-7.045Zm2.149 17.61h22.79a37.884 37.884 0 0 0-5.161 14.091H9.182c-3.864 0-7.03-3.17-7.03-7.045s3.163-7.046 7.03-7.046Zm10.313 17.612h6.94l-.022.337a37.24 37.24 0 0 0 1.79 13.754h-8.71c-3.868 0-7.03-3.171-7.03-7.044 0-3.876 3.162-7.047 7.031-7.047Zm37.837-38.743a1.989 1.989 0 0 0 0-3.98 1.988 1.988 0 0 0-1.986 1.99c0 1.098.89 1.99 1.986 1.99ZM8.29 57.925a2.543 2.543 0 0 0 2.542-2.546 2.543 2.543 0 0 0-2.542-2.546c-1.4 0-2.538 1.14-2.538 2.546a2.542 2.542 0 0 0 2.538 2.546ZM17.191 0h29.683c3.869 0 7.031 3.17 7.031 7.045s-3.162 7.046-7.03 7.046H17.191c-3.869 0-7.031-3.171-7.031-7.046C10.16 3.171 13.323 0 17.19 0Z"/></mask><g mask="url(#b)"><path fill="url(#c)" d="M59.32 0H0v66.925h59.32V0Z"/></g><mask id="d" width="22" height="30" x="1" y="1" maskUnits="userSpaceOnUse" style="mask-type:luminance"><path fill="#fff" d="M18.592 19.026H7.034c-3.09 0-5.622 2.537-5.622 5.631 0 3.094 2.534 5.631 5.622 5.631h8.58c1.192-1.931 2.977-2.325 2.977-4.51v-6.752h.001Zm-1.4-6.35h1.332c-.005-1.687.13-3.245.85-4.494 1.188-2.064 3.064-2.42 3.064-4.66V1.414H17.19c-3.089 0-5.621 2.536-5.621 5.63-.002 3.095 2.532 5.631 5.621 5.631Z"/></mask><g mask="url(#d)"><path fill="url(#e)" d="M22.438 1.415H1.412v28.873h21.026V1.415Z"/></g><mask id="f" width="16" height="5" x="2" y="20" maskUnits="userSpaceOnUse" style="mask-type:luminance"><path fill="#fff" d="M17.366 20.253H7.034c-2.415 0-4.397 1.987-4.397 4.404h14.728v-4.404Z"/></mask><g mask="url(#f)"><path fill="url(#g)" d="M17.367 20.253H2.639v4.404h14.728v-4.404Z"/></g><mask id="h" width="10" height="6" x="12" y="2" maskUnits="userSpaceOnUse" style="mask-type:luminance"><path fill="#fff" d="M18.648 7.045c.35-.504.757-.945 1.212-1.386.347-.337.787-.716 1.058-1.114.22-.324.297-.635.297-1.024v-.879h-4.023c-2.412 0-4.397 1.987-4.397 4.404h5.853Z"/></mask><g mask="url(#h)"><path fill="url(#i)" d="M21.215 2.642h-8.42v4.404h8.42V2.642Z"/></g><mask id="j" width="18" height="30" x="15" y="1" maskUnits="userSpaceOnUse" style="mask-type:luminance"><path fill="#fff" d="M25.832 19.026h-7.24v6.751c0 2.187-1.785 2.58-2.977 4.511h11.06l-.001-.003c-1.187-2.063-.78-4.98-.78-7.912v-.54c0-.947-.045-1.893-.062-2.807Zm-7.308-6.35h9.432c1.677-1.101 4.078-1.717 4.078-3.417V1.415h-9.595v2.107c0 2.242-1.875 2.596-3.064 4.661-.72 1.248-.857 2.806-.85 4.493Z"/></mask><g mask="url(#j)"><path fill="url(#k)" d="M32.035 1.415H15.617v28.873h16.418V1.415Z"/></g><mask id="l" width="49" height="53" x="29" y="20" maskUnits="userSpaceOnUse" style="mask-type:luminance"><path fill="#fff" d="M77.248 22.526c-13.706-5.354-29.293-1.536-38.986 9.547a35.046 35.046 0 0 0-4.32 39.968 66.152 66.152 0 0 1 16.16-35.978 59.53 59.53 0 0 0-12.487 33.806c8.683-4.293 15.375.781 23.346-8.1 10.909-12.153-4.142-27.97 16.287-39.243Z"/></mask><g mask="url(#l)"><path fill="url(#m)" d="M77.248 17.171H26.836v54.87h50.412V17.17Z"/></g><mask id="n" width="49" height="34" x="29" y="20" maskUnits="userSpaceOnUse" style="mask-type:luminance"><path fill="#fff" d="M77.248 22.526c-13.706-5.354-29.293-1.536-38.986 9.547a34.992 34.992 0 0 0-8.602 21.025 32.94 32.94 0 0 1 14.927-23.1A32.84 32.84 0 0 1 71.821 26.3h.003c1.452-1.303 3.233-2.565 5.424-3.774Z"/></mask><g mask="url(#n)"><path fill="url(#o)" d="M77.248 17.171H29.66v35.927h47.588V17.171Z"/></g></g><g clip-path="url(#p)"><path fill="#593A1B" fill-rule="evenodd" d="M266.432 6.91c-3.026-.015-6.049-.026-9.074-.04a876.67 876.67 0 0 1-3.932 7.688c-1.291 2.5-2.615 4.953-3.913 7.386a1245.966 1245.966 0 0 0-3.932-7.712c-1.291-2.505-2.614-4.98-3.915-7.415-3.29-.015-6.583-.022-9.854-.037a693.48 693.48 0 0 1 6.299 11.502 744.624 744.624 0 0 1 6.296 12.157v13.446c3.114.602 6.226 1.211 9.357 1.814V31.77c2.099-3.918 4.237-7.904 6.316-12.003a710.876 710.876 0 0 0 6.352-12.856Zm-52.569 25.536V26.43c4.892.315 9.785.661 14.677 1.06v-7.316c-4.892-.263-9.785-.49-14.677-.7V13.93c5.549.135 11.101.298 16.668.474V6.78c-8.647-.022-17.293-.042-25.92-.053V38.832a541.51 541.51 0 0 1 26.525 2.911v-7.64a789.713 789.713 0 0 0-17.273-1.657ZM188.831 6.704v16.644c-2.437-2.798-4.892-5.58-7.312-8.36-2.418-2.77-4.857-5.527-7.276-8.284h-7.702V37.877c3.041-.037 6.1-.078 9.161-.12V21.211c2.42 2.753 4.861 5.534 7.276 8.326 2.422 2.798 4.876 5.61 7.311 8.475 2.562.113 5.127.241 7.705.361V6.715c-3.062-.003-6.12-.011-9.163-.011Zm-45.578 25.592c-2.508.185-4.754-.534-6.352-2.06-1.603-1.536-2.579-3.867-2.579-6.763 0-2.887.972-5.316 2.579-7.031 1.595-1.7 3.844-2.688 6.352-2.745 2.507-.052 4.73.827 6.334 2.392 1.599 1.557 2.596 3.81 2.596 6.558 0 2.76-.997 5.083-2.596 6.76-1.604 1.686-3.827 2.702-6.334 2.89Zm0 7.617c5.275-.495 9.869-2.537 13.145-5.633 3.233-3.057 5.232-7.178 5.232-11.89 0-4.7-1.981-8.754-5.232-11.652-3.258-2.902-7.861-4.662-13.145-4.662-5.282 0-9.909 1.832-13.147 5.02-3.274 3.227-5.214 7.814-5.214 13.007 0 5.208 1.946 9.528 5.214 12.299 3.24 2.745 7.858 4.009 13.147 3.511ZM110.626 6.818v13.868c-4.252.33-8.502.658-12.754 1.008V6.871c-3.114.013-6.227.024-9.34.04v41.558c3.113-.71 6.226-1.425 9.34-2.146V30.936c4.252-.556 8.504-1.076 12.754-1.595v14.394c3.113-.526 6.227-1.037 9.34-1.563V6.788c-3.113.005-6.227.02-9.34.029Z" clip-rule="evenodd"/></g><path fill="#FC981A" d="M157.812 61.526c0 1.163-.424 2.083-1.272 2.761-.836.679-2.005 1.018-3.507 1.018-1.38 0-2.604-.26-3.67-.781v-2.562c.872.387 1.611.666 2.217.836a6.681 6.681 0 0 0 1.671.236c.606 0 1.066-.115 1.381-.345.327-.23.491-.576.491-1.036 0-.254-.073-.478-.218-.672a2.324 2.324 0 0 0-.636-.582c-.267-.181-.824-.472-1.672-.872-.787-.375-1.381-.733-1.78-1.072a4.323 4.323 0 0 1-.963-1.199c-.23-.46-.345-.993-.345-1.599 0-1.15.387-2.053 1.162-2.707.788-.654 1.866-.98 3.234-.98.679 0 1.321.078 1.926.235.618.158 1.26.382 1.926.672l-.89 2.144c-.691-.29-1.266-.49-1.726-.6a5.59 5.59 0 0 0-1.326-.163c-.521 0-.921.121-1.2.364a1.194 1.194 0 0 0-.417.944c0 .243.054.455.163.636.121.182.303.358.545.527.242.17.824.473 1.744.909 1.212.581 2.041 1.163 2.489 1.744.449.581.673 1.296.673 2.144ZM165.166 65.123h-2.743V54.44h-3.525v-2.29h9.793v2.29h-3.525v10.683ZM182.464 58.619c0 2.144-.533 3.797-1.599 4.96-1.065 1.15-2.592 1.726-4.578 1.726-1.986 0-3.513-.576-4.579-1.726-1.065-1.163-1.598-2.822-1.598-4.978 0-2.156.533-3.804 1.598-4.942 1.066-1.139 2.599-1.708 4.597-1.708 1.987 0 3.507.575 4.56 1.726 1.066 1.139 1.599 2.786 1.599 4.942Zm-9.466 0c0 1.453.273 2.55.818 3.288.557.727 1.381 1.09 2.471 1.09 2.192 0 3.288-1.46 3.288-4.378 0-2.92-1.09-4.379-3.27-4.379-1.09 0-1.914.37-2.471 1.108-.557.727-.836 1.817-.836 3.27ZM187.895 57.91h.89c.872 0 1.514-.145 1.926-.436.412-.29.618-.745.618-1.362 0-.618-.212-1.054-.636-1.309-.424-.266-1.078-.4-1.962-.4h-.836v3.507Zm0 2.235v4.978h-2.744V52.151h3.779c1.757 0 3.059.32 3.907.963.848.642 1.272 1.617 1.272 2.925 0 .763-.212 1.441-.636 2.035-.412.593-1.006 1.06-1.781 1.399 1.95 2.919 3.222 4.802 3.815 5.65h-3.052l-3.088-4.978h-1.472ZM204.613 65.123h-7.468V52.151h7.468v2.253h-4.724v2.852h4.397v2.253h-4.397v3.343h4.724v2.271Z"/><defs><linearGradient id="c" x1="29.66" x2="29.66" y1="56.645" y2="-33.974" gradientUnits="userSpaceOnUse"><stop stop-color="#F46B15"/><stop offset="1" stop-color="#FCD000"/></linearGradient><linearGradient id="e" x1="11.925" x2="11.925" y1="78.482" y2="11.9" gradientUnits="userSpaceOnUse"><stop stop-color="#F46B15"/><stop offset="1" stop-color="#FCD000"/></linearGradient><linearGradient id="g" x1="10.002" x2="10.002" y1="24.614" y2="14.941" gradientUnits="userSpaceOnUse"><stop stop-color="#FABD04"/><stop offset="1" stop-color="#fff"/></linearGradient><linearGradient id="i" x1="17.005" x2="17.005" y1="6.775" y2="-1.334" gradientUnits="userSpaceOnUse"><stop stop-color="#FCD000"/><stop offset="1" stop-color="#FDFDFD"/></linearGradient><linearGradient id="k" x1="23.825" x2="23.825" y1="69.91" y2="-.842" gradientUnits="userSpaceOnUse"><stop stop-color="#F46B15"/><stop offset="1" stop-color="#FCD000"/></linearGradient><linearGradient id="m" x1="57.924" x2="41.219" y1="65.216" y2="6.873" gradientUnits="userSpaceOnUse"><stop stop-color="#3FA025"/><stop offset="1" stop-color="#E2DE02"/></linearGradient><linearGradient id="o" x1="61.752" x2="48.789" y1="64.101" y2="18.991" gradientUnits="userSpaceOnUse"><stop stop-color="#3FA025"/><stop offset="1" stop-color="#E2DE02"/></linearGradient><clipPath id="a"><path fill="#fff" d="M0 0h77.248v72.041H0z"/></clipPath><clipPath id="p"><path fill="#fff" d="M88.531 6.076h177.901v42.393h-177.9z"/></clipPath></defs></svg>