<svg xmlns="http://www.w3.org/2000/svg" width="78" height="78" fill="none"><path fill="#24703E" d="M45.671 5.645H32.33A23.302 23.302 0 0 0 8.98 28.994V39c0 9.032 5.183 17.242 13.343 21.09v11.188c0 .564.513 1.077 1.18 1.077.256 0 .564-.102.77-.308l9.647-9.698H45.67A23.302 23.302 0 0 0 69.02 39V28.994A23.302 23.302 0 0 0 45.67 5.643Zm8.775 43.772-3.335 3.336c-3.592 3.49-12.83-.514-20.988-8.827-8.16-8.313-11.803-17.704-8.365-21.193l3.336-3.336c1.334-1.231 3.438-1.18 4.772.103l4.824 5.029c1.231 1.334 1.231 3.335-.103 4.67-.36.359-.77.564-1.232.77-1.693.513-2.565 2.155-2.155 3.848.821 3.695 5.491 8.313 9.032 9.237 1.642.41 3.335-.513 3.9-2.104.564-1.642 2.412-2.566 4.156-2.001.514.154.924.513 1.335.82l4.823 5.03c1.232 1.231 1.232 3.284 0 4.618Zm-12.47-27.916c-.359 0-.667 0-.974.103-.565.103-1.18-.36-1.232-1.026-.051-.667.36-1.18.975-1.232.41-.102.821-.102 1.232-.102 6.157 0 11.084 5.028 11.186 11.084 0 .41 0 .82-.102 1.231-.103.565-.565 1.078-1.232.975-.667-.102-1.078-.564-.975-1.231 0-.36.103-.667.103-.975-.051-4.824-4.054-8.827-8.98-8.827Zm6.672 8.93c-.103.564-.565 1.077-1.232.974-.513-.102-.975-.513-.975-.975 0-2.412-2.001-4.413-4.413-4.413-.565.103-1.18-.41-1.232-1.026-.102-.565.41-1.18.975-1.232h.154c3.849 0 6.723 2.977 6.723 6.671Zm8.518 3.54c-.103.565-.667.975-1.232.924-.564-.052-.975-.667-.923-1.232v-.154c.256-.975.359-2.001.359-3.079 0-7.338-6.004-13.342-13.342-13.342h-.975c-.565.103-1.18-.41-1.18-1.026-.103-.565.41-1.18.975-1.18.41 0 .82-.103 1.18-.103 8.57 0 15.6 6.979 15.6 15.6a20.843 20.843 0 0 1-.462 3.592Z"/></svg>