<svg width="168" height="140" fill="none" xmlns="http://www.w3.org/2000/svg"><path d="M81.812 48.365c-6.078.117-21.358 6.145-29.607 12.144-10.798 7.83-14.84 40.648-14.284 46.112.579 5.451 6.467 14.34 15.29 11.35 8.836-2.966 27.784-16.651 31.376-22.124 6.251-9.477 13.997-26.25 13.575-30.277-.458-4.038-13.086-17.28-16.35-17.205Z" fill="#FFC727"/><path d="M89.571 87.327a143.613 143.613 0 0 0 5.023-10.29c-13.93-7.861-21.1-19.014-24.39-25.747a96.896 96.896 0 0 0-10.34 4.565C63.9 64.237 72.64 77.861 89.571 87.327ZM44.447 72.34c5.045 8.951 14.741 22.18 31.636 31.576l.022-.013c3.996-3.156 7.212-6.132 8.492-8.092.065-.095.108-.179.173-.274-21.366-10.42-30.713-28.574-33.294-34.483-2.824 2.403-5.145 6.494-7.029 11.285ZM38.127 100.836c4.697 5.549 10.712 11.321 18.11 15.862 3.381-1.587 7.502-4.026 11.587-6.748-13.027-5.813-22.12-16.953-27.216-24.7-1.306 5.806-2.13 11.473-2.48 15.586Z" fill="#263238"/><path opacity=".1" d="M53.198 117.948c8.823-2.99 27.784-16.652 31.398-22.137 6.23-9.464 14.01-26.226 13.575-30.276-.094-.824-.693-2.04-1.65-3.484-6.28 9.855-20.638 29.598-24.818 33.549-5.083 4.77-21.064 14.316-24.922 11.995-3.88-2.309-6.652-3.164-7.517-15.311.01-.036-.003-.059-.003-.059-1.125 6.735-1.535 12.359-1.33 14.361.533 5.476 6.431 14.329 15.267 11.362Z" fill="#000"/><path opacity=".3" d="M75.166 54.463c-7.005 2.188-13.684 5.195-19.681 9.464-4.513 3.768-6.644 9.779-8.05 15.398 2.673-3.98 4.94-8.224 8.122-11.695 5.976-5.011 13.48-8.224 19.61-13.167Z" fill="#fff"/><path d="M88.04 33.65c10.019.197 16.703 7.206 19.72 16.138 3.029 8.956-3.292 16.9-10.385 18.924-7.093 2.025-19.977-2.387-24.5-11.078-4.524-8.691 2.93-24.22 15.164-23.983Z" fill="#263238"/><path opacity=".1" d="M71.827 54.669c.221 1.058.555 2.054 1.025 2.977 4.523 8.69 17.407 13.103 24.5 11.079 6.111-1.734 11.664-7.906 11.127-15.281-3.999 8.288-11.344 10.66-16.682 10.739-2.733.03-13.384-.037-19.97-9.514Z" fill="#000"/><path d="M104.6 21.498c6.604 1.288 9.09 5.346 10.676 10.012 1.61 4.652.783 9.777-2.606 11.459-3.389 1.681-8.9 2.307-14.07-1.145-5.171-3.452-7.373-11.526-5.897-14.8 1.477-3.273 7.292-6.417 11.897-5.526Z" fill="#263238"/><path d="M128.122 20.762c-2.103-2.213-5.085-1.778-7.247-.368-1.536.62-3.432.467-4.862 1.391-2.349 1.12-3.96 3.44-4.328 6.113l.204.16c1.532-.736 2.647-1.702 3.902-2.682 1.668-1.294 3.058-3.645 5.307-4.137 2.429.166 4.358.541 6.954-.228l.07-.25ZM106.523 5.64c.124 2.77 1.093 4.509 2.041 6.803.163.787-.045 1.594-.325 2.319-1.339 2.987-2.557 5.547-3.014 8.812l.204.161c1.587-.797 2.78-2.106 3.557-3.643 1.284-2.384.559-5.131.399-7.7.591-2.584.04-5.605-2.673-6.945.025.047-.189.192-.189.192Z" fill="#263238"/><path opacity=".7" d="M95.034 40.854s-32.387-7.6-54.87 1.659C17.683 51.771 4.523 65.345 7.597 76.872c3.06 11.503 32.843-2.698 44.379-8.784 11.535-6.086 43.059-27.234 43.059-27.234ZM98.287 41.842s13.947 30.879 9.703 55.265-14.528 40.359-26.157 39.674c-11.641-.707-4.166-33.45-.704-46.247 3.427-12.809 17.158-48.692 17.158-48.692Z" fill="#EBEBEB"/></svg>