<svg width="93" height="99" fill="none" xmlns="http://www.w3.org/2000/svg"><path fill-rule="evenodd" clip-rule="evenodd" d="M3.862 1.197c-1.257.352-2.182 1.335-2.483 2.64-.07.302-.073.389-.036.943.046.683.115.936.394 1.443A3.487 3.487 0 0 0 5.626 7.92c.432-.108.564-.252.458-.499-.074-.171-.214-.205-.517-.124a3.537 3.537 0 0 1-1.163.08c-.574-.08-1.024-.29-1.496-.696-.29-.25-.372-.348-.56-.668-.258-.437-.36-.76-.394-1.252-.058-.813.155-1.452.688-2.066.537-.618 1.138-.916 1.962-.973.493-.034.812.019 1.284.211.352.144.448.205.766.482.303.265.396.374.559.653.107.184.238.464.29.623.113.345.16.881.108 1.253-.04.285-.01.394.132.479a.295.295 0 0 0 .378-.054c.06-.07.09-.183.12-.46a3.54 3.54 0 0 0-.708-2.488A3.504 3.504 0 0 0 5.202 1.1c-.338-.042-1.02.007-1.34.097Zm12.16-.875a4.39 4.39 0 0 0-1.08.47c-1.232.807-1.833 2.33-1.476 3.742.108.432.29.594.52.463.169-.096.194-.214.11-.509a3.375 3.375 0 0 1-.085-1.17c.08-.573.29-1.023.697-1.495.25-.289.348-.371.668-.56.442-.26.761-.359 1.27-.394.804-.056 1.503.183 2.092.715.578.522.873 1.127.93 1.906a2.55 2.55 0 0 1-.212 1.31c-.142.344-.21.453-.46.74-.411.47-.827.741-1.384.9a3.415 3.415 0 0 1-1.154.084c-.17-.023-.274-.02-.345.011-.123.053-.208.232-.169.353.054.163.182.226.534.262 1.808.185 3.428-1.03 3.777-2.834.068-.347.055-1.005-.025-1.357a4.194 4.194 0 0 0-.563-1.271C19.4 1.304 18.853.83 18.429.616a4.24 4.24 0 0 0-1.3-.376 4.47 4.47 0 0 0-1.108.082ZM4.26 3.229a1.303 1.303 0 0 0-.61.461c-.22.284-.295.552-.268.965.02.3.036.358.157.573.198.35.396.501.977.742.64.266 1.28.628 1.828 1.036.828.616 1.28 1.15 1.612 1.903.206.466.288.825.332 1.447.056.79-.027 1.334-.304 1.994-.415.99-1.504 2.104-2.817 2.882-.535.317-.713.496-.854.864-.472 1.226.858 2.38 2.006 1.74.348-.194.504-.398.735-.962.563-1.376 1.534-2.643 2.44-3.188a4.453 4.453 0 0 1 3.822-.337c.448.173.863.427 1.277.785.681.587 1.275 1.3 1.734 2.084.308.526.49.704.868.852.231.09.291.097.59.075.459-.035.694-.15.976-.474.282-.325.362-.573.332-1.032-.02-.3-.036-.357-.158-.574-.194-.344-.402-.502-.976-.741-1.142-.475-2.299-1.282-2.874-2.004-1.092-1.37-1.232-3.355-.344-4.867.467-.795 1.499-1.757 2.562-2.388.535-.318.719-.504.863-.872.09-.231.097-.29.075-.59-.035-.458-.15-.693-.474-.975-.325-.282-.574-.362-1.033-.331-.3.02-.358.035-.573.157-.35.197-.502.396-.741.97-.586 1.41-1.536 2.644-2.458 3.194-.615.367-1.143.526-1.933.582-.79.056-1.335-.027-1.996-.304-.991-.415-2.127-1.525-2.885-2.82-.308-.526-.491-.705-.866-.85a1.427 1.427 0 0 0-1.022.003Zm.81.576c.195.074.305.178.423.4.247.466-.057 1.038-.6 1.13-.165.028-.23.018-.407-.058-.495-.212-.654-.786-.333-1.207a.82.82 0 0 1 .918-.265Zm12.019-.863c.71.239.721 1.253.017 1.505-.571.205-1.17-.315-1.048-.91a.803.803 0 0 1 1.03-.595ZM6.309 5.424c.5.645 1.371 1.442 1.925 1.76.898.516 1.784.715 2.839.64 1.056-.074 1.904-.397 2.72-1.034.504-.393 1.254-1.305 1.657-2.013.095-.165.183-.301.197-.302.014-.001.038.029.053.066.032.08.436.42.494.416.078-.005.042.071-.063.135-.486.297-1.6 1.483-1.928 2.054-.519.902-.717 1.777-.642 2.836.075 1.06.395 1.9 1.035 2.719.393.503 1.306 1.253 2.014 1.655.166.094.302.183.303.197.001.014-.03.038-.07.054-.038.016-.16.141-.27.28l-.2.251-.21-.27c-.497-.643-1.37-1.44-1.922-1.758-.902-.518-1.782-.717-2.84-.642-1.056.075-1.9.396-2.72 1.036-.5.391-1.253 1.305-1.653 2.007l-.168.294-.282-.249a157.33 157.33 0 0 0-.303-.266c-.01-.01.1-.11.245-.224.646-.505 1.437-1.37 1.752-1.918.518-.9.716-1.777.641-2.836-.075-1.06-.394-1.9-1.034-2.718-.393-.503-1.306-1.254-2.012-1.655l-.298-.17.22-.233c.122-.128.23-.266.24-.307.01-.04.03-.075.043-.076.015-.001.121.121.238.271Zm-1.48 7.787a4.501 4.501 0 0 0-.523.182c-1.105.46-1.867 1.413-2.098 2.623-.072.378-.012 1.233.113 1.611a3.54 3.54 0 0 0 1.045 1.584A3.47 3.47 0 0 0 8 19.132a3.433 3.433 0 0 0 1.106-2.618c-.008-.457-.125-.992-.247-1.134-.109-.127-.242-.156-.37-.083-.17.096-.195.214-.11.509.092.32.13.845.084 1.17-.08.572-.288 1.021-.697 1.497-.251.293-.345.372-.668.56-.212.125-.485.251-.63.292a3.953 3.953 0 0 1-1.188.1c-1.074-.12-2.076-.971-2.378-2.023a3.723 3.723 0 0 1-.085-1.231c.022-.164.103-.438.2-.677.142-.347.205-.45.46-.74.414-.47.83-.741 1.386-.9.303-.087.83-.126 1.163-.086.198.024.273.02.355-.022.197-.1.209-.365.023-.509-.17-.131-1.073-.146-1.576-.026Zm11.988-.83c-.398.1-.53.253-.426.493.074.171.214.205.516.124a3.536 3.536 0 0 1 1.164-.08c.574.08 1.025.29 1.494.697.58.502.9 1.14.955 1.907.03.427.002.718-.102 1.045-.294.923-1.028 1.652-1.921 1.909-.315.09-.889.13-1.233.085-.378-.05-.988-.307-1.294-.547-.827-.648-1.246-1.657-1.106-2.663.04-.285.01-.394-.132-.479-.239-.143-.435.011-.49.386-.053.355.017 1.212.124 1.516.373 1.06 1.057 1.8 2.015 2.183.506.202.835.26 1.374.247.508-.013.873-.084 1.251-.244 1.083-.456 1.821-1.34 2.09-2.503.07-.302.073-.389.036-.943-.046-.683-.115-.936-.395-1.443a3.5 3.5 0 0 0-3.92-1.69ZM6.002 15.894a.81.81 0 0 1 .415.861c-.148.72-1.123.865-1.48.22-.22-.398-.042-.918.382-1.114.174-.081.483-.066.683.033Zm11.875-.927c.593.133.81.896.38 1.332-.373.376-.964.3-1.244-.16-.1-.166-.118-.227-.114-.397a.78.78 0 0 1 .381-.672.716.716 0 0 1 .596-.103ZM36.682 60.037c-1.521.426-2.64 1.616-3.006 3.195-.084.366-.088.471-.043 1.143.055.826.14 1.132.477 1.746a4.22 4.22 0 0 0 4.708 2.053c.523-.13.683-.304.554-.604-.09-.207-.259-.248-.625-.15-.392.105-1.03.149-1.408.096-.695-.096-1.24-.35-1.811-.842-.35-.302-.45-.421-.679-.808-.312-.53-.434-.92-.477-1.516-.07-.984.188-1.758.834-2.501.65-.748 1.377-1.108 2.375-1.177.596-.041.983.022 1.554.255.426.174.543.247.927.583.367.32.479.452.676.79.13.224.289.563.352.754.137.419.193 1.067.13 1.518-.048.345-.011.476.16.579a.357.357 0 0 0 .458-.066c.074-.084.11-.22.145-.556.113-1.046-.214-2.197-.856-3.011a4.241 4.241 0 0 0-2.823-1.6c-.409-.05-1.234.01-1.622.12Zm14.72-1.06c-.358.086-.991.361-1.308.569-1.49.977-2.218 2.82-1.786 4.53.132.524.352.72.63.561.204-.116.235-.26.133-.616a4.084 4.084 0 0 1-.102-1.416c.096-.694.35-1.239.843-1.81.302-.35.421-.45.809-.678.535-.315.92-.435 1.536-.477.974-.068 1.82.221 2.533.865.7.632 1.057 1.365 1.126 2.308.044.614-.02 1.013-.257 1.586-.171.416-.253.548-.557.896-.497.568-1 .896-1.675 1.09a4.13 4.13 0 0 1-1.397.1c-.206-.027-.331-.023-.418.014-.148.064-.252.28-.204.427.065.198.22.274.647.317 2.188.224 4.149-1.247 4.572-3.43.081-.42.067-1.217-.03-1.643a5.074 5.074 0 0 0-.683-1.54c-.322-.464-.984-1.037-1.498-1.296a5.13 5.13 0 0 0-1.574-.455 5.405 5.405 0 0 0-1.34.098Zm-14.238 3.52a1.578 1.578 0 0 0-.737.558c-.268.344-.359.669-.326 1.167.024.363.044.434.19.695.24.424.48.606 1.183.898.776.322 1.549.76 2.213 1.254 1.002.746 1.55 1.392 1.951 2.304.25.564.349.998.402 1.75.068.957-.033 1.616-.368 2.415-.503 1.198-1.821 2.547-3.41 3.488-.648.384-.863.602-1.034 1.046-.571 1.485 1.039 2.88 2.43 2.107.42-.235.61-.482.889-1.165.681-1.665 1.856-3.2 2.954-3.858 1.374-.825 3.138-.98 4.626-.408a5.21 5.21 0 0 1 1.546.95c.824.71 1.543 1.574 2.098 2.522.374.637.594.853 1.052 1.031.28.11.352.118.714.091.555-.042.84-.18 1.181-.573.341-.394.438-.695.402-1.25-.024-.362-.043-.432-.191-.694-.235-.417-.487-.608-1.182-.898-1.383-.575-2.783-1.552-3.478-2.425-1.323-1.66-1.493-4.062-.418-5.892.566-.963 1.815-2.127 3.102-2.89.648-.386.87-.61 1.044-1.056.11-.28.119-.352.091-.715-.042-.554-.18-.839-.573-1.18-.394-.34-.695-.438-1.25-.401-.363.024-.434.043-.695.19-.424.239-.607.48-.897 1.176-.709 1.705-1.859 3.199-2.975 3.865-.745.444-1.383.637-2.34.704-.957.068-1.616-.032-2.416-.367-1.2-.503-2.574-1.846-3.492-3.413-.374-.638-.595-.855-1.048-1.03a1.727 1.727 0 0 0-1.238.003Zm.982.697c.235.09.368.216.51.484.3.564-.068 1.257-.727 1.368-.198.033-.276.022-.491-.07-.6-.256-.791-.951-.404-1.461a.994.994 0 0 1 1.112-.32Zm14.547-1.045c.86.29.874 1.517.022 1.822-.692.248-1.417-.381-1.27-1.1a.972.972 0 0 1 1.248-.722Zm-13.047 3.005c.603.78 1.659 1.745 2.33 2.13 1.086.624 2.158.866 3.435.776 1.278-.09 2.306-.481 3.293-1.252.61-.476 1.519-1.58 2.006-2.437.114-.2.221-.365.239-.366.017-.001.046.035.064.08.038.096.528.509.598.504.094-.007.051.085-.076.163-.59.36-1.938 1.795-2.335 2.486-.627 1.092-.867 2.152-.776 3.434.09 1.282.478 2.299 1.252 3.29.476.61 1.581 1.517 2.439 2.005.2.114.365.22.366.238.001.017-.037.046-.084.065-.047.019-.195.171-.328.339l-.242.304-.254-.328c-.602-.777-1.658-1.742-2.327-2.127-1.09-.626-2.157-.868-3.437-.777-1.28.09-2.3.48-3.292 1.253-.607.474-1.519 1.58-2.002 2.43l-.203.356-.342-.301-.367-.323c-.013-.011.12-.133.297-.27.782-.611 1.739-1.658 2.12-2.322.628-1.09.868-2.151.777-3.434-.09-1.282-.478-2.299-1.252-3.29-.476-.608-1.581-1.517-2.436-2.003l-.36-.205.267-.282c.147-.155.277-.323.29-.372.011-.05.035-.091.052-.093.017 0 .147.147.288.33Zm-1.794 9.426c-.131.032-.416.131-.633.221-1.336.555-2.26 1.71-2.539 3.174-.087.458-.014 1.494.137 1.95a4.285 4.285 0 0 0 1.265 1.918 4.202 4.202 0 0 0 5.61-.095c.884-.815 1.36-1.941 1.338-3.17-.01-.552-.15-1.2-.299-1.373-.131-.152-.292-.189-.448-.1-.204.116-.235.26-.133.616.111.387.157 1.023.102 1.416-.096.693-.35 1.237-.843 1.813-.305.354-.419.45-.809.678-.258.15-.588.304-.764.353a4.784 4.784 0 0 1-1.437.12c-1.3-.143-2.513-1.174-2.879-2.447-.11-.382-.157-1.076-.102-1.491.026-.198.124-.53.242-.82.17-.419.248-.543.557-.895.5-.57 1.004-.897 1.677-1.09.367-.105 1.005-.152 1.407-.104.24.03.331.024.43-.026.239-.12.253-.442.029-.616-.206-.16-1.299-.178-1.908-.032Zm14.513-1.005c-.483.122-.641.306-.516.597.09.207.259.248.625.15.392-.105 1.03-.149 1.408-.096.696.096 1.241.35 1.81.843a3.257 3.257 0 0 1 1.155 2.309c.037.517.003.868-.123 1.265-.356 1.117-1.244 2-2.326 2.31-.38.11-1.075.158-1.492.103-.458-.06-1.196-.371-1.567-.662-1-.784-1.508-2.005-1.338-3.224.048-.344.011-.476-.16-.579-.289-.173-.527.014-.594.467-.064.43.021 1.468.15 1.835.452 1.283 1.28 2.18 2.44 2.643.613.244 1.011.316 1.663.299.616-.016 1.057-.102 1.515-.295 1.31-.552 2.204-1.623 2.53-3.03.084-.366.088-.47.043-1.142-.055-.827-.14-1.133-.477-1.747a4.236 4.236 0 0 0-4.746-2.046Zm-13.092 4.254a.98.98 0 0 1 .502 1.043c-.178.87-1.36 1.046-1.79.266-.267-.482-.052-1.111.46-1.35.212-.097.586-.079.828.04Zm14.374-1.122c.719.16.982 1.084.46 1.612-.45.456-1.166.364-1.505-.193-.122-.202-.143-.275-.138-.48a.945.945 0 0 1 .462-.814c.249-.153.445-.187.721-.125ZM2.621 42.385c-1.19.333-2.066 1.265-2.352 2.5-.066.287-.07.369-.034.895.043.646.109.886.374 1.367a3.303 3.303 0 0 0 3.684 1.606c.41-.102.534-.238.434-.473-.07-.162-.203-.194-.49-.117a3.351 3.351 0 0 1-1.102.075c-.543-.075-.97-.274-1.417-.66a1.978 1.978 0 0 1-.531-.632 2.414 2.414 0 0 1-.373-1.185c-.055-.77.147-1.376.652-1.958.508-.585 1.078-.867 1.859-.921.466-.033.77.017 1.216.2.334.136.425.193.726.456.286.25.374.354.529.618.102.175.226.44.275.59.107.328.151.835.102 1.188-.037.27-.01.373.125.453a.28.28 0 0 0 .359-.051c.057-.066.085-.173.113-.436a3.353 3.353 0 0 0-.67-2.356 3.32 3.32 0 0 0-2.209-1.252c-.32-.04-.966.008-1.27.093Zm11.52-.83c-.28.068-.775.283-1.023.446-1.167.765-1.736 2.207-1.398 3.546.103.409.275.562.493.438.16-.091.184-.203.104-.482a3.197 3.197 0 0 1-.08-1.108c.075-.544.274-.97.66-1.417.236-.274.33-.352.633-.53a2.42 2.42 0 0 1 1.202-.374c.763-.053 1.425.174 1.982.677.548.495.828 1.068.882 1.806.034.48-.016.793-.201 1.242a1.98 1.98 0 0 1-.437.7c-.388.446-.783.702-1.31.853-.292.084-.794.12-1.093.08-.162-.022-.26-.02-.327.01-.117.05-.198.22-.16.334.05.155.172.214.506.249 1.712.175 3.247-.977 3.578-2.685a3.966 3.966 0 0 0-.024-1.286 3.97 3.97 0 0 0-.534-1.204c-.252-.364-.77-.813-1.172-1.016a4.02 4.02 0 0 0-1.232-.355 4.239 4.239 0 0 0-1.049.077ZM3 44.31a1.235 1.235 0 0 0-.577.437c-.21.27-.281.523-.255.913.019.284.034.34.149.544.187.332.375.475.925.703a8.258 8.258 0 0 1 1.732.982c.784.583 1.213 1.089 1.527 1.802.195.442.273.781.315 1.37.053.749-.026 1.264-.288 1.89-.394.938-1.426 1.993-2.67 2.73-.506.3-.675.47-.808.818-.447 1.162.813 2.255 1.9 1.649.33-.184.478-.377.697-.911.533-1.304 1.452-2.504 2.312-3.02a4.219 4.219 0 0 1 3.62-.32 4.08 4.08 0 0 1 1.21.744 7.882 7.882 0 0 1 1.642 1.974c.293.499.465.668.823.807.219.085.276.093.56.071.434-.033.656-.14.924-.449.267-.307.343-.543.314-.977-.019-.284-.034-.339-.15-.544-.183-.326-.38-.476-.925-.702-1.081-.45-2.177-1.215-2.722-1.898-1.034-1.3-1.168-3.18-.326-4.611.442-.754 1.42-1.665 2.427-2.263.507-.3.681-.477.817-.825.086-.22.093-.276.072-.56-.033-.434-.142-.657-.45-.924-.307-.266-.543-.342-.977-.314-.284.02-.34.034-.544.15-.332.186-.476.374-.702.92-.555 1.334-1.455 2.503-2.329 3.024-.582.348-1.082.499-1.83.552-.75.053-1.266-.026-1.891-.288-.94-.393-2.015-1.445-2.734-2.671-.292-.499-.465-.67-.82-.805A1.351 1.351 0 0 0 3 44.31Zm.768.546c.184.07.288.168.4.378.234.442-.054.984-.57 1.07-.155.027-.216.018-.384-.054-.47-.2-.62-.744-.316-1.143a.777.777 0 0 1 .87-.251Zm11.385-.818c.672.226.684 1.187.017 1.426-.542.194-1.11-.299-.994-.862a.76.76 0 0 1 .977-.564ZM4.941 46.39c.472.61 1.298 1.365 1.823 1.667.85.488 1.69.677 2.69.607.999-.071 1.803-.377 2.576-.98.477-.372 1.188-1.236 1.57-1.907.09-.157.173-.286.187-.287.013 0 .035.028.05.063.03.075.413.398.468.394.074-.005.04.067-.06.128-.46.281-1.516 1.405-1.827 1.945-.49.855-.678 1.684-.607 2.688.07 1.003.373 1.8.98 2.575.372.477 1.237 1.187 1.908 1.569.157.089.286.173.287.186 0 .013-.029.036-.066.051-.037.015-.152.134-.256.265l-.19.238-.199-.256c-.47-.609-1.297-1.364-1.821-1.665-.854-.49-1.688-.68-2.69-.608-1 .07-1.8.375-2.576.98-.475.372-1.189 1.237-1.567 1.902l-.159.28-.268-.237-.286-.252c-.01-.01.094-.105.232-.212.612-.478 1.36-1.298 1.66-1.817.49-.853.678-1.684.607-2.687-.07-1.004-.374-1.8-.98-2.575-.372-.476-1.237-1.188-1.906-1.568l-.282-.16.209-.221c.115-.122.217-.253.226-.291.01-.04.028-.072.042-.073.013 0 .114.115.225.258Zm-1.404 7.377a4.256 4.256 0 0 0-.495.172c-1.046.435-1.769 1.339-1.987 2.485-.069.358-.012 1.168.107 1.526.197.596.535 1.108.99 1.5a3.288 3.288 0 0 0 4.39-.074 3.252 3.252 0 0 0 1.047-2.48c-.007-.433-.117-.94-.233-1.075-.103-.12-.23-.148-.35-.079-.161.092-.185.204-.105.483.087.302.123.8.08 1.108-.076.542-.274.968-.66 1.418-.239.278-.328.352-.633.531-.202.118-.46.238-.598.277-.287.081-.83.126-1.125.094-1.017-.112-1.967-.92-2.253-1.916a3.527 3.527 0 0 1-.08-1.167c.02-.155.097-.414.19-.641.133-.328.194-.425.436-.7.391-.447.785-.703 1.312-.854a3.35 3.35 0 0 1 1.101-.08c.189.022.26.018.337-.022.186-.094.198-.345.022-.482-.161-.124-1.016-.139-1.493-.024Zm11.358-.788c-.378.097-.502.24-.404.468.07.162.203.194.49.117a3.35 3.35 0 0 1 1.101-.075c.545.076.972.275 1.416.66.55.476.853 1.081.905 1.807.029.405.002.68-.097.99-.278.875-.973 1.565-1.82 1.808a3.546 3.546 0 0 1-1.167.08c-.359-.046-.936-.29-1.227-.518-.783-.613-1.18-1.569-1.047-2.522.037-.27.009-.373-.125-.454-.226-.135-.413.011-.465.365-.05.337.017 1.15.118 1.437.353 1.004 1 1.706 1.909 2.068.48.191.791.247 1.301.234.482-.013.827-.08 1.186-.23 1.026-.433 1.725-1.27 1.98-2.372.066-.286.069-.368.034-.894-.044-.647-.11-.887-.374-1.367a3.315 3.315 0 0 0-3.714-1.602ZM4.649 56.31a.767.767 0 0 1 .393.816c-.14.682-1.064.82-1.401.209-.209-.378-.04-.87.36-1.056.166-.077.458-.063.648.03Zm11.25-.878c.562.126.768.849.36 1.262-.353.356-.913.284-1.178-.152-.096-.157-.113-.214-.108-.376a.74.74 0 0 1 .36-.636.678.678 0 0 1 .566-.098ZM74.26 83.42c-.992.278-1.722 1.054-1.96 2.084-.055.238-.057.307-.028.745.036.539.09.739.312 1.14a2.753 2.753 0 0 0 3.07 1.337c.34-.084.445-.198.361-.393-.058-.135-.169-.162-.408-.098a2.79 2.79 0 0 1-.918.063c-.453-.063-.808-.228-1.181-.55a1.649 1.649 0 0 1-.443-.527 2.012 2.012 0 0 1-.31-.988c-.046-.642.122-1.147.543-1.631.424-.488.898-.723 1.549-.768.389-.027.641.015 1.013.166.278.114.354.162.605.38.239.21.312.296.441.516.085.146.188.367.23.492.089.273.125.696.084.99-.03.224-.007.31.105.377.1.06.224.043.298-.042.048-.056.071-.144.095-.364a2.794 2.794 0 0 0-.559-1.963 2.766 2.766 0 0 0-1.84-1.043 3.615 3.615 0 0 0-1.058.077Zm9.6-.691a3.463 3.463 0 0 0-.852.37 2.759 2.759 0 0 0-1.165 2.956c.086.34.23.468.41.365.134-.076.154-.17.087-.402a2.662 2.662 0 0 1-.067-.923c.064-.453.229-.808.55-1.18.198-.229.275-.294.528-.443.349-.205.6-.283 1.002-.311a2.15 2.15 0 0 1 1.652.564c.456.413.69.89.734 1.505.03.4-.013.66-.167 1.035a1.65 1.65 0 0 1-.364.584c-.324.37-.652.584-1.092.71-.243.07-.662.1-.911.067-.134-.019-.216-.016-.272.008-.097.042-.165.183-.133.279.042.129.143.178.421.207 1.427.146 2.706-.814 2.982-2.238a3.303 3.303 0 0 0-.02-1.07 3.309 3.309 0 0 0-.445-1.005 3.085 3.085 0 0 0-.977-.846 3.35 3.35 0 0 0-1.026-.296 3.533 3.533 0 0 0-.875.064Zm-9.285 2.295c-.218.09-.337.18-.48.364-.176.225-.235.436-.213.762.015.236.028.282.124.452.156.277.313.396.771.586.506.21 1.01.496 1.444.818.653.487 1.01.908 1.272 1.502.162.368.227.651.262 1.142.044.624-.021 1.054-.24 1.575-.328.781-1.188 1.66-2.224 2.275-.422.25-.563.392-.674.682-.373.968.677 1.879 1.584 1.374.274-.153.398-.314.58-.76.445-1.086 1.21-2.086 1.927-2.516a3.516 3.516 0 0 1 3.017-.266 3.4 3.4 0 0 1 1.008.62 6.566 6.566 0 0 1 1.368 1.644c.244.416.388.557.686.673.182.071.23.077.466.06.362-.028.548-.118.77-.375.223-.256.286-.453.262-.814-.015-.237-.028-.283-.124-.454-.153-.271-.318-.396-.771-.585-.902-.375-1.815-1.012-2.269-1.581a3.45 3.45 0 0 1-.272-3.843c.37-.628 1.184-1.387 2.023-1.885.423-.251.568-.398.681-.689.071-.182.077-.23.06-.466-.028-.361-.118-.547-.375-.77-.256-.222-.453-.285-.815-.261-.236.016-.282.028-.453.124-.276.156-.396.313-.585.767-.462 1.112-1.212 2.086-1.94 2.52-.486.29-.902.416-1.526.46-.624.044-1.054-.021-1.576-.24-.782-.328-1.679-1.204-2.277-2.226-.244-.415-.388-.557-.684-.67a1.127 1.127 0 0 0-.807 0Zm.64.455c.153.058.24.14.333.315.195.369-.045.82-.474.893-.13.022-.18.014-.32-.046-.391-.167-.517-.62-.264-.953a.648.648 0 0 1 .725-.209Zm9.488-.682c.56.189.57.99.014 1.189a.636.636 0 0 1-.828-.718.634.634 0 0 1 .814-.47Zm-8.51 1.96c.394.509 1.082 1.138 1.52 1.39.708.406 1.408.564 2.24.505.834-.059 1.504-.314 2.148-.816.398-.31.99-1.03 1.309-1.59.074-.13.144-.237.155-.238.011-.001.03.023.042.052.025.063.344.332.39.328.061-.004.033.056-.05.107-.384.234-1.264 1.17-1.522 1.621-.41.712-.566 1.404-.507 2.24.06.836.312 1.5.817 2.146.31.397 1.031.989 1.59 1.307.131.074.239.144.24.155 0 .011-.025.03-.055.043-.031.012-.128.111-.214.22l-.158.2-.166-.215c-.392-.507-1.081-1.136-1.518-1.387-.71-.409-1.406-.566-2.24-.507-.835.06-1.501.313-2.148.818-.396.309-.99 1.03-1.306 1.584l-.132.233-.223-.197c-.123-.108-.23-.203-.24-.21-.008-.008.08-.087.194-.177.51-.398 1.134-1.081 1.383-1.514.41-.711.566-1.403.507-2.24-.06-.836-.312-1.499-.817-2.145-.31-.397-1.03-.99-1.588-1.306l-.236-.134.175-.184c.096-.102.18-.21.189-.243.007-.032.023-.06.034-.06a1.3 1.3 0 0 1 .187.214Zm-1.17 6.148c-.085.02-.27.085-.412.144-.872.362-1.474 1.115-1.656 2.07-.057.298-.01.974.09 1.272.163.496.445.923.824 1.25a2.74 2.74 0 0 0 3.66-.062 2.71 2.71 0 0 0 .872-2.067c-.007-.36-.099-.783-.195-.895-.086-.1-.19-.124-.292-.066-.134.076-.154.17-.087.402.072.252.102.668.067.924-.063.452-.229.806-.55 1.182a1.613 1.613 0 0 1-.528.442 2.665 2.665 0 0 1-.498.23c-.24.068-.691.106-.938.079-.847-.094-1.639-.766-1.877-1.597a2.939 2.939 0 0 1-.067-.972c.017-.129.081-.346.158-.534.112-.274.162-.355.364-.584.326-.372.654-.585 1.093-.711.239-.069.655-.1.918-.068.157.02.216.016.28-.017.156-.079.165-.288.019-.402-.135-.104-.847-.115-1.244-.02Zm9.466-.656c-.315.08-.419.2-.337.39.058.135.169.161.408.097.255-.068.672-.097.918-.063.454.064.81.23 1.18.55.458.397.71.901.754 1.506.024.338.002.567-.08.825-.232.729-.812 1.305-1.517 1.507a2.955 2.955 0 0 1-.973.067 2.581 2.581 0 0 1-1.022-.432 2.275 2.275 0 0 1-.873-2.102c.031-.225.007-.31-.105-.378-.188-.113-.343.009-.387.304-.041.28.014.958.099 1.198.294.836.834 1.421 1.59 1.723.4.16.66.206 1.085.195.401-.01.69-.067.988-.192.855-.36 1.438-1.059 1.65-1.977.055-.238.057-.307.028-.745-.036-.538-.09-.738-.311-1.139a2.762 2.762 0 0 0-3.096-1.334Zm-8.539 2.774c.24.119.383.415.328.68-.117.568-.887.683-1.168.174a.641.641 0 0 1 .3-.88c.139-.064.382-.052.54.026Zm9.375-.732c.468.105.64.708.3 1.052-.294.297-.76.237-.982-.126-.08-.131-.093-.179-.09-.314a.617.617 0 0 1 .301-.53c.163-.1.29-.122.471-.082ZM69.982 2.627c-.992.278-1.722 1.054-1.96 2.084-.056.238-.058.307-.029.745.036.539.091.739.312 1.14a2.753 2.753 0 0 0 3.07 1.338c.341-.085.445-.199.361-.394-.058-.135-.169-.162-.408-.098a2.792 2.792 0 0 1-.918.063c-.453-.063-.808-.228-1.181-.55a1.65 1.65 0 0 1-.442-.526 2.012 2.012 0 0 1-.312-.989c-.045-.642.123-1.146.544-1.631.424-.488.898-.723 1.549-.768.389-.027.641.015 1.014.167.278.113.354.161.604.38.24.21.313.295.441.515.085.146.188.367.23.492.089.273.125.696.085.99-.032.225-.008.31.104.377.1.06.224.043.299-.042.047-.055.07-.144.094-.363a2.794 2.794 0 0 0-.558-1.964A2.766 2.766 0 0 0 71.04 2.55a3.614 3.614 0 0 0-1.058.077Zm9.6-.69a3.465 3.465 0 0 0-.853.37 2.759 2.759 0 0 0-1.165 2.955c.086.34.23.469.41.365.134-.076.154-.169.087-.402a2.662 2.662 0 0 1-.066-.923c.063-.453.228-.808.55-1.18.197-.229.275-.294.527-.443.35-.205.601-.283 1.002-.31a2.15 2.15 0 0 1 1.652.563c.457.413.69.89.734 1.505.03.401-.013.661-.167 1.035-.112.271-.165.357-.364.584-.324.371-.652.585-1.092.71-.243.07-.662.101-.91.067-.135-.018-.217-.016-.273.008-.097.042-.165.183-.133.28.042.128.143.178.421.206 1.427.146 2.706-.814 2.982-2.237a3.302 3.302 0 0 0-.02-1.071 3.308 3.308 0 0 0-.444-1.004 3.084 3.084 0 0 0-.978-.846c-.275-.14-.73-.271-1.026-.297a3.53 3.53 0 0 0-.874.064ZM70.297 4.23c-.219.09-.338.18-.482.365-.174.224-.233.435-.212.76.016.237.028.283.124.454.156.277.313.395.771.586.506.21 1.01.495 1.444.818.653.486 1.01.907 1.272 1.502.162.368.228.65.262 1.142.044.623-.021 1.053-.24 1.574-.328.782-1.187 1.661-2.224 2.275-.422.25-.563.392-.674.682-.373.968.677 1.879 1.584 1.374.275-.153.398-.314.58-.76.445-1.085 1.21-2.086 1.927-2.516a3.516 3.516 0 0 1 3.017-.266c.353.136.68.337 1.008.62a6.567 6.567 0 0 1 1.369 1.644c.243.416.387.557.686.673.182.071.229.077.465.06.362-.028.548-.118.77-.374.223-.257.286-.453.262-.815-.015-.237-.028-.282-.124-.453-.153-.272-.318-.397-.771-.585-.901-.376-1.815-1.013-2.268-1.582a3.45 3.45 0 0 1-.273-3.843c.37-.628 1.184-1.387 2.023-1.885.423-.251.568-.398.681-.688.072-.183.078-.23.06-.467-.028-.361-.118-.547-.374-.77-.257-.222-.453-.285-.816-.26-.236.015-.282.027-.452.123-.277.156-.397.313-.585.767-.463 1.112-1.213 2.086-1.941 2.52-.486.29-.902.416-1.526.46-.624.044-1.054-.021-1.576-.24-.782-.327-1.678-1.203-2.277-2.226-.244-.415-.388-.557-.684-.67a1.126 1.126 0 0 0-.806.001Zm.64.455c.153.058.24.14.333.316.195.368-.045.82-.475.892-.13.022-.18.015-.32-.046-.391-.167-.516-.62-.263-.953a.648.648 0 0 1 .724-.209Zm9.487-.681c.56.188.57.99.014 1.188a.636.636 0 0 1-.828-.718.634.634 0 0 1 .814-.47Zm-8.51 1.96c.394.508 1.083 1.138 1.52 1.389.708.407 1.408.565 2.24.506.834-.06 1.504-.314 2.148-.817.398-.31.99-1.03 1.309-1.59.074-.13.144-.237.155-.238.011 0 .03.023.042.052.025.063.344.332.39.329.061-.005.033.056-.05.106-.384.235-1.263 1.171-1.522 1.622-.41.712-.566 1.403-.507 2.24.06.835.312 1.498.817 2.145.31.397 1.031.99 1.59 1.307.131.074.239.144.24.155 0 .012-.024.03-.055.043-.031.012-.127.112-.214.22l-.158.2-.166-.215c-.392-.506-1.08-1.136-1.517-1.387-.712-.408-1.407-.566-2.242-.507-.834.06-1.5.313-2.147.818-.396.309-.99 1.03-1.306 1.584l-.132.233-.223-.197-.239-.21c-.009-.008.078-.087.193-.177.51-.398 1.135-1.08 1.384-1.514.409-.71.565-1.403.506-2.24-.06-.835-.312-1.499-.817-2.145-.31-.397-1.03-.99-1.588-1.306l-.236-.134.175-.184c.096-.101.18-.21.189-.243.008-.032.023-.059.034-.06.011 0 .096.096.188.215Zm-1.169 6.147c-.086.02-.271.085-.413.144-.871.362-1.474 1.115-1.656 2.07-.057.298-.01.974.09 1.272.164.497.446.924.825 1.25a2.74 2.74 0 0 0 3.658-.061 2.71 2.71 0 0 0 .873-2.068c-.006-.36-.098-.783-.195-.895-.086-.1-.19-.123-.292-.066-.134.077-.154.17-.087.402.073.253.102.668.067.924-.063.452-.228.807-.55 1.182a1.615 1.615 0 0 1-.528.442 2.665 2.665 0 0 1-.498.23c-.24.069-.691.106-.937.08-.848-.094-1.64-.767-1.878-1.597a2.939 2.939 0 0 1-.067-.973c.017-.129.081-.345.158-.534.112-.274.162-.354.364-.584.326-.372.654-.585 1.093-.711.24-.069.656-.1.918-.067.157.019.216.015.28-.018.156-.078.166-.288.019-.401-.134-.104-.847-.116-1.244-.021Zm9.465-.656c-.315.08-.418.2-.337.39.058.135.17.161.408.097.255-.068.672-.096.918-.062.454.063.81.229 1.18.55.458.396.71.9.754 1.506.024.337.002.566-.08.825-.232.728-.812 1.304-1.517 1.506a2.955 2.955 0 0 1-.973.067 2.58 2.58 0 0 1-1.022-.432 2.275 2.275 0 0 1-.873-2.102c.031-.225.007-.31-.104-.377-.189-.113-.344.008-.388.304-.041.28.014.957.099 1.197.294.836.834 1.421 1.59 1.723.4.16.66.206 1.085.195.402-.01.69-.066.988-.192.855-.36 1.438-1.058 1.65-1.976.055-.239.058-.307.028-.745-.036-.54-.09-.739-.311-1.14a2.762 2.762 0 0 0-3.095-1.334Zm-8.538 2.774c.24.12.382.415.327.68-.116.569-.887.683-1.168.175a.641.641 0 0 1 .301-.88c.138-.064.382-.053.54.025Zm9.374-.731c.469.105.64.707.3 1.051-.294.297-.76.237-.981-.126-.08-.131-.094-.179-.09-.313a.617.617 0 0 1 .3-.53c.163-.1.291-.123.471-.082ZM72.244 40.474c-1.456.408-2.527 1.546-2.876 3.056-.08.35-.084.45-.041 1.093.053.79.133 1.084.457 1.671a4.037 4.037 0 0 0 4.502 1.963c.5-.124.654-.29.53-.578-.085-.198-.247-.236-.598-.143-.374.1-.985.142-1.347.092-.664-.092-1.185-.334-1.732-.806-.335-.288-.43-.403-.649-.773-.298-.506-.415-.879-.456-1.45-.067-.94.18-1.68.797-2.392.622-.715 1.318-1.06 2.272-1.126.57-.04.94.022 1.487.244.407.167.519.237.886.558.351.307.459.433.648.756.124.213.275.538.335.721.132.4.185 1.021.125 1.452-.046.33-.01.455.153.554.148.088.33.062.438-.063.07-.08.105-.21.14-.533.107-1-.206-2.1-.82-2.88a4.057 4.057 0 0 0-2.7-1.53c-.39-.047-1.18.01-1.551.114Zm14.08-1.014a5.08 5.08 0 0 0-1.251.544c-1.427.935-2.122 2.699-1.71 4.334.127.5.337.688.603.536.196-.111.226-.248.128-.59a3.906 3.906 0 0 1-.098-1.354c.092-.663.335-1.184.806-1.731.29-.335.403-.43.774-.648.512-.302.881-.416 1.47-.457.932-.064 1.74.212 2.422.828.67.604 1.012 1.305 1.077 2.207.043.588-.019.97-.245 1.518-.164.397-.243.524-.534.857-.475.543-.957.857-1.601 1.041-.357.103-.971.148-1.337.098-.197-.027-.316-.024-.399.012-.142.061-.241.268-.195.409.062.189.21.261.618.303 2.093.214 3.969-1.194 4.373-3.281.079-.402.064-1.165-.029-1.571a4.857 4.857 0 0 0-.652-1.473c-.309-.444-.942-.992-1.433-1.24a4.91 4.91 0 0 0-1.505-.436c-.333-.029-.96.017-1.283.094Zm-13.619 3.366c-.32.132-.494.264-.706.535-.256.329-.343.64-.311 1.117.023.346.041.414.182.663.229.407.458.581 1.13.86.743.308 1.482.727 2.118 1.2.958.713 1.482 1.331 1.866 2.203.238.54.334.955.385 1.675.064.914-.032 1.545-.353 2.309-.48 1.146-1.741 2.436-3.262 3.337-.619.367-.825.575-.989 1-.546 1.42.994 2.755 2.324 2.015.403-.224.584-.461.85-1.114.653-1.593 1.776-3.06 2.827-3.69a5.156 5.156 0 0 1 4.425-.39c.518.199.998.494 1.479.908a9.635 9.635 0 0 1 2.007 2.412c.357.61.567.816 1.006.987.267.104.336.113.683.087.53-.04.803-.173 1.13-.549.326-.376.419-.664.383-1.194-.022-.348-.04-.415-.182-.665-.225-.399-.466-.582-1.131-.858-1.322-.55-2.661-1.485-3.327-2.32-1.264-1.588-1.427-3.886-.399-5.636.541-.92 1.736-2.034 2.967-2.765.62-.368.832-.583.999-1.01.104-.267.113-.337.087-.683-.04-.53-.173-.803-.549-1.13-.376-.325-.664-.418-1.195-.383-.347.023-.415.042-.665.182-.405.228-.58.459-.858 1.125-.678 1.63-1.778 3.06-2.846 3.697-.712.425-1.323.609-2.238.674-.915.064-1.546-.032-2.31-.352-1.148-.48-2.463-1.766-3.341-3.265-.357-.61-.57-.817-1.003-.984a1.653 1.653 0 0 0-1.183.002Zm.938.668c.225.085.353.206.49.463.285.54-.067 1.202-.696 1.308-.19.032-.265.022-.47-.066-.574-.246-.757-.91-.387-1.398a.95.95 0 0 1 1.063-.307Zm13.916-1c.822.277.835 1.452.02 1.743-.661.237-1.355-.365-1.214-1.053a.93.93 0 0 1 1.194-.69Zm-12.48 2.875c.577.746 1.586 1.669 2.227 2.037 1.04.597 2.065.829 3.287.742 1.222-.086 2.205-.46 3.15-1.198.583-.455 1.452-1.51 1.919-2.33.109-.192.211-.35.228-.35.016-.002.044.033.061.076.037.092.505.487.572.482.09-.006.05.082-.073.156-.563.344-1.853 1.717-2.233 2.378-.6 1.044-.83 2.058-.742 3.285.087 1.226.457 2.199 1.198 3.147.455.582 1.512 1.451 2.332 1.917.192.109.35.212.35.228.002.016-.034.044-.08.062-.045.018-.186.164-.313.324l-.232.291-.243-.313c-.575-.744-1.586-1.667-2.226-2.035-1.043-.6-2.063-.83-3.287-.743-1.224.086-2.201.458-3.15 1.199-.58.453-1.452 1.51-1.915 2.324l-.194.34-.327-.288-.35-.308c-.013-.011.115-.128.283-.26.749-.583 1.664-1.585 2.029-2.22.6-1.043.83-2.058.743-3.284-.087-1.227-.457-2.2-1.198-3.148-.455-.581-1.512-1.45-2.33-1.915l-.345-.196.256-.27c.14-.149.265-.31.277-.357.011-.047.034-.087.05-.088.017 0 .14.14.275.315Zm-1.716 9.016a5.22 5.22 0 0 0-.606.211c-1.278.531-2.162 1.636-2.428 3.037-.084.437-.014 1.428.13 1.865.241.728.655 1.355 1.21 1.834a4.019 4.019 0 0 0 5.367-.09c.845-.78 1.3-1.858 1.28-3.033-.01-.528-.144-1.148-.286-1.313-.126-.146-.28-.18-.429-.096-.195.111-.225.248-.127.59.106.37.15.978.098 1.354-.093.663-.335 1.183-.807 1.733-.292.34-.4.43-.774.65a3.91 3.91 0 0 1-.73.337c-.351.1-1.014.155-1.375.115-1.244-.137-2.404-1.123-2.754-2.341-.105-.365-.15-1.029-.098-1.426.025-.19.119-.507.232-.784.163-.401.237-.52.533-.857.478-.545.96-.858 1.603-1.042.351-.1.962-.146 1.347-.1.23.029.316.023.411-.025.228-.115.242-.422.027-.589-.197-.152-1.242-.17-1.824-.03Zm13.881-.962c-.461.117-.613.293-.493.572.085.198.248.237.598.143.375-.1.986-.142 1.347-.092.665.092 1.187.335 1.73.806a3.116 3.116 0 0 1 1.106 2.209c.035.495.002.83-.118 1.21-.34 1.069-1.19 1.913-2.225 2.21-.364.105-1.028.15-1.427.099-.438-.058-1.144-.356-1.499-.634-.957-.75-1.442-1.918-1.28-3.084.046-.33.011-.455-.153-.553-.276-.166-.504.013-.568.446-.061.41.02 1.404.144 1.756.432 1.227 1.224 2.085 2.334 2.527.585.234.967.302 1.59.286.589-.015 1.011-.097 1.45-.282 1.253-.528 2.108-1.552 2.419-2.898.08-.35.085-.45.041-1.093-.052-.79-.133-1.083-.456-1.67a4.051 4.051 0 0 0-4.54-1.958Zm-12.522 4.07c.352.173.56.607.48.997-.17.833-1.3 1-1.712.255-.255-.462-.05-1.063.44-1.29.202-.094.56-.077.792.037Zm13.75-1.074c.686.154.938 1.038.439 1.542-.431.436-1.116.348-1.44-.185-.117-.192-.137-.262-.132-.46a.905.905 0 0 1 .442-.777.829.829 0 0 1 .69-.12ZM38.258 21.817c-1.19.333-2.067 1.264-2.352 2.5-.066.286-.07.369-.034.895.043.646.109.886.374 1.366a3.303 3.303 0 0 0 3.684 1.607c.409-.102.534-.238.433-.473-.07-.162-.202-.194-.489-.117a3.352 3.352 0 0 1-1.102.075c-.544-.075-.97-.274-1.417-.66a1.978 1.978 0 0 1-.531-.632 2.414 2.414 0 0 1-.373-1.186c-.055-.77.147-1.375.652-1.957.508-.585 1.078-.868 1.858-.921.467-.033.77.017 1.217.2.333.136.425.193.725.456.287.25.375.354.53.618.102.175.225.44.275.59.107.328.15.835.102 1.188-.038.27-.01.373.125.453a.28.28 0 0 0 .358-.051c.058-.066.086-.173.114-.436a3.353 3.353 0 0 0-.67-2.357 3.32 3.32 0 0 0-2.21-1.251c-.32-.04-.965.008-1.269.093Zm11.52-.83c-.28.068-.776.283-1.023.445-1.167.765-1.736 2.208-1.399 3.546.104.41.276.563.493.439.16-.091.185-.203.105-.482a3.197 3.197 0 0 1-.08-1.109c.075-.543.274-.969.66-1.416.236-.274.33-.352.633-.53a2.42 2.42 0 0 1 1.202-.374c.763-.053 1.425.173 1.982.677.548.495.828 1.068.881 1.806.035.48-.015.793-.2 1.242a1.978 1.978 0 0 1-.437.7c-.389.445-.783.702-1.31.853-.292.084-.795.12-1.094.08-.161-.022-.259-.02-.327.01-.116.05-.197.22-.16.334.051.155.173.214.507.248 1.712.175 3.247-.976 3.578-2.684.064-.33.052-.953-.024-1.286a3.972 3.972 0 0 0-.534-1.204c-.252-.364-.77-.813-1.172-1.016a4.02 4.02 0 0 0-1.232-.355 4.234 4.234 0 0 0-1.05.076Zm-11.142 2.755a1.234 1.234 0 0 0-.578.437c-.21.269-.28.523-.255.913.02.284.034.34.15.544.187.332.374.475.925.703a8.26 8.26 0 0 1 1.732.981c.784.584 1.212 1.09 1.527 1.803.195.441.273.781.314 1.37.053.749-.025 1.264-.288 1.89-.393.938-1.425 1.993-2.669 2.73-.507.3-.675.47-.809.818-.447 1.162.813 2.255 1.901 1.649.33-.184.478-.377.696-.911.534-1.304 1.453-2.504 2.313-3.02a4.219 4.219 0 0 1 3.62-.32c.424.164.817.405 1.21.744a7.884 7.884 0 0 1 1.642 1.974c.292.499.465.668.823.807.219.085.275.093.56.071.433-.033.656-.141.923-.449.268-.307.343-.543.315-.977-.02-.284-.034-.339-.15-.544-.184-.326-.38-.476-.925-.702-1.082-.45-2.178-1.215-2.722-1.898-1.035-1.3-1.168-3.18-.326-4.611.442-.754 1.42-1.665 2.427-2.263.507-.301.681-.477.817-.826.086-.219.093-.275.071-.56-.033-.433-.14-.656-.449-.923-.307-.267-.543-.342-.978-.314-.284.02-.339.034-.543.15-.332.186-.476.374-.702.92-.555 1.334-1.455 2.503-2.329 3.024-.582.348-1.082.498-1.831.551-.749.053-1.265-.025-1.89-.287-.94-.393-2.015-1.445-2.734-2.671-.292-.5-.465-.67-.82-.805a1.351 1.351 0 0 0-.968.002Zm.767.546c.184.07.29.168.4.378.235.442-.054.984-.569 1.07-.155.027-.216.018-.384-.054-.47-.2-.62-.745-.316-1.143a.777.777 0 0 1 .87-.251Zm11.386-.818c.672.226.683 1.187.017 1.426-.542.193-1.11-.299-.994-.862a.76.76 0 0 1 .977-.564Zm-10.212 2.352c.473.61 1.299 1.365 1.824 1.666.85.489 1.689.678 2.689.608 1-.071 1.804-.377 2.577-.98.477-.373 1.188-1.237 1.57-1.907.089-.157.173-.286.186-.287.014 0 .036.027.05.063.03.075.414.398.468.394.074-.005.04.067-.06.128-.46.281-1.516 1.405-1.826 1.945-.491.855-.679 1.684-.608 2.688.071 1.003.374 1.799.98 2.575.373.476 1.238 1.187 1.909 1.568.157.09.286.173.287.187 0 .013-.03.036-.066.05-.037.016-.153.135-.257.266l-.19.238-.198-.257c-.47-.608-1.298-1.363-1.821-1.664-.854-.49-1.688-.68-2.69-.608-1.001.07-1.8.375-2.577.98-.475.371-1.188 1.237-1.566 1.902l-.16.279-.267-.236-.287-.253c-.01-.009.094-.104.232-.212.613-.477 1.361-1.297 1.66-1.816.491-.854.679-1.684.608-2.688-.071-1.003-.374-1.799-.98-2.575-.372-.475-1.237-1.187-1.906-1.567l-.283-.16.21-.221c.115-.122.217-.253.226-.292.01-.038.028-.07.041-.072.014 0 .115.115.225.258Zm-1.403 7.376a4.266 4.266 0 0 0-.495.173c-1.046.435-1.77 1.338-1.988 2.485-.068.357-.01 1.168.107 1.526.198.596.536 1.108.99 1.5a3.288 3.288 0 0 0 4.391-.074 3.252 3.252 0 0 0 1.047-2.48c-.007-.433-.118-.94-.234-1.075-.103-.12-.228-.148-.35-.079-.16.092-.185.203-.105.483.087.302.123.8.08 1.108-.075.542-.273.968-.66 1.418-.238.278-.327.352-.633.531a3.2 3.2 0 0 1-.597.277c-.287.08-.83.126-1.125.094-1.018-.113-1.967-.92-2.253-1.916a3.527 3.527 0 0 1-.08-1.167c.02-.155.097-.415.19-.641.133-.328.193-.425.435-.701.392-.446.786-.702 1.312-.853.287-.082.787-.12 1.102-.08.188.022.259.018.337-.022.186-.094.198-.345.022-.482-.162-.124-1.017-.139-1.493-.025Zm11.358-.787c-.378.096-.502.24-.404.468.07.162.203.194.49.117a3.35 3.35 0 0 1 1.101-.075c.544.076.971.275 1.416.66a2.55 2.55 0 0 1 .905 1.807c.029.405.002.68-.097.99-.278.874-.974 1.565-1.82 1.808a3.54 3.54 0 0 1-1.168.08c-.358-.046-.936-.29-1.226-.518-.783-.613-1.18-1.57-1.048-2.523.038-.27.01-.372-.125-.453-.226-.135-.412.01-.464.365-.05.337.016 1.15.117 1.437.353 1.004 1.002 1.706 1.91 2.068.479.191.79.247 1.301.234.482-.013.827-.08 1.186-.23 1.026-.433 1.725-1.27 1.98-2.372.066-.286.069-.369.033-.894-.043-.647-.109-.887-.373-1.367a3.315 3.315 0 0 0-3.714-1.602Zm-10.246 3.33a.767.767 0 0 1 .393.816c-.14.681-1.064.819-1.401.209-.209-.378-.04-.87.36-1.056.166-.077.458-.063.648.03Zm11.25-.878c.561.126.768.849.36 1.262-.353.356-.914.284-1.179-.152-.095-.157-.112-.215-.108-.376a.74.74 0 0 1 .362-.636.678.678 0 0 1 .564-.098Z" fill="#fff"/></svg>