<svg width="83" height="83" fill="none" xmlns="http://www.w3.org/2000/svg"><path fill-rule="evenodd" clip-rule="evenodd" d="M11.975 1.019C6.449 2.152 2.161 6.109.463 11.64.07 12.921.029 13.296.02 15.7c-.01 2.957.21 4.07 1.26 6.342 2.854 6.17 9.54 9.666 16.25 8.496 1.896-.33 2.51-.91 2.126-2.01-.265-.76-.86-.947-2.19-.69-1.42.275-3.706.269-5.04-.013-2.448-.519-4.325-1.56-6.237-3.459-1.17-1.162-1.498-1.612-2.213-3.049C3 19.352 2.66 17.933 2.66 15.8c0-3.524 1.113-6.214 3.6-8.7 2.502-2.499 5.184-3.6 8.756-3.594 2.133.004 3.496.329 5.47 1.302 1.475.727 1.872 1.018 3.156 2.311 1.224 1.234 1.592 1.73 2.21 2.985.407.827.884 2.075 1.06 2.774.385 1.525.42 3.85.083 5.438-.258 1.216-.162 1.693.423 2.102.527.37 1.21.32 1.649-.117.283-.283.443-.758.657-1.947.666-3.696-.21-7.878-2.292-10.94-2.284-3.36-5.719-5.64-9.65-6.408-1.443-.282-4.398-.275-5.807.014ZM64.67.955c-1.296.216-3.62 1.036-4.8 1.696-5.558 3.105-8.612 9.488-7.506 15.688.338 1.895 1.072 2.648 2.102 2.155.758-.363.905-.865.63-2.162-.298-1.405-.301-3.684-.008-5.07.52-2.447 1.56-4.323 3.461-6.233 1.163-1.17 1.614-1.497 3.051-2.211 1.985-.987 3.391-1.317 5.592-1.313 3.489.007 6.43 1.25 8.804 3.72 2.334 2.43 3.422 5.13 3.428 8.504.004 2.2-.326 3.604-1.313 5.587-.715 1.437-1.042 1.887-2.213 3.05-1.912 1.899-3.789 2.94-6.238 3.458-1.355.287-3.654.29-5.002.009-.727-.152-1.173-.17-1.49-.06-.546.19-.97.935-.835 1.47.181.72.714 1.031 2.222 1.294 7.736 1.348 15.092-3.398 17.15-11.066.397-1.477.545-4.319.306-5.858-.27-1.731-1.136-4.132-2.041-5.655-1.032-1.736-3.246-3.945-5.01-4.998-1.45-.866-3.884-1.76-5.49-2.017-1.23-.196-3.58-.19-4.8.012ZM13.073 9.9c-1.226.405-1.91.851-2.769 1.805-1.041 1.157-1.445 2.29-1.454 4.076-.006 1.297.045 1.553.503 2.52.746 1.573 1.554 2.282 3.984 3.498a37.674 37.674 0 0 1 7.567 5.026c3.38 2.908 5.168 5.348 6.37 8.695.744 2.073.99 3.645.99 6.34 0 3.421-.525 5.743-1.92 8.505-2.094 4.14-7.129 8.61-13.027 11.564-2.404 1.203-3.225 1.925-3.946 3.465-2.409 5.143 2.974 10.522 8.12 8.115 1.56-.728 2.295-1.562 3.462-3.922 2.849-5.76 7.419-10.928 11.496-13 5.102-2.59 11.424-2.7 16.58-.285 1.878.879 3.588 2.104 5.268 3.772a35.964 35.964 0 0 1 6.837 9.512c1.17 2.365 1.898 3.19 3.486 3.941.966.458 1.223.509 2.521.502 1.987-.01 3.035-.43 4.35-1.744 1.316-1.314 1.736-2.362 1.746-4.347.006-1.299-.045-1.553-.505-2.524-.731-1.543-1.58-2.287-3.984-3.494-4.778-2.398-9.52-6.229-11.777-9.515-4.29-6.246-4.29-14.846 0-21.091 2.258-3.287 7-7.118 11.777-9.515 2.403-1.207 3.253-1.952 3.984-3.495.46-.97.511-1.225.505-2.523-.01-1.985-.43-3.033-1.745-4.348-1.316-1.314-2.364-1.734-4.35-1.744-1.3-.006-1.556.045-2.522.503-1.57.743-2.285 1.554-3.492 3.96-2.955 5.895-7.429 10.926-11.573 13.018-2.763 1.394-5.087 1.918-8.511 1.918-3.425 0-5.749-.524-8.512-1.918-4.147-2.093-8.704-7.224-11.579-13.038-1.169-2.364-1.903-3.194-3.473-3.928-1.37-.641-3.037-.756-4.407-.304Zm3.319 2.734c.814.375 1.258.86 1.697 1.851.924 2.086-.562 4.46-2.935 4.69-.716.068-.99.01-1.733-.373-2.07-1.065-2.578-3.59-1.07-5.307.978-1.113 2.7-1.48 4.04-.861Zm52.08-.055c2.986 1.247 2.728 5.626-.383 6.496-2.527.707-4.952-1.716-4.245-4.241.55-1.962 2.754-3.036 4.627-2.255ZM21.24 19.992c1.953 2.93 5.469 6.633 7.76 8.174 3.712 2.497 7.47 3.63 12.044 3.63 4.573 0 8.33-1.133 12.043-3.63 2.291-1.54 5.807-5.244 7.76-8.174.457-.684.88-1.243.941-1.243.062 0 .155.136.208.302.112.352 1.753 1.944 2.004 1.944.337 0 .16.318-.313.563-2.189 1.13-7.354 5.905-8.942 8.265-2.51 3.73-3.63 7.446-3.63 12.035 0 4.59 1.121 8.31 3.63 12.035 1.543 2.29 5.248 5.803 8.18 7.755.685.456 1.245.879 1.245.94 0 .062-.142.157-.315.212-.173.055-.737.56-1.254 1.123l-.938 1.024-.822-1.233c-1.947-2.92-5.467-6.625-7.754-8.163-3.727-2.507-7.463-3.635-12.043-3.635-4.58 0-8.317 1.128-12.044 3.635-2.282 1.534-5.806 5.243-7.744 8.148l-.812 1.219-1.143-1.16a1052.21 1052.21 0 0 0-1.223-1.242c-.044-.044.462-.444 1.124-.89 2.94-1.977 6.612-5.465 8.14-7.733 2.509-3.725 3.631-7.444 3.631-12.035 0-4.59-1.122-8.309-3.632-12.035-1.539-2.285-5.247-5.802-8.168-7.747l-1.234-.822 1.024-.938c.563-.516 1.07-1.08 1.124-1.252.055-.174.15-.315.212-.315.061 0 .485.56.94 1.243Zm-8.765 33.12c-.476.08-1.515.362-2.31.628-4.9 1.64-8.481 5.52-9.844 10.666-.426 1.607-.428 5.315-.005 6.981.705 2.775 2.08 5.216 4.023 7.148a15.003 15.003 0 0 0 20.005 1.076c3.353-2.68 5.33-6.572 5.565-10.952.106-1.97-.233-4.315-.717-4.965-.43-.578-.994-.747-1.57-.471-.76.363-.905.865-.63 2.162.297 1.405.3 3.684.007 5.07-.518 2.443-1.558 4.317-3.462 6.241-1.175 1.187-1.604 1.498-3.052 2.213-.956.472-2.171.933-2.809 1.066-1.333.277-3.816.309-5.15.065-4.594-.838-8.655-4.818-9.637-9.445-.294-1.385-.289-3.87.011-5.336.143-.698.577-1.856 1.07-2.857.714-1.45 1.02-1.872 2.21-3.05 1.926-1.903 3.801-2.941 6.247-3.459 1.333-.282 3.618-.288 5.04-.013.85.164 1.172.167 1.538.013.88-.37 1.013-1.509.256-2.186-.693-.62-4.58-.96-6.786-.594Zm51.944.079c-1.749.315-2.36.93-1.988 1.998.266.76.86.948 2.19.69 1.421-.274 3.707-.268 5.04.014 2.452.52 4.33 1.562 6.231 3.458 2.347 2.343 3.532 5.196 3.534 8.516.001 1.852-.21 3.095-.759 4.475-1.548 3.89-4.936 6.81-8.866 7.643-1.384.293-3.87.289-5.34-.01-1.617-.328-4.166-1.625-5.415-2.754-3.367-3.045-4.865-7.523-3.954-11.82.258-1.215.162-1.693-.423-2.102-.985-.69-1.88-.085-2.233 1.512-.336 1.514-.294 5.234.074 6.576 1.283 4.683 4.006 8.086 8.022 10.027 2.12 1.024 3.522 1.38 5.848 1.484 2.196.098 3.79-.097 5.47-.669 4.808-1.635 8.26-5.222 9.774-10.153.393-1.28.434-1.655.443-4.059.011-2.956-.21-4.07-1.26-6.342-2.867-6.199-9.634-9.703-16.388-8.484ZM16.716 65.04c1.264.741 1.928 2.411 1.527 3.843-.856 3.056-5.108 3.384-6.445.497-.828-1.786.096-3.972 1.982-4.69.776-.295 2.104-.137 2.936.35Zm51.482-.371c2.518.754 3.223 4.111 1.23 5.86-1.719 1.508-4.245 1-5.31-1.07-.386-.747-.442-1.013-.371-1.746.12-1.243.766-2.213 1.85-2.779.924-.483 1.633-.555 2.6-.265Z" fill="#fff"/></svg>