<svg width="117" height="68" fill="none" xmlns="http://www.w3.org/2000/svg"><path d="M56.786 25.141a1.786 1.786 0 1 0 1.785 1.786h-.714a1.071 1.071 0 1 1-1.071-1.072v-.714Zm6.428 0v.714a1.071 1.071 0 1 1-1.071 1.072h-.714a1.786 1.786 0 1 0 1.785-1.786Zm-6.428-6.429a1.786 1.786 0 1 0 0 3.572v-.714a1.071 1.071 0 1 1 1.071-1.072h.714a1.787 1.787 0 0 0-1.785-1.786Zm6.428 0a1.788 1.788 0 0 0-1.785 1.786h.714a1.071 1.071 0 1 1 1.071 1.072v.714a1.786 1.786 0 1 0 0-3.572Z" fill="#fff"/><path d="M61.429 22.789v1.847l2.038 2.038a.356.356 0 0 1-.113.588.357.357 0 0 1-.392-.083l-1.607-1.607a1.419 1.419 0 0 1-2.71 0l-1.607 1.607a.357.357 0 1 1-.505-.505l2.038-2.038V22.79l-2.038-2.038a.357.357 0 1 1 .505-.505l1.607 1.607a1.42 1.42 0 0 1 2.71 0l1.607-1.607a.358.358 0 0 1 .505.505l-2.038 2.038Zm-.715-.505a.714.714 0 1 0-1.428 0v2.857a.714.714 0 1 0 1.428 0v-2.857Z" fill="#fff"/><path d="M21.08 14.362h-6.114V33h6.114c5.656 0 9.562-3.825 9.562-9.346 0-5.468-3.906-9.292-9.562-9.292Zm-.027 16.025h-3.151V16.974h3.151c3.906 0 6.6 2.694 6.6 6.653 0 4.013-2.694 6.76-6.6 6.76Zm23.685-5.952c2.02-.754 3.232-2.478 3.232-4.794 0-3.232-2.316-5.28-5.952-5.28H33.64V33h2.936v-7.245h5.387c1.885 0 3.043 1.32 3.043 3.232V33h2.936v-3.986c0-2.478-1.212-4.04-3.205-4.579Zm-3.017-1.05h-5.144v-6.41h5.144c1.994 0 3.233 1.211 3.233 3.177 0 1.967-1.24 3.232-3.233 3.232Zm18.296-9.266c-5.602 0-9.67 4.013-9.67 9.535 0 5.575 4.068 9.588 9.67 9.588 5.63 0 9.696-4.013 9.696-9.588 0-5.522-4.067-9.535-9.696-9.535Zm0 2.694c3.905 0 6.706 2.855 6.706 6.84 0 3.987-2.8 6.896-6.706 6.896-3.879 0-6.68-2.909-6.68-6.895 0-3.986 2.801-6.841 6.68-6.841ZM72.512 33h2.936V21.364c0-2.747 1.724-4.551 4.363-4.551 2.64 0 4.364 1.804 4.364 4.552V33h2.936V21.203c0-4.229-2.963-7.084-7.3-7.084-4.336 0-7.299 2.855-7.299 7.084V33Zm31.158-16.026v-2.612H90.85V33h12.82v-2.613h-9.885V24.84h9.077v-2.505h-9.076v-5.36h9.884ZM26.332 37.362v8.08h-8.43v-8.08h-2.936V56h2.936v-7.946h8.43V56h2.936V37.362h-2.936Zm15.589-.243c-5.603 0-9.67 4.013-9.67 9.535 0 5.575 4.067 9.588 9.67 9.588 5.629 0 9.696-4.013 9.696-9.588 0-5.522-4.067-9.535-9.696-9.535Zm0 2.694c3.905 0 6.706 2.855 6.706 6.84 0 3.987-2.8 6.896-6.706 6.896-3.879 0-6.68-2.909-6.68-6.895 0-3.986 2.801-6.841 6.68-6.841Zm26.905-2.451H65.89v11.662c0 2.72-1.75 4.525-4.364 4.525-2.639 0-4.363-1.805-4.363-4.525V37.362h-2.936v11.797c0 4.228 2.963 7.083 7.3 7.083 4.336 0 7.299-2.855 7.299-7.083V37.362Zm9.808-.243c-4.013 0-6.787 2.101-6.787 5.468 0 6.949 10.989 3.555 10.989 8.188 0 1.858-1.697 3.07-4.148 3.07-2.801 0-4.418-1.562-4.444-3.69h-2.936c.107 3.636 2.855 6.087 7.245 6.087 4.283 0 7.272-2.127 7.272-5.575 0-7.138-10.989-3.61-10.989-8.242 0-1.804 1.535-2.909 3.717-2.909 2.343 0 3.852 1.293 3.932 3.448h2.855c-.08-3.582-2.828-5.845-6.706-5.845Zm22.985 2.855v-2.612h-12.82V56h12.82v-2.613h-9.885V47.84h9.077v-2.505h-9.077v-5.36h9.885Z" fill="#fff"/><rect x="1.5" y="1.5" width="114" height="65" rx="8.5" stroke="#fff" stroke-width="3"/></svg>