<svg width="29" height="29" fill="none" xmlns="http://www.w3.org/2000/svg"><g clip-path="url(#a)"><path d="M25.82 26.283c-4.437 3.623-18.293 3.623-22.64 0-4.437-3.622-3.985-19.108 0-23.184 3.985-4.075 18.656-4.075 22.64 0 3.985 4.076 4.438 19.562 0 23.184Z" fill="#5C0510"/><path d="M14.591 19.944c-3.984 3.17-8.422 4.8-12.588 4.89C-1.076 19.582-.442 6.812 3.181 3.1 6.44-.25 16.674-.885 22.56 1.198c1.449 5.977-1.54 13.584-7.97 18.746Z" fill="#fff" opacity=".2"/><path d="M12.416 22.57c-.634 0-1.268-.271-1.63-.815l-5.071-6.52c-.725-.906-.544-2.174.362-2.898.905-.725 2.173-.544 2.898.362l3.441 4.438 7.607-9.872c.725-.905 1.993-1.086 2.898-.362.906.725 1.087 1.992.363 2.898l-9.238 11.954c-.453.453-.996.815-1.63.815Z" fill="#fff"/></g><defs><clipPath id="a"><path fill="#fff" d="M0 0h29v29H0z"/></clipPath></defs></svg>