<svg width="1461" height="357" fill="none" xmlns="http://www.w3.org/2000/svg"><g opacity=".17"><mask id="a" style="mask-type:alpha" maskUnits="userSpaceOnUse" x="0" y="0" width="1461" height="357"><rect width="1461" height="357" rx="8" fill="#EC3361"/></mask><g mask="url(#a)"><path fill-rule="evenodd" clip-rule="evenodd" d="m-188.97 1346.34 586.717-586.557c16.488-16.566 16.495-43.336.027-59.915-16.584-16.47-43.354-16.457-59.924.027L.674 1036.98c-16.87 13.39-41.094 12.04-56.38-3.13-16.475-16.58-16.461-43.348.027-59.914l440.754-440.64c16.488-16.566 16.495-43.329.027-59.909-16.583-16.47-43.353-16.456-59.923.028l-71.299 71.28c-16.474 16.606-43.292 16.715-59.903.245-16.611-16.47-16.72-43.281-.246-59.888l.246-.245 179.601-179.555c16.488-16.565 16.495-43.335.027-59.908-16.584-16.47-43.354-16.456-59.924.027l-777.309 777.079c-16.488 16.56-16.495 43.33-.027 59.91 16.583 16.47 43.36 16.46 59.924-.03l360.164-360.067c16.57-16.477 43.34-16.491 59.923-.021 16.475 16.579 16.461 43.343-.02 59.915l-289.467 289.383c-16.488 16.57-16.495 43.34-.027 59.92 16.584 16.46 43.354 16.45 59.924-.03l56.373-56.36c16.57-16.48 43.34-16.5 59.924-.03 15.177 15.29 16.522 39.5 3.134 56.37l-155.084 155.04c-16.488 16.57-16.502 43.34-.027 59.92 16.597 16.47 43.374 16.45 59.944-.03Z" fill="#FF6B90"/><path d="m2174.39-883.637-296.24 296.163c-16.58 16.477-43.36 16.47-59.94-.007-15.19-15.283-16.55-39.507-3.16-56.393l141.61-141.57c16.48-16.579 16.48-43.356-.01-59.929-16.57-16.484-43.36-16.484-59.94 0l-487.8 487.662c-16.48 16.58-16.48 43.356.01 59.929 16.58 16.484 43.36 16.484 59.94 0l141.61-141.57c16.89-13.385 41.12-12.027 56.4 3.16 16.49 16.573 16.49 43.343.02 59.922L896.213 394.211c-16.482 16.58-16.482 43.35 0 59.929 16.583 16.484 43.367 16.484 59.951 0l43.224-43.22c17.432-15.623 44.232-14.156 59.852 3.27 13.82 15.405 14.48 38.537 1.57 54.714L919.207 610.48c-16.481 16.58-16.481 43.357.007 59.929 16.584 16.484 43.36 16.484 59.944 0l487.792-487.662c16.48-16.579 16.48-43.356 0-59.929-16.59-16.483-43.36-16.483-59.95 0l-141.6 141.563c-18.3 14.6-44.97 11.604-59.57-6.689-12.91-16.176-12.24-39.308 1.57-54.721L2234.34-823.702c16.48-16.579 16.48-43.356 0-59.935-16.59-16.484-43.37-16.484-59.95 0ZM1213.04-42.02l151.78-151.74c16.48-16.579 16.48-43.356 0-59.929-16.59-16.483-43.36-16.483-59.95 0l-151.78 151.733c-16.48 16.58-16.48 43.35 0 59.93 16.59 16.483 43.36 16.483 59.95.006ZM1091.57-836.54 795.331-540.378c-16.583 16.477-43.367 16.471-59.944-.013-15.184-15.283-16.543-39.507-3.154-56.393l141.606-141.57c16.482-16.58 16.482-43.356-.007-59.929-16.576-16.484-43.367-16.484-59.944 0L326.093-310.614c-16.481 16.579-16.481 43.349 0 59.929 16.584 16.477 43.361 16.477 59.945 0l141.613-141.563c16.884-13.385 41.114-12.027 56.401 3.16 16.481 16.573 16.488 43.343.013 59.922l-770.673 770.474c-16.481 16.579-16.481 43.349 0 59.929 16.584 16.477 43.361 16.477 59.944 0l43.231-43.22c16.789-14.955 42.316-14.259 58.265 1.59C-9.977 474.89-8.618 499.114-22.007 516l-141.599 141.57c-16.482 16.58-16.482 43.35 0 59.929 16.583 16.477 43.36 16.477 59.944 0l487.788-487.655c16.481-16.579 16.481-43.349 0-59.929-16.584-16.477-43.361-16.477-59.944 0L182.568 311.478c-18.297 14.593-44.965 11.597-59.568-6.703-12.904-16.176-12.242-39.301 1.57-54.707L1151.52-776.605c16.48-16.579 16.48-43.356 0-59.935-16.59-16.484-43.37-16.484-59.95 0ZM130.216 5.077l151.779-151.74c16.482-16.58 16.482-43.349 0-59.929-16.583-16.477-43.36-16.477-59.944 0L70.265-54.859c-16.481 16.58-16.481 43.35 0 59.93 16.584 16.483 43.367 16.49 59.951.006Z" fill="#EC3760" stroke="#fff" stroke-width="5"/><path fill-rule="evenodd" clip-rule="evenodd" d="m999.763 353.865-74.248 74.229c-16.488 16.552-16.502 43.308-.041 59.887 16.584 16.457 43.347 16.443 59.903-.041l74.243-74.228c16.49-16.552 16.51-43.309.05-59.888-16.59-16.456-43.35-16.443-59.907.041Zm71.047-71.027c-16.48 16.552-16.5 43.308-.04 59.888 16.58 16.456 43.34 16.443 59.9-.041 16.49-16.552 16.5-43.309.04-59.888-16.58-16.457-43.35-16.443-59.9.041Z" fill="#EC3760"/></g></g></svg>