<svg width="13" height="13" fill="none" xmlns="http://www.w3.org/2000/svg"><g clip-path="url(#a)"><path d="M11.574 11.782c-1.99 1.624-8.2 1.624-10.15 0-1.989-1.624-1.786-8.566 0-10.393 1.787-1.827 8.364-1.827 10.15 0 1.786 1.827 1.989 8.769 0 10.393Z" fill="#5C0510"/><path d="M6.54 8.94c-1.787 1.421-3.776 2.152-5.643 2.193-1.38-2.355-1.096-8.08.528-9.744C2.886-.113 7.473-.397 10.112.537c.65 2.68-.69 6.09-3.572 8.403Z" fill="#fff" opacity=".2"/><path d="M5.566 10.118c-.284 0-.569-.122-.73-.366L2.561 6.83c-.325-.406-.244-.974.162-1.299.406-.325.974-.243 1.3.163l1.542 1.989 3.41-4.425c.325-.406.893-.487 1.299-.163.406.325.487.894.162 1.3l-4.14 5.358c-.203.203-.447.366-.731.366Z" fill="#fff"/></g><defs><clipPath id="a"><path fill="#fff" d="M0 0h13v13H0z"/></clipPath></defs></svg>