<svg width="76" height="88" fill="none" xmlns="http://www.w3.org/2000/svg"><path d="M13 25.25v37.5h50V28.375a15.519 15.519 0 0 1-9.334-3.125H13Z" fill="#EC3361"/><path d="M47.375 8.063 38 .25V6.5C17.29 6.5.5 23.29.5 44c0 16.05 10.086 29.737 24.262 35.09l2.799-2.334C13.68 72.336 3.625 59.346 3.625 44 3.625 25.016 19.015 9.625 38 9.625v6.25l9.375-7.813Z" fill="#BA284C"/><path d="M13 25.25h6.25v37.5H13v-37.5Z" fill="#BA284C"/><path d="M34.875 25.25v9.375L38 31.5l3.125 3.125V25.25h-6.25Z" fill="#5C0510"/><path d="M47.375 53.375h9.375V56.5h-9.375v-3.125ZM47.375 47.125h9.375v3.125h-9.375v-3.125Z" fill="#F0F0F0"/><path d="M68.134 27.49A34.185 34.185 0 0 1 72.375 44c0 18.984-15.39 34.375-34.375 34.375v-6.25l-9.375 7.813L38 87.75V81.5c20.71 0 37.5-16.79 37.5-37.5a37.27 37.27 0 0 0-4.534-17.831c-.893.53-1.838.975-2.832 1.322ZM63 25.25c6.904 0 12.5-5.596 12.5-12.5S69.904.25 63 .25s-12.5 5.596-12.5 12.5 5.596 12.5 12.5 12.5Z" fill="#EC3361"/><path d="M53.625 12.75c0-6.373 4.773-11.622 10.938-12.392A12.573 12.573 0 0 0 63 .25c-6.903 0-12.5 5.597-12.5 12.5s5.597 12.5 12.5 12.5c.53 0 1.05-.044 1.563-.108-6.165-.77-10.938-6.019-10.938-12.392Z" fill="#BA284C"/><path d="M70.813 9.625 61.437 19l-6.25-6.25 3.126-3.125 3.124 3.125 6.25-6.25 3.126 3.125Z" fill="#F0F0F0"/></svg>