<svg width="82" height="82" fill="none" xmlns="http://www.w3.org/2000/svg"><g clip-path="url(#a)"><path d="M37.952 19.858c-1.247 0-2.259 18.033-2.259 19.28 0 .795.412 1.493 1.033 1.895l23.27 23.27a31.779 31.779 0 0 0 8.46-13.925c-5.197-5.159-30.504-30.52-30.504-30.52Z" fill="url(#b)"/><path d="M37.953 43.194a1.797 1.797 0 1 0 0-3.594 1.797 1.797 0 0 0 0 3.594Z" fill="url(#c)"/><path d="M37.952 16.147a.788.788 0 0 0-.79.79v5.792a.786.786 0 0 0 .483.728.789.789 0 0 0 1.097-.728v-5.792a.79.79 0 0 0-.79-.79ZM37.952 59.274a.79.79 0 0 0-.79.79v5.792c0 .076.014.147.034.216a.787.787 0 0 0 1.546-.216v-5.792a.79.79 0 0 0-.79-.79ZM62.412 40.607H56.62a.79.79 0 1 0 0 1.58h5.792a.79.79 0 1 0 0-1.58ZM20.076 41.397a.786.786 0 0 0-.79-.79h-5.793a.787.787 0 0 0-.79.79c0 .436.354.79.79.79h5.792a.788.788 0 0 0 .79-.79ZM51.712 28.755l4.096-4.096a.79.79 0 0 0-1.117-1.117l-4.096 4.096a.79.79 0 1 0 1.117 1.117ZM25.31 54.038a.79.79 0 0 0-1.116 0l-4.096 4.096a.79.79 0 0 0-.023 1.09c.008.008.014.018.023.027.15.15.346.227.544.23l.014.002a.788.788 0 0 0 .559-.232l4.096-4.096a.786.786 0 0 0 .23-.558.786.786 0 0 0-.23-.559ZM55.807 58.134l-4.095-4.096a.782.782 0 0 0-.335-.195.785.785 0 0 0-.783.195.79.79 0 0 0 0 1.117l4.097 4.096a.784.784 0 0 0 .15.115.782.782 0 0 0 1.186-.563.787.787 0 0 0-.22-.67ZM21.216 23.543a.787.787 0 0 0-1.117 0 .788.788 0 0 0 0 1.116l4.095 4.096.023.019c.072.067.152.12.239.155a.79.79 0 0 0 .855-1.291l-4.095-4.096Z" fill="#EC3361"/><path d="M66.695 54.998a30.281 30.281 0 0 1-1.325 2.498 31.576 31.576 0 0 1-3.27 4.58 32.18 32.18 0 0 1-4.217 4.093L35.518 43.83a3.44 3.44 0 0 1 .183-5.038 3.434 3.434 0 0 1 4.857.356h.002l.123.006c.076.006.16.01.249.016a72.16 72.16 0 0 1 2.554.213c.173.017.35.033.53.053l.468.048.35.038c.187.02.374.042.563.064a85.914 85.914 0 0 1 3.081.407c.018.002.038.004.056.008.139.022.276.044.412.064.135.024.268.046.4.068.087.016.175.03.262.045.133.024.267.048.398.074l.195.036.392.08.115.023.153.034c.024.004.048.01.072.016l.217.05.143.034c.185.047.358.093.521.139l.111.034c.03.008.058.017.086.026l.121.04c.014.003.028.007.042.013.08.028.153.054.223.082.006.002.012.006.02.008.038.015.075.032.111.045.086.038.161.074.23.112l.08.05a.757.757 0 0 1 .221.204c.002.004.005.006.005.008a.2.2 0 0 1 .022.056.17.17 0 0 1 .007.054l13.602 13.6Z" fill="url(#d)"/><path d="M40.212 43.655a2.259 2.259 0 0 1 0-4.517c1.247 0 12.881 1.011 12.881 2.259 0 1.247-11.634 2.258-12.881 2.258Z" fill="#EC3361"/><path d="M40.211 39.138a2.259 2.259 0 0 1-4.518 0c0-1.248 1.012-19.28 2.26-19.28 1.247 0 2.258 18.032 2.258 19.28Z" fill="#EC3361"/><path d="M37.954 44.841a3.444 3.444 0 1 0 0-6.888 3.444 3.444 0 0 0 0 6.888Z" fill="#EC3361"/><path d="M36.373 68.65c-.98 1.291-1.47 2.612-1.47 3.963v.429c1.003.096 2.02.146 3.05.146 7.547 0 14.479-2.63 19.93-7.02a32.175 32.175 0 0 0 5.694-5.953l-12.108-12.1c-1.878-1.675-4.155-2.512-6.83-2.512-2.524 0-4.695.743-6.513 2.231-1.819 1.488-2.728 3.404-2.728 5.748 0 1.16.311 1.938.93 2.34l6.86 6.894-3.192 2.323c-1.434 1.051-2.642 2.222-3.623 3.512Z" fill="url(#e)"/><path d="M34.902 76.98v-4.367c0-1.351.49-2.672 1.471-3.962.98-1.29 2.189-2.461 3.623-3.512l4.328-3.15c1.443-1.05 2.667-2.205 3.674-3.465 1.007-1.26 1.51-2.52 1.51-3.78a4.87 4.87 0 0 0-1.24-3.307c-.826-.944-2.036-1.417-3.628-1.417-1.353 0-2.45.374-3.29 1.12-.843.745-1.263 1.85-1.263 3.31 0 .478-.233.897-.699 1.255-.466.358-1.075.537-1.826.537-1.442 0-2.163-.887-2.163-2.66 0-2.344.908-4.26 2.727-5.748 1.818-1.488 3.99-2.231 6.514-2.231 2.674 0 4.95.837 6.83 2.512 1.877 1.675 2.817 3.84 2.817 6.495 0 1.8-.504 3.487-1.51 5.062a15.56 15.56 0 0 1-3.652 4.004 96.148 96.148 0 0 1-4.282 3.105c-1.428.975-2.645 1.958-3.652 2.947-1.007.99-1.51 1.95-1.51 2.88v1.71h13.254c.42 0 .788.203 1.104.609.316.405.474.894.474 1.465 0 .571-.158 1.075-.471 1.51-.314.436-.68.654-1.097.654H37.007c-.478 0-.948-.15-1.41-.45-.464-.3-.695-.675-.695-1.126ZM54.693 69.377c0-.33.09-.66.271-.99l10.91-21.479c.45-.87 1.141-1.305 2.073-1.305.51 0 1.037.18 1.578.54.54.362.811.797.811 1.308 0 .18-.076.421-.225.721L60.824 66.7h6.627v-6.257c0-1.058.796-1.587 2.39-1.587.66 0 1.223.137 1.69.409.465.272.698.664.698 1.178V66.7h2.21c.51 0 .908.223 1.194.67.285.446.428.967.428 1.561 0 .536-.166 1.034-.496 1.495-.331.461-.706.692-1.127.692H72.23v5.85c0 .485-.24.87-.721 1.157-.481.288-1.037.431-1.668.431-.662 0-1.225-.143-1.69-.43-.467-.288-.7-.673-.7-1.158v-5.85H56.362c-.481 0-.879-.156-1.194-.469-.316-.313-.474-.737-.474-1.272Z" fill="#EC3361"/><path d="M79.327 35.954h-3.814c-2.648-18.358-18.481-32.51-37.56-32.51C17.025 3.444 0 20.47 0 41.397a38.048 38.048 0 0 0 8.387 23.797c5.326 6.61 12.791 11.294 21.019 13.188a2.982 2.982 0 1 0 1.339-5.815c-6.93-1.595-13.22-5.543-17.712-11.117-4.623-5.736-7.066-12.67-7.066-20.053 0-17.637 14.349-31.985 31.986-31.985 15.781 0 28.928 11.489 31.52 26.542h-3.147c-2.377 0-3.568 2.874-1.887 4.554l6.5 6.501a2.668 2.668 0 0 0 3.774 0l6.5-6.5c1.681-1.681.49-4.555-1.886-4.555Z" fill="#EC3361"/></g><defs><linearGradient id="b" x1="50.824" y1="42.289" x2="16.71" y2="38.46" gradientUnits="userSpaceOnUse"><stop stop-color="#C3C3C3" stop-opacity="0"/><stop offset=".267" stop-color="#A4A4A4" stop-opacity=".267"/><stop offset=".542" stop-color="#8B8B8B" stop-opacity=".542"/><stop offset=".794" stop-color="#7C7C7C" stop-opacity=".794"/><stop offset="1" stop-color="#777"/></linearGradient><linearGradient id="c" x1="37.952" y1="40.518" x2="37.952" y2="45.88" gradientUnits="userSpaceOnUse"><stop stop-color="#F18D00"/><stop offset="1" stop-color="#ED7103"/></linearGradient><linearGradient id="d" x1="50.501" y1="48.755" x2="36.613" y2="33.5" gradientUnits="userSpaceOnUse"><stop stop-color="#C3C3C3" stop-opacity="0"/><stop offset=".267" stop-color="#A4A4A4" stop-opacity=".267"/><stop offset=".542" stop-color="#8B8B8B" stop-opacity=".542"/><stop offset=".794" stop-color="#7C7C7C" stop-opacity=".794"/><stop offset="1" stop-color="#777"/></linearGradient><linearGradient id="e" x1="49.524" y1="66.914" x2="30.579" y2="47.969" gradientUnits="userSpaceOnUse"><stop stop-color="#C3C3C3" stop-opacity="0"/><stop offset=".267" stop-color="#A4A4A4" stop-opacity=".267"/><stop offset=".542" stop-color="#8B8B8B" stop-opacity=".542"/><stop offset=".794" stop-color="#7C7C7C" stop-opacity=".794"/><stop offset="1" stop-color="#777"/></linearGradient><clipPath id="a"><path fill="#fff" d="M0 0h82v82H0z"/></clipPath></defs></svg>